<?xml version="1.0" encoding="utf-8"?>
<!-- Generator: Adobe Illustrator 19.0.1, SVG Export Plug-In . SVG Version: 6.00 Build 0)  -->
<svg version="1.1" id="Слой_1" xmlns="http://www.w3.org/2000/svg" xmlns:xlink="http://www.w3.org/1999/xlink" x="0px" y="0px"
	 viewBox="0 0 500 329.7" style="enable-background:new 0 0 500 329.7;" xml:space="preserve">
<g>
	<g>
		<g>
			<path d="M113.3,273.7c-1.2,0.1-1.2,1.2-1.4,2c-1,2.8-1.7,5.8-2.7,8.6c-1.9,5-4,10-6,15c-0.1,0.3-0.4,0.5-0.6,0.8
				c-0.8-0.5-0.7-1.2-0.5-1.9c0.9-2.8,1.9-5.6,2.8-8.3c0.7-1.8,1.4-3.7,2.1-5.5c1.2-3.1,2.4-6.2,3.6-9.3c0.4-1,0.6-2,1.1-2.9
				c1.2-2,0.7-3.6-0.7-5.2c-0.8-0.9-1.4-2-2.2-3.1c-1,0.5-2.5-0.2-2.9,1.6c0,0.1-0.2,0.2-0.3,0.2c-1.9-0.6-1.9,1.1-2.1,2
				c-0.8,2.9-1.5,5.8-2.1,8.7c-0.4,2-0.8,4-1.6,5.9c-0.9,2-1.3,4.2-0.4,6.4c0.2,0.4,0.1,0.9,0.2,1.5c-0.5-0.2-0.9-0.3-1.3-0.4
				c-0.1,0.1-0.2,0.2-0.3,0.3c-0.8,3.7-1.5,7.4-2.3,11c-0.1,0.4-0.2,0.8-0.4,1.1c-0.2,0.2-0.6,0.3-0.9,0.3c-0.3-0.1-0.6-0.4-0.7-0.6
				c-0.1-0.4-0.1-0.8,0-1.2c0.3-1.2-0.1-2.2-1-3c-0.1-0.1-0.5-0.3-0.4-0.4c0.5-2-1.2-3.3-1.8-4.8c-1.1-2.6-2.5-5-3.8-7.6
				c-0.5,0.4-0.9,0.7-1.4,1.1c-1-0.6-0.7-1.3-0.5-2.2c0.3-1,0.9-2-0.2-3.5c-0.3,0.7-0.5,1.2-0.8,1.6c-0.4-0.2-0.6-0.3-0.6-0.3
				c0-0.7-0.2-1.4,0-2c0.5-1.5,0.2-2.8-0.4-4.2c-1.5-3.9-3-7.8-3.8-11.9c-0.4-1.7-0.1-3.3,0.5-5c0.3-0.9,0.6-1.8,0.5-2.8
				c-0.3-5.8-0.1-11.6,0.6-17.4c0.1-1.2-0.1-2.2-1.2-3c-4-2.8-8.2-5.2-12.8-6.8c-1.9-0.7-3.7-1.3-5.7-2c-0.3,0.4-0.6,0.9-1,1.1
				c-0.5,0.1-1.1,0-1.6-0.2c-1.8-0.8-3.5-1.5-5.2-2.4c-3.8-2-7.6-4.1-11.3-6.3c-1.6-0.9-2.5-2.4-3.2-4.1c-1.3-3.4-3-6.7-4.5-10.1
				c-0.9-2.2-1.7-4.5-2.7-6.7c-0.3-0.7-0.9-1.4-1.5-2c-0.1-2,0.8-3.7,2.1-5.2c2.4-2.8,5.2-5,8.4-6.9c2.3-1.4,5-1.3,7.6-1.4
				c0.6,0,1.3,0,2.3,0c-1.6-2.4-2.9-4.4-4.2-6.4c-0.5-0.7-0.9-1.5-1.4-2.3c-0.7-1-0.9-2.1-0.5-3.3c0.1-0.4,0.2-0.8,0.2-1.2
				c-0.2-1.7,0.4-3.2,1.4-4.6c0.7-0.9,0.7-1.9,0.5-3c-1.1-7.5-1.6-15-1.7-22.5c-0.1-2.5-0.4-4.9-1.5-7.2c-0.6-1.3-0.9-2.7-0.3-4.2
				c0.2-0.5,0.1-1.1,0-1.6c-0.6-4.8-1.4-9.6-1.8-14.5c-0.5-5.9-0.6-11.9-0.9-17.8c-0.1-2.4-0.4-4.9-0.6-7.4c-0.6,0-1.1,0-1.6,0
				c-0.1-0.3-0.2-0.5-0.1-0.7c0.6-2,0.1-3.9-0.5-5.8c-0.5-1.5-0.7-3.2-1-4.8c-0.1-0.4,0.1-0.9,0.2-1.3c0.1,0,0.3,0,0.4-0.1
				c0.6,1.9,1.1,3.9,1.7,5.8c0.1,0,0.3,0,0.4,0c0.1-0.3,0.3-0.6,0.4-0.9c2.2-7.2,4.4-14.4,6.6-21.6c0.4-1.4,1.1-2.6,1.6-4
				c1-2.3,2.2-4.5,3.6-6.6c0.1-0.2,0.4-0.6,0.3-0.7c-0.7-1.5,0.6-2.2,1.3-3.2c2.3-3.1,4.7-6.1,6.3-9.6c0.2-0.5,0.5-1,0.9-1.3
				c2.2-1.6,4-3.5,6.4-4.8c3.2-1.7,6.2-3.7,9.4-5.5c3.9-2.3,7.9-4.6,11.9-6.9c1.8-1.1,3.4-2.3,5.1-3.5c2.2-1.7,4.7-2.1,7.5-2.1
				c6.7,0.1,13.4,0.3,20-0.3c5.1-0.5,10.1,0.5,15.1,1c0.6,0.1,1.2,0.2,1.8,0.2c6.9-0.2,13.8,1.2,20.6,1.9c0.7,0.1,1.5,0.3,2.2,0.4
				c1,0.2,1,0.2,1.7-1c0.2,0.1,0.6,0.1,0.7,0.3c0.8,1,1.7,1.4,3,1.4c1,0,1.7,0.6,2.3,1.7c1.3,2.1,3,3.9,4.6,5.8
				c1.8,2.2,3.6,4.3,5.3,6.5c1.8,2.2,3.5,4.5,5.2,6.7c0.3-0.1,0.7-0.3,0.8-0.2c0.4,0.3,0.7,0.7,0.9,1.1c1.2,1.9,2.3,3.9,3.5,5.8
				c1.2,1.9,2.1,3.9,3.6,5.5c1.6,1.7,2.6,3.8,4,5.7c1.4,2,2.8,4.1,4.2,6.1c2.4,3.3,4.8,6.6,7.2,9.9c0.3,0.4,0.8,0.7,1.2,1.1
				c0.3,0.2,0.6,0.3,0.8,0.6c1.9,2.2,4.6,3.5,6.2,6c1.6,2.5,3.3,4.8,4.9,7.3c1,1.5,1.9,3.1,2.8,4.7c0.5-0.2,0.9-0.4,1.3-0.5
				c0.1,0.2,0.3,0.3,0.4,0.5c0.3,1.3,1.1,2.3,2.1,3.1c0.9,0.7,1.5,1.9,2.2,2.9c0.6,0.8,1.1,1.6,1.8,2.2c2,2.1,4.1,4,6.1,6.1
				c0.5,0.5,0.8,1.3,1,1.9c0.3,0.8,0.6,1.6,0.8,2.5c0.1,0.3-0.2,0.7-0.4,1.2c0.8,0.8,1.9,1.5,1.5,3c-0.1,0.4,0.4,0.9,0.7,1.6
				c-0.5-0.3-0.9-0.5-1.4-0.8c-1.5,3.3-3.1,6.5-6.8,8.1c0.2,1.4,0.3,2.9,0.5,4.3c0.1,0.8,0.7,0.8,1.4,0.8c1.3-0.1,2.6-0.2,3.9-0.2
				c1.3,0,2.3,0.5,2.7,1.8c0.6,1.7,1.3,3.3,1.7,5c0.2,1-0.1,2.1-0.2,3.2c-0.2,1.9-0.6,3.8-0.7,5.7c-0.4,5.2-0.5,10.4-1,15.5
				c-0.3,3.5-1.1,6.9-1.7,10.3c-0.2,1.4-0.4,2.7,1.2,3.5c0.3,0.2,0.5,0.8,0.5,1.2c0.3,4.7,0.6,9.4,0.7,14.1c0,5.7-0.3,11.5-1.3,17.2
				c-0.1,0.7-0.2,1.4,0.2,2.1c0.3,0.5,0.3,1.4,0.1,1.9c-0.8,2.2-0.2,4.2,0.7,6.1c2.9,6.4,4.7,13.1,6.1,19.9
				c1.6,7.8,1.7,15.6,1.2,23.5c-0.2,3.8-1.2,7.6-1.8,11.3c-0.2,1-0.6,1.9-1.8,2.9c1.8-12.3,1.2-24.1-0.7-35.8
				c-0.7,2.1-0.1,4.3-0.7,6.4c-0.3-4.4-0.6-8.8-0.8-13.2c-0.1,0-0.3,0-0.4,0c0,0.8-0.1,1.6-0.1,2.4c-0.1,3-0.2,6-0.2,9
				c0,0.4-0.1,0.8,0.1,1.2c0.8,2.9,0.3,5.7,0,8.6c0,0.1,0,0.3-0.1,0.4c-0.3,1.6-0.2,3,1.5,3.5c0.1,5.1,0.3,10.1,0.4,15.1
				c0,1-0.1,1.9-0.2,2.9c0,0.4-0.2,0.8-0.4,1.4c-0.9-1.6-0.3-3-0.4-4.4c-0.1-1.4,0-2.8,0-4.3c-0.1,0-0.3-0.1-0.4-0.1
				c-0.2,0.4-0.5,0.7-0.6,1.1c-0.5,2.1-0.7,4.3-1.4,6.4c-1.1,3.3-1.5,6.8-3.1,9.9c-0.2,0.4-0.1,0.9-0.3,1.4
				c-0.2,0.8-0.4,1.8-0.9,2.2c-1.5,1.4-1.5,3.1-1.4,4.8c0,0.8,0,1.7-1.2,1.8c0.1,0.6,0.2,1.2,0.3,2.2c1.9-3.7,3.6-7.1,5.4-10.4
				c1.7-3.3,2.6-7,4.6-10.1c0.2,0.1,0.3,0.1,0.5,0.2c-0.5,1.7-0.8,3.5-1.4,5.2c-2,5.3-4.2,10.5-7.2,15.4c-0.2,0.4-0.6,0.8-0.6,1.3
				c-0.2,2-1.4,3.3-2.8,4.5c-1.2,1-2.7,1.7-3,3.5c-2.9-0.7-4.4,1.3-6.3,2.7c-0.3,0.2-0.2,1-0.4,1.5c-0.2,0.5,0,1.3-0.9,1.3
				c0,0,0,0,0,0c0-0.3,0.1-0.9,0-0.9c-0.7-0.2-1.6-0.7-2.2-0.4c-0.9,0.4-1.5,1.2-2.2,1.8c-0.7,0.1-1.4,0-2,0.3
				c-1.7,0.8-3.4,1.7-5.2,2.5c-5.7,2.5-11.6,4.4-17.8,5.3c-1.6,0.2-3.1,0.5-4.6,0.8c-0.5,0.1-1,0.2-1.3,0.5c-0.7,0.7-1.4,1-2.3,0.2
				c-0.1-0.1-0.5-0.1-0.8,0c-3.7,0.8-7.6,0.6-11.4,0.8c-3.8,0.2-7.7,0.2-11.5,0.1c-1.1,0-1.6,0.3-1.9,1.3c-0.6,1.7-1.3,3.4-2,5.1
				c-0.3,0.7-0.8,1.4-0.8,2.1c0.1,1.6-1.1,2.4-2.1,3.4c0.4-1.1,0.8-2.2,1.2-3.4c0.4-1.2,0.9-2.3,1.3-3.5c0.4-1.2,0.5-2.5,1-3.7
				c0.3-0.9,0.1-1.4-0.8-2.1c1.3-0.3,1.7-1.1,2-2.1c1-3.4,2-6.8,3-10.2c0.5-1.6,0.8-3.3,0.9-5c-0.3,0.6-0.6,1.2-0.8,1.9
				c-1.5,4-3,8.1-4.6,12.1c-1.2,3-2.7,6-3.9,9c-0.5,1.2-0.8,2.4-1.3,3.6c-0.1,0.3-0.4,0.5-0.7,0.9c-0.4-1.8,0.3-3.1,0.7-4.4
				c0.7-2.5,1.6-4.9,2.5-7.4c0.4-1.1,0.5-2.1-0.1-3.1c-0.3,0-0.7-0.1-1-0.1c-0.1-0.2-0.2-0.4-0.1-0.5c1.4-4.7,2.9-9.4,4.3-14.1
				c0.1-0.5,0.2-0.9,0.3-1.4c0.1-0.8-0.4-1.3-1-1.2c-1,0.1-1.7,0-2.4-0.8c-0.6-0.6-1.5-0.9-2.4-1.5c-0.4,0.6-0.9,1.2-1.3,1.8
				c-1.6,2.8-2.1,5.9-2.8,9c-0.9,3.7-1.7,7.3-2.6,11c-0.2,0.7-0.5,1.4-0.8,2.2c-1-0.7-1-1.4-0.8-2.2c0.6-2.9,1.2-5.9,1.6-8.9
				c0.4-3.1-0.1-6.2-0.3-9.3c-1.7,7-2.4,14.3-4.8,21.1c-0.1,0.2-0.3,0.3-0.6,0.6c-0.3-0.5-0.6-1-0.7-1.4c0-0.9,0.1-1.9,0.3-2.8
				c1.3-6.5,2.7-13,4-19.5c0.2-1.1,0.6-2.3,0.8-3.4c0.2-1.3,0.1-1.5-1.6-2.3c-1.1,5.2-2.2,10.3-3.3,15.4c-1.1,5.1-1.8,10.2-3.5,15.1
				c-1.1-0.1-1.2-0.7-1.1-1.4c0.1-1,0.2-2,0.4-3c0.5-2.5,1-4.9,1.6-7.4c0.4-1.9,1-3.7,1.4-5.5c0.5-2.1,1-4.1,1.5-6.2
				c0.5-2.1,0.9-4.1,1.4-6.2c0.4-1.9,0.4-1.9-1.8-2.6c-0.1,0.4-0.3,0.7-0.4,1.1c-0.4,2.6-0.8,5.1-1.3,7.7c-1.2,5.7-2.4,11.3-3.8,17
				c-0.4,1.7-0.8,3.6-1.8,5.3c-1.3-1.2-0.9-2.5-0.7-3.6c0.2-1.9,0.7-3.7,1.1-5.6c0.8-3.2,1.6-6.3,2.5-9.5c1.1-3.9,2.1-7.7,3.3-11.6
				c0.3-1,0-1.7-1-2.2c-1.3-0.6-2.5-1.3-3.8-2c-2.1,0.4-2.4,2.3-2.5,3.8c-0.4,6.1-2.7,11.8-3.9,17.8c-0.5,2.6-1.1,5.2-1.6,7.8
				c-0.2,0.9-0.3,1.9-1.3,2.4c-0.9-0.3-0.8-1-0.8-1.7c0.4-4,1-8,2.4-11.8c0.8-2.2,1.5-4.6,1.8-6.9c0.2-1.5-0.3-3.2-0.4-4.8
				c-0.1,0-0.3-0.1-0.4-0.1c-0.9,2-1.8,3.9-2.7,5.9c-2.6,5.5-5.2,11-7.8,16.5c-0.7,1.5-1.4,3.2-2.2,4.6c-0.7,1.2-1.6,2.2-2.5,3.2
				c-0.2,0.2-0.7,0.1-1.1,0.2c0-0.4-0.1-0.8,0-1.1c3.4-7.1,6.9-14.1,10.3-21.2c1.3-2.6,2.6-5.1,3.7-7.7c0.9-2,1.5-4.1,2.2-6.2
				c0.4-1,0.7-2,0.9-3c-4.9,10.8-10.1,21.4-16.5,31.3c2.8-8.5,7.5-16.3,10.5-24.8c-3.4,6.2-6.7,12.4-10.1,18.6
				c-0.2-0.1-0.4-0.2-0.5-0.2c0.4-1.1,0.8-2.1,1.2-3.2c0.3-0.9,0.5-1.9,0.8-2.8c1.2-2.6,2.5-5.2,3.6-7.8c0.4-1,0.7-2.1,1.1-3.1
				c0.2-0.6,0.7-1.1,1-1.7c0.9-2.3,1.6-4.6,2.5-6.8c0.2-0.6,0.5-1.1,0.8-1.7c0.8,0,1.6,0,2.4,0c0-0.1,0.1-0.2,0.1-0.3
				c-1.3-1-2.7-1.9-4.2-3.1c-0.8,1.4-1.5,2.7-2.1,4c-0.7,1.7-1.2,3.4-0.6,5.3c0.2,0.8,0.5,1.8-0.5,2.5c-0.4-0.3-0.9-0.6-1.4-0.9
				c-2.6,3.3-2.8,7.7-4.9,11.3c-0.9-0.7-0.7-1.5-0.5-2.1c0.3-1.4,0.8-2.7,1.2-4.1c1.3-4.8,2.5-9.6,3.7-14.4
				c-0.2-0.1-0.4-0.1-0.6-0.2c-1.2,3.8-2.4,7.5-3.5,11.3c-1.1,3.7-2.2,7.5-4.1,11.1c-1-0.8-0.7-1.6-0.5-2.2c1.2-4,2.5-8,3.7-11.9
				c1.2-3.7,2.4-7.4,3.5-11.1C113.1,274,113.2,273.9,113.3,273.7c0.1-0.8,0.3-1.5,0.5-2.3C113.2,272.1,112.8,272.8,113.3,273.7z
				 M144,117.1c0.1,0.6,0.2,1.1,0.4,1.7c0.1-0.1,0.3-0.1,0.4-0.2C144.5,118.1,144.2,117.6,144,117.1c-0.3-0.6-0.6-1.3-0.9-2
				c-0.3-0.8-0.6-1.7-0.9-2.5c-0.1,0.1-0.3,0.1-0.4,0.2c0.5,0.7,0.9,1.5,1.4,2.2C143,115.9,143.3,116.6,144,117.1z M154.8,115.7
				c0.3-0.9,0-1.6-0.6-2.3c-0.4-1.2-0.8-2.5-1.2-3.7c-0.7-1.9-1.5-3.7-2.3-5.7c-0.2,0-0.5,0.1-0.9,0.2c0.1,0.3,0.1,0.5,0.1,0.7
				c1.2,2.5,2.4,5.1,3.6,7.6c0.2,0.3,0.5,0.6,0.7,0.9C154.4,114.2,154.6,115,154.8,115.7c0.2,0.6,0.4,1.2,0.7,1.8
				c0.1-0.1,0.2-0.1,0.4-0.2C155.7,116.7,155.8,115.9,154.8,115.7z M150.6,110.1c-0.3,0.8,0,1.3,0.7,1.7
				C151.1,111.2,150.8,110.7,150.6,110.1c-0.3-1.4-1.1-2.6-1.9-3.7c0.3,1,0.6,1.9,1,2.8C149.9,109.6,150.3,109.8,150.6,110.1z
				 M198.9,169.9c0.2-1.5-0.7-2.7-1.4-3.9c0.1,1.2,0.4,2.4,0.8,3.5C198.4,169.6,198.8,169.7,198.9,169.9c-0.6,0.1-1.3,0.2-2.1,0.3
				c0.1,0.4,0.2,0.9,0.3,1.6c0.8-0.4,1.4-0.7,1.9-1C199.6,170.5,199.3,170.2,198.9,169.9z M185,105.2c-0.1,1.4,0.3,2.7,1.1,4
				C186.2,107.8,185.8,106.4,185,105.2c-0.2-1.1-0.3-2.3-0.5-3.6c-0.4,0-0.8,0-1.4,0.1C183.8,103,184.4,104.1,185,105.2z
				 M122.8,123.5c0-0.4,0.2-0.8,0.1-1.2c-0.9-2.6-2.3-4.9-3.7-7.2c-0.1,0.1-0.3,0.1-0.4,0.2C120.1,118.1,121.4,120.8,122.8,123.5
				c1.3,2.9,2.5,5.9,3.8,8.8c0.1,0,0.3-0.1,0.4-0.1c0-0.4,0-0.8-0.1-1.1c-1-2.3-2.1-4.6-3.2-6.8C123.5,124,123,123.8,122.8,123.5z
				 M228.2,283.3c-0.7,1.5-1.6,3-2,4.6c-0.4,1.6-1.5,3.1-1.1,4.9c1.2-3.1,2.7-6,3.1-9.3C228.2,283.4,228.2,283.3,228.2,283.3
				c0.2-0.3,0.6-0.5,0.8-0.8c0.4-1.1,0.8-2.3,1.1-3.4c0.1-0.4,0.1-0.7,0.1-1.1C229.3,279.6,228.3,281.3,228.2,283.3z M146.2,111.2
				c0.1-0.1,0.2-0.3,0.2-0.4c-0.5-1.8-1-3.6-1.5-5.4c0-0.1-0.6,0-1.1,0C144.6,107.4,145.4,109.3,146.2,111.2
				c2.3,6.6,3.6,9.5,4.8,10.3c0-0.4,0-0.8-0.1-1c-1.3-3-2.6-5.9-4-8.9C146.9,111.3,146.5,111.3,146.2,111.2z M176.1,110.5
				c-0.3,0.6-0.4,1.1,0.5,1.8C176.4,111.4,176.3,111,176.1,110.5c-1.1-2.9-2.2-5.8-3.3-8.9c-1.3,0.1-2.4,0.2-3.6,0.4
				c1.5,3.8,2.9,7.4,4.3,10.9c0,0.1,0.3,0.2,0.8,0.4c-0.2-0.8-0.3-1.4-0.5-1.9c-0.9-2.4-1.9-4.8-2.9-7.2c-0.4-0.9-0.5-1.7,0.8-2.2
				c1.1,2.5,2.2,5,3.3,7.5C175.4,109.9,175.3,110.7,176.1,110.5z M187.3,298.7c-1.5,0.1-1.8-1.5-2.7-2.6c0.1,1.1,0.1,1.8,0.2,2.6
				c-2.1-0.3-1.8-2.4-2.9-3.3c-0.6,1.1,1.2,2.3-0.3,3.5c-0.6-0.5-1.1-1-1.5-1.5c-0.2,0.5-0.4,1-0.6,1.5c-1-0.3-1.7-0.5-2.5-0.7
				c-2.2-0.7-2.2-0.7-3.5-2.9c-0.2-0.3-0.4-0.6-0.7-1.1c-0.4,2,1.8,3.3,0.9,5.5c-0.8-0.7-1.4-1.3-2-1.8c-0.6,0-1.3,0.1-1.8,0.1
				c-0.2,0.5-0.4,0.9-0.7,1.4c-0.7-0.8-1.3-1.4-2.1-2.3c-0.7,4.8-1.1,9.4-2.7,13.9c-1.4-0.9-1-2.3-1.6-3.5c-0.4,0.9-0.6,1.7-0.9,2.5
				c-0.4,1-0.5,2.2-1.2,3c-1.1,1.2-0.7,2.3-0.6,3.7c1.4-0.1,2.7-0.1,4-0.3c3.1-0.4,6.2-0.8,9.4-1.1c2.4-0.3,4.8-0.4,7.1-0.6
				c1.2-0.1,1.9-0.6,2.4-1.6c2.5-4.3,5-8.6,7.5-13c1-1.8,1.7-3.7,2.7-5.9c-0.9,0.2-1.4,0.3-1.7,0.3c-0.3,1-0.3,1.8-0.7,2.6
				c-2,4.3-4,8.7-7.1,12.5c-0.6,0.7-1.1,0.9-2.3,1.2c1-2,1.8-3.7,2.7-5.4C185.2,303.1,186.2,300.9,187.3,298.7
				c0.3-1.5,1.3-2.7,1.1-4.5c-0.8,0.2-1.5,0.4-2.3,0.6C186.6,296.3,186.9,297.5,187.3,298.7z M76.6,205.5c-0.1-0.6-0.3-1.2-0.4-1.8
				c-0.5-2.2-1.4-4.2-3.3-5.6c-0.7,0.6-0.7,1,0,1.6c0.5,0.4,0.8,1.1,1.2,1.7c-0.9,0.6-1.2,0.2-1.6-0.2c-1.3-1.3-0.7-2.9-0.6-4.2
				c-1.5-1.9-2.9-3.7-4.4-5.4c-1.7-1.8-3.4-3.8-5.5-5.2c-2-1.4-4.4-2.3-7.1-2.4c-3.1,0-6.3-0.2-9.4,0.2c-1.3,0.2-2.7,0.1-3.7,0.8
				c-3,2-5.9,4.2-8.2,7.1c-0.9,1.1-1.2,2.3-0.7,3.6c0.4,1.2,0.8,2.5,1.3,3.7c2.4,5.2,4.8,10.4,7.1,15.7c0.5,1,1.2,1.6,2.1,2.1
				c2.7,1.4,5.5,2.8,8.2,4.2c2.2,1.2,4.4,2.2,6.9,2.7c2.8,0.5,5.6,1.3,8.2,2.3c3,1.1,6,2.3,8.8,3.8c4.7,2.6,8.6,6.3,13.2,9.1
				c1,0.6,1.7,1.2,2.9,0.7c0.5-0.2,1.1,0,1.6-0.2c1.1-0.2,2.1-0.5,3.2-0.8c0.7-0.2,1.2-0.8,1-1.6c-0.4-1.9-0.8-3.9-2-5.8
				c-1.5,2-2.4,4.3-4.8,5.2c-0.5-1.1,0-1.7,0.5-2.4c0.6-1,1.2-2.1,1.8-3.2c0.3-0.5,0.6-1,0.9-1.5c-0.1-0.1-0.3-0.1-0.4-0.2
				c-0.1,0.6-0.3,1.2-0.4,1.8c-0.2,0.2-0.5,0.4-0.7,0.6c-0.7,0.6-1.3,1.4-2.1,1.9c-0.6,0.4-1.4,0.7-2-0.1c-0.6-0.8,0.2-1.2,0.6-1.7
				c0.7-0.8,1.4-1.7,1.9-2.6c0.7-1.3,1.2-2.7,2.1-4.5c-0.5-1-1.3-2.6-2-4.2c-0.6-1.5-1.6-3-1.7-4.5c-0.1-1.8-1-3-1.8-4.5
				c-0.8-1.5-1.9-2.6-3.6-2.6c-0.8,2.5,0.9,3.7,2.6,4.9c0.4,0.3,0.8,0.4,1.3,0.7c-0.2,1.3-0.6,2.5-0.6,3.7c0,1.2,0.2,2.3,0.3,3.3
				c0.8,0.5,1.3,0.9,2,1.3c-0.7,1.2-1.2,2.5-2.1,3.3c-2.4,2.2-7.1,2.2-9.8,0.4c-1-0.6-1.6-1.4-1.9-2.6c-0.2-1-0.2-1.9,0.8-2.6
				c1.2,0.7,2.4,1.4,3.7,1.9c1.3,0.6,2.6,0.5,3.9-0.4c-0.2-0.4-0.3-0.7-0.4-1c-0.9-1.4-1-2.8-0.1-4.2c0.4-0.6,0.4-1.4,0.5-1.8
				c-2.1-2.1-3.9-3.9-5.8-5.8c-0.4,0.5-0.7,0.8-0.9,1.1C76.9,209.5,76.7,207.5,76.6,205.5c0.2-0.2,0.4-0.3,0.6-0.5
				c-0.1-0.1-0.2-0.2-0.2-0.2C76.8,205,76.7,205.2,76.6,205.5z M130.4,233.8c0.8-2.7,1.5-5.4,2.3-8c0.3-0.9,0.7-1.8,1.2-2.5
				c0.4-0.5,1.1-0.9,1.6-0.9c0.8,0,0.9,1,0.9,1.6c0,1.2,0,2.5-0.3,3.7c-0.8,3.5-1.7,6.9-2.5,10.4c-0.3,1.4-0.6,2.8-0.9,4.1
				c0.5-0.3,0.7-0.8,0.8-1.2c0.5-1.9,1.1-3.8,1.6-5.7c0.7-2.6,1.5-5.3,2.3-7.9c0.2-0.8,0.6-1.5,1.6-1.7c1.8-0.5,3.3,0.6,3.4,2.5
				c0,1.8-0.1,3.6-0.4,5.3c-0.9,6.5-2.2,12.9-3.8,19.3c-0.3,1.1-0.3,2.3-0.5,3.5c0.5-0.8,0.9-1.6,1.1-2.5c1.3-4.8,2.5-9.5,3.8-14.3
				c0.4-1.6,1-3.2,1.7-4.6c1-1.9,2.4-1.8,3.7,0.1c0.6,0.9,0.8,1.8,0.7,2.9c-0.8,7.5-2,14.9-3.8,22.2c-0.4,1.5-0.7,3-1.1,4.5
				c0.7-1.1,1.2-2.3,1.6-3.6c1-3.6,2-7.2,3-10.9c0.2-0.8,0.6-1.5,1.1-2.2c0.4-0.6,1.1-1.1,2-0.8c0.8,0.3,1.1,1.1,1.1,1.8
				c0,1.3,0.1,2.6-0.2,3.9c-1.2,5.8-2.4,11.5-3.7,17.2c-0.7,2.9-1.5,5.7-2.4,8.7c0.7,0.3,1.3,0.6,2.2,1c0-1.5,0.1-2.8,0-4.1
				c-0.1-1.2,0.1-2.3,1.6-2.7c0.6,2.5,1.2,5.1,1.8,7.6c0.2,0.9,0.4,1.8,1.9,1.8c-0.2-1-0.4-1.9-0.6-2.8c-0.4-2.1-0.9-4.1-1.3-6.2
				c-0.2-1.1,0.3-1.8,1.6-1.9c0.4,1.1,0.8,2.3,1.2,3.5c0.9,2.9,1.7,5.8,2.6,8.6c0.2,0.7,0.3,1.7,1.5,1.8c-0.2-1.5-0.4-2.9-0.6-4.3
				c-0.1-1.4-0.7-2.8,0.8-4.1c0.4,0.9,0.7,1.5,0.9,2.2c0.7,2.2,1.3,4.4,2,6.7c0.2,0.7,0.5,1.4,1.7,1.4c-0.2-1.5-0.3-2.8-0.5-4.1
				c-0.1-0.8-0.1-1.3,1-1.6c0.6,1.7,1.1,3.3,1.6,4.9c0.4,1.3,1.2,2.1,2.5,2.3c1.9,0.3,3.8,0.6,5.7,0.7c2.4,0.1,4.6,0.7,6.7,1.7
				c0.7,0.3,1.4,0.6,2.1,0.6c3.3-0.1,6.6-0.2,9.8-0.5c2-0.2,4-0.9,6-1.1c3.4-0.4,6.7-1.4,9.8-2.7c4.2-1.7,8.2-3.8,12.2-5.9
				c1.7-0.9,3.6-2,4.8-3.4c2.3-2.8,3.9-5.9,4.2-9.6c0.3-2.7,1-5.3,2.2-7.8c1.7-3.4,2.8-7.1,4.1-10.7c0.5-1.4,0.8-2.9,1.2-4.3
				c0.5-1.7,1.1-3.3,1.5-5c0.7-3,0.5-6.1,0.2-9.2c0-0.4-0.3-0.8-0.5-1.4c-1.2,2.8-2.3,5.3-3.4,7.8c-1.1,2.5-1.8,5.1-3.5,7.7
				c-0.6-1.7-0.2-2.7,0.3-3.7c0.3-0.6,0.7-1,0.9-1.6c1.6-4.2,3.2-8.4,4.9-12.6c0.5-1.3,0.6-2.4-0.8-3.6c-1.3,3.7-2.6,7.3-3.9,10.9
				c-0.2,0-0.4,0-0.5-0.1c-0.1-0.6-0.4-1.2-0.2-1.8c0.4-1.7,1-3.4,1.4-5.1c0.2-1.1,0.6-2.1,0.4-3.4c-0.2-1.4,0.6-2.9,1-4.3
				c0.6-2.1,0.6-4-1-5.7c-0.3-0.4-0.4-1.1-0.4-1.7c-0.1-1.5-1-3.3-2.1-4.1c-0.2,0.9-0.3,1.8-0.4,2.7c-0.2,0-0.4,0-0.5,0
				c0-1.2-0.2-2.4-0.1-3.6c0.1-1-0.2-1.7-0.8-2.4c-2.1-2-4.2-4.1-6.5-6c-1.7-1.5-2-1.7-1.3-3.9c0.3-0.9,0.5-1.7,0.8-2.6
				c-0.1,0-0.3-0.1-0.4-0.1c-0.5,1.5-1.1,3.1-1.6,4.6c-0.3,0.9-0.7,1.6-1.8,1.5c-0.9-1.6-0.9-2.3,0.3-5c1.2-2.7,3.6-3.4,6.3-3.7
				c0.2-0.8,0.4-1.4,0.5-2.1c0.5,0.4,0.8,0.7,1.2,1c1.3-1.2,2.6-2.4,3.8-3.6c0.4-0.4,0.8-1,1-1.5c0.8-2.1,1.4-4.2,2.2-6.4
				c1-3,2-6,3.1-8.9c0.4-1,0.4-2,0-3c-1.3-3.1-2.6-6.2-3.7-9.3c-1-2.7-3.5-3.3-5.7-4.6c-0.3,0.9-0.4,1.5-0.6,2
				c-0.5,1.2-0.9,2.4-1.4,3.6c-0.3,0.6-0.7,1.2-1.8,0.7c0.6-1.9,1-3.8,1.7-5.7c0.4-1.3,0.4-2.2-0.8-3c-0.8-0.6-1.5-1.4-1.1-2.8
				c1.1,0.1,2.2,0.1,3.3,0.2c0.4-0.9,0.6-1.7,0-2.4c-1.1-1.3-2.1-2.7-3.1-4.1c-0.1-0.2-0.4-0.2-0.9-0.4c-0.3,1.4-0.5,2.7-0.8,3.9
				c0.5,0.2,0.9,0.3,1.6,0.5c-1.4,1.7-2.7,3.1-4,4.7c0.5,0.7,1,1.4,1.6,2.3c0,0.2-0.3,0.7-0.2,1c0.7,1.6-0.3,2.7-1.1,3.8
				c-0.8,1.1-1.4,2.3-2.2,3.5c-0.2,0.3-0.6,0.6-0.9,0.7c-0.2,0-0.5-0.4-0.9-0.7c-2.5,3.1-5.7,5.3-8.9,7.5c-3.3,2.3-6.6,4.3-10.7,5
				c-0.8-1.9-1.5-3.7-2.2-5.5c-0.2,0.1-0.3,0.1-0.5,0.2c0.2,0.6,0.3,1.2,0.5,1.9c0.2,0.7,0.5,1.4,0.5,2.2c0.3,2.4-0.5,3-2.8,2.7
				c-0.1,0-0.3,0-0.4-0.1c-2.6-0.4-4.9-2-7.6-2.1c-1.1-1.1-1.7-0.2-2.4,0.4c0.5,1.2,2.1,1.7,1.9,3.4c-2.5-1.2-4.1-3.3-5.9-5.1
				c-0.2,0.1-0.3,0.1-0.5,0.2c0,0.5-0.1,1.1-0.1,1.6l0.1,0c-1.8-0.6-1.9-0.8-1.2-2.3c0.3-0.7,0.6-1.4,0.9-2c0.3-0.5,0.8-0.9,1.2-1.3
				c0.5-0.5,1.2-0.8,1.4-1.3c0.7-2,2.3-2.5,4.2-2.6c2.1-0.1,4.2-0.3,6.3-0.5c0.7-0.1,1.3-0.3,2-0.5c-0.3-1.3-0.4-2.4-1.3-3.5
				c-0.4,1.2,0.7,2.1-0.2,3.4c-0.5-1.1-0.8-1.9-1.2-2.8c-0.5,0.1-0.9,0.2-1.4,0.4c-2.1,0.6-4.2,1.4-6.3,1.9c-1,0.3-2.1,0.6-3.3-0.4
				c0.8-0.4,1.3-0.7,1.9-0.9c1.4-0.4,2.8-0.8,4.1-1.2c1.5-0.5,3.1-1,5-1.7c-1.4-0.3-2.5,0.6-3.6-0.4c0.5-0.3,0.9-0.7,1.3-0.8
				c2.6-1.1,5.2-2.1,7.8-3.2c0.7-0.3,1.5-0.6,2.2-1.1c2.6-2,5.2-4,7.7-6.1c1-0.8,1.8-1.8,2.6-2.9c1.4-1.9,2.6-3.8,4-5.7
				c0.3-0.5,0.7-1.2,1.8-0.9c-0.3,0.6-0.5,1.2-0.8,1.7c-0.8,1.6-1.7,3.1-2.3,4.8c-0.3,1-0.8,1.7-1.6,2.3c-0.6,0.4-1.3,0.8-1.9,1.3
				c-1.7,1.2-3.6,2.2-4.9,3.7c-1.1,1.3-2.4,2.2-3.8,3c-1.6,0.9-3.1,1.7-4.7,2.6c3.9-0.6,7-3.2,10.8-4.3c-2.8,2.9-6.6,4.2-10.1,6.2
				c0.5,1.3,0.9,2.6,1.4,4c1.3-0.5,2.6-0.9,3.7-1.5c4.3-2.4,8.6-4.8,12.9-7.3c0.4-0.3,0.8-0.9,0.9-1.5c0.2-1.3,0.2-2.6,0.4-3.9
				c0-0.4,0.3-0.8,0.4-1.2c0.1,0,0.3,0.1,0.4,0.1c0,1.7,0,3.3,0,5.1c1.7-0.6,1.8-0.6,2-2.1c0.5-3.1,0.6-6.1,0.1-9.2
				c-0.1-0.7,0-1.4,0-2.1c1,1.7,1.1,3.5,1.3,5.3c0.2,1.8,0.2,3.6,0.3,5.5c1.5-2.8,0.4-5.8,1.2-8.5c0.1,0,0.3,0,0.4,0
				c0.1,2.2,0.2,4.4,0.3,6.6c0.2,0,0.3,0,0.5,0c0.4-1.8,1-3.6,1.1-5.4c0.2-1.8-0.1-3.7-0.2-5.7c0.5,0.4,0.9,0.7,1.7,1.4
				c-0.1-1.4,0-2.3-0.3-3.1c-0.5-1.6-1.1-3.2-1.8-4.8c-0.9-1.9-1.5-3.9-1.5-6.1c0-2.5-0.3-4.9-0.5-7.4c-0.1-0.7-0.3-1.5-0.8-2
				c-1.1-0.9-2.4-1.4-3.9-1.6c0.6,2.5,1.1,4.8,1.6,7.2l0,0c-0.2-0.2-0.5-0.4-0.6-0.6c-0.6-2-1.1-4-1.6-5.9c-0.4-1.4-0.7-1.6-2.3-1.3
				c0.6,2.4,1.1,4.8,1.7,7.2c0.7,3.1,1.3,6.2,2,9.2c0.2,0.8,0.1,1.3-0.9,1.7c-0.5-2.1-1-4.2-1.6-6.3c-0.5-2-1-4.1-1.6-6.1
				c-0.6-2-0.9-4.2-1.8-6.1c-0.2,0-0.3,0.1-0.5,0.1c1.6,6.6,3.1,13.2,4.7,20c-1.3-0.3-1.5-1.1-1.8-1.8c-0.5-1.8-1.1-3.7-1.6-5.5
				c-0.8-3.1-1.6-6.2-2.5-9.3c-0.3-1.2-0.9-2.4-1.3-3.6c-0.7,0-1.4,0-2,0c-3.6,0.2-7.2,0.5-10.9,0.7c-0.7,0-1.5-0.1-2.2-0.2
				c-0.7-0.1-1.5-0.3-2.1-0.1c-5.7,1.4-11.3,3.1-16.7,5.7c-2,1-4.2,1.9-6.4,2.3c-2.2,0.4-4.2,1.2-6.3,1.9c-1.1,0.4-2.2,0.8-3.3,1.2
				c-4.1,1.5-8.2,3-12.3,4.5c-1.5,0.6-2.7,1.5-4.2,2.1c-5.5,2.2-10.6,5.3-15.7,8.3c-1.9,1.1-3.7,2.6-5.7,3.7
				c-4.9,2.7-9.9,5.3-14.8,7.9c-3.2,1.7-6.4,3.3-9.6,5c-0.8,0.4-1.5,1.1-2.3,1.7c-1.1-0.3-1.8,0.1-2.4,1c-1.8,2.7-3.6,5.5-5.4,8.2
				c-0.3,0.4-0.3,1-0.2,1.5c0.4,2.2,0.8,4.3,1.2,6.4c0.1,0.4,0.3,0.8,0.4,1.2c0.1,0,0.3,0,0.4,0c0.2-1.2,0.5-2.3,0.5-3.5
				c0.2-3.4,1-6.5,3.2-9.3c1.3-1.6,2.5-3.5,2.1-5.8c0.8-0.1,1.4,0.1,1.3,1.1c-0.1,0.6-0.1,1.2-0.4,1.7c-1.1,1.9-2.2,3.8-3.3,5.7
				c-0.5,0.8-0.8,1.6-0.8,2.7c-0.1,2.2-0.3,4.4-0.7,6.5c-0.2,1.2-0.7,2.3-1.9,3.2c-1.2,0.9-1.9,2.5-1.2,4.2c0.3,0.6,0.5,1.3,0.7,1.9
				c0.8,2.4,1.9,4.8,2.5,7.3c0.4,1.9,1.4,3.2,2.8,4.3c0.2,0.2,0.6,0.4,0.7,0.6c0.7,1.3,1.3,2.7,1.9,4c0.6,1.3,1,2.6,1.8,3.8
				c0.7,1.2,1.7,2.1,2.5,3.2c0.9,1.2,2,2.3,2.1,4.1c0,1.1,0.6,2.1,1.1,3.2c1.4,2.7,2.8,5.4,3.8,8.4c0.2,0.6,0.4,1.2,0.7,1.7
				c0.6,1,0.6,1.9,0.3,3c-0.2,1-0.6,2.1,0.1,3.3c1.4-2.4,1.3-5.2,2.9-7.4c0.2,0.8,0.3,1.6,0.2,2.4c-0.3,2.9-0.7,5.7-1,8.6
				c-0.1,0.9,0.1,1.9,0.1,2.8c-0.2,0.1-0.5,0.1-0.5,0.2c-0.5,1.6-1,3.2-0.9,4.9c0.7-1.6,1.5-3.1,1.4-4.9c0.5,0.3,1,0.6,1.6,1
				c-0.6,1.1-0.9,1.6-1.2,2.2c-0.4,0.7-0.8,1.3-1,2c-1,2.3-0.5,3.8,1.8,5.4c0.1-0.8,0.3-1.5,0.3-2.3c0-1-0.4-2.3,0.1-3
				c1.1-1.5,1-3.2,1.3-4.8c0.7-4.2,1.2-8.4,1.8-12.6c0.2-1.5,1.1-2.6,2.3-3.6c-0.3,4.5-0.7,9-1.3,13.5c-0.5,3.8-1.2,7.6-1.8,11.4
				c-0.1,1-0.4,1.9,0.3,3.4c1.8-8,2.6-15.7,5.3-23c-0.7,5.4-1.6,10.7-2.5,16c-0.5,3.4-1,6.8-1.5,10.1c-0.2,1.1,0,2.2,0.8,3.1
				c0.6,0.6,1.5,1.1,1.7,1.9c0.6,1.9,2.1,2.9,3.5,4c2.4,1.8,4.9,3.5,7.2,5.4c4.9,4.1,10.2,7.3,15.7,10.5c1.2,0.7,2.5,1.3,3.7,2
				c2-3.9,6.3-25.3,5.7-28.8c-0.3,0.5-0.5,0.7-0.5,1c-1,3.3-1.9,6.6-3,9.8c-1,3-2.2,6-3.4,9c-0.4,0.9-0.9,1.9-2.2,1.8
				c-0.8-1.1-0.6-2.3-0.3-3.4c0.8-3.3,1.8-6.5,2.4-9.8c1.1-5.7,2.1-11.4,3.1-17.1c0.3-1.6-0.2-3.3-0.7-4.9c-0.7,1.4-1.3,2.9-1.7,4.4
				c-1,3.6-1.9,7.3-2.9,10.9c-0.7,2.6-1.4,5.3-2.1,7.9c-0.4,1.4-0.7,2.8-2.5,3c-1.1-1.3-1.3-1.6-1.2-3c0.1-1.9,0.3-3.8,0.7-5.7
				c1-5.3,2.3-10.6,3.3-15.9c0.5-2.5,0.7-5,1-7.5c0.1-0.9,0.2-1.9-1.1-2.6c-0.3,0.8-0.7,1.4-0.9,2.1c-0.8,2.7-1.5,5.4-2.3,8.1
				c-1,3.5-1.9,7-3.6,10.3c-0.4,0.8-0.7,1.8-2.1,1.9c-0.1-0.8-0.4-1.5-0.3-2.2c0.7-4.1,1.4-8.2,2.2-12.3c0.6-2.7,1.3-5.4,2-8.2
				c0.1-0.6,0.1-1.1,0.2-1.7c-0.1,0-0.3,0-0.4-0.1c-1.4,4.1-2.1,8.4-4,12.2C130.4,236.3,130.4,235,130.4,233.8L130.4,233.8z
				 M63.1,34.9c0.1,0.1,0.2,0.2,0.3,0.3c-0.5,0.8-1.1,1.6-1.6,2.4c-0.5,0.8-1,1.6-1.5,2.5c-0.7,1.2-1.2,2.6-2,3.8
				c-1,1.6-2.1,3.2-3.2,4.8c-2.1,3-3.6,6.2-3.9,10c-0.3,3.7-0.9,7.5-1.3,11.2c-0.1,0.8-0.1,1.6-0.2,2.4c0.8-1.4,1.1-2.9,1.7-4.3
				c0.5-1.3,0.7-2.9,2.2-4.1c0,0.6,0,0.9,0,1.2c-1.2,6.3-2.6,12.6-3.2,19c-0.3,3.7-0.6,7.5-0.1,11.3c0.5-1.8,1.4-3.3,3-4.7
				c-0.1,0.6-0.1,0.8-0.1,1.1c-0.3,2.7-0.7,5.4-0.8,8.1c0,3.4,0.5,6.7,1.4,9.9c0.4,1.6,0.6,3.3,1.5,4.7c1.6,2.5,3.5,4.9,5.4,7.2
				c0.4,0.5,0.8,1.2,1.8,0.9c-0.5-5.1-1.1-10.2-1.6-15.3c0.7,0.1,1.2-0.1,1.3,0.7c0.3,1.9,0.8,3.8,1.1,5.6c0.5,3.1,1,6.2,1.6,9.3
				c0.1,0.6,0,1.3,1.1,1.3c-0.7-5.5-1.4-11-2.1-16.4c0.1,0,0.3,0,0.4-0.1c2.3,5.1,2.7,10.8,4,16.2c0.1,0,0.3,0,0.4-0.1
				c-0.4-3-0.8-6-1.2-8.9c1.3,0.9,1.8,2.1,1.3,3.4c0.5,0.3,0.9,0.6,1.3,0.9c0.1-0.1,0.1-0.2,0.2-0.3c0.1,0,0.1,0.1,0.2,0.1
				c0,2.5,0.7,4.8,1.6,7.1c1.2-0.4,2.2-0.8,3.3-1.1c-0.5-4.1-1-8.1-0.7-12.2c0.5,1.3,0.8,2.6,1.1,3.9c0.3,1.3,0.5,2.7,1,4
				c0.5,1.2,0,2.7,1.1,3.8c0.7-1.2,0.8-2.3,0.6-3.6c-0.6-3.4-1.1-6.9-1.6-10.3c-0.4-3.1,0-6.1,1-9.1c0.3,0.7,0.4,1.4,0.4,2.1
				c0.3,3.2,0.5,6.4,1,9.6c0.5,3.2,1.3,6.3,1.9,9.4c0.2,1,0.6,1.4,1.7,1.1c1.5-0.4,3.1-0.7,4.6-0.8c1.4-0.1,2.5-0.4,2.9-1.9
				c0-0.1,0.2-0.1,0.6-0.2c0.6,1.3,1.8,0.8,2.8,0.5c1-0.3,1.8-1.1,2.8-1.7c1.3,0.4,3.2-0.2,4.1-1.3c0.4-0.5,0.7-0.7,1.5-0.5
				c2.1,0.5,3.8-0.8,4.1-3c0.1-0.7,0.4-1.4,0.6-2.1c0.5-1.7,1-3.3,0.8-5.1c-0.2-1.9-0.6-3.8,0.8-5.8c0.1,0.5,0.1,0.7,0.1,1
				c-0.1,1.8-0.6,3.7-0.3,5.5c0.3,1.8,0.7,3.6,0.5,5.4c0,0.1,0.2,0.3,0.4,0.4c0.7-1,0.2-2.5,1.5-3.6c0,1.5,0,2.7,0,4.1
				c0.7-0.3,1.1-0.5,1.5-0.7c1.6-0.9,3.2-1.9,4.8-2.8c1-0.6,2-1.2,3.1-1.5c2.8-0.9,5.7-1.7,8.6-2.6c0.6-0.2,1.2-0.4,1.5-1.2
				c0.2-0.8,1.4-0.9,2-0.2c0.6,0.7,1.3,0.7,2,0.5c0.7-0.1,1.3-0.2,1.7-0.3c0.4-0.7,0.7-1.6,1-1.6c0.6,0,1.1,0.5,1.7,0.8
				c0.5-0.5,1-1.4,1.9-0.4c0.2,0.2,0.6,0.1,0.9,0.1c2.6-0.4,5.3-0.8,7.9-1.3c0.4-0.1,0.9-0.3,1.3-0.5c0.5-0.3,1-0.7,1.5-1.1
				c1.8,1.1,1.7,1.1,3.3,0.3c1.2-0.6,2.4-1.1,3.6-1.6c0.3-0.1,0.9-0.1,1.1,0.2c1.1,1.4,2.6,1,4,0.8c5.6-0.8,11.3-0.7,17-0.7
				c2,0,4,0.4,5.9,0.4c2.2-0.1,4.3-0.5,6.5-0.8c0.5-0.1,1.1-0.2,1.6-0.2c2.1,0.4,4.1,0.7,6.2,1.3c2.9,0.8,5.7,1.7,8.6,2.6
				c1.7,0.5,3.4,1,5.2,1.6c0.2-0.5,0.3-0.8,0.4-1.2c0.7-3.7,1.5-7.4,2.1-11.1c0.1-0.7-0.1-1.7-0.5-2.3c-2.5-4.3-4.9-8.7-7.6-12.9
				c-1.7-2.7-3.7-5.3-5.5-7.9c-1-1.5-0.9-2.2,0.6-3.1c-4.3-6.1-8.7-12.2-13.2-18.6c0.1,1.1,0.2,1.8,0.3,3c-1.8-2.6-2.1-5.5-3.9-7.5
				c0.3,1.5,0.7,2.9,1.1,4.4c0.4,1.4,1,2.7,0.4,4.2c-2.4-5.1-4-10.5-7.2-15.2c1.7,5.2,4,10.1,4.4,15.7c-3.4-7.4-5.9-15.3-10.2-22.3
				c0.6,1.7,1.3,3.3,1.9,4.9c1.8,4.4,3.3,8.8,4.2,13.5c0.1,0.7,0.4,1.4-0.6,2.2c-0.4-1-0.8-1.8-1.1-2.7c-1.9-6.4-4.3-12.6-7.5-18.6
				c-2.8-5.3-5.8-10.5-9.6-15.2c-0.4-0.5-1.2-1-1.8-1.1c-3.9-0.6-7.7-1-11.6-1.6c-4.5-0.6-9-1-13.5-1.1c-2.7-0.1-5.4-0.4-8.2-0.7
				c-4.6-0.5-9.1-0.7-13.7-0.2c-2.2,0.3-4.4,0.3-6.5,0.3c-3.2,0-6.4-0.1-9.6-0.1c-0.8,0-1.7,0.2-2.4,0.5c-2,1-3.9,2.2-5.8,3.3
				c-5.7,3.3-11.3,6.7-17,10c-4.2,2.4-8.3,5-12,8.2c-0.3,0.3-0.5,0.6-0.7,0.9c-1.2,1.9-2.3,3.9-3.5,5.8c-0.3,0.5-0.6,1-0.8,1.5
				c0.1,0.1,0.2,0.2,0.3,0.3C59.2,39,61.1,36.9,63.1,34.9z M226.9,280.9c-0.1-0.1-0.3-0.2-0.4-0.3c-0.5,0.3-0.9,0.5-1.4,0.8
				c-3.5,1.9-6.8,4-10.5,5.6c-4.2,1.8-8.6,3.2-12.9,4.6c-1.1,0.4-1.7,0.8-2.2,1.9c-0.8,1.9-1.7,3.7-2.7,5.5c-1.3,2.3-2.6,4.6-4,6.9
				c-1.2,2-2.5,4.1-3.7,6.1c-0.3,0.4-0.5,0.9-0.8,1.5c0.5,0,0.8,0.1,1,0c3.5-0.8,7-1.4,10.3-2.8c2.2-1,4.6-1.8,6.9-2.7
				c3.4-1.3,6.7-2.6,10.2-3.9c1.1-0.4,1.7-1.1,2.1-2.1c0.8-2.3,1.8-4.6,2.6-6.9c0.5-1.5,1.3-2.8,1.8-4.2c0.7-1.8,1.5-3.6,2.1-5.4
				C225.7,284.1,226.3,282.5,226.9,280.9z M97.7,256.3c-0.1,0.3-0.3,0.5-0.4,0.7c-1.2,3.3-2.4,6.7-3.7,10c-0.3,0.7-0.3,1.5-0.7,2.1
				c-0.7,1-0.9,2-0.9,3.1c0,2.9-1,5.5-1.9,8.2c-0.1,0.3-0.4,0.6-0.7,1.1c-0.5-0.7-0.8-1.2-1.2-1.8c-0.7,1.8-0.7,1.9-0.1,3.4
				c1,2.4,2.1,4.8,3.2,7.1c0.3,0.6,0.5,1.5,1.5,1.6c0.2-0.4,0.3-0.7,0.4-1.1c0.3-1.3,0.5-2.5,0.9-3.8c0.1-0.5,0.6-1.1,0.9-1.1
				c1.6,0,1.7-1.1,1.9-2.2c0.3-1.9,0.5-3.8,0.8-5.7c0.4-2.5-0.3-4.9-1-7.4c-1,2.5-2.1,5-3.1,7.5c-0.3-0.3-0.4-0.4-0.4-0.6
				c1.2-4.1,2.5-8.3,3.6-12.4c0.6-2.2,1.1-4.4,1.7-6.5C98.8,257.6,98.6,256.9,97.7,256.3z M237.2,161.4c0.2,0,0.3,0,0.5,0
				c0.5-3.8,1.1-7.6,1.5-11.3c0.6-5.4,1.1-10.9,1.6-16.3c0.2-2.2-0.2-4.2-1-6.2c-1.6,0.8-2.2,2-2.5,3.3c-0.2,1-0.6,2-0.7,3
				c-0.9,6.6-1.7,13.2-2.5,19.7c0,0.4-0.2,0.9,0,1.2C235.2,157,236.2,159.2,237.2,161.4z M66.1,130.4c-0.4,0.4-0.8,0.8-1.2,1.2
				c-0.4-0.5-1-0.9-1.2-1.5c-0.4-1.4-0.5-2.8-0.8-4.2c-0.1-0.5-0.4-1.1-0.7-1.3c-1.3-0.7-2.8-1.3-4.5-1.6c0.5,2.5,1.2,4.7,2.5,6.6
				c4.8,7.5,9.7,14.9,14.6,22.3c0.6,0.9,1.2,1.7,1.9,2.5c0.2-0.4,0.1-0.7,0-0.9c-2.1-4.7-4.3-9.5-6.4-14.2c-0.1-0.2-0.3-0.6-0.5-0.6
				c-1.3-0.4-1.5-1.5-1.6-2.6C68,134,67.2,132.1,66.1,130.4z M233.7,208.9c0.3-1.3,0.5-2.2,0.6-3.2c0.4-3.8,1.1-7.5,2.5-11.1
				c1.9-4.9,2.5-10,2.2-15.3c-0.1-2.5-1-5-0.4-7.5c0.1-0.3-0.2-0.6-0.3-0.9c-1,2-2,3.9-2,6.1c0,3.1,0,6.2-0.3,9.2
				c-0.3,3-1.1,5.9-1.8,8.8c-0.4,1.3-1.3,2.5-1.9,3.8C230.6,202.3,230.9,205.6,233.7,208.9z M87.4,242.3c-0.9,0.6-1.7,1-2.5,1.6
				c-0.8,0.6-1.4,1.3-1.4,2.5c0,1.7-0.3,3.4-0.5,5.1c-0.3,2.5-0.6,5-1.1,7.5c-0.4,2.1,0,4,0.6,6.2c0.3-0.6,0.5-1,0.7-1.4
				c0.8-2.4,1.8-4.8,2.3-7.2c0.4-1.9,1.4-3.6,1.1-5.7c-0.1-1.3,0.3-3.1,1.2-4c0.9-1,1-2,1.4-3.2C88.5,243.1,87.9,242.7,87.4,242.3z
				 M91.9,267.4c1-3.1,1.9-5.8,2.7-8.6c0.4-1.3,0.8-2.6,1.3-3.9c0.3-0.7,0.1-1.3-0.4-1.9c-0.5-0.5-1-1-1.6-1.6
				c-1.7,1.6-2.2,3.6-3,5.5c-0.5,1.2-1.2,2.4-1.2,3.6C89.8,262.8,90.5,265.1,91.9,267.4z M93.6,204.1c-0.1,0-0.3,0.1-0.4,0.1
				c0,0.7-0.1,1.4-0.1,2.1c-0.1,3.5-0.1,7.1-0.1,10.6c0,0.9,0.1,1.8-0.6,2.5c-0.2,0.2-0.2,0.8,0,1.1c0.8,1.6,1.6,3.2,2.6,5.2
				c0.2-2.6,0.3-4.8,0.4-7c0.2-2.8-0.1-5.7,0.6-8.5c0.2-0.8,0.2-1.9-0.2-2.7C95.2,206.2,94.3,205.2,93.6,204.1z M224,300.1
				c2.1-0.8,4-1.6,3.9-4.3c0-1.1,0.3-2.1,0.7-3.2c0.7-2.3,1.5-4.5,2.3-6.7c0.1-0.4,0.2-0.8,0.3-1.2c0.2-0.7,0.4-1.4,0.6-2.1
				c0.2-0.7,0.6-1.4,0.8-2.1c1.1-4.1,2.2-8.3,3.3-12.4c0.2-0.9,0.3-1.9,0.5-3.1c-1.4,1-1.1,2.3-1.4,3.4c-1.9,8.4-5,16.5-8,24.5
				c-0.4,1.1-0.8,2.3-1.5,3.1C224.3,297.2,224.5,298.7,224,300.1z M231.6,187.1c-1.6,1.2-2.8,2.2-4,3c-0.8,0.5-1,1.1-1.1,2
				c-0.2,1.9-0.4,3.8-0.9,5.6c-0.5,2.1-0.6,2.1,1.8,3.1C229.5,196.7,231.2,192.3,231.6,187.1z M47.7,114.3c0.2,2.3,0,4.5,1.1,6.6
				c2,3.8,3.6,7.8,5.6,11.7c1.1,2.2,2.4,4.4,3.6,6.5c0.1-0.7-0.1-1.2-0.4-1.8c-1.2-2.8-2.6-5.4-3.1-8.5c-0.1-0.7-0.5-1.4-0.9-2.1
				c-1-2-2.1-4-3.1-6C49.6,118.7,48.6,116.5,47.7,114.3z M228.1,297.3c0.2,0.1,0.3,0.2,0.5,0.3c0.4-0.6,1-1.2,1.3-1.9
				c0.8-2.1,1.5-4.2,2.2-6.3c1.2-3.7,2.4-7.3,3.5-11c1-3.1,1.9-6.1,2.7-9.2c0.7-2.8,1.2-5.6,1.7-8.4c0-0.1-0.1-0.3-0.3-0.7
				c-0.2,0.6-0.3,1-0.4,1.4c-1.3,4.9-2.5,9.8-3.8,14.6c-0.6,2.5-1.7,4.8-2.3,7.3c-0.5,2.1-1.6,4-2.8,5.8c-0.5,0.8-1,1.7-0.9,2.5
				c0.1,1.2-0.4,2.3-0.8,3.3C228.6,295.8,228.4,296.5,228.1,297.3z M77.5,178.6c-0.3,0.4-0.4,0.5-0.5,0.7c-0.2,1.3-0.3,2.5-1.2,3.6
				c-0.7,0.8-0.6,1.9-0.1,2.9c1.2,2.7,2.4,5.4,3.6,8c0.4,0.8,0.7,1.6,1.8,2.6c-0.6-2.8,0.1-5.4-1.5-7.6c-0.5-0.6-0.7-1.5-0.9-2.2
				c-0.4-1.5-1-3.1-0.8-4.6C78,180.8,77.7,179.8,77.5,178.6z M77.4,129.5c0,0.3,0,0.5,0.1,0.6c2.3,4.8,4.6,9.6,7,14.4
				c1.1,2.3,2.4,4.4,3.7,6.6c0.4,0.7,0.8,1.2,1.9,0.6c-4-7.4-8-14.7-12-22C78,129.6,77.7,129.6,77.4,129.5z M99.3,120.8
				c-0.2,0-0.3,0.1-0.5,0.1c0.1,0.4,0.1,0.8,0.3,1.1c2.4,5,4.8,9.9,7.2,14.9c0.8,1.7,1.7,3.3,2.5,4.9c0.2,0.3,0.5,0.5,0.8,0.7
				c0.1,0,0.3-0.1,0.4-0.1c0-0.5,0.1-1-0.1-1.4c-0.7-1.6-1.4-3.1-2.1-4.7c-1.3-3-3.3-5.5-4.6-8.5c-1-2.3-2.3-4.5-3.5-6.7
				C99.6,121,99.4,120.9,99.3,120.8z M99.4,236.4c0.2-0.7,0.3-1,0.4-1.2c0.4-4.5,0.9-9.1,1.2-13.6c0.1-0.7-0.3-1.5-0.5-2.2
				c-0.1,0-0.3,0-0.4,0c-0.1,0.2-0.1,0.5-0.2,0.7c-0.6,4.1-1.1,8.2-1.7,12.3C98,233.8,98.6,234.9,99.4,236.4z M235.3,213.2
				c0.2,0,0.5,0,0.7,0c0.4-1.8,1-3.7,1.2-5.5c0.2-2.7,0.8-5.3,1.3-8c0.2-1.5,0.7-3.1,0.3-4.7c-0.7,1.5-1.5,2.8-1.5,4.6
				c0,1.4-0.5,2.8-0.8,4.2c-0.5,2.5-1,4.9-1.4,7.4C235,211.9,235.2,212.5,235.3,213.2z M102.7,145.9c-0.1-0.4,0-0.8-0.2-1.1
				c-1.9-3.6-3.7-7.3-5.7-10.9c-1.7-3.1-3.4-6.3-5-9.4c-0.3-0.5-0.5-1-1.3-0.6C93.9,131.7,98.9,138.4,102.7,145.9z M100.5,147
				c-1.3-4.1-3.5-7.8-5.7-11.4c-2.2-3.7-3.8-7.7-6.4-11.2C91.3,132.5,96.7,139.3,100.5,147z M85.1,191.2c-0.1,0-0.2,0.1-0.3,0.1
				c0,0.3,0,0.6,0,0.9c0.2,2.1,0.5,4.2,0.7,6.3c0.2,2,0.5,4,0.1,5.9c-0.4,1.9,0.5,3,1.3,4.4c0.2-0.3,0.3-0.4,0.3-0.5
				c-0.4-5.2-0.8-10.5-1.3-15.7C85.8,192.2,85.4,191.7,85.1,191.2z M141.5,105.5c-0.1,0.1-0.3,0.3-0.4,0.4
				c2.3,5.5,4.6,10.9,6.9,16.5c0.8-0.5,0.3-1.2,0.1-1.8c-1.1-3.1-2.3-6.1-3.6-9.1c-0.7-1.8-1.5-3.5-2.3-5.2
				C142.2,106,141.8,105.8,141.5,105.5z M52.7,120.8c-0.3-1.8-0.3-3.5-0.9-4.9c-1.5-3.4-3.2-6.7-4.9-10.1c0-0.1-0.2-0.1-0.3-0.1
				C47.3,109.7,50.9,118.9,52.7,120.8z M87.7,257.5c-0.1,0-0.3,0-0.4,0c-1.3,3.9-2.6,7.9-3.9,11.8c-0.4,1.2,0.1,2.2,1.1,3.5
				C85.7,267.4,86.7,262.5,87.7,257.5z M236.8,128.6c-2.1-1.1-2.9-0.8-3.5,1.2c0.3,0.1,0.6,0.3,0.9,0.4c-0.7,3.5-1.1,6.9-1,10.5
				C234.2,136.5,234.7,132.3,236.8,128.6z M136.1,106.7c2.6,5.7,5.2,11.3,7.8,16.9c0.2-0.6,0.1-1.1-0.1-1.6
				c-1.6-4.1-3.3-8.1-4.9-12.2c-0.4-0.9-0.8-1.9-1.3-2.8C137.3,106.5,136.9,106.3,136.1,106.7z M44.7,109.9c0.4-1.9,0.4-3.5-0.1-5.2
				c-1.2-3.7-1.2-3.7-2.1-4.3C42.3,103.7,42.1,107.1,44.7,109.9z M176.8,102.8c1.1,0.5,1.1,1.7,1.6,2.5c0.5,1,0.9,2,1.2,3
				c0.3,0.9,0.6,1.7,0.9,2.6c0.2-0.1,0.3-0.1,0.5-0.2c-0.9-3.1-1.7-6.1-2.5-9.1c-1.3,0-2.5,0-3.9,0c0.7,1.6,1.4,2.9,2.1,4.5
				C177,104.8,175.7,103.8,176.8,102.8z M86.2,277.6c0.2-0.5,0.4-0.7,0.5-1c0.7-2.5,1.5-5.1,2.1-7.6c0.3-1.1,0.3-2.2-0.8-3.4
				c-0.7,3.6-1.4,6.8-2.1,10.1c-0.1,0.4-0.1,0.8-0.1,1.2C85.8,277,86,277.1,86.2,277.6z M42.6,82c0.6,4.6,3.7,14,5.1,15.3
				c-0.1-0.7,0-1.4-0.2-1.9C45.9,90.9,44.3,86.5,42.6,82z M54.8,175.5c0.1-0.1,0.3-0.3,0.4-0.4c-1.7-2.7-3.5-5.4-5.2-8.2
				c-0.8,0.6-0.7,1.3-0.2,2c1.4,2,2.7,3.9,4.1,5.9C54.1,175.2,54.5,175.3,54.8,175.5z M43.3,76.5c0.8,3.9,1.5,7.9,3.4,11.5
				C46.5,83.9,44.6,80.3,43.3,76.5z M74.7,191.8c-0.2,0.1-0.4,0.2-0.6,0.2c1.3,2.9,2.7,5.8,4,8.6c0.1,0.3,0.6,0.4,0.9,0.6
				c0.1-0.1,0.3-0.2,0.4-0.4C77.8,197.9,76.2,194.8,74.7,191.8z M222.4,198c0.7,0.2,1.2,0.3,1.7,0.5c1.1-2.5,1.4-5,0.8-7
				C224,193.8,223.3,195.8,222.4,198z M112.2,140.9c-1.2-4.1-3.3-7.8-5.6-11.7C106.7,130.4,110.6,138.8,112.2,140.9z M171.5,114
				c0.1-0.1,0.2-0.2,0.2-0.2c-1.3-3.6-2.7-7.3-4-10.9c-0.1-0.2-0.5-0.3-1.1-0.6C168.3,106.4,169.9,110.2,171.5,114z M70.7,168
				c0.2-0.8,0.5-1.4,0.4-1.8c-0.3-0.9-2.4-3-3.5-3.6C67.9,165.1,68.2,165.7,70.7,168z M150.9,117c-0.2-3.4-3-9.4-4.7-10.6
				C147.9,110.1,149.4,113.5,150.9,117z M51.3,164.3c0,1.8,2.7,6.4,4.4,7.8C55.6,171.1,53.1,166.5,51.3,164.3z M224.4,294.2
				c-1.4,1.4-3.4,5.8-3.8,8.1c0.4-0.2,0.8-0.3,0.9-0.5C222.5,299.4,223.7,297.1,224.4,294.2z M101.4,120.3c0.7,2.5,2.1,4.7,3.7,7.2
				C105,125.3,103,121.4,101.4,120.3z M193.3,101.5c-0.4,0.4-0.8,0.7-0.8,1c0.1,0.6,0.4,1.1,0.5,1.7c0.4,1.7,1.3,3.3,0.8,5.1
				c0,0.1,0.1,0.2,0.2,0.4c0.4-0.1,0.7-0.2,1.2-0.4C194.6,106.9,194,104.5,193.3,101.5z M81.3,177.5c0.2,0,0.4-0.1,0.6-0.1
				c-0.3-1.3-0.4-2.6-0.8-3.8c-0.4-1.3-0.2-2.8-1.3-3.8C79.9,172.4,80.3,175,81.3,177.5z M232.7,191.9c1.2-2.8,1.7-5.7,1.7-8.7
				c-0.2,0-0.3-0.1-0.5-0.1C233.5,186,233.1,188.9,232.7,191.9z M196.9,109c0.1,0,0.3-0.1,0.4-0.1c-0.4-2.5-1-5-2-7.6
				c-0.3,0.5-0.5,0.7-0.5,0.8C195.5,104.3,196.2,106.7,196.9,109z M76.9,133.9c-0.7-3.3-2.3-5.6-3.9-6
				C74.4,130.1,75.6,132,76.9,133.9z M199.6,108.8c0.2-1.5-1.1-5.5-2.2-6.9C197.8,104.5,198.9,107.9,199.6,108.8z M212,105.6
				c0.4,1.7,0.2,3.1,1.7,4.5c0.1-1.4,0.2-2.5,0.3-3.7C213.4,106.2,212.9,106,212,105.6z M45.9,109.7c-0.1,1.4-0.5,2.8,0.2,4.2
				C47.4,112.8,47.4,112.8,45.9,109.7z M48.9,124.7c-0.3,1.8,0.9,4.5,2.6,5.8C50.6,128.3,49.7,126.5,48.9,124.7z M49.8,149.2
				c0.3,1.9,0.4,3.9,2,5.1c0.1-0.1,0.3-0.1,0.4-0.2C51.5,152.5,50.7,150.8,49.8,149.2z M211.8,161.8c0-1.6-0.2-3.1-1-4.6
				c-0.3,0.3-0.6,0.5-0.6,0.7C210.4,159.3,210.8,160.7,211.8,161.8z M96.2,121.6c-0.6,1,0,1.4,0.3,2c0.3,0.7,0.8,1.3,1.2,1.9
				c0.3,0.5,0.7,1,1,1.5C98.3,125.1,97.6,123.3,96.2,121.6z M67.6,176.7c-0.2-0.1-0.4-0.1-0.6-0.2c-0.2,0.3-0.7,0.7-0.6,1
				c0.3,1.1,0.8,2.2,1.2,3.4c0.1,0,0.3-0.1,0.4-0.1C67.8,179.4,67.7,178,67.6,176.7z M45.5,69.7c-0.2,0-0.4,0.1-0.5,0.1
				c0.5,1.8,1,3.5,1.6,5.3C47,73.1,46,71.5,45.5,69.7z M82.6,194c0.6-3.1,0.5-3.4-0.6-4.4C82.1,191.1,82.3,192.6,82.6,194z
				 M213.3,160.8c0.2-1.6-0.4-3-1.3-4.3C212.1,158.1,212.3,159.6,213.3,160.8z M210.7,105.2c-0.2-0.1-0.6-0.1-1.2-0.3
				c0.3,1.5,0.5,2.9,0.7,4.2c0.1,0,0.3,0,0.4,0C210.7,107.8,210.7,106.6,210.7,105.2z M46.6,139.2c-0.1,3.1,0.1,3.8,1,4.5
				c-0.1-0.7-0.6-1.7-0.3-2.1C48,140.6,47.4,140.1,46.6,139.2z M124.1,109.8c-0.4,1.3-0.2,1.8,1.5,3.7
				C125.8,111.9,125.2,110.8,124.1,109.8z M206.4,104.3c0.3,1.1,0.6,2.2,0.9,3.3C208.3,106.3,208,105.1,206.4,104.3z M137.7,278.1
				c-0.2-1.8-0.2-1.8-1.8-1.8C136.2,277.9,136.2,277.9,137.7,278.1z M228.2,124.4c-0.2,0-0.4,0-0.5,0c-0.8,1.3-0.4,2.7,0.1,4.1
				C227.9,127.1,228.1,125.7,228.2,124.4z M98.9,253.2c-1,1.6-1,1.6,0.2,2.7C99.8,254.9,99.3,254.1,98.9,253.2z M43.2,110.6
				c-0.2,2.1,0.2,3.1,1.4,4.1C44.1,113.3,43.7,112,43.2,110.6z M96.9,229.4c0-1.2,0-2.3,0-3.5C96.5,227,95.8,228.2,96.9,229.4z
				 M69.6,178.2c0.2,0,0.4,0,0.6,0c0.1-0.5,0.3-1.1,0.4-1.6c0-0.2-0.5-0.5-0.7-0.5c-0.2,0-0.6,0.4-0.6,0.6
				C69.2,177.2,69.4,177.7,69.6,178.2z M240,229c0-1,0-1.9,0-2.8c-0.4,0.3-0.6,0.6-0.7,1c-0.1,0.4-0.2,0.9-0.3,1.3
				C239.3,228.7,239.6,228.8,240,229z M204.2,103.3c-0.1,0.2-0.3,0.3-0.4,0.5c0.3,0.4,0.5,0.9,0.9,1c0.3,0.1,0.8-0.4,1.6-0.8
				C205.3,103.7,204.8,103.5,204.2,103.3z M187.2,105.6c0.1,0,0.2-0.1,0.3-0.1c-0.4-1.2-0.7-2.4-1.1-3.5c0,0-0.3,0.1-0.7,0.1
				C186.2,103.3,186.7,104.4,187.2,105.6z M70,187.7c0.2-0.1,0.3-0.1,0.5-0.2c-0.4-1.2-0.9-2.4-1.3-3.5c-0.2,0.1-0.4,0.1-0.6,0.2
				C69.1,185.4,69.5,186.6,70,187.7z M224.9,128.5c0.1,0,0.2,0,0.3,0c0-1.6,0-3.2,0-4.8c-0.1,0-0.2,0-0.3,0
				C224.9,125.3,224.9,126.9,224.9,128.5z M180,170.9c0-1,0-1.5,0-2.2c-0.6,0.2-1,0.3-1.7,0.5C178.8,169.8,179.3,170.2,180,170.9z
				 M213.7,156c0.2,1.3,0,2.7,1.3,3.6C214.6,158.4,214.2,157.2,213.7,156z M66.6,156.8c0.1-0.1,0.3-0.2,0.4-0.3
				c-0.7-1-1.3-1.9-2-2.9c-0.1,0.1-0.2,0.2-0.3,0.2C65.3,154.8,65.9,155.8,66.6,156.8z M81,182.8c-0.2,0.1-0.3,0.2-0.5,0.3
				c0.6,0.7,0.9,1.7,2,2.1C82.1,184.4,81.6,183.6,81,182.8z M100.6,260.4c-0.2-0.1-0.3-0.2-0.5-0.2c-0.3,0.9-0.5,1.8-0.8,2.6
				c0.1,0,0.3,0.1,0.4,0.1C100.1,262.1,100.4,261.3,100.6,260.4z M97.2,215.9c0.6-1.5,0.6-1.5,0-2.7C97.2,214.1,97.2,215,97.2,215.9
				z M201.1,168c0.2,0,0.3-0.1,0.5-0.1c-0.3-0.9-0.6-1.8-0.9-2.8c-0.1,0-0.3,0.1-0.4,0.1C200.5,166.1,200.8,167,201.1,168z
				 M102.3,239.2c-0.7,0.8-0.7,0.8-0.4,1.4c0,0.1,0.2,0,0.6,0.1C102.5,240.1,102.4,239.6,102.3,239.2z M106.2,141.5
				c0.1,2,0.1,2,1.2,2C107,142.8,106.7,142.3,106.2,141.5z M246.8,245c0.1,0,0.1-0.1,0.2-0.1c0-0.8,0-1.7,0-2.5c-0.1,0-0.1,0-0.2,0
				C246.8,243.3,246.8,244.2,246.8,245z M84.1,203.9c0.2,0,0.4,0,0.5,0c0-0.7,0-1.5,0-2.2c-0.1,0-0.3,0-0.4,0
				C84.2,202.4,84.1,203.1,84.1,203.9z M200.5,104.5c0.1-0.1,0.3-0.1,0.4-0.2c-0.3-0.6-0.1-1.4-1.2-1.7
				C200,103.3,200.2,103.9,200.5,104.5z M229.3,201c-0.9,1.1-0.9,1.1,0,1.9C229.3,202.3,229.3,201.7,229.3,201z M82.2,239.5
				c0.9-0.5,1.3-1,0.1-1.6C82.3,238.5,82.2,239,82.2,239.5z M180.2,101.5c-0.2,0.1-0.4,0.2-0.6,0.2c0.2,0.4,0.4,0.9,0.6,1.3
				c0.1,0,0.2-0.1,0.3-0.1C180.4,102.5,180.3,102,180.2,101.5z M221.9,115.4c0,0-0.1,0-0.1,0c0,0.6,0,1.1,0,1.7c0.1,0,0.2,0,0.2,0
				C221.9,116.5,221.9,116,221.9,115.4z M234.1,260.5c-0.3,0.2-0.5,0.3-0.5,0.4c0.1,0.2,0.2,0.5,0.3,0.7
				C234,261.3,234.1,260.9,234.1,260.5z M89.1,275.7c0.1,0,0.2,0,0.3,0c0-0.5,0.1-0.9,0.1-1.4c-0.1,0-0.1,0-0.2,0
				C89.3,274.8,89.2,275.3,89.1,275.7z M190.8,102.4c-0.1,0-0.2,0.1-0.4,0.1c0.2,0.5,0.3,1,0.5,1.5c0.1,0,0.2-0.1,0.3-0.1
				C191.1,103.4,190.9,102.9,190.8,102.4z M216.6,151.1c-0.1,0-0.2,0.1-0.3,0.1c0,0.2,0,0.5,0.1,0.7c0.1,0.2,0.3,0.4,0.5,0.6
				c0.1-0.1,0.2-0.1,0.2-0.2C216.9,152,216.7,151.6,216.6,151.1z M95.3,251.2c0.5,0.5,0.7,0.8,1.1,1.2
				C96.7,251.5,96.6,251.1,95.3,251.2z M231.4,196.5c-0.1,0-0.2-0.1-0.3-0.1c-0.2,0.4-0.3,0.8-0.5,1.2c0.1,0,0.2,0.1,0.2,0.1
				C231.1,197.3,231.3,196.9,231.4,196.5z M152.2,119.8c0.1,0,0.2-0.1,0.3-0.1c-0.2-0.4-0.3-0.9-0.5-1.3c0,0-0.2,0-0.4,0
				C151.9,118.9,152,119.4,152.2,119.8z M57.3,120.6c0.2-0.1,0.3-0.2,0.5-0.4c-0.3-0.3-0.5-0.6-0.8-0.9c-0.1,0.1-0.2,0.1-0.3,0.2
				C56.9,119.9,57.1,120.2,57.3,120.6z M94.1,123.9c0.1-0.1,0.2-0.2,0.4-0.3c-0.2-0.3-0.4-0.6-0.6-0.9c-0.1,0.1-0.2,0.1-0.3,0.2
				C93.8,123.3,94,123.6,94.1,123.9z"/>
			<path d="M128.1,317.5c-1.2-0.9-1.1-2-0.9-3.1c0.5-2.9,1-5.8,1.7-8.6c0.9-3.6,2-7.1,2.9-10.6c0.6-2.2,1.1-4.5,1.7-6.7
				c1,0.6,0.7,1.5,0.5,2.2c-0.5,3.2-1.1,6.3-1.7,9.5c-0.4,2.3-0.8,4.6-1.3,6.8c-0.7,3.3-1.5,6.5-2.3,9.7
				C128.6,316.9,128.3,317.1,128.1,317.5z"/>
			<path d="M153.2,313.3c-0.3,0.7-0.6,1.3-1,2.4C152.2,314.5,152,313.6,153.2,313.3z"/>
			<path d="M221,310.1c0.3-1.1,0.5-2.2,0.8-3.3c0,0,0,0,0,0C222,308,222.2,309.2,221,310.1L221,310.1z"/>
			<path d="M221,310.1c0,0.7,0,1.4,0,2c-0.1,0-0.2,0-0.3,0C220.8,311.4,220.9,310.7,221,310.1C221,310.1,221,310.1,221,310.1z"/>
			<path d="M126.3,186.5c-0.4,1.6,1,2.8,0.4,4.5c-1.5-1.3-1.8-3-2.2-5c-1.1,1-0.3,1.7-0.2,2.4c0.1,0.7,0.3,1.4,0.5,2.4
				c-1.5-0.5-1.5-1.9-2.3-2.6c-0.1,0.4-0.3,0.7-0.5,1.3c-0.6-0.6-1.1-1.1-1.6-1.7c-0.2,0.2-0.4,0.5-0.8,1.1c-0.5-0.9-1-1.7-1.5-2.6
				c-0.3,0.3-0.6,0.5-1.1,0.9c-0.7-1.1-1.8-1.2-3-1c-1.8,0.2-3.5,0.3-5.3,0.5c-0.7,0.1-1.2,0.2-1.7,0.9c-1.5,2.2-3.1,4.3-4.7,6.5
				c-0.8,1.1-1.6,2.2-2.6,3.5c2,6.5,4.9,12.8,10,18.2c-0.5-0.1-0.9-0.1-1.4-0.3c-2.1-0.8-3-2.8-4.1-4.5c-2.6-3.9-4.5-8.1-5.8-12.6
				c-0.8-2.7-1.7-5.5-2.5-8.2c-0.5-1.8-2.1-1.8-3.4-2.1c-0.5-0.1-1,0-2,0c0.6-0.8,1-1.4,1.4-1.8c2.4-2.4,4.9-4.7,7.4-7
				c0.6-0.5,1.4-0.9,2.1-1.1c2.4-0.5,4.8-1,7.3-1.2c2.6-0.3,5.2-0.3,7.8-0.5c1-0.1,2.1-0.6,3.1-0.6c7.1-0.1,14.2-0.1,21.3-0.1
				c0.5,0,0.9,0,1.5,0.3c-0.3,0.1-0.6,0.3-0.9,0.4c-2,0.1-4,0.2-5.9,0.3c-3.1,0.2-6.3,0.3-9.7,0.5c0.7,2.1,1.9,4,1.6,6.3
				c-0.5-0.2-0.8-0.4-1.2-0.6c-0.2,0.6-0.1,1.1,0.7,1.1c5.1,0.1,10.1,0.4,15-1.3c2.7-0.9,5.2-2.2,7.8-3.5c0.9-0.5,1.4-1.2,1.1-2.4
				c-0.4-1.2-0.7-2.5-1-3.7c-5.8,2.2-5.8,2.2-6.9,1.5c0.4-0.3,0.8-0.6,1.2-0.7c1.7-0.7,3.4-1.5,5.1-2.2c0.9-0.4,1.3-1,0.6-2
				c-2.8,0.9-5.7,1.7-8.5,2.6c-0.1-0.2-0.1-0.3-0.2-0.5c1.3-0.6,2.7-1.2,4-1.8c0-0.1-0.1-0.2-0.1-0.3c-1.8,0.4-3.5,0.8-5.3,1.2
				c-0.1-0.2-0.1-0.3-0.2-0.5c5.6-1.8,11.2-3.7,16.4-6.5c0.3-0.2,0.8,0,1.3,0c0.2,0.5,0.4,1,0.6,1.8c-1.6,0.9-3.3,1.7-5.1,2.6
				c0.2,0.5,0.4,0.9,0.6,1.3c1-0.4,1.8-0.8,2.8-1.3c0.2,1.1-0.5,1.7-1.1,2c-1,0.5-1.1,1.2-0.8,2.2c0.4,1.2,0.7,2.3,1.2,3.6
				c1.1-0.5,2.3-1,3.5-1.6c0.8,1.4,1.2,2.7,0.9,4.2c-0.5,2.5-0.8,5.1-1.9,7.5c-0.1,0.2-0.2,0.5-0.3,0.8c-0.5,1.6-0.5,1.6-2.2,1.5
				c-1.4-0.1-2.6,0.2-3.6,1.1c-0.6,0.5-1.3,1-2,1.4c-1.5,1-3,2-3.6,3.8c-0.1,0.3-0.2,0.5-0.3,0.8c-0.1-0.1-0.3-0.2-0.4-0.3
				c0-0.4-0.1-0.7-0.1-1.2c-1,0.4-1.9,0.7-3,1.1c-1.1-2.8-2.1-5.6-3.2-8.3c0,0-0.2,0.1-0.6,0.2c0.3,0.9,0.7,1.8,1,2.8
				c0.5,1.6,1,3.3,1.5,4.9c0.1,0.5,0,1,0,1.8c-1.9-1.7-1.7-4-2.9-5.6c0.3,1.4,0.6,2.9,0.9,4.3c-1.8-0.7-1.8-2.3-2.3-3.6
				c-0.5-1.4-1-2.8-1.6-4.1c-0.1,2.3,1.6,4.3,1.4,6.9c-1.8-0.9-1.7-2.6-2.3-3.9c-0.6-1.3-1.1-2.6-1.8-3.9c0.1,2.2,1.5,4.1,1.4,6.3
				c-0.2,0.1-0.3,0.1-0.5,0.2c-0.5-1-1.1-2.1-1.7-3.2c-0.4,0.9,0.6,1.9-0.6,2.7c-0.5-1.2-0.9-2.3-1.4-3.4c-0.4-0.9,0-2.3-1.4-3
				c-0.2,1.9,1.4,3.3,0.7,5.2c-1-0.7-1.2-1.7-1.6-2.6C127.1,188.2,126.7,187.4,126.3,186.5z M100.7,180.6c0.4,1,0.8,1.8,0.9,2.7
				c0.2,1.1,0.7,2.6,0.2,3.3c-0.9,1.2-0.4,2-0.1,3.2c0.3-0.2,0.6-0.4,0.8-0.5c1.1-1.2,2.1-2.7,3.5-3.5c1.4-0.8,3.2-1,4.8-1.5
				c0.2-1.3-0.8-2.7,0-4.1c0.4,0.5,0.6,0.8,1.1,1.4c-0.2-1.2-0.4-2-0.5-2.9C107.8,179.3,104.3,179.3,100.7,180.6z M120.2,184.4
				c-0.6-2.2-1.2-4.3-1.8-6.5c-2,0.2-3.9,0.4-6,0.7c0.7,2.1,1.3,4,2,5.8C116.3,184.4,118.1,184.4,120.2,184.4z M121.8,177.8
				c0.7,2.2,1.4,4.3,2.1,6.5c0.7-0.1,1.2-0.2,1.7-0.3c-0.6-1.9-1.2-3.6-1.7-5.4C123.5,177.7,122.9,177.4,121.8,177.8z M141.1,187.1
				c0.7,2.1,1.3,4.3,2,6.4c0.1,0,0.3-0.1,0.4-0.1C142.6,191.3,142.6,188.9,141.1,187.1z M120.4,178c-0.1,0-0.3,0.1-0.4,0.1
				c0.3,0.9,0.6,1.9,1,2.8c0.1,0,0.2-0.1,0.4-0.1C121,179.9,120.7,178.9,120.4,178z M99.7,181.7c-0.2,0.1-0.4,0.1-0.5,0.2
				c0.3,0.6,0.5,1.2,0.8,1.7c0.1,0,0.2-0.1,0.3-0.1C100.1,182.9,99.9,182.3,99.7,181.7z M125.3,177.6c-0.1-0.1-0.3-0.1-0.4-0.2
				c-0.2,0.2-0.4,0.3-0.4,0.5c0,0.3,0.2,0.5,0.4,1C125.1,178.3,125.2,177.9,125.3,177.6z M112.3,182.8c-0.1,0.1-0.2,0.1-0.4,0.2
				c0.2,0.4,0.3,0.7,0.5,1.1c0.1,0,0.2-0.1,0.3-0.1C112.5,183.6,112.4,183.2,112.3,182.8z M144.8,186.6c0.1,0,0.2,0,0.3-0.1
				c-0.1-0.3-0.1-0.6-0.2-0.9c-0.1,0-0.2,0-0.3,0.1C144.7,186,144.7,186.3,144.8,186.6z"/>
			<path d="M186.2,196.9c-1.1,0.7-2.2,1.4-3.5,2.2c-0.4-1-0.7-1.8-1.1-2.5l0.1,0.1c-0.4-1-0.7-2.1-1.1-3.1c-0.3-0.6-0.8-1-1.4-1.6
				c0.1-0.2,0.3-0.6,0.6-1c1.7,0.7,2.9-1.4,4.6-0.6c0.1-0.1,0.1-0.3,0.2-0.4c-0.7-1.5-1.3-2.9-2-4.4c-1-2-2.2-3.9-3.1-6
				c-1.1-2.4-1.9-4.9-2.8-7.4l-0.1,0c1.7,1.5,2.7,3.6,3.7,5.6c2.7,5.5,5.3,11,7.9,16.4c0.4,0.8,0.9,1.4,1.7,2
				c2.6,1.8,5.2,3.8,7.1,6.5c2.7-1,5.5-0.6,8.3-0.5c1,0,2,0.1,2.8,1c0.6,0.6,1.7,0.9,2.5,1.3c3.3,1.7,6.5,3.6,9,6.4
				c0.1,0.2,0.3,0.4,0.4,0.4c1.9,0.2,2.2,1.8,2.9,3.1c2.4,4.3,4.4,8.8,5.7,13.6c0.2,0.8,0.4,1.7,0.4,2.7c-0.2-0.2-0.4-0.4-0.5-0.6
				c-1.9-4.4-3.9-8.9-5.8-13.3c-0.7-1.6-1.7-2.9-3.2-3.9c-1.5-1-2.7-2.3-4.1-3.4c-1.9-1.5-3.9-2.6-6.2-3.6c-0.2,1.8-0.3,3.4-0.5,5
				c0,0.4-0.1,0.9-0.4,1.2c-1,1.5-2.5,2.7-2.9,4.6c-0.2,0.7-0.9,1.3-1.5,1.9c-1.3,1.3-2.3,2.7-2.8,4.6c-0.5,1.8-1.9,3.3-2.7,5
				c-0.9,2-2.5,3.4-4.2,4.6c-0.6,0.4-1.3,0.7-2,1.1c0,0.6,0,1.3,0,2.2c-1.5-1.1-3-2.1-5-0.8c-0.2-0.4-0.4-0.8-0.6-1.2
				c-0.6,0.4-1,0.7-1.4,1c0,0-0.1-0.1-0.2-0.2c-0.2-0.2-0.3-0.6-0.5-0.6c-1.4-0.2-2.8-0.5-4.2-0.5c-1.5-0.1-2.1,0.2-3.6-1.3
				c-0.6,0.1-1.1,0.4-1.5,0.3c-0.9-0.3-1.9-0.4-2.8,0c-0.9,0.3-1.3-1.1-2.2-0.3c-1.8-1.3-4-0.6-5.9-1.3c-0.4-0.2-1-0.2-1.4-0.4
				c-1.4-0.9-2.6-0.6-4.1,0.4c-0.4,4.5-0.8,9.2-1.3,14.2c-0.9-0.7-0.7-1.4-0.7-2c0.2-3.4,0.4-6.8,0.6-10.2c0.1-1.9,0.4-3.8,0.6-5.7
				c0.1-1.5,0.3-2.8,1.3-4c1.4-1.7,2.5-3.6,3.9-5.3c0.6-0.7,1.4-1.2,2.1-1.8c0.1,0.1,0.2,0.2,0.3,0.3c-0.8,1-1.6,2.1-2.4,3.1
				c-0.6,0.8-1.2,1.5-1.8,2.3c-1.6,1.9-2.3,4-1.2,6.6c0.9,0,1.8-0.2,2.7-0.9c1.6-1.4,3.3-2.5,5.6-2.3c0.4,0,0.9-0.3,1.4-0.4
				c0.3-0.1,0.8-0.3,1-0.2c1.6,1.1,3.5,0.6,5.3,0.9c2.3,0.4,4.6,0.4,6.9,0.4c2.2,0,4.5-0.6,6.7,0.1c1.6-0.7,3.3-1.4,4.8-2.2
				c0.8-0.5,1.3-1.4,1.9-2.1c2-2.5,4-4.9,5.8-7.4c1-1.3,2.1-2.3,3.7-2.8c0.4-0.1,0.8-0.3,1.3-0.5c-0.2-1.8-0.3-3.5-0.5-5.2
				c-0.1-1-0.7-1.5-1.6-1.6c-2-0.2-3.9-0.5-5.9-0.5c-1.7,0-3.1-0.3-4.3-1.4c-1.5-1.4-3.1-2.7-4.7-4
				C189.2,197.2,187.8,196.6,186.2,196.9c0.3-2.3-1.3-3.9-2.3-5.8c-0.2,0.2-0.4,0.4-0.4,0.4c0.5,1.7,1,3.4,1.6,5
				C185.3,196.8,185.9,196.8,186.2,196.9z M181.7,191.5c-0.2,0.1-0.4,0.2-0.5,0.4c0.8,2,1.7,4,2.5,6c1.1-1.2,0.4-2.3,0-3.3
				C183.2,193.5,183.2,191.9,181.7,191.5z"/>
			<path d="M222.8,239.8c-1,1.5-2.3,2.1-4.1,2.4c-3.3,0.6-6.8,1-9.8,2.5c0.1,0.9,0.4,1.8-1.1,1.7c-0.1-0.4-0.2-0.8-0.4-1.3
				c-0.5,0.4-0.9,0.7-1.3,1c0.2,0.3,0.4,0.6,0.6,0.8c-0.1,0.1-0.1,0.3-0.2,0.3c-1,0.5-1.9,0.9-2.9,1.3c-0.2,0.1-0.4,0.3-0.4,0.4
				c0,2.3-2.4,1.4-3.3,2.5c-1.5-0.9-3-0.2-4.4,0.1c-1.1,0.2-2,1.1-3.1,1.3c-1,0.2-2.1-0.1-3.2,0.1c-0.8,0.1-1.5,0.6-2.2,1
				c-1.4,1.1-2.7,2.3-4.2,3.3c-1.1,0.8-2.1,1.5-3.5,1.8c-1.6,0.4-3.4,1.3-4.5,3.1c-0.7-0.4-1.6-1-2.3-1.4c1.4-1.5,2.8-3,4.1-4.4
				c0.9-1,1.7-2,2.6-2.9c0.3-0.4,0.6-0.9,1-1c1.7-0.5,2.3-2,3.4-3.1c1.8-1.8,3-4,5.2-5.4c0.5-0.3,0.8-1,1.3-1.7
				c2.1,1.4,4.1,0.3,6-0.4c1.4-0.6,2.6-1.7,4-2.5c0.5-0.3,1.1-0.8,1.6-0.8c1.6,0,3.2-0.6,4.8,0c0.9,0.3,2,0.2,3,0.2
				c3.3-0.1,6.6-0.3,10-0.3c1.1,0,2.2,0.5,3.2,0.8C222.7,239.3,222.7,239.6,222.8,239.8L222.8,239.8z"/>
			<path d="M191.9,266.6c0-0.9,0-1.4,0-2c0.2-0.1,0.3-0.3,0.6-0.4c3.5-1.3,7-2.7,10.6-3.9c3.5-1.2,6.8-2.9,9.9-4.9
				c2.6-1.7,4.7-3.7,5.7-6.8c0.2-0.8,0.6-1.5,1.5-1.8c0.5-0.2,0.8-0.7,1.5-1.2c0,0.9,0.2,1.7,0,2.3c-0.7,2.4-1.5,4.8-2.2,7.3
				c-0.2,0.5-0.3,1.1-0.3,1.6c0,0.8,0.4,1.7-1,1.8c-0.1,0-0.2,0.9-0.3,1.6c-0.3,0-0.7,0-1.1-0.1c0,0.6,0,1.1,0,1.7
				c-0.4,0.2-0.8,0.3-1.3,0.5c0.2,0.9,0.3,1.7,0.6,3.1c-0.9-0.7-1.4-1.2-2.1-1.7c-1.3,1.3-2.7,2.5-4,3.8c-1.1-0.9-2.1,0.2-3.2,0.1
				c-0.7,1.2-2,0.9-3,1.2c-1,0.4-1.9,1.3-3.2,1c-0.3-0.1-0.7,0.5-1.1,0.9c-0.8-0.4-1.6-0.6-2.6,0.1c-0.6,0.4-1.8,0-2.8-0.1
				c-0.4-0.6-0.7-1.3-1.3-2.2c-0.1,0.8-0.1,1.4-0.2,2.1c-2.9-0.3-3.3-2.7-4.4-4.6c-3.6,0-6.6-2.3-10.4-3.2c1.7-1,3.1-0.5,4.3,0
				c2.2,0.8,4.3,1.6,6.7,1.5C190.5,264.1,190.5,264.2,191.9,266.6z M196.7,268.2c0.6-0.9,0.2-1.4-0.7-1.8
				C196.3,267,196.5,267.6,196.7,268.2z M212.2,259.2c-0.1,0-0.2,0.1-0.3,0.1c0.1,0.4,0.3,0.7,0.4,1.1c0.1,0,0.2-0.1,0.3-0.1
				C212.4,259.9,212.3,259.6,212.2,259.2z M198.9,265.6c-0.1,0-0.2,0.1-0.3,0.1c0.2,0.4,0.3,0.8,0.5,1.3c0.1,0,0.2-0.1,0.3-0.1
				C199.2,266.4,199,266,198.9,265.6z"/>
			<path d="M164.4,176.4c-0.3,1.6-0.6,3.3-0.8,4.9c-0.3,2.1,0.5,3.9,1.1,5.8c1.2,4.3,2.5,8.7,3.7,13c0.3,0.9,0.4,1.9,0.5,2.8
				c0.1,0.5-0.1,1.1-0.1,1.6c-0.1,0-0.3,0-0.4,0c-1.7-6.2-3.3-12.3-5-18.5c-0.1,0-0.3,0-0.4,0c-0.1,0.5-0.3,0.9-0.3,1.4
				c-0.2,4.8-0.4,9.7-0.6,14.5c0,0.6-0.1,1.3-0.4,1.9c-0.7-2.2-0.6-4.5-0.4-6.8c0.3-4.6,0.7-9.1,1.1-13.7c0.1-1.2,0-2.4,0.1-3.7
				c0.1-1,0.1-2,0.3-3C162.8,175.8,163.5,175.8,164.4,176.4z"/>
			<path d="M161.9,207.4c-1,3-1.9,6-3,9.2c0.5-0.1,0.9-0.1,1.3-0.2c0,0.2,0.1,0.5,0,0.6c-1,2.3-2,4.7-3.1,6.9
				c-1.7,3.5-2.3,7.2-2.2,11.1c0,0.8,0,1.7-0.1,2.5c-0.1,0.4-0.5,0.8-0.9,1.5c-0.3-0.8-0.5-1.2-0.5-1.5c-0.8-7.2-0.7-7.1,1.9-13.7
				c1.7-4.3,3.1-8.7,4.6-13.1c0.4-1.2,0.9-2.4,1.3-3.6C161.5,207.3,161.7,207.4,161.9,207.4z"/>
			<path d="M158.6,152.5c-9.9,3.6-20.2,5.2-31,6.3C130.5,157,154.4,152.1,158.6,152.5z"/>
			<path d="M124.7,247.3c1.6,0.6,1.8-1.2,3-1.3c-0.1,1.4-1.1,2.9-2.1,3.1c-1.1,0.2-2.3-0.6-2.3-1.8c0-1.2,0.1-2.3,0.3-3.5
				c0.4-3.6,0.8-7.2,1.1-10.8c0.1-0.8-0.2-1.7-0.3-2.9c-1.6,1.6-1.9,3.7-3.9,4.2c-1.5-1.2-1.6-1.5-1.6-3.9c0.6,0.9,1,1.6,1.7,2.6
				c0.6-0.9,1-1.6,1.4-2.4c0.2-0.5,0.3-1.1,0.6-1.5c0.4-0.5,0.9-1.2,1.4-1.3c0.8-0.1,1.6,0.6,1.8,1.4c0.3,1,0.5,2,0.5,3
				c-0.3,3.7-0.7,7.5-1.1,11.2C125,244.8,124.8,246.1,124.7,247.3z"/>
			<path d="M170.8,146.7c1-1.7,18.7-15.5,22.5-17.6C190.6,133.5,174.5,146.1,170.8,146.7z"/>
			<path d="M124.7,216.5c0.8,0.3,1.4,0.5,2,0.7c0,0.1-0.1,0.3-0.1,0.4c-3.7,0-7.3-0.7-10.9-1.7c0-0.2,0-0.3,0-0.5
				c0.4-0.1,0.8-0.2,1.1-0.2c1.8,0.3,3.6,0.7,5.4,1.1c0.6,0.1,0.9,0,1.5-0.3c1.5-0.8,3.1-1.2,4.6-2c2.1-1,4.1-2.2,6.1-3.3
				c1.7-0.9,3.5-1.7,5.3-2.4C135.5,212.3,130.5,214.9,124.7,216.5z"/>
			<path d="M130.4,233.7c-0.8,2-1.2,4.1-1.3,6.3c0.4,0,0.6,0,1,0.1c-0.3,1.2-0.3,2.5-1.5,3.4c-0.9-0.5-0.9-1.3-0.8-2
				c0.6-3.2,1.3-6.4,2-9.6c0.3-1.4,0.6-2.8,0.6-4.3c-0.4,0.4-0.8,0.8-1.4,1.5c-0.3-2.4,0-4.2,1.4-5.9c1.4,0.2,1.6,1,1.4,2.1
				c-0.4,2.1-0.8,4.3-1.2,6.4C130.4,232.4,130.4,233.1,130.4,233.7C130.4,233.8,130.4,233.7,130.4,233.7z"/>
			<path d="M141.4,199.7c-1.3,1-2.8,0.7-4,0.2c-1.4-0.6-2.9-0.8-4.3-0.9c-3.4-0.3-6.5-1.4-9.4-3.3c2,0.1,3.9,0.9,5.8,1.4
				c2,0.5,3.9,1.1,5.9,1.4c2,0.3,4,0.4,6,0.6C141.4,199.3,141.4,199.5,141.4,199.7z"/>
			<path d="M199.6,177.9c2.1-0.3,4.3-0.8,6.4-0.8c2.8,0,5-1.2,6.9-3.1c0.6-0.6,1.2-1.2,1.8-1.7c0.4-0.3,0.8-0.4,1.6-0.8
				c-1.8,3.3-5.4,5.9-8.5,6.3c-2.7,0.3-5.4,0.6-8.1,0.8C199.6,178.3,199.6,178.1,199.6,177.9z"/>
			<path d="M131.1,217.1c5.1-0.5,9.9-1,14.7-1.4C143.8,217.4,133.9,218.3,131.1,217.1z"/>
			<path d="M155.6,192.3c-1.2,2.6-3.3,4.2-5.9,5.9C150.4,196.1,153.3,193.2,155.6,192.3z"/>
			<path d="M214.7,118.7c1.2,3.4,1.7,7,2.1,10.6c-0.2-0.7-0.4-1.4-0.6-2.1c-0.6-2.5-1.2-5-1.7-7.5
				C214.5,119.4,214.7,119,214.7,118.7C214.7,118.7,214.7,118.7,214.7,118.7z"/>
			<path d="M178.4,194.3c1.1,1.7,2,3.5,2.1,5.6c-0.2,0.1-0.3,0.1-0.5,0.2c-0.7-1.8-1.3-3.7-2-5.5
				C178.1,194.4,178.3,194.4,178.4,194.3z"/>
			<path d="M128.5,182.1c-0.4-1.1-0.7-2.3-1.1-3.4c1.4,0.8,1.6,2,1.7,3.3C128.9,182,128.7,182.1,128.5,182.1z"/>
			<path d="M177,199c-0.5-1.3-1-2.5-1.6-3.8c1.4,0.9,1.8,2.2,2.2,3.5C177.4,198.8,177.2,198.9,177,199z"/>
			<path d="M222.7,239.8c1.6-0.8,1.6-0.8,2.5,0.6C223.6,241.2,223.6,241.2,222.7,239.8C222.8,239.8,222.7,239.8,222.7,239.8z"/>
			<path d="M181.7,196.6c0,0.5-0.1,1.1-0.1,1.6c-0.1,0-0.3,0.1-0.4,0.1c-0.4-1.2-0.8-2.4-1.2-3.6c0.1-0.1,0.2-0.1,0.4-0.2
				C180.9,195.2,181.3,195.9,181.7,196.6C181.8,196.7,181.7,196.6,181.7,196.6z"/>
			<path d="M214.4,130.1c0.2,1,0.4,1.7,0.6,2.6C213.8,132.1,213.7,131.4,214.4,130.1z"/>
			<path d="M164.8,150c-0.6,0.3-1.2,0.6-2,0.9C163.3,149.8,164.2,150.1,164.8,150z"/>
			<path d="M196.9,74c0-1.2-0.2-1.9-0.9-2.5c-0.9-0.8-0.6-1.5,0.3-2.3c1,0.6,1.9,1.3,2.9,1.9c0.8-0.9,1.4-0.8,2.2,0
				c2.6,2.7,4.6,5.8,6.3,9c2.4,4.3,4.4,8.8,5.9,13.5c0.4,1.3,0.8,2.7,0.5,4.5c-2.4-2.1-2.7-4.9-3.8-7.7c0.3,3.3,0.3,3.3-0.4,5
				c-1.2-0.2-1.8-1-2.2-2.1c-0.9-2.4-1.7-4.9-2.8-7.2c-1.3-2.6-2.8-5-4.3-7.5c-0.2-0.4-0.6-0.7-1-0.9c2.2,4.4,4.7,8.6,5.5,13.5
				c0.1,0.5-0.2,1-0.3,1.6c-1.5-0.5-2.2-1.7-2.6-2.9c-1.9-5.4-5.1-10.1-8.1-14.9c-1.2-1.9-2.3-3.9-3.4-5.8c-0.3-0.5-0.2-1.1-0.3-1.8
				c1.3,0.2,2,0.7,2.6,1.6c0.8,1.3,1.8,2.4,2.7,3.6C195.9,73.1,196.3,73.4,196.9,74z"/>
			<path d="M51.3,211.6c0.8,1.3,2.3,1.5,3.4,2.4c1.1,0.9,2.4,1.6,3.5,2.5c1.1,0.9,2,1.9,2.8,3.1c-2.3-1.5-4.5-2.9-6.7-4.3
				c-0.7,0.7-1.3,1.3-2,2.1c-1.7-1.8-2.8-3.6-3.8-5.6c-1.5-3-3-6-4.2-9.1c-0.5-1.4-0.4-3.1-0.1-4.6c0.7-3,2.2-5.7,4.4-8
				c1.7-1.8,3.8-2.9,6.1-3.6c0.7-0.2,1.5,0.1,2.2,0.1c0.1,2.1,2.2,1.8,3.3,2.8c1.2,1,2.6,1.8,3.8,2.8c1.2,0.9,2.4,1.9,2.4,3.7
				c-2.7,2.5-2.3,5.6-1.1,8.6c1.2,3.1,2.9,6,4.4,9c1.3,2.5,2.6,5,3.8,7.5c0.1,0.3,0.1,0.6,0.1,0.9c-2.6,0.9-2.6,0.9-4-1.2
				c-1.8-2.9-4.3-5.1-6.9-7.3c-4-3.3-8.3-6.3-13.3-8.5c0.1,0.4,0.1,0.8,0.3,1c1.4,2,3.1,3.6,5.2,4.9c4.4,2.7,8.4,5.9,11.9,9.7
				c0.4,0.4,0.7,0.8,1,1.3c0.1,0.1,0.1,0.4,0.1,1.1c-1-1-1.7-1.8-2.4-2.5c-0.8-0.8-1.6-1.7-2.5-2.4c-0.8-0.7-1.7-1.3-2.7-1.9
				c-0.9-0.6-1.8-1.2-2.8-1.7c-1-0.6-2.1-1.1-3.1-1.6c-1-0.5-1.9-0.9-2.9-1.4C51.5,211.3,51.4,211.4,51.3,211.6z M60.7,200.4
				c0.5,0.5,1.1,0.9,1.6,1.4C62.1,200.8,61.8,200,60.7,200.4c0.1-1.1-0.8-1.7-1.5-2.2c-2.7-2-5.7-3.4-8.8-4.7
				c-0.2-0.1-0.5,0-0.8,0.1c0,0.1-0.1,0.3-0.1,0.4C53.6,195.5,57.2,197.8,60.7,200.4z M54,188.9c0.7,0.7,1,1.2,1.4,1.5
				c2.6,1.7,5.1,3.3,7.7,4.9c0.2,0.1,0.6-0.1,1-0.2C61.5,192.3,57.1,189.6,54,188.9z M59.9,202.9c-3.4-3.3-7.5-5.6-12.1-7.2
				c-0.2,1.3,0.7,1.3,1.3,1.5c1.9,0.8,3.8,1.6,5.6,2.5C56.4,200.7,58.1,201.8,59.9,202.9z M47.1,198.8c5.1,2.5,10,5.3,14.7,8.6
				C57.6,203.2,52.5,200.8,47.1,198.8z"/>
			<path d="M74.6,221.1c-1.4-2.9-1.4-6-1.7-9c0.1,0,0.3-0.1,0.4-0.1c0.2,0.9,0.4,1.7,0.7,2.8c0.3-0.3,0.4-0.5,0.6-0.7
				C74.6,216.4,74.6,218.8,74.6,221.1z"/>
			<path d="M73.3,205c-0.3-0.5-0.6-0.8-0.9-1.2c-0.9,1.3,0,2.6-0.4,3.9c-0.2-1.5-0.4-3.1-0.6-4.9c0.5-0.1,1-0.3,1.5-0.2
				C73.5,202.8,73.5,203,73.3,205z"/>
		</g>
	</g>
	<g>
		<path d="M252.8,97.8c-0.2-0.1-0.5-0.3-0.7-0.6c-0.5-0.8-0.9-1.7-0.8-2.8c0-1.4,0.2-2.9,0.1-4.4c0.1-1.7,0.4-3.4,0.5-5.1
			c0-0.9,0.2-1.9,0.3-2.8c0.3-1.7,0.6-3.6,0.8-5.5c0.3-2.2,0.7-4.4,1.2-6.7c0-0.5,0.1-1,0.1-1.4c0.1-0.3,0-0.5-0.1-0.8
			c-1-0.9-1-0.9-0.6-2.3c0.2-0.9,0.5-1.7,0.7-2.5c0.2-0.2,0.2-0.3,0.2-0.5c-0.5-0.2-0.8,0-1.2,0.3c-0.3,0.2-0.8,0.3-1.3,0.3
			c-0.3,0.2-0.8,0.3-1,0.5c-0.6,0.2-1.3,0.5-1.7,0.8c-0.8,0.7-1.7,1-2.7,0.8c-0.3,0-0.6-0.1-0.8-0.4c-0.5-0.6-0.8-1.1-0.5-1.9
			c0.2-0.1,0.2-0.5,0.2-0.8c0.1-0.1,0.3-0.3,0.4-0.6c0.1-0.3,0.6-0.5,0.8-1c0.8-0.6,1.5-1.3,2.4-1.4c1-0.3,1.7-0.5,2.7-0.7
			c1.7-0.5,3.4-0.8,5.1-1.2c2-0.5,4.1-0.6,6.2-0.5c0.8,0,1.4,0.2,2.2,0.2c0.1,0,0.5-0.2,0.6-0.2c0.3,0,0.6,0,0.8-0.1
			c0.8,0,1.4,0.3,1.8,0.9c0.1,0.3,0.5,0.4,0.6,0.6c0.5,0.3,1,0.6,0.8,1.2c0,0.8,0,1.4-0.6,1.9c-0.2,0-0.2,0.1-0.3,0.1
			c-0.8,1-1.7,0.8-2.7,0.4c-0.9-0.4-1.7-0.4-2.7-0.6c-0.5-0.1-1,0-1.7,0c-0.8,0.2-1.2,0.8-1.2,1.6c0.1,0.5,0,1-0.2,1.4
			c0,1.2-0.1,2.3-0.2,3.4c0,1.4-0.2,2.7-0.3,4c0,0.3-0.2,0.8-0.2,1.2c-0.1,1-0.2,1.9-0.4,2.9c-0.1,0.9-0.3,1.8-0.5,2.6
			c-0.2,1.6-0.5,3-0.7,4.4c-0.2,0.3-0.3,0.8-0.3,1.2c-0.3,1.6-0.6,3.1-0.9,4.7c-0.1,0.8-0.1,1.4-0.4,2c-0.1,0.3,0,0.6,0,0.9
			c0.2,0.5,0.2,0.8,0.3,1.3c0.7,2,0.8,4,0.5,6.2c-0.1,0.3-0.1,0.8-0.1,1.2c0,0.3,0.1,0.6,0.1,0.9c0.2,0.3,0.3,0.4,0.5,0.8
			c0.3,1-0.2,1.9-1.2,2c-1.7,0.2-3.3-0.2-4.7-1.3c-0.5-0.3-0.6-1-0.3-1.4c0.2-0.6,0.6-1.1,1-1.6c0.3-0.5,0.4-0.8,0.6-1.2
			C253.3,98.3,253.2,98,252.8,97.8z"/>
		<path d="M280.9,95.4c0.3,0.8-0.2,1.9-0.5,2.7l-0.3,0.3c0.3,0.5-0.2,1.4-0.2,1.9c-0.3,0.3-0.5,0.9-1.1,1.1
			c-0.3,0.3-0.5,0.5-0.8,0.9c-0.3,0.5-0.8,0.8-1.3,1.1c-0.8,0-1.9,0.4-2.7,0.6c-1.7,0-3.3-0.2-4.4-1.3c-0.8-0.6-1.1-1.3-1.4-2.2
			c0-0.5-0.3-1.4-0.8-1.9c-0.3-0.6-0.3-1.1-0.3-1.4c-0.3-0.6,0-1.1,0.2-1.6l0-0.3c0,0,0-0.3-0.3-0.3c0,0,0,0,0-0.3l-0.3,0
			c0,0.3,0,0,0,0c-0.3-0.5-0.5-0.8-0.3-1.6c0-0.3,0.2-0.8,0.6-1.1c0.5-0.5,1-1.1,1.6-1.6c0.3-1.3,1.9-3.2,2.4-3.9
			c0.5-1.9,1.6-3.9,2.3-5.5c0.3-0.5,0.6-1.4,0.8-1.9c0.3-0.6,0.5-0.9,1.4-0.9c0.8,0,1.4,0.2,1.6,0.8c0.9,0.5,0.9,1.6,0.6,2.4
			c-0.5,2.5-1,4.7-2.1,7.2c-0.3,0-0.3,0.3-0.3,0.3c0.3,0.5,0.5,0.5,1.1,0.2c0.5,0,0.8,0,1.4,0.2c1,0,1.9,0.6,2.4,1.6
			c0.3,0.6,0.6,1.4,0.6,1.9c0,0.8,0,1.4,0,2.1C280.9,95.1,280.9,95.1,280.9,95.4z M277.5,92.2c0-0.3-0.3-0.5-0.5-0.5
			c-0.8-0.2-1.4-0.2-1.6,0.3c-0.3,0-0.3,0-0.3,0c-0.6,0.9-1.3,1.1-1.7,1.9c0,0-0.3,0-0.3,0.3c-0.8,0.3-1.1,0.8-1.3,1.6
			c-0.3,0.3-0.2,0.8,0,1.1c0.3,0.5,0.6,1.4,0.9,1.9l0.3,0l0.3,0c1.1,0,1.9-0.5,2.7-1.4c0.8-1.1,1.3-2.2,1.6-3.6
			C277.5,93.3,277.5,92.8,277.5,92.2z M286.6,98c0.2-1.4,0.5-2.7,0.7-4.1c0-0.6,0-1.1,0.2-1.7c0.3-0.5,0.3-1,0.3-1.4
			c0.5-2.4,0.1-4.9,0.6-7.4c0-0.3,0-0.5-0.3-0.8c-0.3-0.5-1.1-0.8-1.6-0.8c-0.5-0.3-1.1,0.3-1.4,0.8c-0.3,0.3-0.3,0.6-0.2,1.1
			c0,0.6,0,1.1,0,1.6c-0.3,0.3-0.2,0.8-0.2,1.4c-0.2,1.4-0.5,2.7-0.5,3.8c-0.2,1.4-0.5,2.7-0.7,4.1c0,1.1-0.2,2-0.5,2.7
			c-0.2,0.8-0.2,1.4,0,2.2l0,0.3c0.3,0.5,0.6,0.8,0.9,1.1c0.5,0.5,1.1,0.8,1.6,0.5c0.8-0.3,0.8,0,1.3-1.1c0,0,0,0,0-0.3
			C286,99.6,286.3,98.7,286.6,98z"/>
		<path d="M320.3,95.4c0.3,0.5,0,1,0,1.6c-0.5,1.3-1.3,2.4-2,3.7l-0.3,0.3c-1,1.1-2.1,1.9-3.3,2.6c-0.8,0.5-1.5,1.1-2.6,1.1
			c0,0-0.3,0-0.5,0c-0.5,0.3-0.8,0.3-1.3,0c-0.5,0-1-0.2-1.6-0.5c-0.3,0-0.5,0-0.8-0.2c-0.5-0.3-0.8-0.5-1.3-0.5
			c-0.5-0.3-0.8-0.8-1.1-1c-0.3-0.8-1.1-1.5-1.6-2.1c-0.3-0.8-0.3-0.8-0.3-1.8c0.3-0.3,0.8-0.3,1.3-0.3c0.5,0,1,0,1.3,0
			c1,0,1.8-0.3,2.8-0.8c1.3-0.8,2.6-1.6,3.6-2.7c0,0,0,0,0.3-0.3c-0.8,0.3-1.6-0.2-2.1-0.7c0,0-0.3-0.3-0.5-0.3
			c-0.8,0.3-1.3-0.2-1.8-0.5c0-0.3-0.3-0.3-0.3-0.5c-0.3-0.5-0.5-0.8-0.8-1.3c0,0,0,0,0-0.3c0-0.3,0-0.5,0-0.8
			c1.8-1.8,3.6-3.7,5.1-5.8c-0.3,0-0.5,0-0.5,0c-0.3,0.3-0.8,0.5-1,0.8c-0.3,0-0.5,0-0.8,0c-0.5-0.3-1.1-0.8-1.6-1
			c0,0.3,0,0.8-0.2,1.3c0,0.5-0.2,0.8-0.5,1.3c0,0.8-0.2,1.6-0.5,2.3c-0.3,0.3-0.3,0.5-0.2,1c0,0-0.3,0.3-0.3,0.5l0,0.3
			c-0.2,0.8-0.2,1.3-0.5,2.1c0,0.3-0.3,0.5-0.2,0.8c-0.3,0.3-0.2,0.8-0.2,1.3c0,0.5,0,1,0,1.6c0,0.3-0.3,0.5-0.5,0.5
			c-0.8,0.3-1.6-0.6-2.4-1.1c0-0.3,0.2-1,0-1.2c0-1,0.2-1.8,0.5-2.6c0.5-0.5,0.5-1,0.8-1.8c0.2-1.6-0.2-1.8,0.1-3.4
			c0.2-1.3,0.5-2.6,0.7-3.9c0-0.5,1.2-1.1,1.9-1.6c0.3,0,0.5,0,0.8-0.3c0.5,0,0.8,0.2,0.8,0.2c0.8-0.3,1.3-0.8,2.1-1.1
			c0.8-0.5,1.8-0.5,2.6-0.6c0.5,0,0.8,0.2,1.3,0.5c0.5,0.5,1.1,1,1.6,1.5c0.3,0.3,0.3,0.3,0.3,0.5c0.3,0.8,0.5,1.8,0.3,2.6
			c-0.5,1-1,2.4-1.8,3.1c-0.3,0.3-0.3,0.5-0.5,0.8c0.3,0,0.5,0.3,0.5,0.3c1.3,0.5,2.4,1.3,3.4,2c0.8,0.8,1.3,1.5,1.6,2.6
			C320.3,94.4,320.3,94.9,320.3,95.4z"/>
		<path d="M348.6,96.6c0,0.2,0,0.5-0.2,0.7c-0.6,0.9-1.5,1.3-2.3,1.1c-0.7,0-1.3-0.4-1.5-1c-0.2-0.5,0.2-0.8,0-1.3
			c-0.1-0.2-0.4-0.6-0.6-1c0,0-0.2,0-0.2,0.1c-0.4,0.5-1.1,0.9-1.5,1.3c-0.4,0.9-1.1,1.3-1.9,1.7c-1,0.9-2.9,1.3-4.4,1.1
			c-0.6-0.2-1-0.6-1.4-1c-0.7-0.6-1.3-1.3-1.3-2.3c-0.2-0.6-0.4-1.4-0.4-2.1c0-0.5,0.2-0.7,0.2-0.8l0-0.8c-0.4,0.4-0.6,0.6-0.8,0.9
			c-0.6,1-1.4,2.2-2.2,3c-0.4,0.5-0.9,0.9-1.1,1.1c-0.6,0.7-1.2,0.9-1.9,1.3c-1.2,0.6-2.3-0.2-3-0.8c-0.6-0.8-1-1.7-1-2.8
			c-0.3-1.4,0-3.1,0.1-4.6c0.2-1-1-3,0.1-6.5c0.3-0.7,1-1.3,1.4-1.8c0.3-0.4,0.5-0.6,0.9-0.2c0.4,0.4,1.2,0.8,1.3,1.3
			c0,1.4,1.4,4.9,1.3,6.4c0,0.1-2.2,2-2.4,2.2c0,0.6,0,1.2-0.2,2.1l0,1.9c0,0.2,0,0.4,0.3,0.6c0,0.3,0.2,0.5,0.4,0.3
			c0.2,0,0.6-0.3,0.8-0.5c0.8-0.4,1.7-1.1,2.3-1.7c0.8-0.9,1.6-1.7,2.5-2.5c0.4-0.7,1-1.5,1.4-2.2l0.3-0.2c0.8-1.1,1-2.2,1.4-3.4
			c0,0,0.2-0.3,0.2-0.5c0-0.4,0.2-0.8,0.2-1.2c-0.3-0.2,0-0.6,0-0.6c0.4-0.4,0.6-0.7,0.8-0.9c0.2-0.4,0.6-0.4,0.8-0.7
			c0.3,0,0.5,0,0.5-0.1c0.4-0.3,0.8-0.3,1.3,0c0.4,0.1,0.6,0.6,0.9,0.8c0.4,0.4,0.4,0.8,0,1.3c0,0.2-0.3,0.2-0.4,0.4
			c-0.2,0.3-0.4,0.4-0.2,0.7c0.2,0.8,0.2,1.5,0,2.3c-0.2,1.2-0.4,2.3-0.8,3.5c-0.2,0.8-0.2,2-0.4,2.8l0,0.4l0.2-0.2
			c0.9-0.7,1.5-1.3,1.9-1.9c0.4-0.7,1.1-1.1,1.3-1.8c1.2-1.3,2.2-2.8,3.1-4.4c0.4-0.7,0.8-1.2,1-2.1c0,0,0-0.3,0.2-0.5
			c0-0.7,0.4-0.9,0.8-1.1l1,0c0.5,0.2,0.8,0.2,1.3,0.4c0.4,0.2,0.8,0.6,1.1,1.1c0.3,0.4,0.4,0.6,0.3,1c-0.3,0.7-0.5,1.4-0.6,2
			c-0.4,0.7,0,1.2,0,1.9c-0.2,0.7-0.2,1.5-0.4,2.2c-0.6,1.8,0.2,3.8,0.2,5.3C348.8,96.3,348.8,96.5,348.6,96.6z M349.8,71.9l0,0.2
			c0,0.5-0.2,0.7-0.4,0.7c-0.7,0.5-1.4,0.7-2.1,0.9l-0.5,0c-0.5,0.3-1.2,0.5-1.8,0.5c-1.2,0-2.3,0.3-3.5,0.5c-0.2,0-0.5,0-0.6,0.3
			l-1.6,0c-0.7,0.2-1.6,0.2-2.5,0.5l-1.2,0c-0.6,0.3-1.4,0.5-2.3,0.5c-0.3,0.3-0.5,0.3-0.9,0.3c-0.3,0.2-0.5,0.2-0.5,0.5l-1.1,1.1
			l-0.7,0c-0.2,0-0.7-0.2-0.9-0.4c-0.5-0.4-0.7-0.6-0.9-0.9c-0.3,0-0.3-0.2-0.3-0.5c-0.2-0.7,0-1.4,0.4-1.8c0.3-0.3,0.2-0.7,0.4-0.7
			c0.3-0.5,0.2-0.7,0.4-1.2c0.3-0.5,0.5-0.5,1.2-0.5l0.5,0c0.7,0,1.2-0.2,1.9-0.2l1.8,0c1.4,0,2.8-0.3,4.2-0.3
			c1.2,0,2.1,0.2,3.2,0.2l3.1,0c0.6,0,1.4,0.2,2.3,0.2c0.7-0.2,1.4,0,2.3,0C349.6,71.6,349.6,71.9,349.8,71.9z"/>
		<path d="M366.5,99.6c-0.6,0.2-1-0.2-1.7-0.7c-0.5-0.4-0.9-1.1-1.1-1.9c0,0-0.3-0.2-0.3-0.4c0-0.7,0-1.6,0.2-2.4
			c0-1,0.2-1.6,0.2-2.5c0-0.2,0.2-0.4,0.2-0.4c0-0.9,0.2-1.5,0.2-2.4l0-0.6c0-0.3-0.2,0-0.2,0c-0.6,1-1.3,2.1-1.6,3.4
			c-0.4,0.7-0.9,1.3-1.1,2.3c-0.2,0.6-0.4,1.5-0.8,2.1c0,0.5-0.2,0.9-0.4,1.3c-0.2,0.4-0.2,0.9-0.4,1.3l-0.2,0.2l-0.8,0.7
			c-0.4,0.2-0.8,0.4-1.3,0.4c-0.6,0-1.3,0-1.9-0.4c-0.2,0-0.5-0.3-0.5-0.3c-0.5,0-0.7-0.3-1-0.6c-0.5-0.4-0.7-1.1-0.9-1.7
			c-0.2-0.7-0.4-1.3-0.4-2.2l0-0.8c0.2-1,0.2-1.9,0.4-2.7c0-0.5,0.2-1.1,0.2-1.8c0.7-2.2,1-4.5,1.5-6.8c0.2-1.3,0.6-2.5,1-3.6
			c0.2-0.8,1.1-1.3,1.9-1.3c0.3,0,0.5,0,0.5,0.2c0.2,0,0.4,0.2,0.6,0.2c0.8,0.6,1,1.3,0.8,1.9c0,0.4-0.2,0.7,0,1.2l-0.2,0.2
			c-0.2,0.8-0.2,1.7-0.5,2.8c-0.2,0.4-0.2,1.1-0.2,1.7c-0.2,1.3-0.5,2.6-0.8,4.1c-0.2,0.7-0.4,1.3-0.6,2.2c0,0.4,0,0.8-0.2,1.4
			c0,0.2,0,0.2,0.2,0.6c0.2,0,0.2-0.2,0.2-0.2c0.7-1.2,1.1-2.1,1.8-3.1c1-1.6,2.1-3.1,2.9-4.6c0.4-0.7,0.6-1,1.3-1.5l0-0.3
			c0.3-0.6,0.8-1.3,1.3-1.9c0.2-0.2,0.2-0.5,0.2-0.9l0-1.1l0-0.8c0.3-0.5,0.4-0.7,0.4-0.7c0.4-0.5,0.6-0.3,0.8-0.3
			c0.2,0,0.2,0.3,0.2,0.3c0.5,0,0.9,0.2,1.1,0.6c0.5,0.4,0.7,0.8,0.7,1.5c0,0.2,0.2,0.4,0,0.8c0,1.5,0,3.1-0.1,4.6l0,2.3
			c0,0.8,0,1.5-0.2,2.3l0,1.7c-0.2,1.2-0.2,2.5-0.1,3.6c-0.2,0.2,0,0.6,0.2,0.8c0.3,0.3,0.3,0.7,0.3,1.1
			C367.6,99.6,367.1,99.6,366.5,99.6z"/>
		<path d="M379.5,101.2c-0.2,0-0.6,0.1-1,0.3c0,0.1,0,0.3-0.1,0.6c-0.3,3.4-0.5,6.9-0.8,10.3c0,0.6-0.2,1.2-0.2,1.8
			c-0.1,0.8-0.4,1.8-0.3,2.5c0,0.3-0.1,0.6-0.2,0.9c0,0.3-0.2,0.5-0.5,0.5c-1.2,0.7-2.3,0.2-3.4-0.5c-0.5-0.3-0.7-1-0.7-1.7
			c0.3-1.6,0.4-3.3,0.4-4.8c0.2-0.9,0.2-1.9,0.2-2.8c-0.2-1.8-0.2-3.6-0.1-5.3c0.1-0.8,0.2-1.6,0.9-2.2c0.3-0.3,0.4-0.8,0.4-1.3
			c0-0.9,0.2-1.8,0.2-2.8c0-2.7-0.1-5.1,0-7.9c-0.3,0.1-0.4,0.3-0.6,0.5c-0.1,0.1-0.3,0.1-0.6,0.3c-0.5-0.2-0.8-0.4-1-0.8
			c-0.1-0.6,0.3-1.1,0.5-1.6c0.1-0.5,0-1.1,0.2-1.6c0.3-0.7,0.6-1.4,0.5-2c0-0.3,0.1-0.7,0.1-1c0.1-0.6,0.4-1.1,0.1-1.7l0-0.3
			c0.3-0.9,0.2-2,0.1-3.1c-0.2-0.5-0.2-0.8-0.5-1.2c-0.2-0.3,0-0.5,0.1-0.8c0.3-0.2,0.6-0.3,1.1-0.3c0.5,0,0.9,0,1.4-0.5
			c0-0.2,0.3-0.2,0.5-0.2c0.6-0.1,1.4,0,2-0.2c0.3-0.1,0.6,0.1,1.1,0.1c0.3,0.8,0.5,1.7,0.5,2.5l0.1,5.6c-0.2,2.3-0.4,4.6-0.6,6.7
			c0,0.3-0.1,0.5-0.3,0.8c0.2,0,0.2,0.2,0.2,0.2l0-0.2l0.1,0c0,0,0.2,0,0.2-0.1c0.4-1.1,0.9-2.2,1-3.5c0-0.1,0.2-0.1,0.2-0.3
			c-0.2-0.9,0.3-1.8,0.7-2.8c0.3-0.8,0.6-1.9,0.7-2.8c0.1-1.1,0.9-1.9,1.5-2.5c0.3-0.3,0.6-0.5,1.1-0.5l1,0c1.3-0.3,4.5-0.6,5.3,0.4
			c0.9,1,3.6,3.3,3.3,4.8c0,0.1,0,0.5-0.1,0.8c-0.1,2.2-0.8,4.2-1.5,6.4c-0.3,1.3-1.4,3.7-1.9,5c-0.2,1-1.4,2.2-2.8,2.3
			c-1.2,0.1-2.9-0.2-3.3-0.1c-1,0.3-1.5-0.6-2.3-1.1c-0.5-0.3-1.3-0.4-1.8-0.7c-0.4,1.1-0.7,2-1,3.3
			C379.6,99.3,379.6,100.2,379.5,101.2z M385.2,82.1c-0.1,0.1-0.3,0.1-0.3,0.1c-0.2,0.3-0.3,0.7-0.5,1c-1,2.4-1.8,4.5-2.5,6.9
			c-0.4,0.8-0.5,1.8-0.6,2.7c0.5-0.1,1-0.2,1.6-0.4C384.1,90,385.6,83.9,385.2,82.1z M387.7,75.8c0.3,0,0.5,0,0.8,0.1
			c0.1,0,0.3,0,0.4,0.1l0.1,0.1c0.1-0.1,0.1-0.1,0.1-0.3c0.4,0,0.8,0.1,1,0.1c0.1,0,0.3,0,0.3,0.1c0.1,0.1,0.3,0.1,0.4,0.1
			c0.3,0.1,0.7,0.1,0.9,0.1c0.3,0,0.5,0.1,0.8,0.1l0.3,0c0.1,0.3,0.4,0.3,0.7,0.3c-0.1,0.1-0.3,0.3-0.4,0.3c-0.4,0-0.7,0-0.9,0.1
			c0-0.1-0.1-0.1-0.1-0.3l-0.3,0c-0.1,0-0.1,0.1-0.3,0.1l-0.3-0.3c-0.1,0-0.1,0.1-0.3,0.1c-0.1,0-0.3,0.1-0.5-0.1l-0.3,0
			c-0.4-0.3-0.8-0.5-1.2-0.5c-0.1-0.1-0.3-0.1-0.4-0.3l-0.5,0c-0.1,0-0.3,0-0.5-0.1C387.7,75.9,387.7,75.8,387.7,75.8z"/>
		<path d="M414.9,86.4c0,1.2,0.4,2.2,0.1,3.4c-0.2,0.9-0.2,1.9-0.5,2.8c-0.3,0.3-0.3,0.7-0.3,1.2c0.3,0.6,0,1-0.3,1.2
			c-0.6,1-0.2,1.9-0.5,2.9c0,0,0.8-0.4,0.8-0.1c-0.3,0.7-1.8,1.7-2.4,1.3c-1,0-1.9-0.3-2.2-1.2c-0.2-0.3,0.2-2.1,0.3-2.2
			c0.3-0.7,0.3-0.9,0-0.9c-1-0.6,1.5-7.3-0.3-7l-1.1,2.6c0,0.3-0.1,0.3-0.1,0.3s-0.2,0.7-0.2,1c-1.2,1.3-1.8,1.8-3.3,3.1
			c-0.6,0.7-2.2,1.3-3.1,1.3c-0.6,0.3-1.6,0-2.2-0.3c-0.9-0.6-1.6,0.4-2.2-0.6c-0.3-0.6-0.6-1.2-0.6-2.1c0-1,0-2.9,0.3-3.8
			c1.5-5.2,5.3-11.2,10.6-11.3c0.3,0,2.2,0.9,2.6,1.2c0.3,0.3,0.6,1,1.3,1.5c0.3,0.3,0.3,1-0.3,1.2c0.3,0.7,1.6,1.5,2.3,2
			C413.9,84.8,414.9,85.5,414.9,86.4z M402.8,89.3c-1,1-1.2,2.6-1.8,3.5l0,0.3c0,0.3,0.3,0,0.3,0c0.3,0,0.8-0.2,1-0.5
			c0.6-0.7,2,0.1,2.6-0.9c2.4-2.3,3.7-4.5,4.6-8.1c0.3-0.3,0.5-0.7,0.4-1c-0.2,0.1-0.4,0.1-0.5-0.1c-0.9-0.3-1.2,0-1.9,0.4
			c-0.9,0.9-0.2,0.2-0.8,1.2c-0.6,0.6-1.2,1.3-1.5,1.8c-0.6,0.3-0.6,1-1.2,1c-0.3,0-0.3,0.3-0.6,0.3c-0.1,0.9-0.6,1.2-0.6,1.8
			L402.8,89.3z"/>
		<path d="M430.2,95.8c-0.5-0.1-1-0.1-1.6-0.2c-0.2-0.1-0.4-0.1-0.6-0.1c-0.4-0.1-0.8-0.1-1.2-0.4c-0.1-0.1-0.3-0.2-0.5-0.2
			c-0.1-0.1-0.2-0.1-0.3-0.2c-0.5-0.1-1-0.2-1.4-0.4c-0.3,0-0.6-0.3-0.9-0.4c-0.7-0.2-0.9-0.2-0.9,0.6c-0.2,0.5-0.2,1.1-0.2,1.8
			c0,0.8,0.2,1.6,0.5,2.5c0.2,0.9,0.8,1.4,1.8,1.7c0.3,0.2,0.8,0.2,1.2,0.3c0.5,0.2,0.9,0.2,1.4,0.3c0.1,0.1,0.3,0.1,0.5,0.1
			c0.9-0.1,1.6,0.5,2,0.9l0,0.3c-0.1,0.6-0.3,0.8-0.9,0.5c-0.5-0.3-1-0.4-1.4-0.6c0-0.1-0.3-0.1-0.5-0.1c-1-0.3-2-0.3-3.1-0.6
			c-2-0.3-3.5-1.2-4.9-2.6c-1.6-1.7-2.4-3.9-2.4-6.2c0-1.7,0.6-3.3,1.2-4.8c0.8-1.9,1.8-3.6,3.2-5.1c0.8-0.9,1.7-1.7,2.8-2.4
			c0.2,0,0.5-0.3,0.8-0.5c1-0.5,1.9-0.5,2.8-0.2c1.3,0.2,2.5,0.9,3.8,1.3c0.5,0.2,0.9,0.4,1.1,1c0.1,0.1,0.5,0.3,0.6,0.4
			c1,0.6,1.3,1.5,1.6,2.6c0.2,0.5,0.3,0.9,0.3,1.6c0.2,0.1,0.2,0.3,0.2,0.5c0,0.9,0,1.9-0.3,2.8c0,0.1-0.2,0.3,0,0.5
			c0.1,0.5-0.2,0.8-0.3,1.1c-1.1,2-2.7,3.2-5,3.5c-0.1,0-0.1,0.1-0.1,0.1c0.5,0.1,1.2,0.2,1.6,0.4c0.2,0,0.3,0.1,0.3,0.3
			C431.1,96,430.7,95.9,430.2,95.8z M424.4,91.3c0.5,0.2,0.9,0.3,1.2,0.2c0.6-0.3,1.1-0.5,1.5-0.8c0.8-0.8,1.5-1.8,1.8-3
			c0.1-0.1,0.1-0.3,0.3-0.7c0.3-1,0.3-2.1-0.2-3.2c-0.1,0-0.5,0-0.6,0.1c-0.3,0.2-0.6,0.3-0.8,0.7c-1,0.9-2,2-2.7,3.3
			c-0.4,1-1.1,1.8-1.3,2.9C423.8,91,424.2,91,424.4,91.3z M434.9,80.4c-0.2,0.2-0.3,0.5-0.3,0.8l0,0.2c-0.1,0.2-0.2,0.2-0.5,0.2
			c-0.1,0-0.2-0.1-0.2-0.1c-0.3-0.1-0.3-0.3-0.5-0.3l0-0.7l0.1-0.1c0.4-0.1,0.8-0.3,1.2-0.3c0,0,0.1,0,0.1,0.1L434.9,80.4z"/>
		<path d="M453.5,79.6c-0.1,0.1-0.3,0.3-0.4,0.3l-0.1,0.1c0.6,0.6,2.3,0.6,2.1,1.5c-0.5,0.6-0.5,1.1-0.8,1.7c-0.6,1-1.2,2.9-1.2,3.9
			c-0.2,2-1.2,4.1-1.1,6.3c-0.3,0,0,0.3,0,0.8c0-0.3,0.3-0.3,0.3-0.3l0.8-0.8c0.5-0.9,1.3-1.6,1.8-2.8c0.8-1.1,1.6-2.5,2.4-3.9
			c0.5-0.9,0.8-1.9,0.8-3.3c0.3-0.6,0.2-0.8,0.2-1.4c0.8-0.9,1.6-1.1,2.7-1.1l0.3,0c0.3-0.3,0.8-0.3,1.1,0c0.3,0.5,0.3,1.4,0.8,1.9
			c0,0.3-0.3,0.6-0.5,0.9c-0.3,0-0.5,0.5-0.5,0.8c-0.3,0.9-0.6,1.4-0.6,2.2c-0.2,1.4-0.5,2.7-0.7,3.8c-0.3,1.1-0.3,1.9-0.5,3
			c0,1.4-0.2,2.7-0.5,4.1c0,1.1,0,1.9,0.6,2.7c-0.3,0.3-0.2,0.8-0.8,1.1c-0.3,0-0.6,0-0.8-0.2c-0.3,0-0.8-0.3-1.1-0.6
			c-0.5-0.5-1.1-1.1-1.4-1.6l-0.3-0.3c-0.9-0.6-0.9-1.4-0.5-1.9l0-0.5l-0.3,0c-0.8,0.5-1.4,0.9-2.1,1.1l-0.8,0
			c-0.5-0.3-1.1-0.6-1.6-1.1c-0.3-0.5-0.5-0.8-1.1-1.3c-0.3-0.3-0.3-0.8-0.5-1.4c0-0.5-0.3-1.8-0.6-2.6c-0.5,1.1-1.7,2.6-2,3.1
			c-0.5,0.9-1.3,1.7-1.8,2.5c-0.6,0.6-1.9,1.7-2.7,2.2c-0.8,0-2.1-0.6-2.6-1.3c-0.3-0.3-0.6-0.6-0.9-1.1c-0.3-0.5-0.3-0.8-0.3-1.4
			c0-1.4-0.8-2.5-0.4-3.6c0-0.5,0.2-1,0.2-1.6c0.5-2.7,0.6-5.2,1.6-7.4c0.3-0.6,0.8-1.1,1.1-1.6c0.2-0.8,2.8-0.9,3.7-1.2
			c0.3,0,0.5,0,0.5,0.3l0.3,0.3c0.3,0.3,0.3,0.8,0,1.1c-0.3,0.3-0.3,0.3-0.3,0.5c-0.3,0.3-0.5,0.9-0.5,1.1c0,0.3,0,0.3-0.3,0.6
			c-0.2,0.8-0.5,1.4-0.7,2.2l-0.8,2.5l-0.7,3.3c-0.3,0.3-0.3,0.6-0.3,0.9c0.1,2.9,3.1,0,3.1-0.3c1-1.6,2.6-3.6,3.6-5.5
			c0.8-1.6,1.2-3.3,2-4.7c0.3-0.3,0.5-0.8,0.8-1.1c0.3-0.6,0.6-0.9,1.1-0.9c0.2-0.2,0.2-0.1,0.4,0l0-0.2c0-0.2,0.3-0.5,0.4-0.7
			c0.3,0,0.4,0.2,0.5,0.3L453.5,79.6z M448.1,77c0,0,0,0,0,0.3c0.3,0,0.3,0.6,0.3,0.6c-0.3,0.3-0.3,0.3-0.6,0.3
			c-0.5,0-0.8,0-1.1-0.6c0,0,0-0.3-0.3-0.3l0-0.3c0-0.3,0.3-0.5,0.6-0.5c0,0,0,0,0.3,0C447.6,76.7,447.9,76.7,448.1,77z M456.1,81.4
			c-0.1,0-0.1,0.1-0.1,0.1c-0.1,0-0.1,0-0.1-0.1c-0.1-0.1-0.1-0.3,0-0.5c0.1-0.1,0.1-0.1,0.2-0.1l0.1,0.1c0.1,0.1,0.1,0.1,0.1,0.1
			C456.2,81.3,456.2,81.3,456.1,81.4z"/>
		<path d="M479.4,92.5c0.3,0.8-0.2,1.9-0.5,2.7l-0.3,0.3c0.3,0.5-0.3,1.4-0.3,1.9c-0.3,0.3-0.5,0.9-1,1.1c-0.3,0.3-0.6,0.5-0.8,0.9
			c-0.3,0.5-0.8,0.8-1.3,1.1c-0.8,0-1.9,0.4-2.7,0.6c-1.6,0-3.3-0.2-4.4-1.3c-0.9-0.6-1.1-1.3-1.4-2.2c0-0.5-0.3-1.4-0.9-1.9
			c-0.3-0.6-0.3-1.1-0.3-1.4c-0.3-0.6,0-1.1,0.2-1.6l0-0.3c0,0,0-0.3-0.3-0.3c0,0,0,0,0-0.3l-0.3,0c0,0.3,0,0,0,0
			c-0.3-0.5-0.6-0.8-0.3-1.6c0-0.3,0.2-0.8,0.5-1.1c0.5-0.5,1.1-1.1,1.6-1.6c0.2-0.8,0.6-1.4,0.8-1.4c0.5-0.9,0.8-1.4,1.1-2
			c0.3-0.3,0.3-0.3,0.5-0.5c0.5-1.9,1.6-3.9,2.4-5.5c0.3-0.5,0.5-1.4,0.8-1.9c0.3-0.6,0.6-0.9,1.4-0.9c0.8,0,1.4,0.2,1.7,0.8
			c0.8,0.5,0.8,1.6,0.6,2.4c-0.5,2.5-1,4.7-2.1,7.2c-0.3,0-0.3,0.3-0.3,0.3c0.3,0.5,0.6,0.5,1.1,0.2c0.5,0,0.8,0,1.4,0.2
			c1.1,0,1.9,0.6,2.5,1.6c0.3,0.6,0.5,1.4,0.5,1.9c0,0.8,0,1.4,0,2.1C479.4,92.2,479.4,92.2,479.4,92.5z M476.1,89.2
			c0-0.3-0.3-0.5-0.6-0.5c-0.8-0.2-1.4-0.2-1.6,0.3c-0.3,0-0.3,0-0.3,0c-0.5,0.9-1.3,1.1-1.6,1.9c0,0-0.3,0-0.3,0.3
			c-0.8,0.3-1.1,0.8-1.3,1.6c-0.3,0.3-0.3,0.8,0,1.1c0.3,0.5,0.5,1.4,0.8,1.9l0.3,0l0.3,0c1,0,1.9-0.5,2.7-1.4
			c0.8-1.1,1.3-2.2,1.6-3.6C476.1,90.3,476.1,89.8,476.1,89.2z"/>
	</g>
	<g>
		<path d="M265,141.5c0.3-0.5,0.5-1.1,0.8-1.6c0.3-0.9,1.2-3.6,1.7-4.2c0.3-0.5,0.5-0.7,0.8-1.1c0.3-0.4,0.8-0.5,1.2-0.5
			c0.4,0.1,0.6,0.1,0.9,0.2c0.1,0.1,0.2,0.2,0.3,0.3c0.1,0.3,0.1,0.4,0.4,0.6c0.2,0.3,0.4,0.6,0.5,0.9c0.1,0.3,0.1,0.6,0.2,0.8
			c0.3,0.7,0.4,1.5,0.5,2.1c0.2,0.7,0.4,1.4,0.5,2c0.2,0.7,0.1,1.3,0.2,1.9c0,0.9,0.3,3.7,0.3,4.6c0,0.6,0,1.1,0,1.7
			c-0.1,0.6-0.1,1.3-0.2,1.9c0,0.2-0.1,0.3-0.1,0.4c-0.1,0.7-0.3,1.4-0.3,2.2c0,0-0.1,0.1,0,0.2c0.3,0.4-0.2,0.8-0.3,1.3
			c-0.4,0.1-0.6,0.3-0.8,0.5c-0.1,0-0.2,0-0.3,0c0-0.1-0.1-0.1-0.1-0.1c-0.2-0.2-0.4-0.3-0.6-0.3c-0.2-0.2-0.7-0.5-0.9-0.8
			c-0.3-0.2-0.5-0.5-0.7-0.9c-0.1-0.2-0.2-0.3-0.5-0.5c0-0.1,0-0.1-0.1-0.2c0.2-0.1,0.2-0.1,0.2-0.3c0.2-0.5,0.2-1,0.3-1.8
			c0.2-2.1,0.2-4.1,0.3-6.1c0.1-1,0.1-1.8,0.1-2.8c0-0.7-0.1-1.5-0.3-2.2c0-0.1,0-0.2-0.1-0.4c0,0-0.1,0,0,0.2
			c-0.4,0.6-0.7,1.4-1,2.1c-0.2,0.6-0.5,1.2-0.6,1.9c-0.3,0.5-0.5,1-0.7,1.5c-0.1,0.5-0.2,1-0.3,1.4c-0.1,0.6-0.1,1.2,0,1.8
			c-0.1,0.2,0,0.5,0,0.7c0,0.1-0.1,0.1-0.1,0.2c-0.2,0.2-0.2,0.2-0.2,0.4c0,0.3-0.3,0.6-0.5,0.8c-0.1,0-0.2,0-0.3-0.1
			c-0.1-0.1-0.4-0.2-0.5-0.3c0,0,0-0.1-0.1-0.1c-0.2-0.1-1.7-0.4-1.9-0.6c0-0.1-0.2-0.3-0.4-0.4c-0.1,0-0.2-0.1-0.2-0.2
			c0.1-0.5,0.1-1-0.1-1.4c0-0.7-0.1-1.4-0.2-2.1c-0.1-1.2-0.2-2.5-0.4-3.8c-0.2-1.1,0.2-2.1-0.3-3.1c-0.2-0.4,0.1-1.1-0.1-1.5
			c0-0.1-0.2-0.2-0.2-0.2c-0.4,0-0.6,0.3-0.7,0.5c-0.1,0-0.1,0.1-0.1,0.2c0,0.1,0,0.2-0.2,0.4c-0.3,0.2-0.4,0.4-0.3,0.6
			c-0.2,0.2-0.2,0.5-0.2,0.9c-0.1,0.1,0,0.3-0.1,0.6l-0.1,0.1c0,0.2,0.1,0.5,0,0.7c0,0.1-0.1,0.1-0.1,0.2c0.1,0.6,0.1,1.2,0.1,1.7
			c-0.1,0.2-0.1,0.3,0,0.4c0,0,0,0.1,0,0.2c-0.1,0.5-0.1,1.1-0.3,1.6c0,0.5-0.1,0.9,0,1.3c0,0.6-0.1,1.3-0.2,2c0,0.7-0.1,1.3-0.2,2
			c-0.1,0.2-0.2,3-0.2,3.3c-0.1,0.5-0.1,1.6-0.1,2.1c-0.1,0.2-0.1,0.6-0.1,0.9c-0.2,0.2,0,0.3-0.2,0.5c0.1,0.2,0,0.6-0.1,0.9
			c-0.1,0.5-0.4,0.7-0.9,0.6c-0.3-0.1-0.6-0.2-0.6-0.4c-0.2-0.2-0.9-0.3-1-0.6c-0.1-0.1-0.3-0.2-0.5-0.3c-0.2-0.1-0.4-0.4-0.3-0.7
			c0.2-0.3,0.1-1.8,0-2.3c0.1-0.6,0.2-3.2,0.1-3.9c0-0.6,0.1-1.2,0.1-1.9c0-0.6,0.1-1.2,0.1-1.8c0.1-0.7,0.3-1.4,0.4-2.1
			c0-0.5,0.2-1,0.3-1.5c0.2-0.9,0.5-1.8,0.8-2.8c0.3-1.2,1.4-2.4,2.2-3.4c0.3-0.2,0.4-0.5,0.6-0.7c0.3-0.2,0.7-0.4,1-0.5
			c0.2,0,0.5-0.1,0.8,0.1c0.1,0,0.2,0,0.2,0c0.4,0.2,0.8,0.5,1.1,0.9c0.1,0.3,0.4,0.6,0.6,0.9c0.4,0.7,0.8,1.4,1.2,2.2
			c0,0.1,0.1,0.2,0.2,0.3c0.3,0.5,0.4,0.8,0.5,1.3c0.1,0.3,0.1,0.5,0.3,0.7c0.1,0.1,0.1,0.1,0.1,0.1C265,141.7,265,141.6,265,141.5z
			 M256.7,134.4c0-0.1,0-0.1,0-0.1c0.2-0.1,0.3,0.1,0.5,0c0.2,0,0.4-0.1,0.6,0c0.1,0.1,0.1,0.1,0.2,0.3c-0.3-0.1-0.6,0.1-0.7,0.1
			c-0.2,0.1-0.2,0.1-0.3,0.3c-0.2,0.1-0.2,0.4-0.5,0.7c0.5,0.3,0.2,0.7,0,1.2c0,0,0,0.2-0.2,0.1c-0.2,0.1-0.4,0.1-0.6,0
			c-0.2-0.1-0.3-0.5-0.1-0.6c0-0.2,0.1-0.3,0.3-0.5c-0.4-0.3-0.4-0.3-0.3-0.8c0,0,0.2,0,0.2-0.1c0-0.1,0-0.3,0.3-0.4
			c0-0.2,0.2-0.1,0.2-0.1c0.1,0.2,0.4,0.1,0.6,0.1c0-0.2,0-0.2,0-0.2C256.7,134.4,256.7,134.4,256.7,134.4z"/>
		<path d="M275.8,152.5c0-0.5,1.1,0.1,1.8,0.4c0.1,0.1,0.2,0.2,0.4,0.2c0,0,0-0.1,0.1-0.1c0.2-0.8-0.2-1.4-0.2-2.4
			c-0.3-1.9-0.3-1.1-0.6-3.2c-0.1-1.9,0.2-6.6-0.1-8.5l-0.2-3.9l-0.2,0.2c-0.4,0.3-0.1,0.2-0.6,0.3l-0.2,0c-0.2,0-0.3-0.4,0-0.5
			c0-0.2,0.2-0.2,0.2-0.5c0.5-0.3,0.7-0.5,1.2-0.5l0-0.2l0.7-0.8c0.7-0.3,1.4-0.5,2.1-0.6c0.4-0.3,0.3,0,0.9,0.2
			c0.2,0.2,0.5,0.7,0.5,1.2c0,0.5,0.4,3.5,0,4l0.1,2.7c-0.2,0.2-0.2,0.5-0.2,0.7c-0.2,0.8-0.2,1.4-0.4,2.2l0,0.2
			c0,0.2,0.2,0.2,0.2,0.2l0.3,0c1.4-0.8,1.9-1.1,3.3-1.9c0-0.5,0.2-1,0.2-1.4c0.1-2-0.5-4.4-0.1-6.1c0.2-0.5,2.2-0.9,2.7-0.9
			c0.5-0.3,0.7,0,1.2,0.2c0,0.2,0.3,0.5,0.3,1l0.3,5.8c-0.2,0.7-0.2,1.4-0.1,2.2c-0.2,1.4,0,4.9,0.6,7.6c0-0.2,0.4-0.9,1.7-1.2
			c0.3-0.1,0.4,0.2,0.5,0.3c-0.5,0.7-0.8,1.1-0.9,1.1c0,0.1-1.2,2.5-2.2,3.8c0,0.3-0.2,0.5-0.4,0.5l-1.2,0.1c-0.5,0-1-0.2-1.2-0.7
			c-1.2-0.9-1.2-2.9-1.3-4.4l-0.1-1.4c0.2-0.7,0.1-1.7,0.1-2.4l0-0.5c-0.2,0-0.4,0.3-0.7,0.3l-1.4,0.8c-0.7,0-1.2-0.2-1.5-0.8
			c0,0.5-0.1,0.9-0.1,1.1c0,0.5,0.1,1.2-0.1,1.7c0,0.5,0.1,1,0.3,1.4l0.1,1.5c-0.2,0.9-1.4,2-0.9,2.9c0.3,0.4,0.6,0.9,0.6,1.4l0,0.1
			c0.3,0.2,0.6,0.4,0.5,0.5c-0.2,0.2-0.2,0-0.7-0.2c0,0-0.1-0.1-0.2,0c-0.6,0.2,0,0.2-0.8,0.2c-0.5,0-0.8-0.2-1-0.7
			c-0.3-0.4-0.5-0.7-1-1.1c0-0.1-0.1-0.2,0-0.4c-0.5-0.3-1-0.6-1.4-0.8C275.9,152.7,275.8,152.5,275.8,152.5z"/>
		<path d="M304.9,148.5c-0.5,0-0.9-0.1-1.4-0.2c-0.2,0-0.3,0-0.5-0.1c-0.3,0-0.7-0.1-1-0.3c-0.1-0.1-0.3-0.2-0.4-0.1
			c-0.1-0.1-0.2-0.1-0.2-0.2c-0.4-0.1-0.9-0.1-1.3-0.3c-0.2,0-0.5-0.3-0.8-0.4c-0.6-0.1-0.8-0.1-0.8,0.6c-0.2,0.4-0.1,1-0.1,1.5
			c0,0.7,0.2,1.4,0.5,2.1c0.2,0.8,0.8,1.2,1.6,1.4c0.3,0.2,0.7,0.1,1.1,0.2c0.4,0.2,0.8,0.1,1.3,0.2c0.1,0.1,0.2,0.1,0.4,0.1
			c0.8-0.2,1.4,0.4,1.8,0.8l0,0.3c-0.1,0.5-0.2,0.7-0.8,0.4c-0.5-0.3-0.9-0.4-1.3-0.5c0-0.1-0.3-0.1-0.4-0.1
			c-0.9-0.2-1.8-0.2-2.8-0.4c-1.8-0.2-3.1-0.9-4.4-2.1c-1.4-1.4-2.2-3.3-2.3-5.4c-0.1-1.5,0.4-2.9,0.9-4.3c0.6-1.7,1.4-3.2,2.6-4.5
			c0.6-0.8,1.4-1.6,2.3-2.2c0.2,0,0.4-0.3,0.7-0.4c0.8-0.4,1.6-0.5,2.4-0.2c1.2,0.2,2.3,0.7,3.4,1c0.4,0.1,0.8,0.4,1,0.8
			c0.1,0.1,0.4,0.2,0.5,0.4c0.9,0.5,1.2,1.3,1.5,2.3c0.2,0.4,0.3,0.8,0.4,1.4c0.2,0.1,0.2,0.2,0.2,0.4c0,0.8,0.1,1.7-0.2,2.5
			c0,0.1-0.2,0.3,0,0.4c0.1,0.4-0.1,0.7-0.2,1c-0.9,1.8-2.3,2.9-4.2,3.3c-0.1,0-0.1,0.1-0.1,0.1c0.5,0.1,1.1,0.1,1.4,0.3
			c0.2,0,0.3,0,0.3,0.2C305.7,148.7,305.4,148.6,304.9,148.5z M299.6,144.8c0.4,0.2,0.8,0.2,1.1,0.1c0.5-0.3,0.9-0.5,1.3-0.8
			c0.6-0.7,1.3-1.6,1.5-2.7c0.1-0.1,0.1-0.3,0.2-0.6c0.2-0.9,0.2-1.9-0.3-2.8c-0.1,0-0.4,0-0.6,0.1c-0.2,0.2-0.5,0.3-0.7,0.6
			c-0.9,0.8-1.7,1.9-2.3,3c-0.4,0.9-0.9,1.6-1.1,2.6C299.2,144.5,299.5,144.5,299.6,144.8z M308.5,134.9c-0.2,0.2-0.3,0.5-0.2,0.7
			l0,0.2c-0.1,0.2-0.2,0.2-0.4,0.2c-0.1,0-0.2,0-0.2,0c-0.2-0.1-0.3-0.2-0.4-0.3l0-0.6l0.1-0.1c0.3-0.1,0.7-0.3,1-0.3
			c0,0,0.1,0,0.1,0.1L308.5,134.9z"/>
		<path d="M332.3,146.7c0.5,0,2.4,0.7,3.1,0.9c0.5,0,1,0.2,1.5,0.4l0.8,0.6c0.2,0,0.2,0.2,0.2,0.2c-0.2,0.3-0.7,0.5-1.2,0.6
			c-0.7,0-1.6,0.3-2.6,0.4l-2.9-0.5c-1.5-0.2-2.4-0.6-3.2-1.9c0,0-0.2,0-0.2-0.3l-0.7,1.5c0.5,0.4,0.6,0.9,0.6,1.6
			c0,0.5,0,0.7,0.3,1.2c0,0.5,0.1,1.2-0.1,1.7c-0.3,0.3-0.3,0.5,0.1,1c0.3,0.7,0.1,1-0.4,1.5c-0.2,0.3-1,0.3-1.4,0.1
			c-0.2-0.2-0.5-0.7-0.8-0.9c-0.2,0-0.2,0-0.5-0.3c0,0.3,0,0.3-0.2,0.3l0,0.5c0,0.2-0.2,0.2-0.5,0.3l-0.2-0.2c0-0.5-0.3-1.2-0.3-1.6
			c0-0.3-0.3-0.7-0.5-0.9c0-0.2-0.3-0.5-0.3-1c0.3,0,0.3-0.2,0.5-0.3c0-0.2,0.2-0.5,0.2-0.8c0.1-2.9-0.2-5.5-0.1-8.4
			c0.1-1.9,0.2-6.2,0.6-7.9c0-0.5,0.2-1,0.4-1.5c0-0.2,0.3-0.5,0.7-0.3c0.3,0,1.2,0.2,1.4,0.5c-0.1-0.3-0.1-0.6,0-0.9
			c-0.1-0.3,0-0.7,0.1-1.1c-0.2-0.3-0.3-0.6,0-0.9c0.7-0.3,1,0,1.1,0.4c0,0.3,0.4,0,0.4,0.3c-0.1,1.9,0.2,2.3,0.2,4.1
			c0,1.3-0.6,2.5-0.5,3.8c0.1,0.2,0.1,0.5,0.1,0.7c0.1,0.3,0.1,0.7,0.2,1.1c0.1,0.3,0.1,0.7,0.1,1l0,0.5c0.5-0.7,0.9-1.2,1.1-1.9
			l2.7-3.7c0.7-0.5,1.4-1,2-1.3l1.2-0.1c0.3,0,0.5,0,0.5,0.2c0.7,0.2,0.7,0.4,0.3,1l-1.4,1.5c0,0.2-0.2,0.5-0.5,0.5
			c-0.2,0.5-0.4,1-0.6,1.2c-0.7,1.8-1.6,3-2.4,4.5c-0.2,0.7-0.4,1.5-0.6,2.4C330.8,146.5,331.6,146.7,332.3,146.7z"/>
		<path d="M352.6,137.5c0.1,1.1,0.4,1.9,0.2,3c-0.2,0.8-0.1,1.7-0.4,2.5c-0.3,0.3-0.3,0.6-0.2,1.1c0.3,0.6,0,0.9-0.2,1.1
			c-0.5,0.9-0.1,1.7-0.4,2.5c0,0,0.7-0.4,0.7-0.1c-0.3,0.6-1.5,1.5-2.1,1.3c-0.9,0-1.7-0.2-2-1c-0.2-0.3,0.1-1.8,0.2-2
			c0.3-0.6,0.2-0.8,0-0.8c-0.9-0.5,1-6.5-0.5-6.2l-0.9,2.3c0,0.3,0,0.2,0,0.2s-0.2,0.6-0.2,0.9c-1,1.1-1.5,1.7-2.8,2.8
			c-0.5,0.6-1.9,1.2-2.7,1.3c-0.6,0.3-1.4,0.1-2-0.2c-0.8-0.5-1.4,0.4-2-0.4c-0.3-0.5-0.6-1.1-0.6-1.9c0-0.9-0.1-2.5,0.1-3.3
			c1.2-4.6,4.3-10,9-10.3c0.3,0,2,0.7,2.3,1c0.3,0.3,0.6,0.8,1.2,1.3c0.3,0.3,0.3,0.8-0.2,1.1c0.3,0.6,1.5,1.2,2.1,1.7
			C351.7,136.2,352.6,136.7,352.6,137.5z M342.1,140.5c-0.8,0.9-1,2.3-1.5,3.1l0,0.3c0,0.3,0.3,0,0.3,0c0.3,0,0.7-0.2,0.9-0.5
			c0.5-0.6,1.7,0,2.2-0.9c2-2.1,3.1-4.1,3.8-7.2c0.2-0.2,0.4-0.7,0.4-0.9c-0.2,0.1-0.3,0.1-0.5-0.1c-0.8-0.2-1.1,0.1-1.6,0.4
			c-0.8,0.8-0.2,0.2-0.7,1.1c-0.5,0.5-1,1.1-1.3,1.7c-0.5,0.3-0.5,0.9-1,0.9c-0.3,0-0.3,0.3-0.6,0.3c0,0.8-0.5,1.1-0.4,1.6
			L342.1,140.5z"/>
		<path d="M365,144.9c0.5,0,2.4,0.7,3.1,0.9c0.5,0,1,0.2,1.5,0.4l0.8,0.6c0.2,0,0.2,0.2,0.2,0.2c-0.2,0.3-0.7,0.5-1.2,0.6
			c-0.7,0-1.6,0.3-2.6,0.4l-2.9-0.5c-1.5-0.2-2.4-0.6-3.2-1.9c0,0-0.2,0-0.2-0.3l-0.7,1.5c0.5,0.4,0.6,0.9,0.6,1.6
			c0,0.5,0,0.7,0.3,1.2c0,0.5,0.1,1.2-0.1,1.7c-0.3,0.3-0.3,0.5,0.1,1c0.3,0.7,0.1,1-0.4,1.5c-0.2,0.3-1,0.3-1.4,0.1
			c-0.2-0.2-0.5-0.7-0.8-0.9c-0.2,0-0.2,0-0.5-0.3c0,0.3,0,0.3-0.2,0.3l0,0.5c0,0.2-0.2,0.2-0.5,0.3l-0.2-0.2c0-0.5-0.3-1.2-0.3-1.6
			c0-0.3-0.3-0.7-0.5-0.9c0-0.2-0.3-0.5-0.3-1c0.3,0,0.3-0.2,0.5-0.3c0-0.2,0.2-0.5,0.2-0.8c0.1-2.9-0.2-5.5-0.1-8.4
			c0.1-1.9,0.2-6.2,0.6-7.9c0-0.5,0.2-1,0.4-1.5c0-0.2,0.3-0.5,0.7-0.3c0.3,0,1.2,0.2,1.4,0.5c-0.1-0.3-0.1-0.6,0-0.9
			c-0.1-0.3,0-0.7,0.1-1.1c-0.2-0.3-0.3-0.6,0-0.9c0.7-0.3,1,0,1.1,0.4c0,0.3,0.4,0,0.4,0.3c-0.1,1.9,0.2,2.3,0.2,4.1
			c0,1.3-0.6,2.5-0.5,3.8c0.1,0.2,0.1,0.5,0.1,0.7c0.1,0.3,0.1,0.7,0.2,1.1c0.1,0.3,0.1,0.7,0.1,1l0,0.5c0.5-0.7,0.9-1.2,1.1-1.9
			l2.7-3.7c0.7-0.5,1.4-1,2-1.3l1.2-0.1c0.3,0,0.5,0,0.5,0.2c0.7,0.2,0.7,0.4,0.3,1l-1.4,1.5c0,0.2-0.2,0.5-0.5,0.5
			c-0.2,0.5-0.4,1-0.6,1.2c-0.7,1.8-1.6,3-2.4,4.5c-0.2,0.7-0.4,1.5-0.6,2.4C363.5,144.8,364.2,145,365,144.9z"/>
		<path d="M382.5,142.2c0.6-1.9,0.9-3.7,1.5-5.8c0.4-0.9,0-1.6,0.4-2.5c0-0.2,0.2-0.5,0.2-0.7c0.4-0.5,0.9-0.7,1.3-0.8
			c0.7-0.3,1.6,0.4,1.4,1.3c-0.2,1.2-0.1,2.3-0.3,3.7c0,0,0,0,0,0.2c-0.2,1.4-1.1,3-1.2,4.6c-0.2,0.9-0.4,1.9-0.5,2.8
			c-0.2,0.5-0.4,1.2-0.6,1.6c-0.2,0.7-0.4,1.4-0.8,1.9c-0.4,0.9-0.3,1.6-0.5,2.3c0,0.2,0,0.5-0.2,0.5c-0.4,0.5-0.4,1.2-0.6,1.6
			c-0.2,0.2-0.2,0.5-0.4,0.7c-0.2,0.7-0.4,1.2-0.6,1.9c-0.2,0.5-0.2,0.7,0.1,1.1c0,0.9-0.1,1.6-0.8,2.3c0,0.2-0.2,0.2-0.2,0.5
			c0,0.5-0.2,0.7-0.4,0.9c-0.4,0.7-0.9,1.2-1,1.9c-0.2,0.5-0.4,0.7-0.6,0.9c-0.2,0.2-0.7,0.5-0.6,0.9c-0.4,0.5-1.1,0.5-1.6,0.3
			c-0.5-0.2-0.7-0.4-0.9-0.6c-0.2,0-0.5-0.2-0.7-0.2c0-0.7-0.1-1.1-0.1-1.8c0-0.2,0.2-0.5,0.4-0.5c0.7,0,1.1-0.5,1.3-1
			c0.4-0.7,0.8-1.4,1-2.1c0.2-0.5,0.2-0.9,0.2-1.2c0.2-1.2,0.3-2.1,0.7-3.2c0.4-1.2,0.8-2.3,1.2-3.5c0-0.2,0.2-0.2,0.2-0.5
			c0-0.2,0-0.5-0.3-0.4c-0.3-0.4-1.1-0.6-1.3-1.1c-0.3-0.7-0.5-1.1-1-1.6c-1.9-2.2-2.6-4.7-3.9-7.1c-0.8-1.3-1.8-1.5-2.3-2.9
			c0-0.9,0.2-2.8,0.2-3.4c0-0.2,0-0.5,0-0.7c0.2-0.7,1.1-0.1,1.5-0.1c0.2,0,0-0.5,3.3,0.1c0.5,0.2,0.5,0.7,0.7,1.1
			c0.3,0.9,0.5,1.6,0.8,2.5c0.2,0,0.2,0.2,0.2,0.2c1.1,2.9,0.8,4.9,2.3,7.5c0.3,0.5,1.1,1.1,1.1,1.4
			C381.4,144.3,382.1,143.4,382.5,142.2z M374.7,127.9c0-0.1,0-0.2,0-0.2c0.1,0,0.1-0.1,0.2-0.1c0-0.1,0.1-0.1,0.1-0.1
			c0.1,0,0.2,0,0.2,0c0,0.1-0.1,0.1-0.1,0.1l0,0.1c0.1,0.1,0.1,0.1,0,0.2c0,0-0.1,0-0.1,0.1c-0.1,0.1-0.1,0.1-0.2,0.1
			C374.8,128,374.7,127.9,374.7,127.9z M375.7,129.2c0.1,0,0.1,0,0.3-0.2c0.1,0,0.2,0.2,0.2,0.2c0.2,0,0.2,0,0.2,0
			c0.1,0.3,0.1,0.5,0,0.7c0,0.1-0.2,0.1-0.2,0.3l-0.1,0c-0.3,0-0.4,0-0.7,0c-0.1-0.2-0.1-0.2-0.3-0.2c-0.1-0.1-0.3-0.1-0.3-0.3
			c0-0.1,0-0.2,0-0.4C375.2,129.2,375.5,129.2,375.7,129.2z"/>
		<path d="M393.8,136.9c-0.7,1.1-0.5,8.3-0.6,9.1c0,0.6-0.2,1.1-0.5,1.3c-0.2,0.4-0.2,0.6-0.2,0.9c-0.5,0.3-1.4,0.1-1.7-0.4
			c-0.3,0-0.5-0.3-0.9-0.5c-0.3-0.5-0.3-0.7-0.3-1.6c0.2-1.3,0.1-3,0.3-4.5c-0.1-1.1-0.1-2.2,0.1-2.9c0-0.8-0.1-1.7-0.1-2.4
			c0.2-1.1,0.2-2.1,0.3-3.5c-0.1-1.7,0.2-3.3,0.5-5.1c0-0.6,0.5-0.8,1-1.1c0.8-0.4,1.9-0.4,2.8,0.1c0.3,0.5,0.1,1.1,0.1,1.6
			c0,0,0,0,0,0.2c-0.6,0.3-0.5,0.8-0.5,1.4c-0.2,1-0.4,2.4-0.3,3.7c-0.2,0.3-0.2,0.8-0.2,1.1c0.8,0.5,1.6,0.4,2.4,0.1
			c0.5,0,1.3-0.3,1.8-0.6c0.6-0.3,0.5-0.8,0.5-1.1c0.2-0.3,0.5-0.8,0.5-1.1c-0.6-1.1-0.6-1.1,0.1-1.9c0,0,0.3,0,0.6-0.3
			c0.2,0,0.5-0.3,0.8-0.6c0-0.3,0.3-0.5,0.5-0.8c0.3,0,0.5,0,0.8,0c0.3,0.3,0.5,0.5,0.6,0.8c0,0,0,0,0,0.3c0.9,0,1.9-0.1,2.7-0.4
			c0.3,0,0.8,0,1,0.2c0.6,0.3,0.9,0.5,1.1,0.7c-0.5,0.6,0.9,0.6,1.4,1.3c-0.2,0.3-0.2,0.6-0.5,0.6c-0.2,0.2,0.1,0.5,0.1,0.7
			c0.1,2.3,0.4,8.1-0.1,9.1c-0.3,0.5-0.2,0.8-0.4,1.3c0,0.6-0.2,0.8-0.5,1.1c-0.5,0.5-1,1.1-1.5,1.5c-0.5,0.3-1.1,0.3-1.5,0.3
			c-0.6,0-1.1,0.1-1.9,0.1c-0.5,0-1.1-0.2-1.9-0.4c-0.5-0.2-0.8-0.5-1.4-1c-1.1-0.7-1.5-1.8-1.5-2.8c0-0.9-0.1-1.9,0.2-2.8
			c0-0.5-0.1-1-0.1-1.5C395.9,137.3,394.9,137.1,393.8,136.9z M401.5,131.7c-0.2,0.2-0.2,0.8-0.2,1.3c-0.3,0.5-0.2,1-0.2,1.8
			c-0.2,0.3-0.2,0.8-0.2,1.4c0.1,1.3,0.1,2.6,0.2,4.2c0,0.2,0,0.8,0.3,1.3c0,0.2,0.5,0.2,0.8,0c0.3,0,0.5-0.3,0.5-0.5
			c0.5-0.8,0.8-1.6,1-2.5c0.2-1.3,0.4-2.7,0.3-4c0.2-0.8,0.2-1.3,0.2-2.1c0-0.8-0.1-1-0.9-1c-0.5-0.3-1.1-0.5-1.6-0.5
			C401.4,131.1,401.5,131.4,401.5,131.7z"/>
		<path d="M420.4,132.7c0.7,0,1.4,0,1.8,0c0.7,0,1.4-0.1,1.6,0.3c0.2,0.2,0.1,1.2,0.1,1.7c0,0,0,0.2-0.2,0.2
			c-0.2,0.2-0.7,0.5-1.1,0.5c-0.2,0-0.5,0-0.9,0c-0.7-0.2-1.6-0.1-2.5-0.3c-1.4,0.1-2.7,0.1-4.1,0.2c-0.5-0.2-1.2-0.2-1.8-0.1
			c-0.7-0.2-1.2-0.4-1.4-1.1c0-0.5,0.7-1.5,1.2-1.5c0.5,0,0.9-0.3,1.4-0.3c1.1-0.1,2.2,0.1,3.6,0
			C418.8,132.2,419.5,132.7,420.4,132.7z"/>
		<path d="M452,140.4c0,0.2,0,0.4-0.1,0.6c-0.5,0.8-1.3,1.2-2,1c-0.6,0-1.2-0.3-1.4-0.8c-0.2-0.4,0.2-0.8-0.1-1.1
			c-0.1-0.2-0.4-0.5-0.6-0.8c0,0-0.2,0-0.2,0.1c-0.4,0.4-0.9,0.8-1.3,1.2c-0.4,0.8-0.9,1.2-1.6,1.6c-0.8,0.8-2.5,1.2-3.8,1.1
			c-0.5-0.1-0.9-0.5-1.3-0.8c-0.6-0.5-1.2-1.1-1.2-2c-0.2-0.6-0.4-1.2-0.4-1.8c0-0.4,0.1-0.6,0.1-0.8l0-0.7
			c-0.3,0.4-0.5,0.5-0.7,0.8c-0.5,0.9-1.2,1.9-1.9,2.7c-0.4,0.4-0.8,0.8-0.9,1c-0.5,0.6-1,0.9-1.6,1.2c-1.1,0.6-2-0.1-2.7-0.6
			c-0.6-0.7-0.9-1.4-1-2.4c-0.3-1.2-0.1-2.7,0-4.1c0.1-0.9-0.9-2.6-0.1-5.7c0.2-0.6,0.9-1.2,1.2-1.6c0.2-0.4,0.4-0.5,0.8-0.2
			c0.4,0.4,1.1,0.7,1.1,1.1c0.1,1.3,1.4,4.3,1.3,5.6c0,0.1-1.8,1.9-2,2.1c0,0.6,0.1,1.1-0.1,1.9l0.1,1.7c0,0.2,0,0.3,0.3,0.5
			c0,0.2,0.2,0.4,0.4,0.2c0.2,0,0.6-0.3,0.7-0.4c0.7-0.4,1.4-1,2-1.6c0.7-0.8,1.3-1.6,2.1-2.3c0.3-0.6,0.8-1.4,1.2-1.9l0.2-0.2
			c0.6-1,0.8-1.9,1.1-3c0,0,0.2-0.2,0.1-0.4c0-0.3,0.2-0.7,0.2-1.1c-0.2-0.2,0-0.6,0-0.6c0.3-0.4,0.5-0.6,0.7-0.8
			c0.2-0.4,0.6-0.4,0.7-0.6c0.2,0,0.4,0,0.4-0.1c0.3-0.2,0.7-0.3,1.1-0.1c0.3,0.1,0.5,0.5,0.8,0.6c0.4,0.4,0.4,0.7,0.1,1.1
			c0,0.2-0.2,0.2-0.4,0.4c-0.2,0.2-0.3,0.4-0.1,0.6c0.2,0.7,0.2,1.3,0.1,2.1c-0.1,1.1-0.3,2-0.6,3.1c-0.2,0.8-0.1,1.7-0.3,2.5l0,0.3
			l0.2-0.2c0.8-0.6,1.3-1.2,1.6-1.7c0.4-0.6,0.9-1,1.1-1.6c1-1.1,1.9-2.5,2.5-4c0.3-0.6,0.7-1.1,0.8-1.9c0,0,0-0.2,0.2-0.4
			c0-0.6,0.4-0.8,0.7-1l0.9,0c0.4,0.1,0.8,0.1,1.2,0.3c0.4,0.2,0.7,0.5,1,0.9c0.2,0.3,0.4,0.5,0.3,0.8c-0.2,0.6-0.4,1.2-0.5,1.7
			c-0.4,0.6,0.1,1.1,0.1,1.7c-0.1,0.6-0.1,1.3-0.3,1.9c-0.4,1.6,0.3,3.4,0.4,4.7C452.1,140.1,452.1,140.3,452,140.4z M452.2,118.7
			l0,0.2c0,0.4-0.1,0.6-0.4,0.6c-0.6,0.4-1.2,0.7-1.8,0.9l-0.4,0c-0.4,0.2-1,0.5-1.6,0.5c-1,0.1-2,0.3-3.1,0.6c-0.2,0-0.4,0-0.6,0.3
			l-1.4,0.1c-0.6,0.2-1.4,0.2-2.2,0.5l-1,0.1c-0.6,0.3-1.2,0.5-2,0.5c-0.2,0.2-0.4,0.2-0.8,0.3c-0.2,0.2-0.4,0.2-0.4,0.4l-0.9,1
			l-0.6,0c-0.2,0-0.6-0.1-0.8-0.4c-0.4-0.4-0.7-0.5-0.8-0.8c-0.2,0-0.2-0.2-0.2-0.4c-0.2-0.6-0.1-1.2,0.3-1.6
			c0.2-0.2,0.2-0.6,0.4-0.6c0.2-0.4,0.2-0.6,0.3-1c0.2-0.4,0.4-0.4,1-0.5l0.4,0c0.6,0,1-0.2,1.6-0.3l1.6-0.1
			c1.2-0.1,2.4-0.4,3.6-0.4c1-0.1,1.8,0.1,2.8,0.1l2.7-0.1c0.6,0,1.2,0.1,2,0.1c0.6-0.2,1.2-0.1,2.1-0.1
			C452,118.5,452,118.7,452.2,118.7z"/>
		<path d="M463,125.5c-0.4-0.4-0.4-0.5-0.1-1c0.3-0.3,0.7-0.6,1.2-0.7c0.9-0.1,1.8-0.3,2.7-0.2c0.6,0,1.1-0.1,1.7,0
			c0.3,0.1,0.6,0.3,0.9,0.4c1,0.8,1.5,1.7,1.9,2.8c0,0.6,0.2,1.6,0.1,2.3c-0.3,1.7-0.6,3.4-1.3,4.9c-0.4,0.7-0.6,1.5-1.1,2.1
			c-0.5,0.9-1.1,1.8-1.6,2.7c-0.7,0.8-1.2,1.5-2.1,2.3c0,0-0.1,0-0.3,0.3c-0.3,0.1-0.4,0.3-0.7,0.4c-0.4,0.1-0.8,0.4-1.2,0.8
			c-1.3,0.7-2.4,0.6-3.6,0c-1.1-0.6-2-1.2-2.8-1.9c-0.5-0.5-0.9-1-1.2-1.8c-0.4-0.7-0.5-1.6-0.4-2.4c0-1,0.5-2,0.9-3.1
			c0.2-0.7,0.6-1.4,1.2-2.1c0.4-0.7,0.8-1.4,1.5-2.1c0.1-0.1,0.1-0.3,0.3-0.6c0.5-0.9,2.3-1.6,3.5-1.4c0.6,0,0.9,0.1,1.3,0.3
			c0,0.1,0.1,0.1,0.1,0.1c-0.1-0.3-0.1-0.5-0.2-0.8C463.6,126.2,463.3,125.8,463,125.5z M457,128.4c-0.1,0.1-0.2,0.2-0.2,0.2
			c-0.1,0.1-0.1,0.1-0.2,0c-0.1,0-0.1-0.1-0.1-0.2c0-0.1,0.1-0.2,0.2-0.3c0.1,0,0.2,0,0.3,0.1L457,128.4z M461.1,129
			c-0.1,0.1-0.3,0.5-0.5,0.6c0,0.2-0.2,0.3-0.3,0.5c-0.4,0.3-0.5,0.5-0.6,1c0,0.3-0.2,0.6-0.4,0.9c-0.3,0.6-0.5,0.7-0.7,1.4
			c-0.1,0.1-0.1,0.1-0.1,0.2c0,0.7-0.2,1.4-0.4,2.2c0,0.6,0,1.3,0,1.9c0.2,1,0.6,1.6,1.5,1.8c0.9,0.2,1.7,0,2.5-0.1
			c1-0.2,1.9-0.7,2.7-1.7c-0.1-1.1-0.1-2.3-0.1-3.5c-0.2-1.2-0.3-2.6-0.4-4c-0.1-0.2-0.1-0.5-0.2-0.8c-0.5-0.9-1.8-1.1-2-0.9
			C461.8,128.6,461.4,128.8,461.1,129z M459.3,125.1c0.2,0.1,0.2,0.2,0.2,0.4c0,0.1,0,0.2,0,0.3c-0.1,0-0.2,0.1-0.4,0.1
			c-0.2,0-0.3-0.1-0.4-0.2c-0.1-0.1-0.2-0.2-0.2-0.3c-0.1-0.1-0.1-0.2-0.1-0.3c0.1-0.2,0.3-0.4,0.5-0.5c0.1,0,0.1,0,0.2,0.2
			C459.2,125,459.2,125,459.3,125.1L459.3,125.1z M460.8,124.5l0,0.2c0.1,0.1,0,0.2,0,0.2l-0.3,0.2l-0.2,0c-0.1,0-0.1-0.1-0.1-0.1
			c0-0.1,0-0.2,0-0.2c0.1-0.2,0.2-0.3,0.3-0.4C460.6,124.4,460.7,124.5,460.8,124.5z"/>
	</g>
	<g>
		<path d="M310.6,224.7c-0.3,5.4-0.5,11.3-1.3,16.7c0.1,1.6,0.2,3.2-0.3,4.8l0,0.5c-0.4,2.2-0.3,4.3-0.7,6.5
			c0.1,1.1,0.1,2.1-0.4,3.2c-0.5,1.1-0.4,2.2-0.4,3.2c0,0.5-0.5,1.1-0.5,1.6c-0.4,2.2-0.9,3.8-1.3,6c0.1,1.1-0.4,2.2-0.9,2.7
			c-0.4,2.2-1.4,4.4-2.9,6c-0.5,0-0.5,0.6-1,0.6c-1.5,2.2-3.5,3.9-6.2,4.6c-1,0.6-2.6,0.7-3.7,0.2c-2.7-0.4-4.3-0.8-6.5-2.3
			c-1.7-1-2.3-2.6-2.9-4.7c-0.2-3.2,0.2-6.4,1.1-9.2c0.8-4.3,2.2-8.7,3.6-13c0.9-2.7,2.4-5.5,3.3-8.2c1-2.2,1.9-4.4,2.8-7.1
			c-2.1,0.1-4.3-0.8-6-2.4c-1.7-2.1-4-4.1-5.2-6.7c-0.6-1-0.6-2.1-1.2-3.1c-0.6-2.1-0.8-4.2-0.9-6.4c-0.1-2.7-0.3-5.3,0.6-8.1
			c0-0.5-0.1-1.1-0.1-1.6c0.5-0.6,0.5-1.1-0.1-2.1c0-0.5-0.1-1.6-0.1-2.7c0.5-1.6,1.5-2.8,3.1-2.8c2.6-1.2,5.3-1.3,8-1
			c0,0,0.5,0,0.6,0.5c1.1-0.1,1.6-0.1,2.1-0.6c1.5-1.1,3.1-2.8,4.6-4c2.1-1.2,3.6-2.9,5.6-4.6c1.6-0.6,2.6-1.2,4.8-0.8
			c0.6,1,0.6,2.1,0.2,3.2c0.1,1.1-0.5,1.6-0.9,2.7c-1.5,1.7-2.5,3.3-4,5c0,0,0.6,0.5,1.1,0.5c1.1,1,2.8,2,3.4,3.6
			c0.6,1,1.2,2.1,1.2,3.1C310.6,214,310.8,219.3,310.6,224.7z M299.9,235.4c-1,1.7-1.4,3.8-2.4,5.5c-1,2.2-1.9,4.9-2.8,7.1
			c-0.4,1.6-0.9,2.7-1.4,4.4c-0.9,2.7-1.9,4.9-2.8,7.6c-0.9,3.3-1.8,6.5-2.2,9.7c-0.5,0.6-0.5,1.1-0.5,1.6c0,0,0.5,0,0.6,0.5
			c0,0,0.5,0,0.5-0.6c0,0,0.5,0,0.5-0.6c1-1.1,1.5-2.8,2.5-3.9c1.4-3.8,2.8-7.6,3.7-11.4c2.4-6,3.6-12.5,4.4-19
			C299.9,235.9,299.9,235.4,299.9,235.4z M291.5,228.9c0.5-1.1,1-2.2,1.5-2.8c0.4-1.6,0.9-3.3,1.3-4.9c0.9-3.3,1.3-6.5,0.6-9.7
			c-0.6-1-0.6-1.6-1.2-2.1l0-0.5c-0.5,0-0.5,0.6-1,0.6c-0.5,0.6-1.5,1.1-2.6,1.7c-0.5,0-1.1,0.1-2.1,0.1c0.1,1.1,0.1,1.6,0.1,2.1
			c0.7,3.2,0.9,6.4,1.6,9.5c0.6,1.6,0.7,3.2,1.3,4.7C291,228.4,291,228.4,291.5,228.9z M316.2,261.3c0.5-0.6,0.4-2.2,0.9-3.3
			c0-0.5-0.6-1-1.1-1c0,0.5-0.5,0.6-0.5,0.6c-0.5,0.6-1.5,1.1-1.5,1.7c-0.5,0.6-0.5,1.1-1,1.7c0,0.5,0.1,1.1,1.1,1
			c0.5,0,0.6,0.5,1.1-0.1C315.7,261.9,315.7,261.9,316.2,261.3z"/>
		<path d="M347.3,225.7c-1.2,0.5-2.2-0.4-3.5-1.3c-1-0.8-1.9-2.2-2.3-3.8c0,0-0.6-0.4-0.6-0.8c-0.1-1.5-0.2-3.3,0.3-5
			c-0.1-2,0.2-3.2,0.1-5.1c0-0.4,0.4-0.8,0.4-0.8c-0.1-1.9,0.2-3.1,0.1-5l-0.1-1.2c0-0.5-0.4,0-0.4,0c-1.2,2.2-2.4,4.4-3.1,7.1
			c-0.9,1.5-1.7,2.8-2,4.8c-0.3,1.2-0.6,3.1-1.5,4.4c0.1,1.1-0.4,1.9-0.8,2.7c-0.4,0.8-0.3,1.9-0.7,2.7l-0.4,0.4l-1.5,1.6
			c-0.8,0.4-1.7,0.9-2.6,0.9c-1.2,0.1-2.7,0.1-3.9-0.6c-0.4,0-1-0.5-1-0.5c-0.9,0-1.4-0.5-2.2-1.2c-1-0.8-1.6-2.2-2.1-3.4
			c-0.5-1.4-0.9-2.6-1-4.5l-0.1-1.6c0.3-2,0.2-3.9,0.5-5.5c0-0.9,0.3-2.3,0.2-3.6c1.2-4.5,1.8-9.3,2.5-14.2c0.3-2.7,1.1-5.1,1.8-7.4
			c0.3-1.8,2.1-2.7,3.9-2.7c0.5,0,0.9,0,1,0.3c0.4,0,0.8,0.4,1.2,0.3c1.7,1.3,2.1,2.6,1.8,3.9c0,0.8-0.3,1.4,0.1,2.4l-0.4,0.4
			c-0.4,1.8-0.4,3.5-0.9,5.8c-0.4,0.8-0.3,2.3-0.2,3.5c-0.3,2.7-0.9,5.4-1.3,8.5c-0.3,1.4-0.8,2.7-1.1,4.6c0,0.8,0.1,1.6-0.3,2.8
			c0,0.4,0,0.4,0.5,1.2c0.4,0,0.4-0.4,0.4-0.4c1.3-2.5,2-4.4,3.4-6.5c2-3.3,4.1-6.5,5.6-9.7c0.9-1.4,1.2-2.2,2.5-3.2l0-0.5
			c0.5-1.2,1.6-2.8,2.5-4c0.4-0.4,0.4-1,0.3-1.9l-0.1-2.3l-0.1-1.7c0.5-1,0.9-1.4,0.9-1.4c0.9-1,1.3-0.6,1.7-0.6
			c0.4,0,0.4,0.5,0.4,0.5c0.9,0,1.9,0.3,2.3,1.2c1,0.8,1.4,1.7,1.5,3.1c0,0.4,0.4,0.8,0.1,1.7c0.2,3.1,0.3,6.3,0.1,9.4l0.3,4.8
			c0.1,1.7,0.2,3.1-0.3,4.8l0.2,3.5c-0.3,2.4-0.1,5.1,0,7.4c-0.4,0.4,0.1,1.2,0.5,1.6c0.6,0.6,0.6,1.4,0.7,2.2
			C349.6,225.6,348.6,225.6,347.3,225.7z"/>
		<path d="M390.3,189.5c-0.7,4.3-1.6,8.6-3.4,12.5c-0.5,1.1-1.1,11.8-2.5,13.2c0.8,2.1,0.4,4.3-0.6,6.5c-0.3,1.1-1.4,2.2-2.4,3.3
			c-0.5,0.6-2,9.6-3.1,9.7c-2.2-0.4-6.7-2.3-7.3-4.4c-0.1-1.1,3.6-10.8,3.5-11.8c0.2-4.3,1.4-8.1,2.9-11.9c0.5-0.6,0.8-1.6,0.8-2.7
			c0.6-1.1,1.7-6,0.2-5.8c-2.1,0.2-0.3,2.3-2.1,3.6c-1,2.2-1.9,3.8-3.3,5.5c-0.5,1.1-1,1.7-1.5,2.2c-0.5,1.1-2,2.2-2.9,3.4
			c-0.5,0-1.6,0.6-2.1,0.6c-2.2-0.4-4.3-0.8-6.1-1.8c-1.7-1.5-3.4-3-4.2-5.7c-1.2-3.1-1.8-10.5-0.9-13.7c0.3-2.2,0.9-8.3,1.9-10
			c0.5-1.1,1-1.7,1.5-1.7c1-1.1,2.1-1.2,3.7-0.7s4.5,0,5.7,1c1.1,0.5,1.7,1.5,1.7,2.6c-1.8,3.3-3.4,17-1,18.9c0.5,0,1.1-0.1,1.1-0.1
			c0.5-0.6,1.5-1.1,2-1.7c1.9-1.7,1.9-2,4.5-3.7c1.5-1.2,1.6-2.8,3.1-3.9c-0.6-0.5,1-9.8,0.4-10.3c0-0.5-0.1-1.6,0.4-2.2
			c0-0.5,1.8-1.2,2.4-0.7c2.7,0.9,3.6,1.4,5.4,3.5c0.5,0,0.5,0,0.6,0.5C389.9,184.1,390.8,187.8,390.3,189.5z"/>
		<path d="M424.2,210.6c0.6,1.6-0.3,3.9-0.8,5.7l-0.5,0.6c0.6,1-0.5,2.8-0.5,3.9c-0.5,0.6-1,1.8-2,2.4c-0.6,0.6-1.1,1.1-1.6,1.8
			c-0.5,1.1-1.6,1.7-2.7,2.3c-1.7,0.1-3.8,0.9-5.5,1.5c-3.3,0.2-6.7-0.2-9.1-2.3c-1.8-1.1-2.4-2.7-3-4.4c-0.1-1.1-0.7-2.8-1.9-3.8
			c-0.6-1.2-0.7-2.2-0.7-2.8c-0.6-1.2-0.1-2.3,0.4-3.4l0-0.7c0,0,0-0.5-0.6-0.5c0,0,0,0,0-0.5l-0.5,0c0,0.5,0,0,0,0
			c-0.6-1-1.3-1.7-0.7-3.3c0-0.5,0.4-1.8,0.9-2.3c1-1.1,2.1-2.4,3.2-3.5c0.4-1.8,1.1-2.9,1.6-2.9c1-1.8,1.5-2.9,2.1-4.1
			c0.5-0.6,0.5-0.6,1-1.1c0.9-3.9,2.9-8,4.5-11.5c0.5-1.1,0.9-2.9,1.4-4c0.6-1.2,1.1-1.8,2.7-1.9c1.7-0.1,2.8,0.4,3.6,1.6
			c1.7,1,1.8,3.3,1.3,4.9c-0.8,5.1-1.8,9.7-3.8,14.9c-0.5,0-0.5,0.6-0.5,0.6c0.6,1,1.3,1,2.3,0.4c1.1-0.1,1.7-0.1,2.8,0.4
			c2.3-0.1,3.9,1,5.2,3.1c0.6,1.2,1.2,2.7,1.3,3.9c0.1,1.6,0.1,2.8,0.2,4.4C424.2,209.9,424.2,209.9,424.2,210.6z M417.2,204.1
			c0-0.5-0.6-1-1.3-1c-1.6-0.5-2.8-0.4-3.3,0.7c-0.5,0-0.5,0-0.5,0c-1,1.8-2.7,2.4-3.1,4c0,0-0.5,0-0.5,0.7
			c-1.7,0.6-2.2,1.7-2.6,3.5c-0.6,0.6-0.6,1.6,0.1,2.3c0.6,1,1.2,2.7,1.8,3.8l0.5,0l0.7,0c2.1-0.1,3.8-1.3,5.5-3.1
			c1.5-2.4,2.6-4.7,3-7.5C417.3,206.4,417.2,205.3,417.2,204.1z"/>
		<path d="M435.5,172.7c0.3,1.3,0.5,2.5,0.2,3.7c-0.3,0.3-0.2,0.7-0.2,1.1c-0.2,4.2-0.1,7.8,0.1,11.4c0,0.4-0.2,0.5-0.2,0.8
			c0,0.1,0,0.1,0.3,0.1c0.1,0.3,0.2,0.7,0,0.8l1.2,2.6c0,0.3,0,0.7,0.2,0.8c0.3,0.3,0.3,0.4,0.3,0.8l-0.1-1.9
			c0.4-3.2,0.2-6.4,0.6-9.7l-0.4-8c-0.8-4.2-1-8-1.2-12.2c-0.1-1.6-2-2.3-2.1-3.9c-0.1-1.1,0.1-5.4-0.5-6.4l2.5-0.4
			c1.1-0.1,1.6-0.6,2.6-0.7c1.5-1.1,3.1-1.8,4.7-1.9c3.2-0.2,5.3,0,8-0.2c1.7,1,2.4,5.5,2,7.1c0,2.4-2,2.9-3.5,4.1
			c-0.5,0.6-0.3,4.7-0.8,5.3c-1,2.2-0.8,4.3-0.7,7c-0.4,3.2,0.8,5.8,0.4,8.5l0.1,2.1c-0.4,2.2-0.3,4.3-0.7,6.5
			c0.1,1.6-0.4,3.2-0.3,5.4c0.1,1.6,0.2,3.2-0.3,4.8l0.1,2.1c-0.5,0.6,0.1,1.1,0.1,1.6c0.1,1.6-0.4,2.7-1.4,3.8
			c-1,0.6-1.5,1.1-2.6,1.7c-1.6,0.6-3.2,0.7-4.9-0.8l-1.3,1c-0.1,0-0.1,0-0.1-0.1c-0.3,0-0.4-0.1-0.4-0.4c0.1-0.4-0.3-0.7-0.4-0.8
			l-1.5-0.6l-0.4-7.1c0.2-2,0-4.3,0.1-6.6c-0.1-1.3-0.4-2.7-0.2-3.9c0.1-2.9-0.3-5.9,0-8.4c-0.8,0.4-0.9,0.3-0.5-1.2
			c0.2-0.4,0.8-0.8,0.7-1.2c-0.1-1.5-0.6-2.9-0.2-4.1l-0.1-1.6c0-0.4,0.1-0.7,0.1-1.1c0.3-0.1,0.2-0.4,0.6-0.4L435.5,172.7z
			 M437.9,215.9c-0.5,0-0.5,0-0.6-0.5c0,0,0-0.5,0.5-0.6l0.6,0.5L437.9,215.9z M443.4,220.4c1.6,0.4,2.7,0.9,3.8,1.9
			c0,0.5,0.6,1,1.1,1.5c1.7,1,1.2,3.1,0.8,4.2c-0.5,0.6-1,1.1-2.1,1.2c-2.7,0.1-5.4-0.3-7.1-2.8c0-0.5-0.6-1-0.6-1.6
			c-0.6-0.5-0.6-1-0.6-2.1c0.5-1.1,1.5-2.2,3.1-2.3L443.4,220.4z"/>
	</g>
</g>
</svg>
