<?xml version="1.0" encoding="utf-8"?>
<!-- Generator: Adobe Illustrator 19.0.1, SVG Export Plug-In . SVG Version: 6.00 Build 0)  -->
<svg version="1.1" id="Слой_1" xmlns="http://www.w3.org/2000/svg" xmlns:xlink="http://www.w3.org/1999/xlink" x="0px" y="0px"
	 viewBox="0 0 500 332.9" style="enable-background:new 0 0 500 332.9;" xml:space="preserve">
<style type="text/css">
	.st0{stroke:#000000;stroke-width:3;}
</style>
<g>
	<g>
		<g>
			<path d="M100.5,270.8c-0.6-0.9-1.2-1.7-2-2.9c-0.1,1.4,0,2.5-0.2,3.4c-0.3,0.9-0.8,1.8-1.3,2.7c-0.9-1.5-2.8-0.9-4.2-2.2
				c-0.3,2.3,1.7,3.7,1,5.8c-0.4,0.2-0.8,0.3-1.2,0.5c-0.1,0.3-0.1,0.6-0.1,1c-0.2,4.5-0.4,9.1-0.6,13.6c-0.1,1.6-0.2,3.2-0.3,4.9
				c-0.1,1.3,0.3,2.3,1.5,2.9c0.4-2.1,0.8-4.1,0.9-6.1c0-0.8,0.1-1.7,0.3-2.5c0.2-1,0.7-1.6,1.9-1.6c0,0.7,0,1.3,0,1.9
				c-0.2,3.6-0.3,7.1-0.6,10.7c-0.1,0.9,0.2,1.5,0.6,2.1c1.7,2.4,3.3,4.7,4.9,7.2c0.3,0.5,0.4,1.3,0.3,2c-0.1,0.8-0.8,0.8-1.4,0.8
				c-1.1,0.1-2.2,0.4-2.8-1.2c-0.4-1-1.1-0.9-1.9-0.8c-0.8,0.1-0.9,0.9-1,1.6c-0.6,4.9-1.2,9.8-1.8,14.6c-0.2,1.3-0.4,2.5-0.9,3.7
				c0.1-0.9,0.1-1.7,0.2-2.6c-0.1,0-0.1-0.1-0.2-0.1c-0.2,0.5-0.5,1-1,1.9c-0.1-0.9-0.2-1.4-0.2-1.8c0.5-5.4,0.6-10.8,1.6-16.2
				c0.3-1.6,0.2-1.7-1.5-2.4c-0.8,3.8-0.7,7.7-1.6,11.4c-0.4-1.6-0.3-1.9-0.1-4c0.1-0.7,0.1-1.4-0.4-2.2c-0.5-0.8-0.3-2.3-0.3-3.6
				c0-0.4,0.1-0.9,0.2-1.3c0.1-0.9-0.1-1.6-0.7-2.2c-1.2-1.2-1.7-2.7-1.7-4.5c0-1.4,0.5-2.5,1.3-3.5c0.5-0.6,0.9-1.5,1.2-2.3
				c1.1-3.3,1.4-6.7,1.4-10.2c0-3.8,0.3-7.5,0.6-11.3c0.1-1.2-0.1-2.1-0.9-2.9c-0.4-0.4-0.8-0.9-1.1-1.5c-0.7-1.3-0.4-2.4,1-2.7
				c0.4-0.1,0.8-0.2,1.1-0.2c0.9-2.4,0.5-3.4-1.3-9.1c-0.2,0.7-0.5,1.2-0.6,1.7c-0.9,4.4-1.8,8.7-2.7,13.1c-0.4,1.7-0.8,3.4-1.9,5
				c0.4-3.2,0.8-6.3,1.2-9.5c0-0.3,0.1-0.5,0.1-0.8c0.1-3.9,1.1-7.7,1.8-11.5c0.6-3.4,1.1-6.7,0.6-10.2c-0.4-3.2-0.3-6.5-0.4-9.7
				c0-0.9-0.2-1.7-0.4-2.8c-1.3,0.4-2.3,0.8-3.5,1.1c0,1.5-0.3,3,0,4.3c0.8,3.5,0.7,7.1,0.7,10.6c0,6.2-0.1,12.3-0.3,18.5
				c-0.1,3.8-0.6,7.6-0.9,11.4c0,0.3-0.1,0.6-0.2,1.1c-1-1-0.7-2.3-0.8-3.3c-0.1-1.1-0.1-2.2-0.2-3.6c-0.8,1.3-1.1,2.5-1.2,3.7
				c-0.3,2.2-1.2,3.8-2.7,5.2c-0.4,0.4-0.7,1.1-1,1.7c-0.1-0.1-0.4-0.3-0.7-0.4c-0.3,0-0.6,0.2-1.1,0.4c-0.1-0.8-0.3-1.5-0.4-2.1
				c-0.7,2.2-1.3,4.5-1.1,7c0.1,1.6,0.4,3.2-0.3,4.8c-0.6-0.2-1.1-0.3-1.6-0.5c-1.6,1.8-2.3,3.9-2.9,6.2c-0.5,1.8-1.1,3.7-1.9,5.4
				c-0.1-1.3-0.1-2.6-0.2-3.8c0-0.3,0.1-0.7,0-1c-0.8-1.6-0.3-3.2,0-4.9c0.3-1.5,0.3-3.1,0.5-4.6c0.2-1.8,0.4-3.6,0.8-5.3
				c0.3-1.5,0.4-2.9-0.4-4.3c-1-2-2-4.1-3-6.1c-0.2-0.3-0.4-0.6-0.8-1.1c-1,4.4-1.9,8.6-2.8,13c-0.5-2.4-1.1-4.5-1.3-6.7
				c-0.2-1.9-0.1-3.9,0.1-5.8c0.1-0.8,0.6-1.5,1.1-2.1c1.2-1.5,1.4-2.9,0.6-4.8c-2.4-5.7-4.7-11.4-7.1-17.1c-0.7-1.8-1.3-3.7-2-5.7
				c-0.6,0.1-1.4,0.3-2.3,0.5c1.4-1.5,2.6-2.8,4-4c0.6-0.5,1.4-0.8,2.1-1.2c2.3-1.5,4.6-3.1,6.9-4.7c0.8-0.6,1.8-1,1.7-2.5
				c0.6,1,1.1,0.8,1.8,0.5c4.2-1.8,8.3-3.5,12.5-5.1c2-0.7,4.1-0.9,6.2-1.5c3.7-1,7.3-2,10.9-3.2c1.5-0.5,3-1.6,4.3-2.7
				c1.2-0.9,1.6-2.3,1.2-3.9c-0.2-0.8-0.4-1.6-0.5-2.5c-0.3-2.3-0.3-2.3,1.4-3.4c-0.4-0.8-0.8-1.5-1.1-2.3c-1.2-3-2.3-6.1-3.4-9.1
				c-0.3-0.9-0.4-1.9-1.5-2.4c-0.5-0.2-0.7-1.4-0.9-2.2c-0.4-2-0.7-4.1-1.1-6.1c-0.2-1.3-0.3-2.5-0.7-3.8c0,1.7,0,3.4,0,5.1
				c0,1.7,0.6,3.4,0.1,5c-0.1,0-0.3,0.1-0.4,0.1c-0.2-0.5-0.5-1-0.6-1.5c-0.4-2.5-0.9-5-1.2-7.5c-0.3-2.4-0.4-4.9-0.6-7.4
				c-0.2-2.1-1.6-3.4-2.6-4.9c-0.1-0.1-0.5,0-0.5,0c-0.7-1.3-1.2-2.5-1.9-3.5c-1.4-2.1-2.9-4-4.2-6.1c-2.6-4.3-4.1-9.1-4.9-14.2
				c-0.4-2.6-0.1-5.3-0.1-8c0.1-7.4-0.7-14.6-2-21.8c-0.4-2.4-0.8-4.8-0.4-7.3c0-0.3,0-0.6,0.1-0.8c0.9-1.4,0.5-2.8,0.1-4.3
				c-0.8-3.4-1.7-6.7-2.5-10.1c-0.7-3-1.1-6-1.7-9.2c-3.3-2.4-4.5-5.7-2.7-9.9c1.6-3.5,3-7.1,3.7-11c0.1-0.7,0.3-1.4,0.2-2.1
				c-0.2-3.5,0.4-6.8,1.5-10.1c0.4-1.2,0.6-2.5,1-3.7c0.6-2,1.3-3.9,3.1-5c0.2-0.1,0.5-0.4,0.6-0.7c2.8-4.7,6.6-8.4,9.7-12.8
				c0.9-1.3,2.2-2.3,3.2-3.5c3.5-4.1,7.5-7.6,11.5-11.1c1.6-1.4,3.7-2.1,5.7-3c3.6-1.6,7.1-3.1,10.7-4.5c2.2-0.9,4.5-1.4,6.7-2.3
				c2.3-0.8,4.5-0.9,7-0.6c3.3,0.4,6.6,0.2,9.9,0.1c1.4,0,2.7-0.5,4-0.7c3.4-0.5,6.9-1.2,10.3-1.3c4.9-0.2,9.8-0.2,14.7-0.1
				c2,0,4,0.4,5.9,0.8c1.2,0.3,2.1,0.1,3-0.7c1.3-1.1,2.7-2.1,4.2-3c-1.2,1.5-2.3,2.9-3.5,4.4c1,0.7,1.9,1.3,2.8,1.9
				c0.4,0.3,0.8,0.6,1.2,0.6c2.5,0.5,4.9,1.2,7.4,1.2c2.8,0,5.5,0.7,8.3,1c2.7,0.3,5.3,0.5,8,0.9c1.2,0.2,2.4,0.4,3.5,0.7
				c1.7,0.5,2.9,1.8,3.5,3.7c0.5,1.8,2,2,3.1,2.8c0.2,0.1,0.7-0.1,0.9-0.4c0.6-0.5,1.1-1.2,1.6-1.7c1.2-1.3,2-1.1,2.7,0.6
				c0.1,0.3,0.2,0.6,0.5,1.1c-0.6,0.5-1.3,1-2,1.6c0.5,0.4,0.6,0.7,0.8,0.7c3.1,0.8,5.7,2.8,8.4,4.7c3.6,2.5,7.4,4.9,10.5,8.3
				c2.5,2.7,5,5.6,7.3,8.5c2.3,2.8,3.5,6.3,4.8,9.8c1,2.8,2,5.6,3.1,8.5c0.7,1.9,1.9,3.2,3.6,3.8c1,0.3,1.2,0.9,1,1.9
				c-0.3,1.7-0.6,3.3-0.9,5c-0.2,1.2-0.3,2.4,0.4,3.3c0.6,0.8,1.3,1.4,2.3,2.3c0.2,1.3-0.4,2.9-0.8,4.3c-0.9,2.7-1.2,5.4-1.6,8.1
				c-0.4,3-1.1,5.9-2.8,8.2c-0.3,0.4-0.7,1-1.1,1.1c-0.9,0.3-1.9,0.3-2.6,1.2c-0.1,0.2-0.8,0.1-1.1-0.1c-0.8-0.5-1.3-0.2-1.8,0.4
				c-2.1,2.6-4.2,5.3-5.6,8.5c1.3-1.1,2.6-2.4,4-3.4c2-1.5,4.1-2.8,6.2-4.1c0.5-0.3,1.2-0.5,1.8-0.6c0.3,0,0.8,0.1,0.9,0.4
				c0.9,2.2,2.7,3.4,4.2,5c2.1,2.2,3.2,5,3.8,8.1c1.6,8.1,1.6,16.2-0.7,24.2c-1,3.3-2.6,6.2-5.4,8c-1.4,0.9-2.7,1.9-4.1,2.9
				c-1.5,1-2.6,2.5-3.3,4.3c-1.4,3.4-2.9,6.7-4.3,10.2c-1.2,3-3.5,4-6.1,3.5c-2.2-0.4-4.4-0.2-6.8-0.4c-0.1,0.7-0.4,1.4-0.4,2.2
				c-0.2,5.8-1.6,11.2-4.1,16c0.4,0.9,0.8,1.7,1.2,2.5c0.3,0.6,0.6,1.3,1.1,1.7c2.2,2.3,2.7,5.3,2.9,8.5c0.1,1.3,0,2.6,0.2,3.9
				c0.7,3.9,0.8,7.8-0.2,11.5c-0.6,2.4-0.1,4.4,0.7,6.5c1,2.5,1.9,5.1,3.1,7.6c1.5,3.3,3.7,5.4,7,6c1.2,0.2,2.4,0.8,3.4,1.5
				c2.9,2,5.8,4,9,5.1c1.8,0.6,2.9,1.7,4,3.2c0.7,0.9,1.4,1.8,2.2,2.7c-0.4,0-0.8,0.1-1.3,0.1c-0.4,1.7-0.9,3.4-1.3,5.2
				c-0.4,1.6-0.7,3.4-1.9,4.2c-1.8,1.2-2.5,3.3-3.5,5c-3.5,5.9-7.9,10.7-13.1,14.7c-2.3,1.7-4.7,3.1-7,4.7c-2.2,1.5-4.5,3.1-6.7,4.7
				c-0.4,0.3-0.7,1-1,1.5c-0.4,0.8-0.8,1.5-1.3,2.5c-1.1-1.5-2.1-1.2-3.2-0.4c-5.2,3.4-10.9,5.5-16.7,7.3c-1.6,0.5-3.1,1.1-4.7,1.8
				c-0.4,0.2-0.8,0.7-1.1,1.2c-0.7,0.9-1.4,1.8-2.1,2.7c-0.1-0.1-0.2-0.1-0.3-0.2c0.1-0.4,0.1-0.8,0.2-1.2c0.1-0.4,0.1-0.8,0.2-1.5
				c-2.6,0.5-3.2,3.6-5.3,4.6c-0.4-0.8,0.3-1.4,0.2-2.2c-0.6-0.4-1.1-0.6-1.7,0.2c-0.3,0.4-1,0.3-1.5,0.5c-1.5,0.5-3,1-4.7,1.5
				c0.5-0.7,0.8-1.4,1.4-2.3c-1.2,0.1-2.1,0.2-2.9,0.2c-0.6,0.1-1.3,0.1-2.2,0.2c1.2-1.9,3.2-1.5,4.3-3.1c-0.5,0.1-1,0.1-1.4,0.2
				c0-0.1,0-0.2-0.1-0.3c2.1-0.7,4.2-1.5,6.5-2.3c-0.3-0.4-0.5-0.6-0.7-0.8c1.3-0.7,2.7-1.4,4.2-2.3c-0.9-0.8-1.4-0.3-1.9-0.1
				c-1.5,0.5-3,1.1-4.5,1.7c-2,0.8-4,0.9-6.4,0.9c0.8-0.3,1.3-0.4,1.7-0.6c0.4-0.2,1.5,0.3,0.9-1.1c0.3-0.1,0.6-0.3,0.9-0.4
				c2.3-0.9,4.6-1.6,6.8-2.6c2.5-1.2,4.9-2.7,7.3-4.1c0.6-0.3,1.1-0.7,1.7-1c2.2-1,3.7-2.8,4.8-5.3c0.6-1.4,1.4-2.6,2.3-3.8
				c0.2,1.6-0.9,2.9-0.9,4.6c0.8-0.1,1.5-0.5,2-1.2c0.8-1.2,1.8-2,3.2-2.5c1.4-0.4,2.5-1.7,3.7-2.7c1.2-1,2.4-2,3.5-3.1
				c0.7-0.7,1.1-1.7,1.7-2.5c-0.7-0.9-1.2-1.1-2.1-1c-2.2,0.4-4.2,1.3-6.3,2.3c-2.9,1.5-6,1.2-9.1,0.9c-0.2,0-0.5-0.3-0.7-0.5
				c0-1.1,0.5-1.9,1.3-2.4c1-0.5,2-1,3-1.3c4.3-1.3,8.1-3.7,11.8-6.4c3.9-2.8,6.9-6.5,9.4-10.8c1-1.7,1.9-3.5,2.5-5.7
				c-2.1,2.2-4.1,4.2-6.1,6.1c-1.5,1.5-3.1,2.9-4.7,4.2c-2,1.7-4.1,3.2-6.2,4.8c-0.6,0.5-1.2,0.9-2.1,1.6c0.2-0.6,0.3-0.9,0.6-1.5
				c-0.9,0.6-1.6,1.1-2.4,1.5c0.8-1.6,2.5-2.3,3.2-3.9c-1-0.3-2-0.5-3.2-0.9c-1.4,1.2-3.1,2.6-4.7,4.1c-0.3-1.3-0.3-1.8,0.1-2.4
				c-0.3,0-0.6,0-0.8,0c3.9-2.9,7.1-6.8,10.4-10.5c3.3-3.7,6.3-7.8,8.5-12.6c-1.8,1.1-3.4,2.4-5,3.9c-1.9,1.7-3.8,3.6-5.8,5.1
				c-4.6,3.5-9.5,6.2-14.9,7.6c-5.2,1.3-10,4-14.8,6.3c-3.9,1.9-7.9,3.6-12.1,4.6c2.6-1.1,5.2-2.2,7.8-3.3c0.2-0.1,0.5-0.1,0.6-0.2
				c0.8-0.6,1.5-1.6,2.4-1.7c0.9-0.1,1.8-0.2,2.6-0.7c0.4-0.2,1-0.3,0.9-1.1c0-0.1,0.2-0.2,0.4-0.3c1.1-0.1,1.1-0.1,1.4-1.3
				c-1.5-0.4-2.9-0.8-4.7-1.2c0.6-0.6,1-1,1.4-1.4c-0.3-0.1-0.6-0.2-1.1-0.3c1.7-0.9,3.7-0.9,4.7-2.9c-1.1-0.4-2.2-0.8-3.5-1.3
				c0.7-1.2,1.4-1.9,2.4-2.2c0.9-0.4,1.7-0.8,2.5-1.2c0.4-0.2,0.8-0.1,1.2-0.2c0.5-0.1,1-0.1,1.5-0.2c5.3-1.2,10.4-3.1,14.9-6.4
				c3.5-2.6,6.8-5.6,9.7-9.1c2.9-3.5,5.6-7.1,8.1-11c0.6-0.9,1-1.8,1.3-3c-0.3,0.2-0.6,0.4-0.9,0.6c-3.9,3.7-7.8,7.4-11.7,11.1
				c-5.9,5.6-12.2,10.5-18.7,15c-0.4,0.3-0.9,0.5-1.5,0.5c0.3-0.3,0.7-0.5,1-0.8c0.4-0.5,0.9-1,1.3-1.5c0.2-0.2,0.3-0.6,0.6-0.7
				c2.2-0.5,3.2-2.9,4.9-4.2c-5.6,3-11.2,6.2-17,8.5c1.3-0.8,2.9-1.3,3.9-2.5c1.1-1.3,2.6-1.7,3.8-2.5c0.9-0.6,3.2-2,4.1-2.9
				c-0.4,0-0.6,0.1-0.8,0.1c-0.6,0.1-1.1,1-1.8,0.1c-0.1-0.1-0.7,0.3-1.1,0.4c-0.8,0.3-1.6,1.1-2.5,0.1c-0.1-0.1-0.4,0-0.7,0
				c-0.7,0-1.5,0-2.2-0.1c-4.2-0.7-7.9,1.2-11.5,3.4c-1.5,0.9-3.1,1.7-4.6,2.4c-0.8,0.4-1.7,0.5-2.6,0.2c-0.7-0.3-1.6,0-2.3,0.2
				c-1.3,0.4-2.5,0.9-3.8,1.3c-0.8,0.3-0.8,0.2-2.5-0.3c-0.4-0.1-0.9,0.2-1.3,0.3c-2.9,0.9-5.8,2.1-8.7,2.8
				c-4.8,1.1-9.6,2.5-14.6,2.7c-4.5,0.1-8.9-0.6-13.1-2.4c-3-1.3-6-2.8-9-4.3c-1.7-0.9-2.9-2.6-4.1-4.3c-0.4-0.5-0.9-1-1.3-1.5
				c-1-0.9-1.7-1.9-2.1-3.2c-1.2-3.3-1.7-6.8-2.1-10.3c-0.7,0.7-1.3,1.4-2.1,2.2c-0.4,1.9-0.2,4.2,0,6.5c0.1,1.3,0,2.5-0.5,3.9
				c-0.7-0.7-1-1.4-1.2-2.3c-0.2-1.6-0.6-3.1-1.7-4.5c-0.9,2.3-1.1,4.6-1.2,6.9c-0.2,4.5,0.5,8.9,1.4,13.3c0.4,1.8,0.6,3.6,0.9,5.3
				c0.1,0.4,0,0.9,0,1.3c-0.8,0.3-1.3,0-1.5-0.8c-0.7-2.1-1.4-4.2-2.1-6.3c-1.3-3.7-1.8-7.5-2.2-11.4c0-0.2-0.1-0.3-0.3-0.7
				c-0.6,3.4-0.3,6.6,0.1,9.8c0.5,3.2,1.8,6,3.1,8.9c-0.1,0.1-0.2,0.2-0.4,0.3c-1-0.9-2-1.7-3-2.6c0,1.6,0.8,3.7,1.9,4.8
				c0.6,0.6,1.2,1.2,1.7,1.9c0.8,0.8,1.1,1.9,0.7,3c-0.4,1-0.2,1.8,0.2,2.7c0.3,0.7,0.5,1.4,0.7,2.1
				C100.7,270.6,100.6,270.7,100.5,270.8z M255.3,136.3c-0.4-0.3-0.7-0.1-1,0.4c-1.2,2.3-2.8,4.4-4.6,6.2c-0.7,0.7-0.6,1.3,0.2,2.2
				c0.2-0.4,0.4-0.8,0.7-1.1C252.2,141.4,253.7,138.9,255.3,136.3c0.1-0.6,0.2-1.1,0.3-1.7c-0.1,0-0.2,0-0.3,0
				C255.3,135.2,255.3,135.8,255.3,136.3z M227.3,73.7c0.3-0.1,0.7-0.2,0.9-0.4c3.9-2.9,7.5-6.2,10.9-9.9c0.1-0.1,0.1-0.2,0.2-0.6
				c-1.4,1.1-2.7,2-3.9,3c-2.5,2.2-4.9,4.6-7.4,6.9C227.8,73,227.6,73.4,227.3,73.7c-1,0.3-1.7,1.2-2.3,2.2
				C225.8,75.2,226.9,75,227.3,73.7z M74.4,69.1c0.3-0.4,0.7-0.7,0.8-1.1c0.9-4.3,2.8-8.1,4.4-12c2.6-6.2,6.3-11.2,10.7-15.7
				c2.1-2.1,4.2-4.4,6.3-6.6c1-1,1.7-2.2,1.7-4.1c-0.7,0.5-1.3,0.9-1.8,1.5c-3,3.2-6.2,6.2-8.7,9.9c-0.6,0.9-1.4,1.6-2,2.4
				C83.8,46,81.4,48,80,51.1c-0.2,0.5-0.6,1-1,1.3c-1.4,1.2-2,2.9-2.6,4.7c-0.4,1.3-0.6,2.7-1.1,3.9c-0.9,2.2-1.1,4.5-0.8,6.8
				C74.6,68.3,74.5,68.7,74.4,69.1c-0.1,1.1-0.3,2.1-0.4,3.2C74.6,71.3,75,70.3,74.4,69.1z M215.2,166.2c-0.1,0-0.2,0-0.2-0.1
				c0-0.4,0.1-1.1-0.1-1.2c-0.5-0.4-0.3-0.7-0.2-1.1c1-3.1,2.1-6.3,3.1-9.4c0.2-0.7,0.5-1.3,0.7-2c-0.1-0.1-0.2-0.1-0.3-0.2
				c-0.4,0.7-0.8,1.4-1.1,2.2c-0.9,1.7-1.7,3.4-2.6,5c-0.2,0.3-0.5,0.5-0.8,0.7c-0.1-0.1-0.2-0.2-0.3-0.2c0.1-0.7,0.2-1.5,0.5-2.2
				c0.6-1.7,1.3-3.4,2.1-5.1c1.6-3.8,3.2-7.6,4.9-11.4c0.2-0.4,0.2-0.9,0.4-1.6c-1.4,0.4-2.2,1.1-2.7,2.4c-0.8,2-1.7,3.9-2.8,5.8
				c-1.8,3.1-4.3,5.3-7,7.3c-4.9,3.5-10.2,4.5-15.9,4c-0.1-1,0.4-1.3,1-1.5c1.6-0.5,3.2-1,4.8-1.3c2.3-0.5,4.5-1.1,6.5-2.4
				c3.3-2.2,6.5-4.4,7.7-9.3c1.6-6.2,2.5-12.4,2-18.8c-0.2-2.8-0.5-5.5-1.8-8.1c-1.1,1.1-2.2,2.1-3.3,3.1c-1.8-1.8-0.7-3.3-0.1-4.8
				c-0.9-1.6-0.8-1.6-1-3.6c-0.1-1.3-0.4-2.6-0.8-3.9c-0.2-0.6-0.7-1.2-1.2-1.6c-0.9-0.8-1.8-1.6-2.8-2.2c-0.8-0.5-1.2-1.3-1.3-2.3
				c0-0.4-0.1-0.7-0.1-1.1c-2.1-0.4-2.6-0.2-3.7,1.5c-0.2,0.3-0.4,0.7-0.6,0.9c-2.3,2.1-4.6,4.3-7,6.3c-0.8,0.7-1.9,1.1-2.9,1.6
				c-0.3,0.1-0.7-0.1-1.2-0.2c0.7-0.5,1.2-0.9,1.7-1.2c-0.4-0.2-0.7-0.4-1.2-0.8c6.1-5.2,11.4-10.8,15.2-18.1
				c-1.9-1.9-2.2-3.4-1.1-5.6c0.5-1.1,1.3-2,1.6-3.2c1.1-3.3,2.4-6.5,2.9-10c0.3-2,0.5-4,0.8-6.4c-1.4,0.9-2.1,2.5-3.7,2.5
				c-0.9-1.5-1.7-3.1-1.1-5c0.7-2.7,0.5-5.4-0.3-7.5c-1-0.8-1.7-1.4-2.2-2c-1.2-1.4-2.3-2.8-3.6-4.2c-0.6-0.6-1.3-1.1-2-1.4
				c-1.2-0.5-2.5-0.7-3.8-1c-0.8-0.2-1.6-0.3-2.4-0.2c-1.3,0.1-2.6,0.3-3.9,0.4c-2.8,0.1-5.6,0.3-8.4,0.2c-2.2-0.1-4.3-0.3-6.4,0.4
				c-0.3,0.1-0.7,0.1-1,0.1c-1.9,0.3-3.7,0.5-5.6,0.8c-0.5,0.1-0.9,0.5-1.3,0.8c-1.4,1.2-2.8,2.4-4.3,3.6c-0.6,0.5-1.2,0.6-1.8-0.2
				c-0.2-0.2-0.4-0.4-0.6-0.7c-1,0.4-2,0.7-3,1.1c-3,1.2-6,1.5-9,0.1c-1.1-0.5-2.3-0.6-3.5-0.6c-4.8-0.1-9.3,1.9-13.7,3.6
				c-3.7,1.4-7.3,2.8-11.3,3.3c0.1-0.9,0.2-1.7,0.3-2.6c-0.5-0.4-1-0.9-1.5-1.5c-0.5-0.6-1.3-1.3-1.5-2.1c-0.6-2.5-2-4.6-2.1-7.3
				c-0.1-1.5-0.6-3-1-4.6c-0.6,0.5-1.1,1-1.6,1.4c-1.8-1.5-1.8-1.5-4.2-1.6c-0.2,0-0.4,0-0.5,0c-1.6-0.6-2.9,0-4.2,1
				c-0.3,0.2-0.7,0.5-1,0.7c-1.8,1-3.4,2.1-4.3,4.3c-0.6,1.5-1.7,2.9-3.2,3.3c-1.3,0.3-2.1,1.2-2.7,2.5c-1.9,4.3-4.6,8-6.3,12.5
				c-0.5,1.3-1.3,2.4-1.6,3.8c-0.6,2.7-1.2,5.4-1.9,8.1c-0.3,1.1-1,2-1.9,1.8c-1.1-0.3-1.8,0.5-2.8,0.5c-0.8,1.9-0.8,3.7-0.1,6
				c0.5-0.9,0.8-1.5,1.1-2.1c0.7-1.3,1.7-2.4,3-2.7c2.1-0.5,4.1-0.9,6.2-0.2c1.1,0.4,2.2,0.9,3.1,2.1c-0.9,0.7-1.9,0.5-2.8,0.6
				c-1.5,0.1-3,0.2-4.4,0.4c-0.9,0.1-1.7,0.5-2.2,1.4c-1.6,2.8-2.7,5.7-1.9,9.2c0.1,0.5,0.4,1.2,0.2,1.5c-0.7,1.5,0,2.8,0.4,4.1
				c1.8,5.4,3,11,3.3,16.8c0.1,1.8,0,3.6-0.1,5.4c0,1-0.1,2.1,0,3.1c0.9,5,1.5,10.1,1.6,15.2c0,3.6,0,7.1,0,10.7
				c0,0.9-0.1,1.9,0.2,2.7c1,3.2,2.2,6.4,3.4,9.6c0.2,0.4,0.5,0.7,0.8,1.1c0.1,0,0.3,0,0.4-0.1c-0.1-4.3,1.2-8.2,2.1-12.3
				c0.1,1.9,0.2,3.7,0.1,5.6c-0.1,3.1-0.3,6.2-0.4,9.3c0,0.9,0,1.8,1,2.2c0.2-1.6,0.3-3.1,0.5-4.6c0.4,1.9,0.5,3.9,0.6,5.8
				c0.1,1.7,1.4,3.6,2.9,4.3c0.5-4.2-0.4-8.5,1.1-12.6c0.2,0.8,0.4,1.6,0.4,2.5c0.2,3.2,0.3,6.4,0.4,9.5c0.1,1.2,0.1,2.3,0.3,3.5
				c0.2,1.1,0.5,1.3,1.7,1.2c0,2.4,0.4,4.7,1.3,6.9c0.6,1.8,0.8,3.8,1.3,5.6c1.4,4.7,2.9,9.4,4.4,14.1c1.2,3.6,2.4,7.1,3.8,10.6
				c0.4,1.2,1,2.4,1.8,3.3c0.7,0.8,1.1,1.7,1.3,2.8c0.5,2.8,0.9,5.6,1.6,8.4c0.4,1.8,1,3.6,1.6,5.3c0.2,0.6,0.6,1.2,1.1,1.4
				c1.4,0.8,2.8,1.4,4.2,2.1c2.4,1.2,5,1.5,7.6,2.1c4.5,1,9.1,2,13.7,1.5c5.6-0.5,11.2-1.3,16.8-2c0.6-0.1,1.2-0.1,1.7-0.2
				c0,0.2,0.1,0.3,0.1,0.5c-3,1.8-6.3,2.5-9.6,3.5c-3.4,1-6.8,1.5-10.3,1.5c-3.4,0-6.7-0.3-10.1-0.5c0.1,0.2,0.1,0.4,0.2,0.4
				c4.1,1.2,8.2,2.1,12.5,2.1c4.1,0,8.1-0.6,12-1.8c1.9-0.6,3.8-1.3,5.7-1.9c7.1-2.1,13.8-5.2,20.2-9.3c1.2-0.8,2.3-1.6,3.4-2.4
				c-0.8-0.2-1.4-0.1-2.1,0c-0.7,0.1-1.3,0.4-2.3,0c1.8-0.9,3.3-1.6,4.9-2.3c1.7-0.7,3.4-1.4,5.1-2.1c2.9-1.3,5.6-3.1,8.7-3.8
				c0.5-0.1,0.9-0.5,1.3-0.9c0.7-0.7,1.2-1.5,1.9-2.2c0.7-0.7,1.6-1,2.2-1.8c2.6-3,5.1-6.1,7.6-9.2c1-1.3,1.7-3,2.9-4
				c2.7-2.4,5.6-4.5,8.4-6.6c2.1-1.6,4.2-3.2,5.6-5.6c3.2-5.2,5.8-10.7,7.2-16.9c0.8-3.4,1.4-6.8,1.2-10.3c0-0.3,0.1-0.8,0.3-1
				c1.4-1.5,0.9-3.3,0.7-5.2c-0.3,0.4-0.4,0.6-0.6,0.7c-0.2,0.2-0.3,0.3-0.8,0.7c0.9-2.6,2-4.7,1.7-7.2c-0.3,0-0.5,0-0.8,0
				c0.7-2.3,1.4-4.5,2.1-6.7c0.4-1.1,0.6-2.4,1.7-3c0.3-0.1,0.4-0.6,0.5-0.9c0.8-1.9,1.6-3.9,2.5-5.8c1.2-2.5,2.5-5,3.8-7.5
				c0.2-0.3,0.3-0.7,0.4-1.1c0.1-0.2,0.1-0.4,0.1-0.6c-0.4-0.1-0.9-0.3-1.2-0.4c-1.1,0.5-1.3,2.5-3,2.1c0.2-0.6,0.3-1.1,0.5-1.5
				c2-3.9,4.2-7.6,6.9-10.8c1.8-2.1,3.7-4.1,6-5.4c1.2-0.7,1.8-0.8,3-0.1c-1.2,1.1-2.4,2.2-3.6,3.2c-1.5,1.4-2.5,2.5-3,3.9
				c1.2-0.5,2.4-1,3.6-1.5c1,0.3,1.8,1,2.5,2c1,1.6,1.9,3.2,2.8,4.9c0.3,0.5,0.4,1.2,0.4,1.9c0,1.4,0,2.9-0.2,4.3
				c-0.4,3.1-1.7,5.9-3.1,8.6c-2,3.8-4.8,6.7-8.1,9c-0.8,0.5-1.6,0.7-2.7,0.5c0.2-0.7,0.5-1.2,0.6-1.7c0.2-0.9,0.4-1.9,0.5-2.8
				c0.1-1.3-0.6-2.3-1.5-2.5c-0.9-0.2-1.2,0.1-1.9,1.5c-1.9,4.1-3.8,8.1-5.8,12.2c-0.6,1.3-0.9,2.6-1,4.1c-0.1,1.2-0.1,2.3-0.1,3.5
				c-0.1,0.9,0.2,1.6,0.8,2.2c0.9,1,2,1,3.1,1.3c1.3,0.3,2-0.1,2.8-1.2c1.4-2,2.6-4.3,3.5-6.7c0.3-0.9,0.8-1.8,1.3-2.9
				c0.9,1.7-0.4,3.2,0.5,4.6c0.2-0.3,0.3-0.5,0.4-0.7c0.9-2.2,1.6-4.4,2.6-6.5c1-2.2,2.1-4.4,3.5-6.2c1.5-2.1,2.2-1.8,3.3-0.1
				c0.1,0.1,0.3,0.2,0.6,0.3c1.1-1,2.2-1.9,3.3-3c0.2-0.2,0.3-0.5,0.4-0.8c0.7-3.8,1.7-7.5,1.9-11.4c0.4-6.9-0.4-13.5-3.1-19.7
				c-0.4-1-0.7-2.2-1.9-2.4c-0.1,0-0.2-0.3-0.2-0.5c-0.1-0.7-0.5-1-1.1-1.3c-0.4-0.1-0.6-0.7-0.9-1.1c-0.5,0.3-1,0.7-1.6,1
				c-4,2.7-7.4,6.2-10.8,9.8c-1.1,1.2-2.3,2.3-3.3,3.6c-1.7,2.2-3.3,4.6-5,6.9c-0.2,0.2-0.3,0.6-0.6,0.7c-1,0.5-1.4,1.5-1.9,2.4
				c-2.1,4-4.1,8-6.2,12.1c-0.2,0.5-0.3,1.1-0.3,1.7c-0.1,1.4-0.1,2.8-0.1,4.3c0,3.1-1.1,6.2-0.1,9.4c0,0.1,0,0.3,0,0.4
				c-0.2,3.5-0.3,7.1-0.8,10.6c-0.6,4.5-1.5,8.9-3.3,13c-1.5,3.5-3.3,6.9-5,10.3c-0.5-0.3-0.7-0.6-1-0.5c-0.8,0.2-1.4,0.6-1.8,1.5
				c-0.6,1.4-1.3,2.8-2,4.1c-0.1,0.3-0.4,0.4-0.7,0.7c-0.6-2.7,0.9-4.8,1.4-7.5c-1.6,2.4-2.9,4.5-4.3,6.5c-0.5,0.7-1.2,1.2-1.9,1.6
				c-0.3,0.2-0.8,0-1.4-0.1c0.4-0.8,0.6-1.3,0.8-1.8c0.7-1.5,1.5-2.9,2-4.5c2.2-6.5,4.4-13.1,6.6-19.6c2.1-6.5,3.9-13.1,5.1-19.9
				c0.1-0.4,0.2-0.9,0.4-1.3c0.9-1.9,1-3.9,0.9-5.9C220.5,154.4,217.8,160.3,215.2,166.2z M250.8,66.9c-0.1-0.1-0.3-0.2-0.4-0.4
				c-0.4,0.3-0.8,0.5-1.2,0.8c-0.8,0.9-1.6,1.8-2.5,2.7c-3.1,2.9-6.2,5.7-9.3,8.6c-3.9,3.6-7.9,7-12.1,10.1
				c-2.7,1.9-5.2,4.1-7.8,6.3c-0.6,0.5-1.1,1.2-1.6,1.8c0.4,0.1,0.6,0,0.9-0.2c2.8-1.8,5.6-3.7,8.4-5.5c1.4-0.9,3-1.6,4.4-2.6
				c2.8-2,5.5-4.1,8.3-6.1c4.4-3.1,8.5-6.7,12.1-11c0.2-0.3,0.6-0.6,0.6-0.9C250.7,69.3,250.7,68.1,250.8,66.9z M113.7,41.2
				c5.2-9.3,11.9-16.5,19.2-23.1c-1,0-2-0.1-2.8,0.3c-1.7,0.8-3.4,1.7-4.8,3c-3,2.6-5.8,5.5-8.6,8.3c-0.8,0.8-1.2,2-2,2.6
				c-1.9,1.4-2.4,3.8-3.7,5.7C111.9,39,112.7,40,113.7,41.2z M256.2,90.7c-1,1-1.7,1.6-2.5,2.4c-2.1,2.2-4.1,4.5-6.4,6.4
				c-3.2,2.7-6.3,5.5-9.9,7.6c-1,0.5-1.7,1.4-2.6,2.2c-0.5,0.4-0.9,0.9-1.5,1.3c-5.1,3.7-9,8.7-12.2,14.5c-0.4,0.7-0.7,1.4-1.1,2.1
				c0.3,0,0.5,0,0.6-0.1c2-2.6,4-5.3,6.1-7.9c2.2-2.7,4.5-5.4,7.4-7.2c3.8-2.4,7.4-4.9,10.9-7.9c1.1-0.9,2.2-1.9,3.2-2.9
				c2.3-2.3,4.5-4.6,6.7-6.9C255.8,93.5,256.1,92.4,256.2,90.7z M202.2,230.6c6.9-1.9,22.8-18.1,25.8-26.4c-0.4,0.4-0.7,0.7-1,0.9
				c-1.4,1.3-2.7,2.7-4.2,3.9c-2.6,2.1-4.9,4.5-6.9,7.2c-3.1,4.2-6.6,7.9-10.9,10.6C203.6,227.8,202.5,228.6,202.2,230.6z
				 M227.7,140.1c-0.2-0.1-0.3-0.2-0.5-0.3c-0.5,0.4-1.1,0.7-1.3,1.3c-0.9,2.4-2,4.7-1.9,7.5c0.2,5-0.5,10-1.7,14.8
				c-0.2,0.7-0.2,1.4-0.2,2.1c-0.1,1,0,1.9-0.1,2.9c-0.4,2.7-0.9,5.3-1.4,8c1.1-2.9,2.1-5.9,2.8-8.9c0.7-3,1.8-5.9,2.2-8.9
				c0.4-3.1,1.3-6.1,1.2-9.4c-0.4,0.3-0.7,0.6-1,0.8c0.3-1.4,0.7-2.7,1.3-3.9C228.1,144.1,227.6,142.1,227.7,140.1z M208,54.6
				c0.1,0.1,0.2,0.2,0.3,0.3c4.7-3.2,18.1-15.7,19.5-18.3c-0.8-0.7-0.8-0.7-1.4-0.4c-0.3,0.2-0.6,0.4-0.9,0.6
				c-5.4,4.5-10.8,9.2-15.4,14.8C209.3,52.5,208.7,53.6,208,54.6z M228.5,122.8c1,0.9,1.5,0.2,2-0.2c2.4-2.1,4.8-4.1,7.2-6.1
				c2.8-2.4,5.5-5,7.6-8.3c0.2-0.3,0.4-0.7,0.6-1.1c-2.1,1.4-4.1,3.1-6,4.7c-0.7,0.6-1.4,1.2-2.1,1.6
				C233.7,115.2,231.4,119.2,228.5,122.8z M216.7,258.5c7.3-3.4,11.9-9.8,15.4-17.6c-0.3-0.2-0.5-0.4-0.9-0.7
				C226.8,246.8,221.9,252.8,216.7,258.5z M69.9,244.4c0.2,1.9,0.2,3.6,0.4,5.2c0.2,1.7,0.5,3.3,0.7,4.9c0.2,0.9,0.5,1.7,0.6,2.6
				c0.3,2.6,0.6,5.2,0.9,7.8c0.3-0.7,0.4-1.4,0.5-2.2c0.1-1.3,0.1-2.6,0.1-3.9c0-3.2,0.1-6.3-0.1-9.5c-0.1-2-0.5-4.1-1.5-6
				C70.9,243.7,70.4,244,69.9,244.4z M106.6,35.5c1.1,0.6,1.4-0.3,1.8-0.9c3.1-3.9,6.4-7.7,10.1-10.9c1.7-1.4,3.5-2.6,5.5-3
				c1.3-0.3,1.9-1.1,2.9-2.2c-1.3,0-2.3,0-3.3,0c-2,0.1-3.3,1.4-4.5,3.1c-0.4,0.6-0.8,1.2-1.3,1.7c-3.4,3.3-7,6.5-9.9,10.4
				C107.4,34.2,107,34.8,106.6,35.5z M204.7,22.1c-0.8-0.4-1.2-0.6-1.6-0.7c-1.3-0.5-2.4-0.3-3.5,0.9c-2.4,2.8-5,5.3-7.5,8
				c-0.1,0.1-0.1,0.3-0.3,0.7c0.6-0.4,1-0.6,1.4-0.8c2.1-1.1,4-3.1,6.5-3.3c0.2,0,0.3-0.1,0.4-0.3C201.6,25.2,203,23.8,204.7,22.1z
				 M240,120.5c-0.1-0.1-0.1-0.2-0.2-0.3c-0.3,0.2-0.6,0.3-0.8,0.5c-0.9,1.1-2,2.2-2.7,3.4c-2.5,4.2-4.9,8.6-7.5,12.8
				c-1.1,1.8-0.9,3.6-0.6,5.7c1.8-4,3.4-7.9,5.3-11.5C235.4,127.4,237.8,124,240,120.5z M127.7,33.7c4.6-5.5,9.1-10.8,13.5-16.2
				c-0.7-0.3-1.5-0.2-2.1,0.8c-0.5,0.8-1.1,1.6-1.8,2.3c-1.4,1.4-2.9,2.5-4.2,4c-2.2,2.5-4.3,5.2-6.4,7.8c-0.1,0.1-0.2,0.3-0.2,0.5
				C126.8,33.2,127.2,33.4,127.7,33.7z M225.7,218.3c0.1,0.1,0.2,0.2,0.3,0.3c1.3-1.1,2.5-2.2,3.8-3.3c0.3-0.2,0.6-0.3,0.9-0.5
				c0.4,1,0.9,0.3,1-0.1c0.8-2,1.7-3.9,2.4-6c0.3-0.7,0.2-1.4-0.2-2.2C231.1,210.5,228.4,214.4,225.7,218.3z M242.6,94.8
				c0,0.1,0.1,0.1,0.1,0.2c0.2-0.1,0.5-0.2,0.7-0.4c4.1-3.1,7.9-6.6,11.4-10.5c0.7-0.7,1.2-1.6,1.2-2.8
				C251.5,85.9,247,90.4,242.6,94.8z M160.8,35.1c-0.1-0.1-0.2-0.2-0.3-0.3c-1.5,1.9-2.9,3.8-4.5,5.6c-0.6,0.7-0.5,1.3-0.4,1.9
				c-0.6,0.6-1.6,0.4-1.9,1.7c0.8,0.1,1.5,0.3,2.2,0.3c1.4,0,1.5-0.2,1.9-1.7c0.3-1.2,0.6-2.5,1.1-3.6
				C159.5,37.6,160.2,36.3,160.8,35.1z M229.9,58.1c1.8-0.6,8.4-6.6,9.1-7.7c-0.4-0.8-0.8-0.6-1.4-0.1c-1.4,1.3-2.8,2.6-4.2,4
				C232.3,55.5,231.1,56.8,229.9,58.1z M140.4,49.2c-1-3.4-0.5-6.6,0.4-9.8c-0.9,1.6-1.6,3.3-2.2,5c-0.3,0.8-0.2,1.8-0.1,2.7
				C138.6,48.1,139.1,48.8,140.4,49.2z M252.3,257.8c1-1.9,2.1-3.8,3-5.8c0.4-0.8,0.6-1.7,0.8-2.5c0.1-0.6-0.1-1-0.6-1.1
				C254.1,251.4,252.7,254.3,252.3,257.8z M219.1,284.5c-0.6,0.1-0.8,0-0.9,0.1c-1.6,1-3.1,2.1-4.7,3.2c-0.8,0.5-1,1.4-1.4,2.7
				C214.6,288.3,217.1,287.1,219.1,284.5z M228.5,134.6c1.4-2.6,2.8-5.2,4.5-8.1C229.8,128.3,228.7,131.2,228.5,134.6z M247.3,134.7
				c1.5-2,3.4-6.7,3.8-9.3C250.4,126.1,247.6,132.8,247.3,134.7z M165.3,22.8c0.1,0.1,0.2,0.1,0.3,0.2c0.7-0.7,1.4-1.5,2.1-2.2
				c0.7-0.7,1.4-1.3,2-2.1c0.6-0.8,1.9-0.8,1.9-2.1c-1.4-0.2-1.3-0.2-2,0.8c-0.3,0.4-0.6,0.8-0.9,1.2
				C167.5,20,166.4,21.4,165.3,22.8z M254.1,124.9c-0.1-0.1-0.2-0.1-0.4-0.2c-1.2,3.3-2.5,6.6-3.7,9.8
				C252.1,131.6,253.3,128.3,254.1,124.9z M223.6,129.2c0.1,0.1,0.3,0.2,0.4,0.4c1.1-1.8,3-2.8,3.3-5.3
				C226.1,125.9,224.8,127.5,223.6,129.2z M132.8,44.7c-1.1,1.5-1.3,2.4-1.1,4.2c0.9,0,1.5-0.4,1.4-1.6
				C132.9,46.5,132.8,45.7,132.8,44.7z M223.2,281.2c0.1,0.1,0.2,0.2,0.2,0.4c1.4-0.8,4.6-3.6,5.3-4.9
				C226.7,278.3,224.9,279.8,223.2,281.2z M244.4,137.9c-1.1,0.7-2.5,3.8-2.7,5.8C242.6,141.8,243.5,139.9,244.4,137.9z
				 M204.4,293.6c-1.6,0.5-1.6,0.5-2.2,1.6C203.7,295.2,203.7,295.2,204.4,293.6z M250.9,101.8c2.1-0.2,2.1-0.2,1.9-1.8
				C252.2,100.6,251.7,101.1,250.9,101.8z M227.4,151.5c0.1,0,0.1,0,0.2,0c0-1.4,0-2.8,0-4.1c-0.1,0-0.2,0-0.3,0
				C227.3,148.8,227.4,150.2,227.4,151.5z M248.2,165.9c-0.1-0.1-0.3-0.1-0.3-0.1c-0.4,0.6-0.7,1.2-1.2,2.2
				C248,167.6,247.8,166.5,248.2,165.9z M151.3,45.7c0.6-0.3,1.2-0.5,1-1.3c0-0.1-0.4-0.3-0.5-0.3C151.1,44.3,150.9,44.8,151.3,45.7
				z M199.6,297.3c0.5-0.8,0.8-1.3,1-1.7C199.5,296.1,199.5,296.1,199.6,297.3z M247.9,141.7c0.1,0.1,0.2,0.2,0.3,0.3
				c0.4-0.5,0.8-1,1.2-1.5c-0.1-0.1-0.2-0.2-0.3-0.3C248.7,140.8,248.3,141.2,247.9,141.7z M247.6,128.5c-0.1,0-0.2-0.1-0.2-0.1
				c-0.1,0.3-0.3,0.7-0.4,1c0.1,0,0.1,0.1,0.2,0.1C247.3,129.1,247.5,128.8,247.6,128.5z"/>
			<path d="M106.1,234.1c0.1,1.6,0.2,3.1,0.3,5.1c0.6-0.7,0.8-1,1.2-1.4c0.1,0.2,0.3,0.4,0.2,0.6c-0.2,1.5-0.5,3-0.7,4.6
				c-0.2,1.5-0.6,3-0.5,4.4c0.5,6.6,1.4,13.1,4.4,19c2.3,4.7,5.6,8.4,9.4,11.6c0.7,0.6,1.5,1.2,2.2,1.8c0.8,0.8,0.9,1.2,0.4,2.3
				c-0.5,1.2-1.3,1.7-2.2,1.4c-0.3-0.1-0.5-0.3-0.8-0.4c-5-3.6-9.2-8.1-11.7-14.3c-1.4-3.6-2.4-7.4-3.2-11.3
				c-0.2-0.8-0.1-1.8-0.9-2.4c-0.2-0.1-0.1-0.7-0.1-1.1c0-1,0.1-1.9,0.1-2.9c-0.4-5.5,0.2-11,1.2-16.4c0-0.2,0.2-0.4,0.3-0.6
				C105.9,234.1,106,234.1,106.1,234.1z"/>
			<path d="M101.5,306.5c0.5,0.4,0.9,0.9,1.4,1.4c2.4,2.6,4.9,5.2,7.3,7.8c0.7,0.8,0.6,1.6,0.3,2.5c-1.7,0.4-3.2,0.2-4.4-1.5
				c-1.3-2-2.7-3.9-3.9-5.9c-0.7-1.2-1.3-2.5-1.1-4C101.2,306.7,101.3,306.6,101.5,306.5z"/>
			<path d="M126,314.9c-1.5,0.3-2.7-0.8-4-1.6c-1.1-0.7-1-2.4,0.2-2.9c1.1-0.4,2.3-0.9,3.3,0.3c0.3,0.4,0.9,0.4,1.4,0.7
				c0.4,0.2,0.9,0.5,1,0.9c0.2,0.6,0.3,1.4,0.1,2c-0.1,0.3-0.8,0.5-1.3,0.6C126.6,315,126.3,314.9,126,314.9z"/>
			<path d="M81.3,291.4c0.9,1,1.9,1.8,2.6,2.9c0.3,0.5,0.4,1.3,0.3,1.9c0,0.3-0.8,0.6-1.2,0.7c-1.9,0.2-3.4-1.5-3.3-3.7
				C79.7,292.1,80.5,291.9,81.3,291.4z"/>
			<path d="M121.2,318.8c-0.1,0-0.6,0-1-0.1c-0.7-0.2-1-0.8-1-1.6c0-0.7,0.2-1.3,0.9-1.5c0.5-0.2,1.1-0.3,1.7-0.3
				c1.4-0.1,2.2,1.2,1.9,2.6c-0.1,0.3-0.5,0.7-0.8,0.8C122.3,318.9,121.9,318.8,121.2,318.8z"/>
			<path d="M136.7,168.1c-0.2-0.2-0.4-0.4-0.6-0.4c-2.1-0.6-3.8-1.9-5.2-3.6c-1.2-1.4-2.4-2.9-3.4-4.6c-0.9-1.5-0.4-2.9,1.1-3.5
				c0.5-0.2,1-0.3,1.5-0.2c2.8,0.4,5.4,1.4,6.6,4.7c0.1,0.3,0.3,0.5,0.5,0.7c1.3,0.9,2.6,1.8,4,2.8c1.2-0.1,0.5-2.1,1.6-2.5
				c0.5,0.5,0.4,0.9,0.1,1.4c-0.9,1.2-1.8,2.5-2.8,3.7c-0.9,1-2,2-3,2.9c-0.7,0.6-1.4,1.2-2.4,1.4c-1,0.2-1.8,1-2.8,1.5
				c-2.2,1.1-4.5,1.7-7,0.7c-0.7,1-1.8,1.3-2.9,1c-4.6-1.4-7.8-4.7-9.4-9.8c-0.1-0.3,0-0.6,0-1.2c3.3,3.1,5.5,7.5,10,8.5
				c-0.3-0.4-0.7-0.8-1-1.2c-1.5-1.9-3-3.8-4.5-5.6c-0.4-0.5-0.9-0.9-1.5-1.2c-1.8-1-3.8-1-5.6-2.2c-0.5-0.3-1.2-0.1-1.8-0.3
				c-0.3-0.1-0.8-0.3-0.9-0.6c-0.1-0.3,0.1-0.9,0.3-1.2c0.3-0.4,0.7-0.7,1.1-1.1c-0.3-0.5-0.5-1.1-1-2c-0.5,0.9-0.9,1.6-1.3,2.4
				c-0.6-0.6-0.9-1.3-0.5-2.1c0.6-1.1,0.4-2.2,0.3-3.5c-0.2-1.3,0.3-2.8,0.5-4.2c0.6-3.7,2.6-6.6,4.3-9.6c1.3-2.3,2.2-5,3.2-7.5
				c0.4-1,0.8-2.1,1.1-3.2c0.2-0.9,0.2-1.8,0-2.7c-0.3-2.1-1.2-4-2.2-5.9c-0.2-0.3-0.4-0.6-0.7-0.8c-0.5-0.2-0.6-0.7-0.8-1.1
				c-0.9-1.2-1.7-2.4-2.8-3.3c-3.7-2.8-7.7-5.1-12.2-5.6c-0.6-0.1-1.2-0.1-1.7,0.1c-2.2,0.7-4.4,1.2-6.2,3c-0.6,0.6-1.5,1-2.2,1.3
				c-0.7,0.4-1.4,0.2-2.1-0.4c0.6-2.3,2.3-3.2,3.8-4.2c2.8-2,5.9-3.1,9.2-3.2c2.2,0,4.6,0.1,6.7,0.9c4.4,1.6,8.9,3.6,11.6,8
				c2.1,3.4,3.4,7.2,2.5,11.7c-1.2,5.9-3,11.4-6.2,16.2c-1.8,2.7-2.3,5.9-2.3,9.1c0,1,0.7,2.1,1.2,3.2c1.8,0.2,3.5,0.3,5.3,0.5
				c0.3-1.7,1.5-2.2,2.7-2.7c1.9-0.8,3.8-1.7,5.7-2.5c0.4-0.2,0.9-0.4,1.3-0.2c1.5,0.7,3.1,1.2,4.4,2.4c0.2,0.2,0.3,0.6,0.4,0.9
				c-1.3,0.7-2.5,1.3-3.6,2c-1.1,0.8-2.2,1.8-3.4,2.8c2.7,2.9,5.3,5.7,7.9,8.4c0.9,0.9,1.9,1.6,3.1,2
				C135.6,169.1,136.1,168.8,136.7,168.1z M121.1,159.6c2.9,4.9,6.1,8.8,10.4,11.7c0.5-0.3,1.1-0.6,1.7-0.9
				c-1.9-1.8-3.7-3.3-5.4-5.1c-1.8-1.9-3.8-3.7-4.5-6.8C122.6,158.9,121.9,159.2,121.1,159.6z M127.7,171c-2.6-2.2-4.6-4.2-6.2-6.9
				c-0.5-0.9-0.7-0.8-1.9,0.1C121.6,167.9,125.1,171,127.7,171z M131,162.3c1.7,1.8,3.4,3.4,5.7,3.7
				C135.1,164.3,133.7,162.1,131,162.3z M135.4,162.6c1.5,1.1,2.8,2.1,4.2,3c0.5,0.3,0.8-0.2,0.9-1c-1.4-0.9-2.9-1.8-4.3-2.6
				C136,162,135.9,162.2,135.4,162.6z M120.1,161.9c-0.1-0.7-0.2-1.1-0.3-1.6c-1,0.2-1.9,0.3-3,0.5
				C117.8,162.1,118.9,161.7,120.1,161.9z M137.6,166.4c-0.1,0.1-0.1,0.1-0.2,0.2c0.2,0.3,0.3,0.6,0.6,0.8c0.1,0,0.4-0.3,0.8-0.6
				C138.2,166.7,137.9,166.5,137.6,166.4z"/>
			<path d="M139.6,146.3c-1.8-5.9-2.7-11.9-2-18.2c-0.9,0.1-0.9,0.9-1,1.5c-0.7,3.8-1.3,7.6-1.1,11.5c0.1,1.1-0.1,2.2-0.2,3.5
				c0.9,0.7,2.1,1.4,3.1,2.2c2.4,2,4.3,4.4,5.2,7.7c0.5,1.9,0.4,4-0.4,5.7c-0.2-0.7-0.2-1.1-0.4-1.5c-0.4-1.4-0.8-2.8-1.2-4.2
				c-0.2-0.7-0.6-1.3-1.5-1.4c-0.4-0.1-0.8-0.6-1.2-1.1c-1.7-2.1-3.4-4.2-5.6-5.7c-0.6-0.4-1-1.2-1.8-2c1-0.1,1.8-0.2,2.7-0.3
				c-0.7-9.2,0.8-18.1,3.9-27c-0.5,0.5-0.8,0.6-0.9,0.9c-1.2,2.2-2,4.5-2.4,7.1c-0.6,4.6-1,9.3-1.5,13.9c-0.2,2.1-0.3,2.5-1.9,2.9
				c-2.7-3.3-3.5-7.4-3.6-11.8c0-1.5,0.1-3.1,0.3-4.6c0.7-4.9,3.2-8.3,7.1-10.5c3.4-1.9,6.8-3.9,9.5-7.1c2.4-2.9,5.3-5.2,8.8-6.5
				c1.9-0.7,3.7-2,5.7-2.5c3.3-1,6.7-0.9,10.1,0.1c3.1,0.9,5.1,3.2,7.3,5.3c0.2,0.2,0.3,0.5,0.4,0.9c-3.6-2.1-7.5-2.4-11.4-2.5
				c3,1.2,6.3,1.4,8.6,4.7c-0.6-0.2-1-0.3-1.4-0.4c-2.5-0.8-4.9-1.7-7.4-2.4c-3-0.8-6.2-0.2-8.8,1.2c0.1,0.3,0.2,0.7,0.2,0.9
				c2.4,0.1,4.8,0.3,7.1,0.4c0.3,0,0.7,0.1,0.8,0c0.9-1.1,2-0.5,2.9-0.2c2.9,0.9,5.8,2,7.9,4.7c0.7,0.9,1.3,2,1.7,3.1
				c0.3,0.6,0.5,1.5-0.2,2c-0.7,0.6-1.3,0-1.8-0.5c-0.2-0.2-0.3-0.5-0.5-0.7c-4.5-4.9-9.7-7.4-16-6.4c-1.2,0.2-2.2,0.8-3.1,1.8
				c-1.8,1.8-3.7,3.5-5.8,4.7c-1.9,1.1-4.1,1.6-6.2,2.1c-1.2,0.3-2.1,0.8-2.9,1.9c-1.1,1.6-2,3.3-2.4,5.3c-0.8,3.8-0.8,7.6-0.2,11.4
				c0.5,3.2,1,6.5,1.5,9.8c0,0.2,0,0.4,0,0.6C139.9,146.3,139.7,146.3,139.6,146.3z M130.9,130.4c0.3-1.5,0.5-3,0.8-4.5
				c0.4-1.5,0.9-3.1,1.6-4.5c0.6-1.3,1.5-2.3,2.5-3.8c-1.7,0.3-2.9,1.2-3.5,2.6C131,123.4,130.1,126.8,130.9,130.4z M170.7,110.3
				c1.8,1.5,3.3,2.7,5,4C175,112.3,172.9,110.6,170.7,110.3z M161.1,101.4c1.8-0.2,3.7-0.3,5.5-0.5
				C164.7,100.6,162.8,100.2,161.1,101.4z"/>
			<path d="M105.6,196.2c0.1-1.7,1.2-2.6,2.1-3.5c2.6-2.5,5.4-4.5,8.8-5.5c0.5-0.2,1.1-0.2,1.7-0.2c2.3,0.2,4.6,0,6.7-0.9
				c1.3-0.6,2.6-0.8,4-0.4c0.5,0.1,1.2,0.2,1.7,0.1c2-0.4,3.9,0,5.7,0.9c3.8,1.7,7.6,3.5,11.4,5.3c0.2,0.1,0.3,0.1,0.4,0.3
				c0.2,0.3,0.5,0.6,0.5,0.9c0,0.3-0.4,0.5-0.7,0.7c-0.2,0.1-0.4,0.1-0.7,0.1c-0.8,0-1.4,0.5-1.5,1.3c-0.1,1-0.7,1.3-1.4,1.5
				c-2.9,0.9-5.8,1.8-8.7,2.8c-3.2,1-6.4,1.4-9.6,1.4c-4.8,0.1-9.7-0.1-14.2-2.4c-1.7-0.9-3.6-1.3-5.4-1.9
				C106.1,196.5,105.8,196.4,105.6,196.2z"/>
			<path d="M170.5,83.6c0.1-1.4,1-2.3,2.2-2.3c1.2,0,2.5,0.3,3.8,0.4c0.7-1.2,1.6-1.5,3.1-0.7c1.1,0.6,2.2,1.3,3.2,2.1
				c1.2,1,2.4,2.2,3.4,3.5c0.6,0.7,1.1,1.7,1.4,2.6c0.4,1,0.5,1.7-0.9,2.1c-0.2,0-0.3,0.2-0.5,0.3c0.1,0.6,0.1,1.2,0.2,1.9
				c-1.2,0.7-2.5,0.4-3.7,0.2c-0.2,0-0.5-0.5-0.6-0.8c-0.2-0.5-0.4-1.1-0.6-1.6c-0.9-3.5-3.4-4.5-6.2-5.3c0.4,0.7,0.8,1.3,1.2,2.1
				c-0.8,0.4-1.6,0.2-2.3,0.1c-1.7-0.3-3.5-0.7-5.2-0.9c-3.3-0.5-6.3,0.9-9.2,2.4c-3.2,1.6-6,3.9-9.1,5.8c-2.6,1.6-4.9,3.8-7.9,4.5
				c-0.6,0.2-1.3,0.2-2.3,0.3c0.6-1.2,1.3-1.6,2-2c2.2-1.1,3.9-2.7,5.6-4.7c2.5-3,5.4-5.3,8.7-7.2c0.8-0.4,1.6-0.8,2.3-1.3
				c2.9-1.9,6.1-2.3,9.4-1.9C169.1,83.5,169.7,83.6,170.5,83.6z"/>
			<path d="M212.5,137.8c0.6,2.8-0.8,4.6-2,6.4c-3.6,5.4-8.6,8.2-14.1,10c-3,1-6.1,1.8-9.1,2.6c-0.9,0.2-1.8,0.2-2.7,0.1
				c-0.7-0.1-1.5-0.4-1.6-1.4c-0.1-0.7,0.9-2.1,1.6-2.3c4.4-1.2,8.7-2.5,12.8-4.6c4.3-2.2,8.2-5.2,11-9.6c1-1.6,2.2-1.9,3.6-1.4
				C212.1,137.7,212.3,137.7,212.5,137.8z"/>
			<path d="M108.9,95.5c-1.8,0.6-3.2,1.1-4.9-0.2c-2.3-1.8-4.7-3.7-7.2-4.7c-3.2-1.3-6.7-2-10.2-0.6c-1.3,0.5-2.6,1.3-3.8,2.1
				c-2,1.3-3.5,1.9-5.5,1.7c0.2-0.6,0.3-1.2,0.5-1.8c1.3-2.6,2.7-5,5.5-5.9c2.9-0.9,5.8-1.3,8.8-0.8c1.2,0.2,2.5,0.3,3.7,0.4
				c0.5,0.1,1,0.2,1.5,0.4c4,2,7.7,4.7,10.9,8.2C108.5,94.6,108.6,95,108.9,95.5z"/>
			<path d="M113.7,219.3c0.8,0.9,1.4,1.6,2,2.1c0.9,0.7,1.8,1.4,2.7,2c0.3,0.2,0.9,0.3,1,0.6c0.6,1,1.4,0.8,2.3,0.7
				c1.6-0.2,3.2-0.5,4.7-0.6c2.8-0.3,5.6,0.2,8.3,0.8c0.3,0.1,0.7,0.1,1.2,0.2c-0.1-2-0.7-3.8-1.4-5.4c-0.7-1.6-1.7-3-2.5-4.4
				c0.7-0.8,1.2-0.5,1.7-0.1c2.7,1.9,3.6,4.9,3.6,8.3c0,0.6-0.1,1.1-0.2,1.8c0.4,0.2,0.7,0.4,1.2,0.6c0.1-0.7,0.3-1.4,0.3-2
				c0-2.8-0.5-5.4-1.9-7.7c-0.3-0.5-0.3-1.1-0.4-1.7c0.1-0.1,0.2-0.2,0.3-0.3c0.5,0.3,1.2,0.4,1.6,0.8c2,1.8,3.2,6.5,2.4,9.3
				c-0.5,2-2.1,3.1-3.9,2.9c-4-0.5-8.1-0.7-12.1,0c-1.9,0.3-3.8-0.1-5.6,0.7c-0.2,0.1-0.6-0.1-0.8-0.3c-1.5-1.3-2.9-2.7-4.3-4.1
				C113,222.3,113.3,220.9,113.7,219.3z"/>
			<path d="M190.1,211.5c-0.2-1.4,0-2.5,0.9-3.5c2.2-2.5,4.3-5.2,6.4-7.8c3.8-5,6.5-10.8,8.7-16.9c1.2-3.3,2.2-6.6,3.4-9.9
				c0.3-0.9,0.8-1.7,1.4-2.4c0.4-0.5,1-0.7,1.5-1c0.1,0.1,0.2,0.2,0.3,0.3c-0.1,0.5-0.2,1.1-0.4,1.6c-1.3,3.9-2.6,7.8-3.9,11.6
				c-2,5.7-4.4,11.1-7.3,16.3c-2.3,4.1-4.8,7.9-8.1,11C192.2,211.5,191.3,212.2,190.1,211.5z"/>
			<path d="M142.2,223.5c0-0.5-0.1-0.9,0-1.3c0.5-2.4-0.2-4.5-1.5-6.4c-0.6-0.9-1-1.8-1.7-2.9c-4.4,1.1-9,1.4-13.7,1
				c-4.6-0.4-9.1-1.2-13.4-3.3c0.7-0.5,1.4-0.3,2-0.1c3.4,1.3,7,1.5,10.6,1.7c1.6,0.1,3.2-0.2,4.7-0.4c2.5-0.3,5-0.7,7.4-1.1
				c1.5-0.3,3-0.6,4.5-1c3.1-0.9,6.2-1.8,9.3-2.7c0.1,0,0.2,0,0.4,0.1c-1.1,1.3-2.5,1.9-3.7,2.7c-1.3,0.7-2.6,1.4-4,2.2
				c0.4,0.4,0.7,0.8,1.1,1.1c1,1,1.9,2.2,2.4,3.7c0.7,2.1,0,3.2-2.2,3.2c0.3-2.8-0.9-5-2.6-6.8c-0.4-0.4-0.9-0.5-1.5-0.6
				c2.5,1.9,2.9,4.7,3,7.6C143.3,221.5,143.3,222.7,142.2,223.5z"/>
			<path d="M198.4,206.6c0.6-1.1,1.1-2.1,1.7-2.9c4.9-6.3,8.1-13.7,10.6-21.6c1.1-3.6,2.3-7.2,3.5-10.8c0.2-0.6,0.5-1.1,0.9-1.6
				c0.2-0.2,0.7-0.2,0.9-0.1c0.2,0.1,0.3,0.5,0.3,0.8c0,0.3-0.1,0.6-0.2,0.9c-1.3,4.8-2.2,9.6-4,14.2c-2.3,6-4.6,12.1-8.4,17.2
				c-0.8,1.1-1.7,2.1-2.5,3.2C200.5,206.9,199.7,207.2,198.4,206.6z"/>
			<path d="M88.5,104.8c-1.4,0.1-2.7-0.1-4,0.8c-1.1,0.7-2.2,1.3-3.5,1.8c0.3-0.3,0.5-0.7,0.8-0.9c2.5-1.7,5-3.7,7.7-5.1
				c3.4-1.7,7-2.1,10.7-1.4c2.3,0.4,4.5,1.2,6.6,2.5c1.9,1.2,3.7,2.5,5.6,3.7c1.6,1,2.1,2.7,2.4,4.7c-0.3-0.3-0.7-0.4-1-0.8
				c-3.6-4.6-8.4-6.2-13.5-7.1c-1.7-0.3-3.5,0.2-5.3,0.3c-0.5,0-1,0.2-1.5,0.1c-1.7-0.4-3.2,0.3-4.8,0.9
				C88.6,104.5,88.5,104.7,88.5,104.8L88.5,104.8z"/>
			<path d="M94.2,116.6c-0.5,0.1-1.1,0.1-1.6,0.2c0.5-1,0.5-1,1.4-1.5c0.6-0.3,1.3-0.8,1.9-0.8c4.2-0.3,5.9,2.7,6,6.3
				c0.1,1.4-0.2,1.6-1.3,2.2c-1.4,0.7-2.6,0.9-3.7-0.8c-0.4,1.4-1.3,1.9-2.2,1.6c-1-0.3-2.1-0.5-2.3-2.1c-0.1-1.2-0.4-2.4,0.6-3.4
				c0.4-0.4,0.9-0.8,1.3-1.3C94.2,116.8,94.2,116.7,94.2,116.6z"/>
			<path d="M203,137.7c0.4-1,0.7-2,1.3-2.9c2.7-4.2,1-11.2-1.2-13.6c-2.3-2.6-4.8-4.8-8.3-4.7c-1.6,0-3.2-0.3-4.9-0.5
				c2.6-0.9,5.2-1.1,7.9-0.6c1.4,0.3,2.8,0.6,4.1,1.3c3.4,1.9,5,5.3,5.6,9.4c0.5,4-0.1,7.6-2.7,10.6c-0.4,0.5-0.9,0.9-1.4,1.3
				C203.3,137.9,203.2,137.8,203,137.7z"/>
			<path d="M163.9,115.7c-1,0.1-1.8,0.2-2.8,0.3c0.5,1,1.2,1.5,1.8,2c1.1,0.9,1.2,2,1,3.4c-0.3,1.4-0.9,2.3-2.2,2.6
				c-2,0.6-4.7-0.6-5.6-2.8c-0.1-0.2-0.2-0.3-0.2-0.5c-0.5-2.7,1.9-6.8,4.3-7.1C161.7,113.5,162.9,114,163.9,115.7z M159.5,117.2
				c-1.6,0.9-1.6,0.9-0.8,2.3C159,118.7,159.2,118.1,159.5,117.2z"/>
			<path d="M150.8,168.3c0.4,0.2,0.9,0.2,1.2,0.5c2.1,1.9,4.3,3.9,6.4,5.9c0.5,0.5,0.8,1.2,1.2,1.9c0.5,0.8,0.7,1.7,1.6,2.2
				c0.3,0.1,0.5,0.7,0.7,1.1c1.6,3.8,2.8,7.7,3.3,11.8c0.2,1.3,0.3,2.7-0.4,4.3c-0.7-2.8-1.2-5.2-1.8-7.6
				c-1.7-6.4-4.8-11.8-9.2-16.3c-1-1.1-2.1-2.1-3.1-3.2C150.7,168.7,150.7,168.5,150.8,168.3z"/>
			<path d="M181.9,119c-1.1,5.3-9.7,11.7-13.5,10.2c0.1-0.2,0.2-0.5,0.4-0.6c3.9-2.6,7.6-5.7,11.2-8.8
				C180.4,119.5,181,119.3,181.9,119z"/>
			<path d="M177.3,118.3c-1,4.4-8,8.2-11.4,6.3c0.3-1.8,1.1-2.5,2.7-2.7c2.4-0.3,4.3-1.9,6.2-3.5
				C175.9,117.5,175.9,117.5,177.3,118.3z"/>
			<path d="M93.9,128.2c-0.4,0.3-0.6,0.6-0.8,0.6c-1.8,0-3.6-0.1-5-1.5c-1.9-2-3.3-4.3-3.3-7.4c0-0.8-0.1-1.5-0.1-2.3
				c0-0.3,0.4-0.7,0.7-0.8c0.1-0.1,0.6,0.4,0.7,0.7c0.4,1.1,0.9,2.3,1.2,3.4c0.8,2.9,2.6,4.8,4.8,6.2
				C92.7,127.4,93.2,127.7,93.9,128.2z"/>
			<path d="M133,152.2c0.2,0,0.5-0.1,0.6-0.1c2.8,1.2,5.4,2.8,7.2,5.6c0.8,1.2,1.2,2.5,0.7,4.3c-0.7-0.6-1.3-1-1.6-1.5
				c-1.2-2.5-3.1-4.1-5.1-5.6C133.9,154.3,133.1,153.6,133,152.2z"/>
			<path d="M100.5,193.5c-0.7-2.5-0.1-5,0.3-7.5c0.7-4.5,2.1-7.6,5.1-10.7c-0.8,1.9-1.7,3.8-2.4,5.7c-0.6,2-1,4.1-1.4,6.2
				c-0.4,2.1-0.7,4.3-1,6.4C100.9,193.5,100.7,193.5,100.5,193.5z"/>
			<path d="M79.1,121.1c1.1,0.9,1.3,1.9,1.5,3c0.7,2.8,1.7,5.5,2.6,8.2c0.1,0.4,0.3,0.8,0.5,1.3c-1.1,0.2-1.6-0.5-2-1.3
				c-1.2-2.1-1.8-4.5-2.2-6.9C79.3,124.1,79.2,122.7,79.1,121.1z"/>
			<path d="M88.4,104.8c0.8-0.3,1.6-0.6,2.4-0.8c0.7-0.2,1.4-0.3,2.2-0.2c-1.1,1.1-2.6,1.3-3.7,2.2c-1.2,0.9-2.4,2-3.6,3
				c-1.2,0.9-1.6,2.8-3.2,3.3c-0.3-1.3,0.3-2.1,0.9-2.8c1.1-1.2,2.4-2.2,3.6-3.3C87.5,105.8,88,105.3,88.4,104.8
				C88.5,104.8,88.4,104.8,88.4,104.8z"/>
			<path d="M158,197.5c0.9-0.2,1.5,0.2,1.7,1c0.2,0.7,0.5,1.5,0.4,2.2c-0.6,2.4-1.5,4.5-4.3,4.9c0.6-1.4,1.3-2.6,1.6-4
				C157.8,200.3,157.8,198.9,158,197.5z"/>
			<path d="M97.8,126.2c4.2-1.3,8.2-3,10.6-7.7c0.9,0.5,0.8,1.1,0.4,1.7c-0.9,1.1-1.6,2.4-2.7,3.2
				C103.7,125.4,100.9,126.4,97.8,126.2z"/>
			<path d="M150.6,202.5c-0.7,1.7-1.9,2.3-3.1,2.8c-1.3,0.6-2.6,1.3-4.1,0.7C144.2,204.2,145.7,203.4,150.6,202.5z"/>
			<path d="M156.9,126.3c-3-0.9-5.4-2.3-6.4-6.3c0.6,0.3,0.8,0.4,1,0.5c1.6,1.5,3.1,3,4.7,4.5C156.5,125.4,156.7,125.9,156.9,126.3z
				"/>
			<path d="M242.3,166.7c1.2-2.8,1.9-5.9,4.1-8C246.4,162.3,244.7,164.8,242.3,166.7z"/>
			<path d="M244,157c0.1,3-1.7,6.1-4.2,7C240.5,161,242.2,159.1,244,157z"/>
			<path d="M167.2,119.8c0,0.3,0,0.8-0.2,1.1c-0.2,0.4-0.6,0.7-1,0.8c-0.1,0-0.5-0.6-0.6-0.9c-0.2-0.9-0.4-1.9-0.5-2.8
				c0-0.3,0-0.9,0.2-1c0.2-0.1,0.7,0,0.9,0.2C166.8,117.7,167.1,118.6,167.2,119.8z"/>
			<path d="M110.5,163.7c1,0.7,1.3,1.8,1.8,2.9C111.2,165.8,111,165.5,110.5,163.7z"/>
			<path d="M241.2,156c-0.3,1.6-0.3,1.6-1.4,2.4C240,157.1,240,157.1,241.2,156z"/>
		</g>
	</g>
	<g>
		<path class="st0" d="M297.9,18.2c1-0.1,2.1,2.3,3.2,7.4c6.6,25.1,10.5,42.4,11.7,51.7l2.2,17.6c0.5,3.3,0.9,4.8,1.4,4.8l11.8-1.5
			c3.9-0.3,5.9,0,6,0.8l0.2,1.3c0,0.2-0.4,0.7-1.3,1.5c-0.6,10.4-2.5,26.6-5.6,48.5c0.2,3.9-0.5,6-2.1,6.2c-1.1,0.1-1.9-0.5-2.1-2
			l0.1-1c-0.2-0.5-0.3-1-0.4-1.5l0-0.2c0.4,0,0.7-1.9,0.8-5.6c2.5-14.9,4.6-29.7,6.5-44.4c-0.1,0-0.9,0-2.4,0.1
			c-1,0.1-4.5,0.5-10.5,1.1c0.1,0.8-0.4,1.5-1.7,1.9l-0.4,0c-0.8,0.1-1.6-0.4-2.5-1.6c-22.9,1.9-34.4,2.6-34.4,2.1
			c3.3,7.4,7.2,20.2,11.6,38.4c0.9,4.3,1.6,7.4,2.1,9.1l0.2,0c0-0.6,0.2-1,0.4-1l0,0.4c-0.2,1.3-0.3,2-0.3,2.3l1.5,6.3
			c0.1,0.8-0.6,1.5-2,2.1c-1.7,0.2-2.9-1.9-3.8-6.4c-5-24.2-9.3-41.6-12.7-52.1l0-0.4c-0.1-1.1,0.1-1.8,0.9-2.2
			c0.4,0,0.9,0.4,1.5,1.3c3.3,0,5.9-0.2,7.8-0.4l0.9-0.1l-0.2-0.4l0-0.2c-0.2-1.9,0.9-7.3,3.3-16.2l2.6-16.3
			c3.6-29.5,5.1-46.2,4.7-49.9C296.7,18.8,297.1,18.3,297.9,18.2z M298.8,28.6c-1,19.8-2.5,36.9-4.7,51.2c0,0.4-1.4,7-4.4,20
			c-0.1,0.9-0.2,1.8,0,2.9c2.7-0.3,9.3-1.1,19.5-2.2l2.3-0.1c-0.6-2.6-0.9-4.2-1-4.7c-0.2-1.8-0.4-4.1-0.7-7.2
			c-1.6-12.6-4.4-28.7-8.6-48.2L299,28.5L298.8,28.6z"/>
		<path class="st0" d="M333.9,18c2.7-0.3,5.8,2.9,9,9.8c0.6,1.9,1.1,4,1.3,6.3c1.2,9.9-0.5,22.4-5.1,37.5c-0.1,1.1-0.2,1.7-0.2,1.8
			c0.1,0.2,0.2,0.4,0.2,0.6c-0.2,0-0.4,0.3-0.7,0.9l0,0.2c1.6-1.7,3.4-2.7,5.5-3c5.8-0.7,10,4.8,12.6,16.5l0.2,1.5
			c1.3,10.3-0.2,18-4.5,23.1c-1.7,1-2.8,1.5-3.5,1.6c-5.2,0.6-9.2-3.3-12.2-11.9c-0.5-2.3-0.9-4.3-1.1-5.9l-0.5-4.2
			c-0.4-3-0.4-7.2-0.2-12.6c-1.9-13.2-3.2-22.5-3.8-27.7C329.1,29.9,330.1,18.5,333.9,18z M338.4,81.4l0.5,3.8
			c1,8.4,1.1,12.7,0.2,12.8c-0.3,0-0.4,0.1-0.4,0.3c0.6,4.8,2.5,8.8,5.6,12.1c1.6,1,2.9,1.4,3.8,1.3l0.2,0c4-0.5,5.9-7,5.6-19.5
			l-0.3-2.3c-1-7.7-3.6-12.6-8.1-14.7l-1.2-0.1C342.2,75.3,340.2,77.4,338.4,81.4z M334.6,21.8c-1.7,8.1-1.8,18.2-0.4,30.2l0.3,2.3
			c0.5,4.1,1.3,9.6,2.2,16.4l0,0.2l0.2,0c3.7-15.2,5-27.4,3.8-36.6C340.1,28.9,338,24.7,334.6,21.8z"/>
		<path class="st0" d="M366.8,69l0.2,0c4.2-0.5,7.1,1.6,8.7,6.2c0.2,0,0.3,0.7,0.5,2l0.2,1.4c0.6,4.4-1.3,9.1-5.5,14
			c-2,1.8-3.7,2.8-5.3,3.1L363,96c0.8,6.4,3.1,10.5,7,12.3c1.3,0.4,2.5,0.5,3.4,0.4c3.1-0.4,6.2-3.1,9.5-8.2
			c0.1-0.7,0.7-1.1,1.5-1.2c0.3,0,0.5,0.1,0.5,0.4c0.3,2.5-1.3,5.6-4.8,9.3c-1.9,1.6-3.9,2.5-5.9,2.8l-1.4,0.2
			c-5.7,0.7-9.9-2.9-12.8-10.8c-0.4-2.2-0.7-3.8-0.9-4.9l-0.1-1.2c-1.2-9.6,0.2-17.5,4-23.7C364.3,69.9,365.6,69.2,366.8,69z
			 M362.9,95l1.1-0.1c3.8-0.5,6.7-3.9,8.8-10.4c0.5-2.1,0.7-4.2,0.4-6.3c-0.5-3.9-2.3-5.9-5.5-6l-0.3,0
			C363.9,73.4,362.4,81,362.9,95z"/>
		<path class="st0" d="M392.7,66.7c0.3,0,0.9,0.4,1.6,1.3c0.4,0,0.9-0.2,1.7-0.4c5.8-0.7,11.3,4,16.6,14.1c0.9,2.7,1.4,4.8,1.6,6.6
			c1.1,9.1-2.4,15.7-10.5,19.8c-0.5,0.2-1.1,0.3-1.7,0.4l-2.5,0.3c1.8,14.2,2.4,31.1,2,50.7c-0.2,5.1-1.3,7.8-3.3,8
			c-0.7,0.1-1.4-0.5-2.1-1.6c0.1-3.5,0.4-5.3,0.8-5.6l-0.2-1.5c0.6-22.8-1-49.3-4.7-79.3c0.1,0-0.1-2.7-0.6-8.2l-0.3-0.4
			C391.4,68.2,391.9,66.8,392.7,66.7z M394.7,69.2l-0.2,0.5c2.2,15.5,3.5,24.6,3.8,27.4c0.2,2.5,0.3,4,0.4,4.6
			c0.2,0.2,0.3,0.5,0.3,0.8l-0.2,0l0.3,0.4l0.1,0.8l-0.1,1c0.7,0.2,1.3,0.3,1.5,0.2c2.5-0.3,5-2.1,7.6-5.4c2-3.4,2.8-6.6,2.4-9.9
			l-0.3-2.3c-0.8-6.8-4.3-12.5-10.4-17.2C398.4,69.3,396.6,69,394.7,69.2z"/>
		<path class="st0" d="M420.6,64c1-0.1,1.9,2.4,2.6,7.7c0.3,1.7,0.8,4.5,1.3,8.7l0.2,0c4.5-0.6,8.2,1.7,11.1,6.7
			c0.4,1.3,0.7,2.4,0.8,3.5l0.1,0.4c0.7,5.9-1.2,10.3-5.8,13.2c-1.1,0.4-2.1,0.6-3.1,0.8l0.2,2c-0.1,1.4-0.7,2.1-1.7,2.2
			c-1.2,0.2-2.2-1.4-3-4.6c-1.7-0.5-2.6-1.2-2.7-2.1l-0.1-1c0.4-0.8,0.9-1.3,1.6-1.4l0.2,0l0.4,0.2l-0.4-3.6
			c-2-19.7-2.8-30.4-2.4-32.1L420.6,64z M424.7,82.6l2,16.1c0.2,1.4,0.5,2.1,0.9,2.1c3.7-0.5,5.4-4.1,5.2-10.9
			C432.3,86,429.6,83.5,424.7,82.6z"/>
	</g>
	<g>
		<path class="st0" d="M436.3,124.1c1,0,1.6,6.5,1.6,19.6v7c-0.8,27.6-2.2,41.4-4.3,41.4h-0.2c-0.9,0-1.4-0.6-1.4-1.9
			c1.7-24.1,2.6-40.9,2.6-50.4v-3.5h-0.2c-1,3.2-3.3,7.3-6.9,12.2c-0.4,0.3-0.8,0.5-1.2,0.5c-1.7,0-3.7-4.6-5.8-13.7h-0.1
			c0.2,4.1,0.3,10.1,0.3,17.9v8.1c-0.1,1.9-0.4,2.9-1,2.9h-0.8c-0.7,0-1-1.9-1-5.8c0-21.8,0.5-32.7,1.4-32.7h0.2
			c0.7,0,2,3.6,4.1,10.8c1.5,4.3,2.6,7.1,3.3,8.3c3.3-4.5,5.7-9.9,7.2-16c0.6-0.2,0.9-0.4,0.9-0.5
			C434.7,125.5,435.2,124.1,436.3,124.1z"/>
		<path class="st0" d="M445.3,123.6c0.8,0,1.2,6.1,1.2,18.2v3.1l1.7-0.2h2.9c2.7,0,4.3,0.2,4.8,0.7h0.2v-0.2
			c0-3.6,0.2-10.5,0.7-20.6l0.6-0.5h0.2l0.7,0.5c0.3,6.6,0.5,13.5,0.5,20.6v5.4c0,6.5-0.4,9.7-1.2,9.7c-0.2,0.1-0.4,0.1-0.7,0.1
			h-0.3c-0.7-0.4-1-0.9-1-1.5c0.2-4.2,0.3-8.1,0.3-11.7c-0.4,0.2-0.6,0.3-0.9,0.3c-3.2-0.2-5.8-0.3-7.6-0.3h-0.8v0.1
			c0,9.1-0.3,13.6-0.9,13.6c-0.2,0-0.5,0.1-0.9,0.3c-1-0.2-1.5-0.7-1.5-1.5c0.5-24.2,1-36.2,1.5-36.2H445.3z"/>
		<path class="st0" d="M473,124.3h0.2c3.5,0,5.7,2,6.6,6.1c0.1,0,0.2,0.6,0.2,1.7v1.2c0,3.8-2,7.5-6,11.2c-1.8,1.3-3.4,2-4.8,2H467
			c0,5.5,1.5,9.1,4.6,11c1.1,0.5,2,0.7,2.8,0.7c2.6,0,5.5-2,8.8-5.9c0.2-0.6,0.7-0.9,1.4-0.9c0.3,0,0.4,0.2,0.4,0.4
			c0,2.1-1.7,4.5-5,7.2c-1.8,1.1-3.5,1.7-5.2,1.7h-1.2c-4.8,0-8-3.4-9.6-10.3c-0.1-1.9-0.2-3.3-0.2-4.2v-1c0-8.1,1.9-14.6,5.8-19.4
			C470.8,124.7,472,124.3,473,124.3z M467,145.6h1c3.2,0,6-2.6,8.4-7.8c0.7-1.7,1-3.5,1-5.2c0-3.3-1.3-5.1-4-5.6h-0.2
			C470.1,127.6,468.1,133.8,467,145.6z"/>
	</g>
	<g>
		<path class="st0" d="M289.8,174.5c3.6,0,6.6,3.7,8.8,11c0.5,1.2,0.9,3.8,1.1,7.9c0,6-1.5,11.4-4.5,16.1c5.9,5.6,8.8,15.1,8.8,28.4
			c0,7.2-2,21.6-6,43c-1.1,6.6-2.1,13.4-2.8,20.4c-0.6,0.9-1.3,1.3-2.1,1.3c-1-0.3-1.5-0.9-1.5-1.7v-0.7c0-5.2,2.2-20.3,6.7-45.5
			c1.1-7.1,1.7-13,1.7-17.8c0-10.8-2.1-18.9-6.4-24.1c-0.4-0.6-0.9-0.9-1.3-0.9c-0.9,1-2.3,1.5-3.9,1.5h-0.2c-3.2-0.7-4.9-2-4.9-3.9
			c0-1.4,1.8-2.3,5.4-2.6h0.2c1.2,0,2.2,0.2,3,0.6c2.9-4.2,4.3-9.1,4.3-14.8c0-7-1.7-12.2-5.2-15.5c-0.3-0.2-1-0.5-1.9-0.7
			c-1.3,0-2.5,0.9-3.6,2.8h-0.2c-0.3,0-0.5-0.4-0.6-1.3C285.8,175.7,287.4,174.5,289.8,174.5z"/>
		<path class="st0" d="M316.6,172.8c5,0,9,5.4,11.9,16.2c0.6,2.7,0.9,5.1,0.9,7.3c0,1.5-0.2,3.2-0.7,5.1c1.7,13.2,2.6,20.6,2.6,22.5
			c-0.2,0.5-0.4,0.9-0.9,1.1h-0.5c-1.2,0-1.9-1.9-2.1-5.6l-1.2-12.7c-3.3,4.6-6.8,6.8-10.6,6.8c-5.3,0-8.5-4.2-9.6-12.6
			c-0.1-2.4-0.2-4-0.4-4.9c0.1-0.4,0.2-0.9,0.2-1.2c0-1.1-0.1-2.4-0.4-4.2c0.6-9.7,3.5-15.5,8.7-17.4L316.6,172.8z M308.8,195.9
			c0,7.5,1.6,12.3,4.9,14.3c0.6,0.3,1.3,0.5,2.3,0.5c4.1,0,7.4-3.1,9.7-9.2l0.2-0.9c-1-11.3-1.7-16.9-2.1-16.9
			c-2.5-5.1-4.9-7.7-7.2-7.7c-3.6,0-6.1,4.8-7.5,14.5C308.9,192.5,308.8,194.3,308.8,195.9z"/>
		<path class="st0" d="M336.1,173.8c0.1,0,0.3,0.1,0.6,0.2c0.3,0,0.9-0.1,2.1-0.2c8.3,0,12.5,1,12.5,3c-1.8,14-3,26.2-3.6,36.4
			l-1.1,1.1h-0.9c-0.8,0-1.2-1.2-1.3-3.6c0-6.5,1.1-17.6,3.4-33.2h-0.2c-2.6-0.5-5.2-0.7-7.7-0.7h-2.4v14.3c0,0.5-0.1,1.2-0.2,2.1
			l0.2,0.4c-0.1,2.6-0.2,4.8-0.2,6.4v5.6c0,6.5-1,9.8-3,9.8c-0.6-0.2-0.9-0.6-0.9-1.1c0.4-2,0.6-3.8,0.6-5.4v-3.6
			c0-7.3,0.6-16.9,1.7-28.7c-0.5-0.2-0.7-0.7-0.7-1.3v-0.4C334.7,174.5,335.3,174.1,336.1,173.8z"/>
		<path class="st0" d="M358.2,173.1c0.3,0,0.5,0.8,0.7,2.4c-0.1,1.3-0.2,2.3-0.2,2.9v6.6c0,13.1,1.2,21.2,3.4,24.3
			c0.3,0.3,0.6,0.5,1,0.5h0.2c1.5-0.8,3-3.4,4.6-8c1.8-6.3,2.7-11.1,2.7-14.4V178c-0.4-0.6-0.7-1.5-0.7-2.7c0-0.2,0.5-0.8,1.5-1.7
			h0.4c1.7,2,2.5,5,2.5,9v2.2c0,1.4-0.2,4-0.5,7.8c0.6,8.6,1.4,18.5,2.4,29.7c-0.2,1.5-0.8,2.2-1.7,2.2h-0.2c-1.1,0-1.7-1.6-1.7-4.8
			c-0.9-9.5-1.3-15.1-1.3-16.8h-0.2c-2.3,6.8-4.9,10.2-7.6,10.2h-1.2c-2,0-3.6-2.2-4.9-6.6c-0.9-3.1-1.3-7.8-1.3-14.1v-1.9
			c0.3-10.9,0.9-16.7,1.7-17.5H358.2z"/>
		<path class="st0" d="M387.9,173h0.8c0.6,0,1.3,3.9,2.1,11.7c1.9,12.2,2.9,20.5,2.9,24.8v1.1c0,1.4-0.6,2.1-1.7,2.1
			c-1.3,0-2.1-2.6-2.3-7.9c-1.3-14.4-1.9-21.9-1.9-22.7c-0.4,0-1,4.5-1.5,13.5c-1.5,13.2-2.8,19.8-3.8,19.8h-1
			c-0.2,0-0.5-0.3-0.9-0.9v-0.8c3.2-24.4,4.9-37,5.2-37.9c0.9-0.3,1.3-1,1.3-2.1L387.9,173z"/>
		<path class="st0" d="M400.8,173.1c0.3,0,0.5,0.8,0.7,2.4c-0.1,1.3-0.2,2.3-0.2,2.9v6.6c0,13.1,1.2,21.2,3.4,24.3
			c0.3,0.3,0.6,0.5,1,0.5h0.2c1.5-0.8,3-3.4,4.6-8c1.8-6.3,2.7-11.1,2.7-14.4V178c-0.4-0.6-0.7-1.5-0.7-2.7c0-0.2,0.5-0.8,1.5-1.7
			h0.4c1.7,2,2.5,5,2.5,9v2.2c0,1.4-0.2,4-0.5,7.8c0.6,8.6,1.4,18.5,2.4,29.7c-0.2,1.5-0.8,2.2-1.7,2.2h-0.2c-1.1,0-1.7-1.6-1.7-4.8
			c-0.9-9.5-1.3-15.1-1.3-16.8h-0.2c-2.3,6.8-4.9,10.2-7.6,10.2h-1.2c-2,0-3.6-2.2-4.9-6.6c-0.9-3.1-1.3-7.8-1.3-14.1v-1.9
			c0.3-10.9,0.9-16.7,1.7-17.5H400.8z"/>
	</g>
</g>
</svg>
