<?xml version="1.0" encoding="utf-8"?>
<!-- Generator: Adobe Illustrator 19.0.1, SVG Export Plug-In . SVG Version: 6.00 Build 0)  -->
<svg version="1.1" id="Слой_1" xmlns="http://www.w3.org/2000/svg" xmlns:xlink="http://www.w3.org/1999/xlink" x="0px" y="0px"
	 viewBox="0 0 500 300" style="enable-background:new 0 0 500 300;" xml:space="preserve">
<style type="text/css">
	.st0{stroke:#000000;stroke-width:3;stroke-miterlimit:10;}
</style>
<g>
	<g>
		<g>
			<path d="M54,239.3c-0.2-0.3-0.5-0.6-0.8-1c-0.6,0.7-0.4,1.3-0.2,1.9c1,2.7,2.3,5.3,3.8,7.8c0.4,0.7,0.8,1.4,0.7,2.3
				c-0.3-0.6-0.7-1.1-1-1.7c-0.1,0-0.2,0.1-0.3,0.1c0.2,0.4,0.3,0.8,0.5,1.1c2.6,4.7,5.3,9.4,8,14.1c0.3,0.5,0.8,1,0.4,1.9
				c-0.4-0.4-0.9-0.7-1.2-1.1c-0.9-1.3-1.8-2.5-2.6-3.9c-2.1-3.7-4.2-7.4-6.1-11.1c-0.8-1.6-1.4-3.4-2-5.1c-0.2-0.5-0.2-1.1-0.2-1.7
				c0-0.6-0.1-1.1-0.8-1.6c-0.5,1.5-1.1,2.8-0.2,4.3c0.8,1.4,1.5,2.8,2.1,4.3c0.4,0.8,0.5,1.8,0.9,2.6c1.4,2.6,2.8,5.2,4.2,7.8
				c1,1.9,2.1,3.8,3.1,5.8c0.2,0.4,0.2,0.8,0.4,1.3c-1-0.2-1.3-0.8-1.6-1.4c-3.5-5.6-6.9-11.3-9.5-17.3c-0.1-0.3-0.4-0.6-0.7-0.9
				c1.3,5.3,3.7,10.2,5.7,15.3c-2.9-3.5-4.8-7.6-6.7-11.9c-0.3,0.4-0.5,0.8-0.8,1.1c-0.1,0-0.2,0-0.3,0c0-0.7,0.1-1.4,0.1-2.1
				c0-0.8,0-1.5-0.1-2.3c-0.2-1.1-0.5-2.3-0.8-3.4c-0.2-0.8,0-1.4,0.7-1.9c1-0.8,1.3-2.2,1.7-3.3c0.3-0.8,0.3-1.7,0.5-2.7
				c0.2-0.4,0.6-0.9,0.8-1.4c1.7-5.4,3.3-10.8,5.1-16.2c0.4-1.3,1.2-2.6,1.8-3.8c0.3-0.5,0.6-1.2,1.5-0.7c0.1,0.1,0.6-0.2,0.6-0.4
				c0.1-0.2,0-0.6-0.1-0.8c-0.5-0.9-0.6-0.9-0.3-1.8c1-0.2,1.9,1.5,3,0.4c-0.1-0.8-1.4-1.1-1-2.3c0.8,0.5,1.6,1,2.4,1.5
				c0.4-0.2,0.9-0.4,1.5-0.8c-0.7-0.6-1.2-1-1.6-1.5c-0.2-0.2-0.1-0.6-0.2-0.9c0.3,0,0.6-0.1,0.8,0c0.6,0.4,1.2,0.8,1.8,1.3
				c0.6,0.5,1.1,0.5,1.7,0.1c1.7-1.1,3.3-2.1,4.8-3.5c1.3-1.2,2.5-2.7,4.2-3.6c0.6-0.3,1.2-0.9,1.5-1.5c0.6-1.2,1.6-1.6,2.7-2.1
				c0.3-0.1,0.6-0.3,0.9-0.4c0.9-0.2,1.6-0.6,1.8-1.6c0-0.2,0.2-0.3,0.4-0.4c0.2,0.2,0.4,0.3,0.6,0.4c0.8-1,0.8-1,1.8-0.4
				c0.5,0.3,0.9,0.3,1.3,0c0.2-0.1,0.5-0.3,0.8-0.4c0.2-0.1,0.4-0.3,0.6-0.4c-0.1-1.9,0.2-2.1,1.6-1.5c4.5-2.1,9-3.9,13.7-5.6
				c-0.2-0.6-1.3-0.4-1.6-1.1c0.8-0.2,1.6-0.4,2.3-0.7c-0.4-1.5-0.3-1.6,1-2.5c1.1-0.8,2.3-1.7,3.3-2.6c2.3-2,4.7-4.1,6.9-6.2
				c2.5-2.5,4.9-5.1,7.3-7.7c0.3-0.3,0.4-0.9,0.7-1.3c0.3-0.4,0.3-1.2,1.2-1c0.4-0.6,0.7-1.2,0.4-1.9c-0.2-0.7-0.3-1.4-0.5-2.4
				c0.7,0.4,1.1,0.6,1.6,0.8c0.4-0.5,0.7-1,1.2-1.7c-0.6-1.3-1.2-2.6-1.7-3.9c-0.9-2.3-1.8-4.6-2.6-6.9c-0.1-0.2-0.2-0.5-0.1-0.7
				c0.3-2.6-0.4-5.1-1.1-7.6c-0.7-2.8-1.6-5.5-2.3-8.3c-0.3-1.2-0.3-2.5-0.4-3.8c0-0.4-0.1-0.8-0.1-1.1c-1.6-0.3-3-0.6-4.3-0.9
				c-1.2-0.3-1.7-0.9-1.5-2.1c0.2-1.7,0.6-3.3,1-5c0.3-1.2,0.4-2.2,0-3.4c-0.2-0.5-0.3-1-0.4-1.5c-0.4-4.1-0.7-8.2-1.1-12.3
				c0-0.4-0.2-0.9-0.1-1.3c0.7-1.6,0-3.1-0.4-4.5c-0.7-2.3-1.1-4.7-0.9-7.2c0.1-1.5,0.3-3,0.4-4.5c0-0.3,0.1-0.6,0.2-0.8
				c0.5-1.2,0.5-1.2-0.4-2c-2.2-2.1-4.4-4.1-6.5-6.2c-0.8-0.8-1.3-2-2.1-2.8c-1.3-1.3-2.1-2.7-2.6-4.5c0,0,0-0.1-0.1-0.1
				c-1.5-1.9-1.9-4.5-3.3-6.4c-0.6-0.8-0.3-1.7-0.6-2.5c1-1.4-0.3-2.4-0.8-3.5c-0.6-1.6-1.5-3.1-2.2-4.7c-0.1-0.3-0.2-0.6-0.1-1.1
				c0.6,1,1.2,2,1.8,2.9c0.1,0,0.1,0,0.2-0.1c-0.1-1-0.2-2-0.4-3c-0.3-2.3-0.7-4.5-1.1-6.8c0,0,0-0.1,0-0.1c0-2.3-0.5-4.6-1.4-6.7
				c0.1-0.1,0.2-0.1,0.4-0.2c0.3,0.5,0.7,1,1,1.6c0.6-0.2,0.7-0.5,0.5-1.1c-0.3-0.8-0.4-1.6-0.7-2.3c0.1,0,0.2-0.1,0.3-0.1
				c0.6,1.2,1.2,2.4,1.8,3.6c0.1,0,0.2-0.1,0.3-0.1c-0.1-0.5-0.2-1-0.3-1.5c-0.1-0.5-0.2-1-0.4-1.4c0.1,0,0.2-0.1,0.3-0.1
				c0.2,0.4,0.4,0.7,0.6,1.1c0.2,0.3,0.5,0.6,0.7,0.9c1.5-1.2,2.9-2.4,4.4-3.5c0.3-0.2,0.7-0.4,1-0.5c2.9-0.9,5.8-1.6,8.7-2.5
				c1.4-0.5,2.7-1.2,4.1-1.8c-0.3-1.4-1.4-2-2-3.2c1.5,0.4,2.3,1.6,3.5,2.4c1.5-0.5,2.6-1.5,4-2.4c-0.9-1.2-1.8-2.4-2.7-3.5
				c0.1-0.1,0.2-0.2,0.2-0.2c1.4,0.6,2.4,2,3.7,2.9c0.5-0.3,1-0.6,1.7-1c-1-0.5-1.8-0.9-2.5-1.3c0-0.1,0-0.2,0-0.2
				c0.3,0,0.6,0,0.9,0c0.2,0,0.6,0.1,0.7,0c0.8-1,1.3-0.3,1.9,0.2c0.4,0.4,0.8,0.4,1.3,0.2c2.9-1.4,5.8-2.7,8.6-4.2
				c2.3-1.3,4.6-2.7,6.8-4.2c2.3-1.6,4.9-2.4,7.6-2.8c5.7-1,11.5-1.1,17.3-0.8c3.9,0.2,7.8,0.4,11.6,1.1c4.2,0.7,8.3,1.3,12.4,2.4
				c2.7,0.7,5.5,1.2,8.2,1.9c4.6,1.2,9.1,2.7,13.5,4.4c3.1,1.2,5.8,2.8,8.4,4.8c1.8,1.4,3.7,2.7,5.6,3.9c4.2,2.6,7.8,5.9,11.2,9.4
				c3.5,3.5,6.5,7.5,9.4,11.5c0.1,0.1,0.2,0.2,0.3,0.3c3.6,3.7,5.8,8.3,8.5,12.7c0.4,0.6,0.8,1.2,1.3,1.8c0.3-0.4,0.4-0.6,0.7-0.9
				c0.2,0.8,0.4,1.5,0.5,2.2c0.1,0.6,0.3,1.1,1,1.3c0.6,0.2,0.8,0.7,0.8,1.3c0.3,3.7,0.6,7.3,1,11c0.2,2.5,0.5,5,0.6,7.5
				c0.1,2,0,4-0.8,5.9c-0.3,0.8-1,1.6-0.5,2.6c0.1,0.2-0.1,0.6-0.2,0.8c-0.9,2.1-2.2,4-3.5,5.8c-0.2,0.3-0.4,0.8-0.5,1.2
				c-0.1,0.5-0.1,0.9-0.2,1.5c-0.5-0.2-0.8-0.3-1.3-0.4c-1,1.2-2.1,2.5-3.1,3.8c-0.5,0.6-1,1.2-1.5,1.8c-0.7,0.8-1.4,1.4-2.4,1.9
				c-1,0.4-1.8,1.1-1.9,2.4c0,0.3-0.2,0.6-0.4,1c-0.4-0.5-0.7-0.9-1-1.3c-0.2,0.3-0.6,0.6-0.6,0.8c-0.2,1.4-1,2.5-1.7,3.7
				c-0.8,1.5-1.5,3.2-2.2,4.7c-1.1,2.3-2,4.7-3.1,7c-0.9,1.9-1.9,3.6-3.5,5c-0.5,0.5-1,0.9-1.8,0.6c-0.3-0.1-0.7,0-1.1,0.1
				c-1,0.2-2.1,0.6-3.1,0.8c-1.1,0.2-2-0.3-2.7-1.1c-0.4-0.4-0.7-0.8-1.3-1.4c-1.3,4-2.4,7.9-3.5,11.7c-1,3.8-2.3,7.6-2.8,11.6
				c0.5-0.1,0.8-0.1,1-0.2c0.8-0.2,1.3,0.1,1.7,0.7c2.4,3.7,4.7,7.3,7.1,11c0.2,0.3,0.5,0.6,0.6,1c0.5,1.5,1.7,2.2,3.2,2.6
				c1.9,0.4,3.6,1.2,5.1,2.4c0.6,0.5,1.3,0.9,2,1.2c0.8,0.3,1.3,0.7,1.7,1.4c0.4,0.5,1.1,1,1.8,1.1c2.2,0.3,4,1.5,6,2.2
				c2,0.6,3.9,1.6,5.9,2.5c0.9-0.9,1.1-1,2.3-0.3c2.4,1.5,4.7,3.1,7.1,4.6c1.6,1,3.3,1.9,4.9,2.8c2.2,1.4,4.5,2.7,6.7,4.1
				c0.7,0.4,1.1,1.2,1.7,1.8c0.5,0.5,0.9,1,1.4,1.4c0.5,0.4,0.5,0.8-0.1,1.1c2.6,2.3,5.1,4.6,7.6,6.9c-0.1,0.1-0.1,0.2-0.2,0.3
				c-1.1-0.7-2.1-1.4-3.5-2.2c0.3,1.1,1,1.6,1.4,2.3c0.5,0.7,1,1.3,1.4,2c0.5,0.7,1,1.5,1.4,2.2c0.4,0.7,0.8,1.4,1.3,2.2
				c-1.2,0.1-1.6-0.6-2.1-1.2c-2.2-2.7-4.5-5.5-6.7-8.2c-1.3-1.6-2.5-3.2-3.8-4.8c-0.3-0.3-0.6-0.7-0.9-0.9
				c-2.3-1.8-4.6-3.6-6.9-5.3c-0.2-0.2-0.6-0.3-1.2-0.6c4.6,8.2,8.7,16.2,11.2,25.2c-0.9-0.1-1.2-0.7-1.4-1.1
				c-1.2-2.5-2.2-4.9-3.5-7.4c-2.2-4.3-4.4-8.5-6.7-12.8c-1-1.9-2.3-3.6-3.5-5.4c-0.4-0.6-1-1.1-1.6-1.4c-1-0.6-2.1-1.1-3.3-1.4
				c2.4,3.6,5.5,6.5,8.2,9.7c-0.4-0.3-0.8-0.6-1.3-0.9c-0.1,0-0.1,0.1-0.2,0.1c0.2,0.4,0.4,0.8,0.6,1.2c1.5,2.7,3.1,5.4,4.6,8.1
				c0.8,1.5,1.3,3.2,2,4.8c0.3,0.7,0.4,1.4-0.4,1.9c-0.2,0.1-0.3,0.5-0.5,0.9c-1.2,0-2-0.7-2.6-1.6c-1.4-2.2-2.6-4.6-4.1-6.7
				c-2.4-3.6-4.6-7.3-7.3-10.7c-2-2.5-4.3-4.6-6.6-6.8c-1.2-1.1-2.2-2.3-3.5-3.3c0.1,0.6,0.4,1,0.7,1.4c2,2.6,4,5.1,6,7.7
				c1,1.2,1.8,2.6,2.6,3.9c1.5,2.8,3.3,5.3,4.9,8.1c1.3,2.1,2.5,4.3,3.7,6.5c0.8,1.4,1.8,2.6,2.2,4.2c0.1,0.4,0.2,0.7,0.2,1.2
				c-1.7-1.3-3.5-2-5.6-2c0.4,2.5,0.4,2.5,2.1,4.7c1,1.3,1.9,2.5,2.8,3.8c0.3,0.4,0.4,0.9,0.6,1.5c-1.4,0-2.5-0.3-3.5-0.8
				c-1.4-0.8-2.8-1.7-4.3-2.5c-0.8-0.4-1.6-0.7-2.2-1c-0.5,0.4-0.9,0.7-1.3,0.9c-0.6,0.2-0.9-0.3-1.3-0.7c-1-1.1-2.2-2.2-3.1-3.5
				c-0.5-0.6-0.9-0.9-1.6-1c-0.7-0.1-1.2-0.3-1.6-1c-1.8-2.9-3.7-5.7-5.6-8.5c-2.6-3.6-5.2-7.1-7.9-10.6c-0.1-0.1-0.2-0.2-0.4-0.3
				c-0.2,0.3-0.4,0.6-0.6,0.8c-0.3,0.5-0.3,0.9,0.1,1.3c0.9,1,1.7,2,2.5,3c3.1,4,6.3,7.9,9.4,11.9c1.3,1.6,2.6,3.3,3.9,4.9
				c1.9,2.5,3.6,5.1,4.5,8.1c0.2,0.7,0.6,1.3,1.1,2.2c-0.8-0.5-1.4-1-2.1-0.4c-0.1,0.1-0.6-0.3-0.8-0.5c-2.2-2.5-4.4-5-6.6-7.5
				c-2.5-2.9-5.1-5.9-7.7-8.8c-2.4-2.7-4.9-5.4-7.3-8.1c-0.1-0.2-0.4-0.3-0.5-0.4c-0.6,0.6-0.2,1,0.1,1.3c0.5,0.6,1.1,1.2,1.6,1.9
				c4.2,5.3,8.4,10.5,12.5,15.9c1.6,2,2.9,4.3,4.2,6.4c0.4,0.5,0.6,1.2,0.9,1.8c-0.1,0.1-0.2,0.1-0.2,0.2c-0.4-0.4-0.7-0.9-1.1-1.2
				c-0.4-0.3-1-0.4-1.8-0.7c0.6,1.3,1.1,2.2,1.6,3.2c-0.1,0.1-0.2,0.1-0.3,0.2c-0.4-0.4-0.9-0.8-1.3-1.2c-2.8-3.3-5.7-6.6-8.5-10
				c-3.2-3.7-6.4-7.4-9.6-11.1c-0.5-0.6-1.2-1.1-2-1.8c-0.4,0.8-0.9,1.5-1.2,2.2c-0.9,1.6-1.8,3.2-2.7,4.8c-0.3,0.5-0.5,0.9-0.7,1.5
				c-1.4,4.2-2.1,8.5-2.8,12.8c-0.1,0.8-0.1,1.7-0.9,2.5c-0.1-0.6-0.2-1-0.2-1.4c0.1-1.9,0.1-3.9,0.3-5.8c0.2-2.5,0.6-5,1.5-7.4
				c0.3-0.9,0.8-1.8,1.2-2.6c1.4-2.7,3.1-5.3,4.3-8.1c0.7-1.7,1.7-3.1,2.4-4.8c0.9-2.4,2.4-4.4,3.3-6.8c0.8-2.2,1.2-4.5,2-6.7
				c0.7-1.8,0.2-2.8-1.2-3.9c-2.4-1.7-4.3-4-6-6.3c-0.3-0.4-0.7-0.8-1.1-1.2c0.4,1.3,1.5,2.2,1.8,3.6c-4.8-4-8-9.2-11.8-14.1
				c-0.6,0.6-0.2,1,0.1,1.3c1,1.4,2,2.9,3.1,4.3c1.8,2.4,3.6,4.8,5.4,7.2c0.4,0.5,0.8,1.1,1,1.8c-0.2-0.1-0.4-0.2-0.6-0.4
				c-0.7-0.7-1.5-1.4-2.1-2.2c-2.3-2.8-4.6-5.6-7-8.4c-0.3-0.3-0.6-0.7-1.1-1.1c-0.2,0.8,0.2,1.2,0.4,1.5c1.8,2.4,3.6,4.8,5.4,7.3
				c0.6,0.8,1.2,1.6,1.8,2.5c0.2,0.3,0.3,0.6,0.3,1.1c-2-2.1-3.9-4.1-5.9-6.2c0,0-0.1,0.1-0.1,0.1c0.9,2.1,1.7,4.2,2.6,6.3
				c0.1,0.2,0.2,0.4,0.4,0.6c1.8,1.6,3.6,3.2,5.4,4.9c0.8,0.7,1.6,1.5,2.4,2.3c-0.1,0.1-0.1,0.2-0.2,0.3c-0.7-0.5-1.5-0.9-2.2-1.4
				c-0.7-0.5-1.4-1.1-2.1-1.6c-0.7-0.6-1.4-1.2-2.2-1.7c-0.7-0.5-1.4-1-2.2-1.6c-0.1,1,0.3,1.5,0.9,2c2.2,1.8,4.4,3.7,6.6,5.5
				c0.9,0.8,1.7,1.6,2.5,2.4c0.3,0.3,0.5,0.8,0.6,1.3c-3.7-2.2-6.8-5-10.4-7.7c0.2,0.9,0.6,1.4,1.1,1.9c1.3,1.2,2.6,2.3,3.8,3.6
				c1,1,1.9,2.2,2.9,3.2c-0.1,0.1-0.1,0.2-0.2,0.3c-0.3-0.1-0.5-0.2-0.8-0.4c-2.5-2.1-4.9-4.1-7.3-6.2c-2.7-2.3-5.4-4.7-8.2-7
				c-0.2-0.1-0.4-0.2-0.6-0.4c-0.9,0.6-0.5,1.2-0.1,1.8c0.9,1.4,1.9,2.8,2.9,4.2c2.4,3,4.9,6,7.3,9c1.1,1.4,2.2,2.9,3.3,4.4
				c0.3,0.5,0.5,1.1,0.9,2c-1.3-0.6-2-1.4-2.7-2.1c-3.2-3.8-6.4-7.6-9.7-11.5c-0.1-0.1-0.2-0.3-0.3-0.5c-0.1,0.1-0.2,0.2-0.3,0.2
				c0.3,0.5,0.7,1,1,1.5c2.4,3.4,4.8,6.8,7.2,10.3c0.7,1,1.2,2.2,1.5,3.5c-1-0.5-1.5-1-2.4-2.2c-1.2-1.8-2.5-3.5-3.7-5.2
				c-0.3-0.4-0.6-0.7-1-1c-0.4-0.7-0.8-1.3-1.1-2c-0.1,0.1-0.2,0.1-0.3,0.2c0.4,0.7,0.7,1.4,1.4,1.8c0.2,0.5,0.4,1,0.7,1.4
				c1.5,2.2,3,4.4,4.5,6.6c0.6,0.9,1.1,1.8,1.6,2.7c-0.1,0.1-0.2,0.2-0.3,0.2c-0.3-0.3-0.7-0.5-1-0.8c-2.1-2.1-3.8-4.5-5.6-6.9
				c-2.4-3.3-4.7-6.6-7-9.8c-0.3-0.4-0.6-0.7-0.9-1c-0.1,0.1-0.2,0.1-0.3,0.2c0.2,0.5,0.4,0.9,0.6,1.3c2.6,3.8,5.1,7.7,7.7,11.5
				c1.3,1.9,2.6,3.9,3.8,5.9c0.4,0.6,0.6,1.2,0.9,1.8c-0.1,0.1-0.2,0.1-0.2,0.2c-0.5-0.4-1-0.8-1.4-1.3c-2.3-3-4.5-6-6.7-9
				c-1.6-2.3-3.2-4.6-4.8-6.9c-0.3-0.4-0.6-0.7-1-1c-1.4,1.1-1.7,1.7-1.1,3.1c0.8,1.9,1.7,3.7,2.7,5.5c3.2,5.9,7.1,11.4,11,16.8
				c0.4,0.6,0.9,1.2,0.7,2.2c-1.5-1-2.6-2.2-3.6-3.6c-4.4-6.1-8.6-12.5-12.2-19.1c-0.1-0.2-0.2-0.3-0.5-0.6c0.1,1.3,0.4,2.4,1,3.3
				c1.7,2.9,3.5,5.8,5.3,8.7c1.1,1.8,2.3,3.6,3.3,5.5c0.6,1.1,1,2.3,1.5,3.5c-0.8,0.1-1-0.4-1.2-0.7c-1.9-2.9-3.8-5.8-5.7-8.6
				c-0.7-1-1.4-2.1-2.2-3.4c0,1.2,0.4,1.8,0.8,2.5c1.3,1.9,2.6,3.8,3.9,5.8c1.1,1.7,2.1,3.4,3,5.1c0.3,0.5,0.4,1.1,0.5,1.8
				c-2.1-2-3.6-4.6-5.5-6.8c2.2,7.2,4.1,14.5,5.5,22c-0.8-0.6-1.1-1.5-1.4-2.3c-0.5-1.5-0.9-3-1.3-4.5c-0.9-3.2-1.8-6.3-2.8-9.5
				c-0.2-0.8-0.5-1.6-0.9-2.4c1.3,5.6,2.7,11.3,3.6,17c-1.8-3-2.3-6.3-3.4-9.6c0.5,2.5,1,5.1,1.5,7.6c-0.1,0-0.2,0-0.3,0.1
				c-2.6-9.2-5.3-18.3-8.6-27.4c-1.1,1.6-3.3,7.9-3.3,9.1c1.6-0.5,1.6-0.5,2,0.4c-0.4,0.3-0.8,0.6-1.3,0.9c-1,0.6-1.4,1.4-1.4,2.5
				c0,2.7-0.4,5.3-0.9,7.9c0,0.2-0.1,0.3-0.4,0.5c0-1.2,0-2.3,0-3.8c-1,0.9-0.8,1.9-0.9,2.7c-0.2,0.9-0.3,1.8-0.4,2.7
				c-0.1,0-0.2,0-0.3,0c-0.1-0.5-0.3-1-0.5-1.7c-0.7,0.5-0.9,1-1,1.7c-0.3,1.8-0.6,3.6-0.9,5.5c-0.1,0.5-0.3,0.9-0.5,1.6
				c-0.2-0.4-0.2-0.5-0.3-0.6c-0.1-0.1-0.1-0.2-0.3-0.5c-0.3,0.3-0.6,0.6-0.7,0.9c-2,3.3-4.4,6.3-6.9,9.1c-1,1.1-1.9,2.1-3,3.2
				c-0.5,0.4-0.6,0.9-0.7,1.5c-0.2,3-0.4,6-0.6,9c0,0.5-0.2,1-0.5,1.5c-0.1-0.3-0.3-0.6-0.3-0.9c-0.4-1.7-0.8-3.4-1-5.1
				c-0.1-1,0-2,0-3c0-1.2,0-2.3-0.1-3.5c-0.4-3.9-0.8-7.7-1.2-11.6c-0.3-2.5-0.7-5-1-7.5c0-0.4-0.2-0.7-0.5-1
				c0.4,6.4,0.8,12.8,1.3,19.1c0.6,7.4,0.7,17.7,0,19.2c-0.9-0.4-1.8-0.8-2.7-1.3c-0.2-0.1-0.4-0.5-0.5-0.9
				c-0.1-0.5-0.2-1.1-0.2-1.6c0.2-4.7-0.2-9.3-0.8-13.9c-0.2-1.8-0.2-3.7-0.4-5.5c-0.5-4.6-0.9-9.2-1.4-13.7c0-0.2-0.1-0.5-0.1-0.7
				c-0.1-1.6-0.2-1.6-2-1.6c0.1,1.4,0.2,2.8,0.4,4.2c1,7.6,1.3,15.2,1.4,22.8c0.1,3,0,6,0.1,9c0,0.4,0.2,0.9,0.5,1.1
				c0.6,0.5,1.3,0.9,1.9,1.2c2,1,4.1,2,6.2,2.9c0.9,0.4,1.4,1,1.7,1.8c0.4,1,0.9,2,1.2,3c1.1,3,3,5.5,5,8c1.4,1.7,2.8,3.4,4.3,5.3
				c-0.9,0-1.6-0.4-2.2-0.9c-0.9-0.8-1.7-1.6-2.5-2.4c-1.6-1.8-3.2-3.5-4.6-5.4c-1-1.4-1.7-3.2-2.4-4.8c-1.4-3.3-1.4-3.3-4.7-4.7
				c-0.9-0.4-1.9-0.8-2.9-1.2c-0.5,0.9-1.2,0.5-1.8,0.2c-3.5-2-7.1-4-10.7-6c-2.2-1.2-4.4-2.5-6.6-3.7c-0.4-0.2-0.8-0.4-1.6-0.7
				c0.6,1.7,1.1,3,1.6,4.3c-0.1,0-0.1,0.1-0.2,0.1c-0.3-0.4-0.7-0.8-1-1.3c-0.3-0.5-0.4-1.1-0.7-1.6c-0.6-1.5-1.5-2.7-3-3.6
				c-3.1-1.8-5.6-4.3-7.7-7.2c-1.3-1.8-3-3.2-4.8-4.5c-1.8-1.3-3.6-2.5-5.5-3.6c-0.8-0.5-1.8-0.6-2.8-0.9c-4.1-1.2-8-2.8-11.7-4.7
				c-0.8-0.4-1.6-0.7-2.6-1.1c0.1,2.3,0.2,4.3,2.1,5.7c0.7,0.5,1.4,1.2,2,1.9c0.7,0.7,1.4,1.2,2.4,1.1c0.3,0.5,0.6,1,0.8,1.5
				c0.8-0.1,1.4-0.1,2.2-0.2c0.2,2.1,1.7,3.4,3.3,4.6c-0.1,0.2-0.4,0.4-0.4,0.6c0,0.3,0.1,0.6,0.3,0.8c1.1,1.6,2.2,3.2,3.3,4.8
				c2.1,3,4.3,6,6.3,9.1c1.1,1.7,1.8,3.5,2.7,5.3c0.1,0.1,0.1,0.3,0.1,0.4c0.1,0.7,0.1,1.4,0.3,2.1c0.1,0.8,0.3,1.6,0.3,2.5
				c-0.6-0.9-1.2-1.7-1.7-2.7c-0.3-0.6-0.6-0.9-1.3-1c-1.3-0.2-2.6-0.6-3.6,0.7c-0.5-0.2-0.9-0.3-1.5-0.5c-0.4,0.7-0.7,1.4-1.2,2.2
				c-0.6-0.5-1.1-0.8-1.8-1.3c-0.4,0.2-0.8,0.4-1.3,0.5c-1,0.4-1.5,1.3-2.7,1.5c-1,0.1-1.9,0.8-2.8,1.3c-0.7,0.4-1.3,0.9-2.1,1.4
				c-0.7-0.3-1.5,0.2-2.2,0.6c-3.6,1.9-7.2,3.8-10.8,5.7c-4.8,2.5-9.6,5.1-14.6,7.3c-4.6,2.1-9.4,3.8-14.2,5.7
				c-0.4,0.2-0.9,0.2-1.3,0.3c0-0.1-0.1-0.2-0.1-0.3c0.5-0.3,1-0.5,1.5-0.8c1.8-0.9,3.6-1.8,5.5-2.7c1.4-0.7,2.8-1.2,4.2-1.9
				c4.5-2.2,9-4.4,13.4-6.6c3.6-1.9,7.2-3.9,10.8-5.8c1-0.5,1.4-1.2,1.3-2.4c-0.8-4.9-1.5-9.9-2.2-14.8c-0.2-1.3-0.3-2.7-0.1-4
				c0.3-2.1-0.4-4.1-0.7-6.1c-0.1,0-0.2,0-0.3,0c0,1,0,1.9,0,2.9c-0.1,0-0.2,0-0.3,0c-0.2-0.7-0.5-1.3-0.7-2c-0.1,0-0.2,0-0.2,0
				c0,1.4,0,2.9,0,4.6c-0.7-0.8-1-1.2-0.8-2.2c0.2-1,0-2.2-0.1-3.3c0-0.2-0.3-0.5-0.5-0.7c-1.7-1.2-2.8-2.8-4.1-4.4
				c-2.1-2.5-4.3-4.9-6.9-6.8c-1-0.7-2.1-1.3-3.1-2.1c-2-1.5-3.9-3.1-5.8-4.6c-2.1-1.6-4.2-3.3-6.4-4.9c-2.1-1.5-4.2-3-6.3-4.5
				c-0.4-0.3-0.8-0.5-1.2-0.6c5,4.3,10,8.5,14.9,12.9c4.8,4.4,9.5,8.9,13.9,13.8c-0.1,0.1-0.2,0.2-0.2,0.3c-0.5-0.4-1-0.7-1.4-1.1
				c-1.9-1.8-3.6-3.6-5.5-5.4c-2-1.9-4.1-3.8-6.3-5.7c-3.7-3.2-7.5-6.5-11.3-9.6c-2.9-2.4-6-4.7-9.1-7.2c-0.4,0.3-0.7,0.6-1,0.9
				c-1.4,1.7-2.6,3.5-3.3,5.6c-1.2,3.8-2.4,7.6-3.6,11.4c-0.3,0.8-0.3,1.6,0.3,2.4c0.2-0.1,0.4-0.2,0.7-0.3c0.1,0.2,0.3,0.5,0.4,0.7
				c2.4,5.7,5.4,11.1,8.6,16.4c2,3.4,4,6.8,6,10.2c0.2,0.4,0.5,0.8,0.1,1.4c-0.8,0-1.2-0.5-1.6-1.1c-1-1.6-1.9-3.1-2.9-4.7
				c-2.1-3.4-4.3-6.8-6.3-10.3c-1.2-2.1-2.2-4.4-3.3-6.6c-0.7-1.4-1.4-2.8-2.1-4.2c-0.1-0.1-0.3-0.2-0.6-0.5
				C53.9,237.1,53.9,238.2,54,239.3L54,239.3z M156.5,34.2c0.2,0.3,0.4,0.7,0.6,1c0.1-0.1,0.2-0.2,0.3-0.2
				C157.1,34.7,156.8,34.5,156.5,34.2c-0.2-0.3-0.4-0.7-0.6-1.1c-0.1,0.1-0.2,0.1-0.2,0.2C156,33.6,156.3,33.9,156.5,34.2z
				 M223,174.1c-0.2-0.3-0.4-0.7-0.6-1c-0.1,0.1-0.2,0.1-0.3,0.2C222.4,173.5,222.7,173.8,223,174.1c0.2,0.3,0.4,0.7,0.6,1.1
				c0.1-0.1,0.2-0.1,0.3-0.2C223.6,174.6,223.3,174.4,223,174.1z M123.6,36.3c-0.1-0.9-0.7-1.4-1.4-1.8c-0.6-1.3-2.3-3.3-3.3-3.7
				c0.7,0.9,1.2,1.6,1.8,2.3c0.5,0.5,1,1,1.5,1.4C122.7,35.1,123.1,35.7,123.6,36.3c0.4,0.6,0.8,1.2,1.4,1.5
				C124.6,37.2,124.4,36.4,123.6,36.3z M174.9,41.8c-0.2-0.4-0.4-0.8-0.6-1.2c-0.1,0.1-0.2,0.1-0.3,0.2
				C174.4,41.1,174.6,41.4,174.9,41.8c0,0.4,0.1,0.8,0,1.3c-0.1,1.2,0,1.3,1.3,1.4C176,43.2,175.7,42.6,174.9,41.8z M127.9,201.6
				c0.5,0.3,1,0.6,1.6,1c-0.8-2.3-1.8-3.5-3.2-3.9C126.6,200.1,126.6,200.1,127.9,201.6c-0.4,1.3-0.1,1.8,1.3,2.5
				C128.7,203.3,128.3,202.4,127.9,201.6z M252.7,91.8c-0.7-0.1-0.9,0.2-0.8,0.8c0.2,1.6,0.4,3.3,0.6,4.9c0,0.1,0.2,0.2,0.3,0.3
				c0.6-1.2,0.6-2.4,0.4-3.6C253.1,93.4,252.9,92.6,252.7,91.8c-0.1-0.8-0.2-1.7-0.4-2.7C251.8,90.2,251.7,91.1,252.7,91.8z
				 M226.6,171.5c0.4-0.3,0.8-0.6,1.3-1c-0.2-0.4-0.4-0.9-0.7-1.4c-1.9-3.1-3.8-6.2-5.7-9.2c-0.2-0.3-0.5-0.6-0.9-1
				c-0.1,1.2-0.6,2.1,0,3C222.6,165.1,224.6,168.3,226.6,171.5c1.7,2.1,3.3,4.3,4.9,6.5c0.9,1.1,2,2,3.3,3c0.3-1.5,0.5-2.7,0.7-3.9
				c0.2-1.1,0.2-1.2-0.8-1.5c-2.7-0.8-5.3-1.8-7.5-3.7C227.1,171.7,226.8,171.6,226.6,171.5z M112.6,210.8c-0.8-0.3-1.6-0.6-2.6-1
				c0.2,1,0.1,1.9,0.5,2.5c0.7,1.1,1.6,2.1,2.4,3.1c1.4,1.6,2.8,3.1,4.2,4.6c1.5,1.6,2.7,3.4,4.4,4.8c0.8,0.7,1.4,1.6,2.2,2.3
				c2.1,1.8,4.5,3.2,7.2,4.1c2.2,0.7,3.9,2,5.5,3.7c0.4,0.5,0.9,0.9,1.3,1.4c0.1-0.1,0.2-0.2,0.3-0.2c-1.2-2.1-1.8-4.5-3.4-6.3
				c-1.6-1.7-3.2-3.5-4.8-5.2c0.1-0.1,0.1-0.1,0.2-0.2c1.5,1.3,3,2.7,4.4,4c0.1-0.1,0.1-0.2,0.2-0.2c-3.4-3.9-6.8-7.7-10.5-11.3
				c3.9,2.8,7.1,6.3,10.4,9.7c0.3-0.9-0.2-1.3-0.6-1.7c-3.2-3.6-6.5-7-10.2-10c-2.6-2.1-5.4-4-8.1-6c-0.9-0.6-1.7-1.2-2.7-1.7
				c-1-0.4-1.8-1.3-3-1.2c-0.2,0.8,0.1,1.4,0.8,1.7c0.7,0.3,1.3,0.6,2,1c0.6,0.3,1.3,0.5,1.8,1.3c-1.7-0.7-2.9-1.6-4.5-2.1
				c-0.1,0.9,0,1.3,0.7,1.7C111.4,209.8,111.9,210.3,112.6,210.8L112.6,210.8z M114.7,76c0,0.2,0,0.4,0.1,0.6
				c1.1,2.1,2.7,3.7,4.4,5.3c0.3,0.3,0.8,0.5,1.3,0.1c-1.4-1.6-2.8-3.1-4.2-4.6C115.8,76.9,115.2,76.5,114.7,76
				c-0.3-0.8-0.3-1.6-0.9-2.4c-1.8-2.3-2.8-4.9-3.3-7.7c-0.3-1.7-0.8-3.4-0.4-5.2c0.4-1.8,1.1-3.3,2.5-4.5c1.9-1.7,3.9-3.4,6-4.8
				c2-1.3,4.2-2.5,6.5-3.1c1-0.3,2-0.6,3.1-0.9c2.1-0.6,4.2-1.3,6.3-1.7c4-0.9,8.1-1.2,12.3-1.4c6.3-0.2,12.6,0.1,18.8,1.7
				c2.4,0.6,4.7,1,7.1,1.5c5.7,1.1,11.4,2.4,16.5,5.4c0.2,0.1,0.4,0.1,0.5,0.2c3.2,1.2,6.3,2.4,9.5,3.6c0.3,0.1,0.5,0.2,0.8,0.4
				c1.4,0.8,2.7,1.7,4.1,2.5c3.3,2,6.7,3.9,10,6c3.4,2.2,6.8,4.5,10.1,6.9c2.2,1.6,4.3,3.5,6.4,5.2c0.1,0.1,0.2,0.1,0.3,0.1
				c-0.2-0.2-0.3-0.3-0.5-0.5c0.5-0.1,1-0.1,1.7-0.2c-2.3-1.9-4.2-3.6-6.2-5.3c-0.2,0.1-0.5,0.2-0.7,0.3c-0.2-0.5-0.3-1.2-0.6-1.4
				c-1.8-1.3-3.7-2.6-5.6-3.9c-0.1,0-0.2,0-0.3,0c-0.2,0.3-0.4,0.5-0.7,0.9c-0.4-0.5-0.8-0.9-1-1.4c-0.4-0.9-1-1.5-1.9-1.9
				c-0.5-0.2-1-0.5-1.5-0.8c-4.2-2.3-8.5-4.7-12.7-7c-0.9-0.5-1.9-1-2.7-1.7c-2.6-1.9-5.5-3.2-8.6-4.4c-0.1,0.2-0.1,0.4-0.2,0.6
				c-0.3,0.7-0.8,0.8-1.3,0.3c-0.2-0.2-0.3-0.5-0.4-0.7c-0.2-0.5-0.6-0.8-1.2-1c-3.5-1.2-7-2.5-10.5-3.8c-4.1-1.6-8.3-2.8-12.6-3.4
				c-2.2-0.3-4.3-0.5-6.5-0.7c-2.8-0.2-5.5-0.5-8.3-0.5c-3.2,0-6.5,0.2-9.7,0.4c-0.9,0-2-0.1-2.5,1c-0.6-0.3-1.2-0.5-1.7-0.7
				c-0.8-0.2-0.8,0.8-1.2,1.1c-0.2-0.1-0.5,0-0.6-0.2c-0.8-0.6-1.5-0.5-2.3-0.2c-1.9,0.7-3.8,1.3-5.6,1.9c-1.9,0.6-3.5,1.8-5.3,2.6
				c-2.2,1-4,2.6-5.8,4.3c-2.2,2.2-2.9,5.1-4.3,7.7c-0.1,0.1,0,0.3-0.1,0.4c-0.1,2.1-0.3,4.2,0.4,6.3c0.4,1.1,0.6,2.4,0.8,3.5
				C111.1,72.4,112.6,74.4,114.7,76z M220.8,113.8c0.8-0.7,1.5-1.1,1.8-1.8c0.6-1.2,1-2.4,1.2-3.7c0.2-1,0.3-1.9,0.7-2.8
				c0.4-0.8,0.8-1.8,0.2-2.8c-0.8,0.3-1.3,1.6-2.4,0.5c0.1-0.4,0.2-0.8,0.4-1.2c1.8-4.3,1.8-8.7,1-13.2c-0.4-2.2-0.8-4.4-0.2-6.5
				c0.4-1.6,0.3-3.2,0.3-4.7c0-1.5-0.6-2.5-1.6-3.4c-0.3-0.3-0.6-0.7-0.9-1.1c-0.4-0.5-0.8-1.1-1.3-1.5c-2.4-1.6-4.8-3.1-7.2-4.7
				c-5.9-3.8-12.1-7.1-18.6-9.9c-3.8-1.7-7.6-3.1-11.7-3.8c-2.7-0.4-5.3-1.1-8.1-0.4c-0.2,0.1-0.5-0.1-0.7-0.1
				c-0.5-0.1-1-0.3-1.6-0.3c-3,0.1-5.9,0.2-8.9,0.3c-5.2,0.3-10.3,1.2-15.4,2.4c-2.3,0.6-4.7,1.3-6.9,2.2c-2.2,0.9-4.7,1.4-6.2,3.6
				c-1.5,0.5-2.3,1.7-3.2,2.8c-1.4,1.7-3,3.4-4,5.3c-1.8,3.3-3.1,6.9-4.6,10.3c-0.3,0.7-0.5,1.5-0.6,2.2c-0.1,2.3-0.2,4.6-0.3,7
				c0,0.5,0,1-0.2,1.4c-0.4,0.7-0.4,1.3-0.4,2.1c0.1,0.7,0,1.5-0.1,2.2c-0.4,3.2-0.9,6.3-1.4,9.5c-0.2,1.7-0.3,3.4,0.9,4.8
				c0.3,0.4,0.6,0.9,0.8,1.4c1.7,3.2,3.4,6.4,5.1,9.6c0.2,0.4,0.6,0.9,0.1,1.5c-0.2-0.3-0.3-0.6-0.5-0.8c-0.1,0.1-0.1,0.1-0.2,0.2
				c0.2,0.6,0.3,1.2,0.5,1.8c-0.1,0-0.2,0.1-0.3,0.1c-2-3.5-3.5-7.2-6-10.3c0.2,1.7,0.7,3.2,1,4.8c0.8,3.7,1.5,7.4,2.3,11.1
				c1.3,6.4,2.7,12.7,4.6,18.9c0.2,0.6,0.4,1.2,0.3,1.7c-0.2,0.8,0.1,1.5,0.4,2.2c1.4,3.2,2.8,6.4,4.2,9.6c0.2,0.5,0.6,1,0.2,1.9
				c-1.6-2.3-2.7-4.5-3.8-6.8c-1.1-2.3-2.1-4.6-3.2-7.2c-0.2,1.3,0,1.9,0.5,2.8c1,2,1.9,3.9,2.8,5.9c1.3,2.8,2.3,5.7,3.9,8.3
				c3.2,5,6.6,9.8,10.1,14.6c1.3,1.8,3,3.2,5.4,3.7c2.5,0.5,5,1.1,7.5,1.6c1,0.2,2,0.3,3,0.4c0.5,0,1-0.1,1.6,0
				c1.4,0.2,2.8,0.5,4.2,0c0.7-0.2,1.3-0.6,2-0.8c2.7-0.9,5.4-1.6,8-2.6c4.5-1.6,5-2,7.6-6c0.3-0.5,0.6-1,0.9-1.5
				c0.2-0.3,0.4-0.6,0.9-1.2c-0.2,1.9-1.4,3.1-1.9,4.9c1.5-1,2-2.6,3.3-3.5c0,1.2-1.5,1.7-0.9,3.2c0.4-0.5,0.8-0.7,1.1-1.1
				c1-1.8,2-3.6,3-5.4c0.2-0.4,0.3-0.9,1.1-1c-0.3,1.1-0.6,2-0.9,2.9c-0.2,0.9-1,1.6-0.8,2.7c1.7-2.1,2.8-4.5,4.1-6.9
				c0,2-1.2,3.6-1.5,5.7c0.6-0.2,1.1-0.4,1.5-0.6c1.3-0.6,2.5-1.2,3.8-1.9c1.9-0.9,3.7-2.1,5.3-3.5c1-0.9,2.2-1.5,3.4-2.2
				c2.6-1.5,5.1-3,6.6-5.7c1-1.8,2.1-3.6,3-5.5c0.5-1,0.9-2.1,1.1-3.3c0.8-3.9,1.5-7.8,2.3-11.7c0.1-0.4,0.2-0.9,0.5-1.6
				c0.2,0.6,0.3,0.8,0.4,1.2c0.5-1.9,1.1-3.6,1.6-5.4c0.5,1.3,0,2.5,0.5,4.1c0.8-1.9,1.5-3.5,2.2-5.1c0.3-0.6,0.3-1.3,0.1-2
				c-0.1-0.3,0-0.7,0.1-1.1c0.1-0.4,0.3-0.8,0.3-1.3c0.7-5.2,0.4-10.4-0.6-15.5c0-0.1-0.2-0.2-0.3-0.3c-0.2,0.4-0.4,0.7-0.7,1.3
				c-0.2-0.7-0.4-1.2-0.6-1.7C221.6,113.7,221.3,113.7,220.8,113.8z M232.8,43.8c0.1,0.2,0.3,0.3,0.3,0.5c0.8,2.4,1.8,4.7,2.4,7.1
				c1.1,4.3,2.1,8.6,3.1,12.9c0.2,1,0.4,2.1,0.6,3.1c0.2,0.9,0.6,1.8,1.5,2.4c0.6-1.1,0.4-2.2,0.2-3.2c-0.9-6.1-2.6-12-4.4-17.9
				c-0.3-1.2-0.6-2.4-0.8-3.6c3.7,7.6,5.3,15.8,6.9,24c0.1-0.6,0.3-1.1,0.4-1.7c0.1,0,0.2,0,0.3,0c1,3.6,1,7.3,2.2,10.9
				c0.4-0.1,0.6-0.2,0.8-0.3c0.3,1.5,0.5,2.9,0.7,4.3c0.1,0.5,0.2,1,0.5,1.3c0.7,0.6,0.8,1.4,1,2.2c0.1,0.4,0.2,0.9,0.3,1.3
				c0.1,0,0.1,0,0.2,0c-0.1-2.5-0.2-4.9-0.3-7.4c0.1,0,0.1,0,0.2,0c0.2,0.4,0.4,0.8,0.7,1.4c0.3-1.6,0.4-3,0.1-4.3
				c-0.5-1.8-1-3.6-1.5-5.5c-0.2-0.9-0.6-1.7,0-3c0.5,1.3,1,2.3,1.4,3.4c0.1,0,0.1,0,0.2-0.1c0.1-2.2,0.2-4.3,0.3-6.5
				c0.7,1.6,0.5,3.2,1.3,4.7c0.8,1.4,0.9,3.1,1.7,4.5c0.1,0,0.2,0,0.3-0.1c0-3.2,0-6.4,0-9.6c0.2,0.1,0.3,0.3,0.3,0.4
				c0.2,2.8,0.4,5.5,0.6,8.3c0.1,1,0,1.9,0.1,2.9c0.1,1.1,0.4,2,1.4,3c0.1-2,0.2-3.7,0.1-5.4c0-1.3-0.3-2.7-0.4-4c0-1,0.1-2,0.1-3
				c0.4,1.2,0.6,2.5,0.6,3.7c0.1,4,0.1,8,0.1,11.9c0,1.3,0.2,2.6,0.8,3.8c0.2-0.6,0.3-1.3,0.3-1.9c0-2,0.1-4,0-6
				c-0.1-4.4-0.4-8.7-0.6-13.1c0-0.3-0.2-0.7-0.3-0.9c-1.4-2.4-2.8-4.9-4.2-7.3c-1.1-1.8-2.2-3.6-3.7-5c-0.7-0.6-1.2-1.4-1.7-2.2
				c-2.9-4-5.8-8-9.5-11.4c-0.7-0.7-1.4-1.4-2.1-2.1c-2.4-2.5-5.2-4.6-8.1-6.4c-2.7-1.7-5.3-3.3-7.8-5.3c-1.6-1.3-3.4-2.4-5.4-3
				c-1.8-0.6-3.6-1.2-5.4-1.8c-2.1-0.7-4.2-1.5-6.3-2.2c-1.6-0.5-3.3-0.9-4.9-1.2c-4.6-0.9-9.1-2.5-13.8-3c-3.2-0.4-6.3-1-9.5-1.3
				c-1.8-0.2-3.7-0.2-5.5-0.4c-6.1-0.6-12.2-0.2-18.3,0.7c-2.2,0.4-4.4,0.9-6.2,2.2c-1.7,1.2-3.6,2.4-5.4,3.4
				c-2.7,1.5-5.5,2.9-8.2,4.3c-0.3,0.2-0.6,0.4-1.1,0.8c5.6,1,10.9,2,16.5,2.9c-1-1.9-3-2.6-3.6-4.4c0.4,0.2,0.8,0.4,1.1,0.6
				c1.5,1.3,3,2.6,4.5,3.9c0.8,0.7,1.6,0.9,2.7,0.9c-0.8-1.5-2.1-2.4-3.5-3.1c-0.6-0.3-1.2-0.5-1.4-1.2c0.2-0.1,0.4-0.2,0.7-0.4
				c-0.7-0.7-1.3-1.3-2-2c-0.5-0.5-1.1-1.1-1.6-1.7c-0.1-0.2,0-0.5,0-0.8c0.1,0,0.2-0.1,0.4-0.1c1.9,1.7,3.7,3.4,5.7,5.2
				c0-0.3,0-0.5,0-0.8c1.9,0.9,3.1,2.9,5.6,3.3c-0.5-0.6-0.7-1-1.1-1.3c-1-1.1-2.1-2.2-3.1-3.3c-0.5-0.5-1-1.1-0.9-2.1
				c2.5,2.3,5,4.5,7.6,6.8c0.1-0.1,0.1-0.1,0.2-0.2c-0.3-0.6-0.7-1.2-1.1-2c0.3,0.1,0.4,0.1,0.5,0.2c2.1,2,4.3,4,6.4,6.1
				c1.3,1.4,2.9,2.3,4.7,3.1c0-0.5,0-0.7,0-1.1c0.4,0.3,0.7,0.5,1,0.7c1.4,1.1,2.7,2.4,4.5,3c0.2,0.1,0.5,0.3,0.6,0.2
				c1.2-0.8,1.7,0.3,2.4,0.8c0.4,0.3,0.8,0.7,1.2,1.1c0.1-0.1,0.2-0.1,0.3-0.2c-0.2-0.5-0.5-1-0.7-1.5c-0.2-0.4-0.5-0.8-0.5-1.2
				c0.3-1.1-0.4-1.8-1-2.6c-0.7-0.9-0.7-0.9-0.4-2.2c2,2.7,4,5.3,6,7.9c0.6-0.9,1.1-0.2,1.5,0.3c0.6,0.6,1.2,0.7,2.1,0.4
				c-0.9-1.5-1.8-3-2.7-4.4c-2.6-4-5.6-7.7-9.1-11c-0.4-0.4-1-0.8-0.9-1.7c0.4,0.2,0.6,0.3,0.8,0.5c2.7,2.4,5.3,4.9,7.4,7.8
				c1.9,2.7,3.7,5.4,5.5,8.2c0.6,0.9,1.3,1.2,2.4,1c-3.3-5.6-7.1-10.6-10.6-15.9c2.1,1.9,3.9,4.1,5.5,6.4c2,2.9,4,6,6,9
				c0.3,0.5,0.7,0.8,1.4,0.9c0.9,0.1,1.8,0.3,2.7,0.5c2.7,0.5,5.4,1,8.1,1.6c0.4,0.1,0.8,0.1,1.2,0.1c0.3-2-1.3-3.1-1.5-4.8
				c0.8,1,1.6,2,2.1,3.1c0.6,1.2,1.4,2,2.8,2c0.5-1.4-0.5-2.4-0.8-3.7c0.6,0.6,1.2,1.2,1.5,2c0.8,2,2.2,3.3,4.2,4.1
				c0.5,0.2,1,0.6,1.8,1c-0.7-2.1-1.9-3.6-1.9-5.6c0.4,0.4,0.8,0.8,1.1,1.3c1,1.7,2,3.4,3,5.1c0.3,0.5,0.5,1.1,1.5,1.2
				c-0.6-1-0.4-2-1.1-2.8c-0.7-0.8-1-2-1.5-3c1.4,1.1,2.3,2.6,3,4.1c0.7,1.5,1.6,2.9,3.4,3.3c0.3,0.1,0.7,0.2,0.9,0.4
				c0.4,0.3,0.8,0.5,1.1,0.9c0.4,0.5,0.7,0.9,1.3,1c0.6-0.5,0.8-1.1,0.5-1.7c-0.8-2.5-1.5-5-2.3-7.5c-0.3-1-0.6-2-0.9-3
				c0.3,0.4,0.6,0.8,0.8,1.3c1.8,3.9,3.3,7.9,4.5,12c0.4,1.5,2.1,3,3.6,3.5c0-0.3,0-0.6-0.1-0.9c-1-3.1-1.8-6.3-3-9.3
				c-1.4-3.5-3-6.8-4.6-10.2c-0.5-1-0.5-1-0.2-2.2c0.3,0.5,0.6,0.9,0.8,1.3c3,5.1,5.2,10.5,7,16.1c0.7,2.1,1.2,4.3,1.7,6.5
				c0.3,1.2,0.9,2,2.1,2.6c-0.3-1.3-0.7-2.6-1.1-3.9c-0.8-2.5-1.9-5-2.1-7.7c0-0.5-0.2-0.9-0.4-1.4c-0.9-2.3-1.8-4.6-2.6-6.9
				c-0.2-0.6-0.3-1.3-0.5-2.2c0.4,0.3,0.5,0.3,0.6,0.5c0.3,0.4,0.5,0.8,0.7,1.3c2.2,4.7,4.2,9.5,5.4,14.6c0.7,2.7,1.4,5.4,2,8
				c0.2,1,0.7,1.8,1.6,2.4c0-0.4,0-0.6,0-0.9c-0.7-3.1-1.2-6.2-2.1-9.2C234.4,50.9,233.3,47.5,232.8,43.8z M190.4,180
				c-0.8,0.3-1.2,0.4-1.7,0.6c-2.5,1-5,2-7.4,3c-4.5,1.8-9.1,3-13.8,3.8c-2,0.3-4.2,0.5-6.2,0.4c-5-0.4-9.7-2.1-14.5-3.6
				c-0.2-0.1-0.5-0.1-0.9-0.2c0.3,2.5,0.6,4.9,0.8,7.2c0.3,2.6,0.4,5.1,0.7,7.7c0.8,5.5,2.2,10.8,4.4,15.9c2.3,5.1,1.4,4.4,6.8,5.5
				c3,0.7,6.1,1.4,9.2,0.8c0.3-0.1,0.6,0,0.9,0.1c0.7,0.1,1.4,0.4,2.1,0.4c0.9,0.1,1.8-0.1,2.7-0.4c0.9-0.3,1.9,0,2.8,0.1
				c0.3,0,0.6-0.1,0.8-0.2c4.2-1.8,8.2-4,12.1-6.3c0.3-0.2,0.7-0.6,0.8-1c0.2-0.9,0.8-1,1.4-0.7c0.2-0.9,0.3-1.8,0.6-2.6
				c1.1-3.2,2.3-6.5,3.5-9.7c0.2-0.5,0.2-1,0.3-1.5c0.2-1.1,0.5-2.2,1.2-3.1c1-1.2,1.7-2.5,0.8-4.1c-0.1-0.2-0.2-0.5-0.2-0.7
				c0-0.5,0.1-1.1,0.1-1.6c0.1,0,0.2,0,0.3,0c0.4,0.9,0.7,1.7,1.2,2.8c0.4-0.6,0.8-1,1-1.4c0.7-1.2,1.3-2.5,2.2-3.6
				c1.3-1.5,1.8-3.5,3.2-5c0,0,0-0.1,0-0.1c0.7-1.6,1.4-3.2,2.2-4.7c0.4-0.8,0.5-1.5,0.3-2.2c0.5-0.3,0.9-0.6,1.3-0.8
				c-0.2-1.1-1.3-1.7-0.9-3.1c0.6,0.7,1.1,1.2,1.7,1.8c0.2-0.5,0.4-0.8,0.5-1.2c0.6-1.3,0.8-2.7,1.6-4c0.5-0.8,0.5-1.8,0.8-2.7
				c-0.7,0.2-1.2,0.6-1.7,1c-2.3,1.9-4.6,3.8-6.9,5.6c-1.3,1-2.6,2-4,2.8c-2.7,1.6-5.5,3-8.3,4.5c-0.1,0.1-0.2,0.2-0.3,0.4
				c0.1,0.3,0.3,0.6,0.4,0.9c0.6,0.1,1.1,0.1,1.6,0.2c0.2,1.1-0.4,1.9-0.7,2.7c-2,4.6-4.3,9.1-7.4,13.2c-2,2.7-3.9,5.4-5.9,8.1
				c-0.2,0.2-0.4,0.4-0.7,0.5c-0.1-0.1-0.2-0.1-0.2-0.2c1.4-3.1,3.7-5.7,5.2-8.8c-1.3,0.7-1.7,2.2-3.1,2.8c0.1-0.6,0.3-1.1,0.5-1.6
				c0.9-1.4,1.8-2.8,2.7-4.2c2.4-3.7,4.4-7.5,5.8-11.7C190.2,181.1,190.3,180.7,190.4,180z M232.1,134.1c1.3,0.1,2.2-0.3,2.8-1.5
				c0.7-1.2,1.4-2.3,2-3.5c0.8-1.4,1.7-2.9,2.3-4.4c1.3-3.4,2.6-6.9,3.7-10.4c0.7-2.2,1.5-4.5,1.4-6.9c-0.1-1.4,0-2.8,0-4.2
				c0-0.5,0.1-1-0.1-1.4c-0.5-1.7-0.5-3.4-0.6-5.2c-0.1-1-0.3-2-0.6-3c-0.3-0.9-1-1.1-1.8-0.5c-0.2,0.1-0.3,0.3-0.4,0.4
				c-2,1.8-4.1,3.5-6.1,5.3c-0.4,0.3-0.7,0.8-0.8,1.3c-0.6,1.7-1.2,3.4-1.8,5.1c-0.3,0.8-0.7,1.4-1.5,1.8c-0.8,0.4-1.7,1.1-1.6,2.2
				c0.1,1,0.4,1.9,0.7,3.2c1.2-1.9,2.2-3.5,3.3-5.2c1.1-1.6,2.2-3.2,3.3-4.8c1.1-1.6,2.2-3.2,3.2-4.8c1.5,1.6,1.9,3.5,1.8,5.5
				c-0.1,2.6-0.3,5.2-0.6,7.8c-0.1,1.2-0.7,2.3-1.2,3.4c-0.4,1.1-0.4,2.4-1.6,3.1c-1.2,2.3-2.4,4.7-3.5,7c-0.4,0.8-0.8,1.4-1.4,1.9
				c-1.5-0.6-1.7-0.4-1.6,1c0,0.2,0,0.4,0,0.6c0.1,1.4,0.1,1.4,1.5,1.7c0.1,0,0.1,0.1,0.2,0.3c-0.5,0.2-0.9,0.5-1.4,0.7
				C231.8,131.7,231.6,132.9,232.1,134.1z M108.6,195.4c0,0.8-0.1,1.3-0.1,1.7c0.3,2.2,0.7,4.3,1,6.5c0.1,0.7,0.5,1.1,1.1,1.4
				c3.6,1.8,7.1,3.9,10.4,6.4c4.1,3.1,7.9,6.4,11.5,10c0.2,0.2,0.5,0.4,0.8,0.7c0.1-0.2,0.1-0.2,0.1-0.3c-0.6-2-1.2-3.9-1.6-5.9
				c-0.4-2-1.2-3.9-1.6-6c-0.3-1.5-1.8-2.4-3.1-3.2c0.6,2.8,1.7,5.5,1.9,8.3c-1.1-2.2-2.3-4.4-3-6.7c-0.8-2.8-2.2-4.9-4.8-6.4
				c-2.8-1.6-5.5-3.4-8.5-4.8C111.6,196.6,110.2,196.1,108.6,195.4z M155.1,221c0.2,1.3,0.4,2.4,0.6,3.4c0.9,4.6,1.4,9.3,1.5,14
				c0,1.6,0.1,3.2,0.2,4.8c0.3,3.2,0.6,6.4,0.3,9.6c0,0.6-0.1,1.3-0.1,1.9c0,0.3,0,0.7,0.2,0.8c0.7,0.6,1.5,1.2,2.5,1.4
				c0-0.4,0.1-0.7,0.1-0.9c0-1.4-0.1-2.7-0.1-4.1c-0.1-4-0.1-7.9-0.2-11.9c-0.1-3.8-0.5-7.6-1.1-11.4c-0.3-2.1-0.6-4.2-0.9-6.2
				C157.2,221.9,156.2,221.5,155.1,221z M141.9,225.1c-0.1,0-0.2,0.1-0.3,0.1c0.1,0.3,0.2,0.5,0.3,0.8c1,2.2,2,4.3,2.9,6.5
				c1,2.4,2,4.9,3,7.4c0.2,0.4,0.5,0.9-0.2,1.2c-1.5-3-2.8-6.1-4.5-9c1.4,3.9,3.2,7.6,4.5,11.6c-0.3-0.4-0.4-1-0.7-1.3
				c-0.3-0.4-0.9-0.6-1.2-1c-0.7-1-1.4-1.9-2-3c-1.2-2.3-2.3-4.6-3.4-6.9c-1.7-3.3-3.3-6.7-5-10c-0.3-0.5-0.6-1-0.9-1.5
				c0,1.3,0,2.6,0.8,3.5c1.1,1.1,1.8,2.4,2.4,3.8c2.7,5.7,5.4,11.4,8.1,17.1c1.1,2.5,3.2,4.1,5.3,5.7c0.1,0,0.2,0,0.4,0
				c0-0.8,0-1.6-0.1-2.4c-0.2-1.5-0.5-3.1-0.6-4.6c0-1.5-0.4-3-1-4.4c-0.8-2.2-1.7-4.4-2.6-6.6c-1.4-3.2-2.9-6.3-4.4-9.5
				c-0.6-1.2-1.2-2.3-1.9-3.5c-0.1,0-0.2,0.1-0.3,0.1c0.1,0.3,0.2,0.5,0.3,0.8c1.8,3.9,3.6,7.9,5.3,11.8c0.9,2,1.8,4,1.9,6.6
				C145.8,233.7,144.1,229.2,141.9,225.1z M118,83.9c-0.8,0.1-1.3,0.3-1.8,0.2c-0.7-0.1-1,0.2-1.2,0.7c-0.1,0.6-0.2,1.2-0.2,1.9
				c0,1.6,0.1,3.3,0.1,4.9c0.1,1.3,0,2.6,0.3,3.9c0.5,2.3,1.1,4.6,1.7,6.9c0.2,0.8,0.6,1.5,1.4,2c0.6-4,1.2-7.9,1.8-11.7
				c0.3-2.1,0.6-4.1,0.5-6.2c0-0.8-0.2-1.3-1-1.6C119.1,84.6,118.5,84.2,118,83.9z M126.4,196.3c-0.1-0.3-0.3-0.6-0.4-0.9
				c-1.3-3-2.7-6-4.1-9c-0.4-0.8-0.9-1.7-1.6-2c-1.3-0.7-2.6-1.4-3.8-2.1c-0.1,0-0.2,0-0.5,0c-1.1,2-2.3,4.1-3.6,6.3
				c2.5,1.2,4.8,2.3,7.4,3.6c-0.1-1.9-1.1-3.3-1.5-4.8c1,1.7,1.9,3.5,2.8,5.2c0.2,0.4,0.4,1,1.3,1.1c-1-2.7-1.9-5.3-2.9-8.1
				c0.3,0.5,0.6,0.8,0.7,1.1c1.3,2.5,2.6,5.1,3.9,7.7C124.7,195.3,125.3,195.9,126.4,196.3z M241.2,91.9c-0.2-0.5-0.3-0.8-0.4-1.1
				c-0.7-1.6-1.5-3.1-2.2-4.7c-1.1-2.5-2.5-4.9-4.4-7c-0.5-0.5-0.9-1.1-1.8-1.3c0,0.5,0,0.9,0,1.5c1-0.3,1.1,0.4,1,1
				c0,1.1,0.4,2,1,2.8c1.6,2.5,3.1,5,3.6,8c0.1,0.7,0.2,1.4,1,2C239.7,92.9,240.4,92.4,241.2,91.9z M88.5,219.7
				c-0.1,0.2-0.1,0.4-0.1,0.4c1.5,2.8,2.2,6.1,4.7,8.4c0.7,0.6,1.2,1.3,1.7,1.9c0.8,0.9,1.5,1.9,2.2,2.9c1,1.4,1.9,2.8,2.8,4.2
				c0.1,0.2,0.4,0.3,0.7,0.6c0-0.8-0.1-1.3-0.1-1.8c0.1-1.2-0.5-2.1-1.3-2.9c-0.8-0.7-1.4-1.6-2-2.5c-1.8-3-4-5.8-6.3-8.5
				C90.2,221.5,89.4,220.7,88.5,219.7z M247.4,192.9c-0.1,0.1-0.2,0.2-0.3,0.2c0.1,0.2,0.1,0.3,0.2,0.5c1.3,2.2,2.6,4.4,3.9,6.7
				c0.6,1,1.4,1.8,2.4,2.5c1.1,0.7,2,1.5,3,2.2c0.7,0.5,1.4,1.1,2,1.6c0.1-0.4,0-0.7-0.1-1c-0.7-1.2-1.4-2.5-2.2-3.6
				c-2.2-3-4.6-6-6.8-9c-0.2-0.3-0.5-0.4-0.8-0.6c-0.1,0.1-0.1,0.1-0.2,0.2c1.7,2.5,3.4,5,5.1,7.5c-0.1,0.1-0.2,0.2-0.3,0.2
				C251.4,197.8,249.4,195.4,247.4,192.9z M221.5,66.6c-0.1-0.6-0.2-1.1-0.3-1.5c-0.6-1.7-1.2-3.4-1.9-5c-1.5-3.5-3-7-4.5-10.4
				c-0.7-1.5-1.9-2.4-3.4-3.1c0.4,1.2,0.9,2.3,1.5,3.4c2.4,4.4,4.5,8.9,5.9,13.7C219.2,65.1,220,65.9,221.5,66.6z M150,236.6
				c0.1,0,0.2,0,0.3-0.1c0-0.2,0-0.3,0-0.5c0.3-2.8-0.8-5.3-1.9-7.8c-1.4-3.5-3.2-6.8-4.7-10.3c-0.5-1.2-1.2-1.8-2.6-1.7
				C144.7,222.8,147.5,229.7,150,236.6z M85.1,200.4c-1.8,0.5-2,0.8-1.5,2.3c1,2.6,2.1,5.2,3.2,7.8c0.9,2,2.5,3.4,4.1,4.8
				C89.1,210.3,87.1,205.3,85.1,200.4z M217.7,160.8c-0.1,0.3-0.3,0.6-0.3,0.7c0.2,0.7,0.3,1.5,0.7,2c2.4,3.6,4.8,7.2,7.3,10.8
				c2.2,3.1,4.8,5.9,7.7,8.5c0.3,0.2,0.6,0.4,0.9,0.6c0.6-0.9,0-1.3-0.5-1.7c-1.5-1.5-3.1-2.9-4.5-4.5c-3.2-3.9-6.2-7.9-8.7-12.3
				C219.6,163.6,218.7,162.3,217.7,160.8z M209.3,59.7c0.1-0.1,0.2-0.1,0.3-0.2c-0.2-0.5-0.3-1.1-0.5-1.6c-0.6-1.4-1.2-2.8-1.9-4.2
				c-1.6-3.2-3.3-6.3-4.4-9.8c-0.1-0.2-0.3-0.5-0.6-0.6c-0.7-0.2-1.5-0.3-2.6-0.6c0.5,0.9,0.9,1.4,1.2,2c2,3.3,3.9,6.7,5.4,10.3
				c0.4,1,0.8,1.9,0.1,2.9C207.4,58.6,208.4,59.2,209.3,59.7z M125.6,174.5c1,1.3,0.9,2.8,2,3.7c-0.5-1.7-0.9-3.3-1.4-5
				c0.7,1,1.1,2.2,1.6,3.3c0.5,1,0.5,2.3,1.4,3.1c-0.6-2.6-1.4-5.1-2.3-7.6c-0.3-0.7-0.8-1.4-1.6-1.9c-1.3,1.5-3,2.5-4.1,4.3
				c1.6,1,3.2,2,4.9,3C126,176.3,125.9,175.5,125.6,174.5z M79.7,215.2c0.1-0.1,0.2-0.2,0.3-0.2c-1.1-3-2.3-6-3.5-9.1
				c-1.4,0.8-2.6,1.4-3.7,2.7C75,211,77.3,213.1,79.7,215.2z M220,50.9c0.2,0.7,0.4,1.2,0.6,1.7c0.6,1.3,1.3,2.5,1.8,3.8
				c1.2,3,2.4,6.1,3.6,9.2c0.5,1.4,1.2,2.9,1.2,4.3c0,1.5,0.9,1.9,1.8,2.6c0-0.8-0.1-1.5-0.3-2.2c-1.9-6.2-4.7-12.1-7.1-18.1
				C221.4,51.5,220.9,51.1,220,50.9z M245,206.2c0.1,0,0.2-0.1,0.2-0.1c-0.5-1.3-0.8-2.7-1.4-3.9c-1.9-3.8-4.6-7.2-7.1-10.6
				c-0.2-0.2-0.4-0.4-0.7-0.6c-0.3,0.5-0.5,0.9-0.6,1.2C238.6,197,241.8,201.6,245,206.2z M123.1,186c-0.1,0.1-0.2,0.1-0.2,0.2
				c1.1,2.1,2.3,4.1,3.3,6.2c1,2.1,2,4.2,2.9,6.3c0.1,0,0.2-0.1,0.3-0.1c0.2-1.1,0.2-2.3-0.2-3.3c-0.2-0.6-0.4-1.2-0.1-1.8
				c0.3-0.7,0.1-1.3-0.4-1.9c-0.8-0.8-1.5-1.8-2.3-2.6C125.3,188,124.2,187,123.1,186z M79.9,209.8c-0.1,0-0.2,0.1-0.3,0.1
				c0.3,0.9,0.6,1.8,1,2.7c1.3,3.4,2.7,6.7,6,8.7c0.4,0.2,0.7,0.6,1,0.8c0.1-0.1,0.1-0.2,0.2-0.2C85.5,217.7,83.5,213.2,79.9,209.8z
				 M106.8,33.8c1.2,1.2,2.3,2.2,3.3,3.2c2.8,2.8,5.9,5.4,8,8.8c0.1,0.2,0.5,0.2,0.7,0.3c0.1-0.2,0.3-0.5,0.2-0.7
				c-0.1-0.3-0.3-0.6-0.5-0.8c-1.6-2-3.2-4-4.9-6c-1.5-1.8-3.1-3.5-4.7-5.3C108.2,33.4,107.6,33.6,106.8,33.8z M119,122.8
				c0.2,0.8,0.4,1.4,0.6,2c0.1,0.2,0.5,0.4,0.8,0.4c0.4,0,0.7-0.3,0.6-0.8c-0.1-1.7-0.2-3.4-0.5-5c-0.7-4.2-1.4-8.4-2.1-12.6
				c-0.1-0.5-0.1-1-0.6-1.2c0,1.4,0.1,2.9,0,4.2c-0.3,2-0.1,3.8,0.5,5.7c0.3,1.2,0.8,2.3,1.1,3.5c0.4,1.4,0.7,2.9,1.1,4.6
				C119.9,123.3,119.6,123.2,119,122.8z M97.8,221.7c-2-5.3-5.1-9.9-8.2-14.9c0.3,1.7,6,14.8,6.5,14.9c0.1-0.4,0.1-0.7,0.2-1.2
				C96.9,220.9,97.4,221.3,97.8,221.7z M123.7,202.4c-0.1-1.1-0.7-1.6-1.3-2.1c-3.4-2.4-6.9-4.6-10.8-6.3c-0.3-0.1-0.6-0.4-0.9-0.5
				c-0.5-0.1-1-0.1-1.2,0.5c-0.3,0.6,0.1,0.9,0.6,1.1c0.2,0.1,0.5,0.2,0.7,0.3c2.5,1.2,5.1,2.4,7.5,3.7
				C120.1,200.1,121.8,201.2,123.7,202.4z M145.8,40c-0.1-0.3-0.2-0.6-0.3-0.8c-0.8-1.3-1.6-2.7-2.6-3.9c-2-2.6-4.1-5.1-6.1-7.7
				c-0.7-0.9-1.6-1.3-2.9-1.5c0.3,0.4,0.5,0.7,0.7,0.9c2.6,3.2,5.3,6.4,7.9,9.7c0.7,0.8,1.2,1.8,1.8,2.7
				C144.6,39.9,145,40.4,145.8,40z M235.1,77.9c0.4-1.1,0.4-1.4,0-2.9c-0.6-2.3-1.3-4.6-1.9-6.8c-0.7-2.6-1.5-5.2-2.2-7.8
				c-0.4-1.7-1.4-2.9-3.1-3.8c0.1,0.4,0.1,0.5,0.2,0.7c1.4,3.5,2.8,7,4.1,10.5c1.2,3.2,2.3,6.4,2.5,9.9
				C234.8,77.7,234.9,77.7,235.1,77.9z M110.4,187.9c1.2-2.1,2.3-4.1,3.3-6c0.1-0.1,0.2-0.3,0.2-0.4c0-0.2,0-0.5-0.2-0.6
				c-0.1-0.1-0.5-0.1-0.6,0c-0.4,0.2-0.7,0.5-1.1,0.8c-1.1,0.9-2.2,1.8-3.3,2.6c-1.3,1-1.4,1-0.9,2.9
				C108.6,187.3,109.5,187.6,110.4,187.9z M104.3,34.8c0.3,0.4,0.5,0.6,0.7,0.9c2.4,2.5,4.9,5.1,7.3,7.6c1.1,1.1,2,2.3,3,3.5
				c0.5,0.6,0.9,0.7,1.4-0.2c-1.1-1.3-2.1-2.7-3.3-4c-2.5-2.7-5-5.2-7.5-7.9C105.5,34.2,105,34.3,104.3,34.8z M173.6,243.1
				c0.7-0.5,0.8-0.9,0.7-1.5c-0.1-1.7-0.2-3.5-0.3-5.2c-0.2-3.4-0.4-6.8-0.7-10.1c0-0.7-0.2-1.3-0.3-2c-0.1-0.4-0.3-0.8-0.9-0.6
				C172.7,230.1,173.1,236.5,173.6,243.1z M113.1,32.3c0.5,0.6,0.9,1.2,1.3,1.7c1.9,2.1,3.9,4.2,5.7,6.3c0.8,0.9,1.5,2,2.3,3
				c0.4,0.6,0.9,0.6,1.4,0c-0.6-0.8-1.2-1.7-1.8-2.5c-2.4-2.8-4.8-5.6-7.2-8.5C114.3,31.8,113.8,32,113.1,32.3z M148.9,39.8
				c-0.1-0.2-0.1-0.4-0.2-0.5c-2.2-4-5.1-7.4-7.9-11c-0.4-0.6-1.1-0.7-2-0.7c0.4,0.5,0.6,0.9,0.9,1.2c1.1,1.3,2.2,2.6,3.2,3.9
				c1.5,2.1,2.9,4.2,4.3,6.4C147.9,40,147.8,40.1,148.9,39.8z M129.3,24.9c0.6,0.7,1,1.1,1.5,1.6c1.5,1.7,3,3.3,4.4,5
				c2.1,2.5,4.1,5.2,6.2,7.7c0.3,0.4,0.5,0.9,1.3,1c-0.2-0.4-0.2-0.7-0.4-0.9c-0.6-0.9-1.2-1.9-1.9-2.7c-2.9-3.6-5.9-7.2-8.8-10.8
				C131.1,25.1,130.4,24.9,129.3,24.9z M140.1,40.1c-1.9-2.5-3.7-4.9-5.6-7.1c-2.4-2.8-5-5.5-7.6-8.2c0,0-0.1,0-0.1,0
				c0,0-0.1,0.1-0.1,0.1c0,0,0,0.1,0,0.1c0.4,0.5,0.9,0.9,1.3,1.4c3.6,4.3,7.5,8.4,10.2,13.3C138.6,40.6,139.1,40.6,140.1,40.1z
				 M123.7,29.3c0.1,0.2,0.1,0.3,0.2,0.5c2.9,3.7,5.9,7.3,8.9,11c0.1,0.2,0.5,0.1,0.8,0.2c-0.1-0.4-0.1-0.6-0.2-0.7
				c-2.6-3.6-5.2-7.2-7.8-10.8C125,28.6,124.4,28.7,123.7,29.3z M121.6,196.4c-0.8-2.1-0.8-2.1-2.4-3c-0.7-0.4-1.4-0.8-2.2-1.1
				c-1.7-0.8-3.4-1.5-5.1-2.2c-0.7,1.2-0.7,1.2,0.2,1.6c2.9,1.5,5.8,3,8.6,4.4C120.9,196.1,121.2,196.2,121.6,196.4z M201,54.5
				c-0.4-0.9-0.6-1.6-0.9-2.1c-1.9-3.4-3.8-6.9-5.7-10.3c-0.1-0.2-0.5-0.2-0.7-0.3c0,0.6,0.1,0.9,0.3,1.3c1.6,3.3,3.2,6.6,4.7,10
				C199.1,54,199.8,54.3,201,54.5z M231,122.1c0.1,0,0.3,0,0.4,0.1c0.5-1.2,1-2.4,1.5-3.6c0.3-0.8,0.6-1.6-0.5-2
				c-0.2-0.1-0.2-0.4-0.3-0.6c-0.6-0.8-1.2-1.5-2.2-2C230.2,116.8,230.6,119.4,231,122.1z M118.7,177.9c3.2,2.3,6.4,4.5,9.6,6.7
				c0-0.9-0.3-1.7-1-2.2c-0.8-0.7-1.7-1.3-2.6-1.9c-1.8-1.2-3.5-2.3-5.4-3.5C119.1,177.3,118.9,177.6,118.7,177.9z M114,48.6
				c0.1-0.1,0.2-0.2,0.3-0.2c-0.1-0.6-0.5-1-0.9-1.4c-2.8-3-5.5-6.1-8.3-9.1c-0.6-0.6-1-1.3-1.6-1.8c-0.1-0.2-0.5-0.1-0.7-0.2
				c0,0.3-0.1,0.5-0.1,0.8c0,0.1,0.1,0.3,0.2,0.4c0.6,0.6,1.2,1.3,1.8,1.9c3.1,2.9,6,5.9,8.7,9.2C113.6,48.3,113.8,48.5,114,48.6z
				 M231.2,128.8c-0.1-0.8,0-1.8-0.4-2.2c-0.8-0.7-0.6-1.4-0.5-2.2c0-0.6,0-1.3-0.2-1.9c-0.2-1.4-0.5-2.8-0.8-4.1
				c-0.5-2.5-1-5-1.4-7.5c-0.2,0.4-0.2,0.7-0.2,1c0.5,3.8,1,7.6,1.5,11.4c0.2,1.4,0.3,2.9,0.4,4.3
				C229.8,128.5,229.9,128.6,231.2,128.8z M258.4,97.2c1-2.2,1.5-14,0.6-15.8c-0.1,0.3-0.1,0.6-0.1,0.8c-0.3,3.9-0.6,7.7-0.9,11.6
				C258,94.8,257.7,96,258.4,97.2z M115.8,31.4c0.7,0.8,1.1,1.3,1.6,1.9c2,2.2,3.9,4.4,5.9,6.6c0.7,0.8,1.3,1.7,1.9,2.5
				c0.2,0.2,0.5,0.3,0.7,0.4c0.1-0.1,0.2-0.2,0.2-0.3c-2.5-4.1-6.3-7.2-8.8-11.4C116.9,31.2,116.5,31.3,115.8,31.4z M101.4,37.6
				c-0.1,0-0.1,0.1-0.2,0.1c0,0.3,0,0.6,0.1,0.8c0.6,0.8,1.1,1.6,1.8,2.3c3,2.9,6.1,5.7,8.6,9c0.1,0.2,0.4,0.3,0.6,0.4
				c0.1-0.1,0.2-0.1,0.2-0.2c-0.3-0.5-0.6-1-1-1.4c-2.9-3.1-5.8-6.2-8.7-9.4C102.4,38.7,101.9,38.1,101.4,37.6z M143.7,28.8
				c-0.1,0.1-0.2,0.2-0.3,0.3c1,1.3,2.1,2.6,3.1,4c1.4,2.1,2.8,4.2,4.2,6.2c0.3,0.5,0.6,1.1,1.5,0.7c-0.1-0.2-0.1-0.5-0.3-0.7
				c-2.4-3.3-4.8-6.6-7.3-9.9C144.4,29.2,144,29,143.7,28.8z M184.8,40.4c-0.1,0.1-0.1,0.2-0.2,0.3c1.3,2.6,2.5,5.2,3.9,7.8
				c0.3,0.6,0.9,0.8,1.5,0.9c0-0.2,0.1-0.3,0.1-0.4c-1-2.9-2.8-5.4-4.4-8C185.5,40.6,185.1,40.5,184.8,40.4z M110.7,33
				c0.7,0.8,1.2,1.4,1.8,2.1c0.6,0.7,1.1,1.3,1.7,2c0.6,0.7,1.2,1.3,1.8,1.9c0.6,0.7,1.2,1.4,1.8,2.1c0.6,0.7,1.1,1.4,1.7,2
				c0.6,0.6,0.8,1.5,1.9,1.8c-0.7-1.6-1.7-2.6-2.6-3.7c-2.3-2.8-5.1-5.3-7-8.6C111.5,32.7,111.2,32.8,110.7,33z M259.1,219.5
				c0-0.1,0.1-0.1,0.1-0.2c-2.5-2.2-5-4.3-7.5-6.5c-0.1-0.1-0.2-0.1-0.3-0.1c0,0-0.1,0-0.1,0c0,0-0.1,0.1-0.1,0.1c0.4,1,2.4,4,3,4.6
				c0.2,0.1,0.4,0.3,0.6,0.3c1.3-0.2,2.2,0.4,3.1,1.1C258.4,219.1,258.8,219.3,259.1,219.5z M255.1,102.8c1-0.5,0.9-1.4,1.1-2.1
				c0.4-2-0.2-6.3-1-7.7c-0.1,3.2-0.2,6.2-0.3,9.3C254.8,102.5,255,102.6,255.1,102.8z M225,112.6c-0.7,0.3-0.8,0.7-0.7,1.2
				c0.3,1.5,0.5,3.1,0.8,4.6c0,0.2,0.1,0.4,0.2,0.5c0.6,0.5,0.5,1.1,0.4,1.7c-0.1,1.5-0.1,2.9,0.3,4.5c0.4-1.2,0.6-2.2,0.5-3.3
				c-0.4-2.5-0.8-5-1.1-7.5C225.3,113.8,225.1,113.2,225,112.6z M154.7,40.5c0.1-0.1,0.2-0.2,0.3-0.3c-0.1-0.3-0.2-0.5-0.3-0.8
				c-2.1-3-4.2-6.1-6.3-9.1c-0.2-0.3-0.6-0.4-1-0.7c-0.1,0.1-0.1,0.2-0.2,0.2c0.2,0.3,0.4,0.6,0.6,0.9c2,2.9,4,5.8,6,8.7
				C154.2,40,154.5,40.2,154.7,40.5z M219.8,55.7c0,0.2,0.1,0.4,0.1,0.5c1.4,3.8,3.1,7.5,3.7,11.6c0.1,0.7,0.5,1.3,1.5,1.5
				C223.6,64.6,222.3,59.9,219.8,55.7z M143,242.5c0.1-0.1,0.2-0.2,0.3-0.3c-1.8-3.7-3.6-7.4-5.5-11c-0.2,0.3-0.2,0.5-0.2,0.6
				c1.1,2.6,2.1,5.2,3.2,7.8C141.5,240.7,142.3,241.6,143,242.5z M112.5,268.5c0.2-3.6-0.3-9.1-1-10.6
				C110.4,259.9,111.3,264.7,112.5,268.5z M111.2,52.2c0.1-1-0.7-1.4-1.2-2.1c-0.5-0.6-1-1.2-1.5-1.8c-0.5-0.6-1.1-1.2-1.7-1.8
				c-0.5-0.6-1.1-1.1-1.6-1.6c-0.6-0.5-1.1-1-1.7-1.6c0,0.5,0.1,1,0.3,1.2c2.3,2.5,4.6,5,6.9,7.5C110.8,52.1,110.9,52.1,111.2,52.2z
				 M227.3,121.1c0.8-0.3,0.9-0.7,0.8-1.3c-0.2-0.6-0.3-1.2-0.4-1.8c-0.3-1.9-0.6-3.9-1-5.8c0-0.3-0.3-0.5-0.5-0.9
				c-0.2,0.4-0.4,0.6-0.3,0.7C226.4,114.9,226.8,117.9,227.3,121.1z M149.6,227.5c0.1,0,0.3,0,0.4-0.1c-0.3-3.2-2-5.8-3.3-8.6
				c-0.2-0.4-0.4-0.9-1.1-0.9C146.9,221.2,148.3,224.4,149.6,227.5z M201.2,49c0.7,1.4,0.5,3.1,1.3,4.5c0.3,0.6,0.6,1.3,0.7,2
				c0.2,0.8,0.7,1.2,1.5,1.3C204.7,55.3,202.5,50.4,201.2,49z M121.1,183.2c0.5,1.2,1.7,1.7,2.6,2.4c0.9,0.8,1.9,1.7,2.9,2.4
				c0.9,0.7,1.5,1.9,2.8,2.5c-0.1-0.5-0.1-0.8-0.2-1C126.9,186.9,124.1,185,121.1,183.2z M188,40.8c-0.1,0.1-0.1,0.1-0.2,0.2
				c0.1,0.3,0.2,0.5,0.3,0.8c1.5,2.8,3.3,5.4,4.2,8.4c0.2,0.5,0.6,0.8,1.5,0.5c-1.8-3.3-3.5-6.5-5.3-9.7
				C188.4,40.9,188.1,40.8,188,40.8z M258.9,75.8c0.1,0,0.2,0,0.3,0c0-0.5,0-1,0-1.5c0-0.5-0.1-1,0-1.4c0.6-1.4,0.2-2.8,0.1-4.1
				c-0.1-0.8-0.3-1.6-1.3-2.1C258.4,69.8,258.7,72.8,258.9,75.8z M229.7,67.2c0,0.5,0,0.8,0.1,1.1c0.3,1.1,0.6,2.3,1,3.3
				c0.3,0.9,0.5,1.7,0,2.7c0.6,0.4,1.1,0.8,1.7,1.2C232.5,73.8,230.7,68.4,229.7,67.2z M121.8,29.6c-0.1,0.4-0.2,0.6-0.1,0.7
				c2.5,3.1,5.1,6.3,7.6,9.4c0.1-0.1,0.2-0.1,0.2-0.2C127.3,36,124.5,33,121.8,29.6z M117.9,179.3c1.8,1.5,3.8,2.5,5.6,3.9
				c1.9,1.4,3.7,2.9,5.5,4.4C127.7,185.4,120.8,180.2,117.9,179.3z M191.2,41.2c-0.1,0.1-0.2,0.1-0.3,0.2c0.3,1,0.6,2,1.1,2.9
				c1.7,2.5,3.1,5.1,4,8c0,0.1,0.2,0.1,0.5,0.2c-1-3.8-3.3-6.9-4.7-10.3C191.7,41.7,191.4,41.4,191.2,41.2z M130.3,58.9
				c0.1-0.1,0.1-0.1,0.2-0.2c-0.1-0.1-0.2-0.3-0.4-0.4c-3-1.8-6.1-3.6-9.1-5.4c-0.1-0.1-0.4,0-0.6,0c0,0.1,0,0.2-0.1,0.2
				C123.7,55.1,127,57,130.3,58.9z M207,44.1c-0.1,0.1-0.2,0.2-0.3,0.3c1.4,2.7,2.8,5.5,4.2,8.2c0.1-0.1,0.2-0.1,0.4-0.2
				c-1-2.6-2.3-5.2-3.6-7.7C207.5,44.5,207.2,44.3,207,44.1z M120.5,175.6c0.4,0.9,1.3,1.2,2,1.7c0.8,0.6,1.6,1.1,2.4,1.7
				c0.7,0.4,1.2,1.2,2.2,1.2C125.5,177.8,122.9,176.8,120.5,175.6z M74.5,214.5c0.1-0.1,0.2-0.2,0.2-0.3c-1.3-1.3-2.6-2.6-3.9-3.8
				c-0.6-0.6-0.8-0.5-1.6,0.5C71.4,211.4,72.4,213.7,74.5,214.5z M154.7,35.9c0.1,0.3,0.1,0.6,0.2,0.8c0.6,1.1,1.2,2.3,1.9,3.4
				c0.3,0.5,0.7,0.6,1.3,0.3C157.2,38.7,156.5,36.9,154.7,35.9z M228.5,84.6c-0.4,0.3-0.7,0.3-0.7,0.5c-0.5,1.9-0.7,3.9-0.6,5.9
				C228,89.1,228.5,87.1,228.5,84.6z M70.5,215.4c0.1-0.1,0.2-0.1,0.2-0.2c-0.7-0.7-1.3-1.3-2-2c-0.2-0.2-0.5-0.5-0.6-0.8
				c-0.3-1.2-0.3-1.2-1.5-0.8c-0.2,0.1-0.4,0.1-0.8,0.3C67.6,213.2,69.1,214.3,70.5,215.4z M131.9,193.4c1.6,2.6,4.9,6.3,6.5,7.1
				C136.2,198.1,134.4,195.7,131.9,193.4z M261,85.1c-0.1,2.4-0.3,4.8-0.4,7.2C261.5,91.1,261.7,87,261,85.1z M229.7,129.8
				c0,1.7,0,3.1,0,4.4c0,0.2,0.3,0.3,0.6,0.7c0.2-1.6,0.4-3,0.6-4.6C230.7,130.2,230.4,130.1,229.7,129.8z M105.6,49.1
				c0.3,1.2,3.5,4.9,4.4,5.3C109.8,53.4,107.7,50.7,105.6,49.1z M237.2,75.9c-0.1,0.2-0.2,0.2-0.1,0.3c0.2,1.7,0.4,3.5,0.6,5.2
				c0,0.4,0.2,0.8,1,0.9c-0.3-2.1-0.6-4.1-1-6.1C237.6,76.1,237.4,76,237.2,75.9z M109.9,264.8c-0.1,0-0.2,0-0.2,0
				c0.1,1.7,0.2,3.4,0.3,5.3c0.5-0.3,0.9-0.5,1.3-0.7C110.8,267.8,110.4,266.3,109.9,264.8z M83.2,206.5c0.1,0,0.1-0.1,0.2-0.1
				c-0.4-1.1-0.8-2.2-1.2-3.3c-0.1-0.2-0.6-0.4-0.9-0.4c-0.3,0-0.6,0.3-0.7,0.6c-0.1,0.4,0.2,0.6,0.6,0.8c0.3,0.1,0.6,0.5,0.8,0.8
				C82.4,205.4,82.8,206,83.2,206.5z M226.7,60.4c0.1,0,0.2-0.1,0.3-0.1c-0.3-0.8-0.5-1.6-0.8-2.4c-0.3-0.8-0.7-1.6-1-2.4
				c-0.7-1.6-0.7-1.6-1.5-2C224.8,55.8,225.8,58.1,226.7,60.4z M170.6,38.3c-0.2,0.2-0.2,0.3-0.2,0.3c0.6,1.4,1.2,2.7,1.8,4.1
				c0.2,0.4,0.6,0.6,1.3,0.3C172.5,41.5,171.6,39.9,170.6,38.3z M216.6,164.4c0.4,1.6,3.2,5.8,4.4,6.6
				C219.5,168.9,218.1,166.7,216.6,164.4z M105.3,236.3c0.2,1.7,0.4,3.3,0.6,5.1C106.7,240,106.4,237.7,105.3,236.3z M253.6,102.5
				c-0.1,0-0.2,0-0.3,0c-0.4,1.1-0.8,2.2-0.7,3.7c0.4-0.3,0.7-0.4,0.7-0.6C253.4,104.5,253.5,103.5,253.6,102.5z M214.4,159.6
				c2-1.9,2.3-2.3,2.1-3.9C215.7,157.1,215.1,158.4,214.4,159.6z M79.3,204.2c-1.1,0.4-1.4,0.6-1.2,1.3c0.2,0.6,0.5,1,1.2,0.7
				C79.3,205.5,79.3,204.9,79.3,204.2z M196.5,42.4c0.2,1.2,1.1,2.5,2.2,3.3C198,44.4,197.9,43,196.5,42.4z M117,180.9
				c0.8,1,1.8,1.6,3.3,2C119.3,181.6,118.2,181.1,117,180.9z M122.2,198.9c0.1-0.1,0.1-0.2,0.2-0.3c-1.6-1.1-3.2-2.1-5.1-2.7
				C119,196.8,120.6,197.9,122.2,198.9z M158.1,35.8c-0.1,0.1-0.2,0.1-0.3,0.2c0.8,1.5,1.9,2.9,2.8,4.3c0.1-0.1,0.2-0.1,0.3-0.2
				C160,38.7,159,37.2,158.1,35.8z M133,35.6c0.9,1.3,1.8,2.7,2.8,4.2C135.6,38.5,134.4,36.6,133,35.6z M117.8,122.7
				c-0.9,1.9-0.8,2.6,0.4,2.7C118.1,124.4,117.9,123.5,117.8,122.7z M213.3,182.5c-0.1,0.1-0.2,0.2-0.3,0.3c1,0.9,2.1,1.9,3.1,2.8
				c0.1-0.1,0.2-0.2,0.2-0.3C215.5,184.2,214.3,183.4,213.3,182.5z M109.6,189.3c-0.5-0.2-1-0.4-1.4-0.5c-0.6,0.7-0.5,1.1,0.2,1.4
				C109,190.5,109.5,190.4,109.6,189.3z M130.8,173.8c0.1-0.1,0.2-0.1,0.2-0.2c-0.4-1.1-1.2-2-2.2-2.6c-0.1,0.1-0.2,0.1-0.2,0.2
				C129.3,172.1,130.1,172.9,130.8,173.8z M148.3,219c0.4,0.8,0.7,1.3,1,1.9C150.4,219.6,150.3,219.4,148.3,219z M107.8,54.9
				c-0.1,0-0.2,0.1-0.3,0.1c0.3,0.9,0.6,1.7,1,2.8C109.5,56.3,108.1,55.8,107.8,54.9z M227.9,130.7c-0.4,1.7-0.3,3,0.4,3.9
				C228.2,133.1,228.1,131.9,227.9,130.7z M252,77.4c0.1-1.4,0.1-1.4-0.7-2.6C251.3,75.8,251,76.6,252,77.4z M214.2,180.3
				c0.6,1.1,1,2,2.1,2.4C215.9,181.6,215.4,180.8,214.2,180.3z M232.1,90.4c-0.1,0-0.2,0-0.3-0.1c-0.2,1-0.4,2.1-0.6,3.1
				c0.1,0,0.2,0,0.3,0C231.6,92.4,231.8,91.4,232.1,90.4z M116.3,266.6c1.2-0.5,1.2-0.8,0.5-2.2
				C116.6,265.1,116.4,265.8,116.3,266.6z M123.9,198.1c0-1.5,0-1.5-1.1-2.2C123.3,196.8,123.6,197.4,123.9,198.1z M125.9,203
				c0.3,1.5,0.3,1.5,1.5,1.8C126.9,204.2,126.5,203.7,125.9,203z M122.7,131.3c-0.4,1.5-0.4,1.5,0.4,2.6
				C123,132.9,122.9,132.1,122.7,131.3z M152.6,220.2c-0.1,0.7,0,1.1,0.5,1.6C153.5,221,153.5,220.5,152.6,220.2z M100.1,54.6
				c0.1,1.4,0.1,1.4,0.9,1.5C100.7,55.6,100.4,55.1,100.1,54.6z M122.7,27.6c0.5,0.2,1,0.2,1.2-0.5C123.2,26.6,122.9,27,122.7,27.6z
				 M212,175.4c-0.3-0.5-0.5-0.9-0.8-1.4c-0.1,0.1-0.2,0.1-0.3,0.2C210.9,174.8,211.2,175.3,212,175.4z M156.1,28.1
				c-0.1,0.1-0.1,0.2-0.2,0.3c0.5,0.6,0.5,0.6,1.3,0.6C156.9,28.6,156.5,28.3,156.1,28.1z M128.2,167.2c-0.1,0.1-0.2,0.2-0.3,0.3
				c0.3,0.4,0.7,0.8,1,1.2C128.9,168.1,128.9,167.4,128.2,167.2z M127.9,42c0.1-0.1,0.2-0.2,0.4-0.3c-0.4-0.4-0.8-0.9-1.2-1.3
				c-0.1,0.1-0.2,0.1-0.2,0.2C127.2,41,127.6,41.5,127.9,42z M191.2,215.9c0.6-0.5,0.6-0.5,0.2-1.3
				C191.3,215.2,191.3,215.6,191.2,215.9z M108.8,270.6c0.6-0.1,0.7-0.3,0.4-0.7c-0.1-0.2-0.3-0.3-0.6-0.7
				C108.7,269.9,108.7,270.2,108.8,270.6z M240.9,88.2c0.1,0,0.3-0.1,0.4-0.1c-0.1-0.4-0.2-0.7-0.3-1.1c-0.1,0-0.3,0.1-0.4,0.1
				C240.8,87.5,240.8,87.9,240.9,88.2z M213.2,172.7c0.1-0.1,0.2-0.1,0.2-0.2c-0.2-0.4-0.4-0.8-0.7-1.2c-0.1,0-0.2,0.1-0.2,0.1
				C212.7,171.9,213,172.3,213.2,172.7z M101.3,42.1c0.1-0.1,0.2-0.2,0.3-0.3c-0.2-0.3-0.5-0.5-0.7-0.8c-0.1,0.1-0.2,0.1-0.2,0.2
				C100.9,41.5,101.1,41.8,101.3,42.1z M182.6,46.7c0.1-0.1,0.1-0.2,0.2-0.3c-0.2-0.2-0.5-0.3-0.7-0.4c0,0-0.1,0.2-0.2,0.3
				C182.1,46.4,182.4,46.5,182.6,46.7z M109.4,254.1c0,0,0.1,0,0.1,0c0-0.4,0-0.8,0-1.2c0,0-0.1,0-0.1,0
				C109.4,253.3,109.4,253.7,109.4,254.1z M205.7,169.3c0.1,0.1,0.2,0.2,0.3,0.2c0.2-0.2,0.3-0.4,0.5-0.6c-0.1-0.1-0.1-0.1-0.2-0.2
				C206.1,169,205.9,169.2,205.7,169.3z M242.4,82.7c0,0-0.1,0-0.1,0c0,0.3,0,0.6,0,0.9c0.1,0,0.1,0,0.2,0
				C242.5,83.3,242.5,83,242.4,82.7z M250.8,88c0.1,0,0.1,0,0.2,0c0-0.2-0.1-0.5-0.1-0.7c-0.1,0-0.1,0-0.2,0
				C250.8,87.6,250.8,87.8,250.8,88z M87.5,201c-0.1,0-0.2,0.1-0.2,0.1c0.1,0.3,0.2,0.5,0.3,0.8c0.1,0,0.2-0.1,0.2-0.1
				C87.7,201.6,87.6,201.3,87.5,201z M140.6,223.1c0.1,0,0.1-0.1,0.2-0.1c-0.1-0.3-0.2-0.5-0.4-0.8c-0.1,0-0.1,0.1-0.2,0.1
				C140.4,222.6,140.5,222.9,140.6,223.1z M128.3,180.7c-0.1,0.1-0.2,0.1-0.3,0.2c0.1,0.2,0.3,0.4,0.4,0.6c0.1,0,0.1-0.1,0.2-0.1
				C128.5,181.2,128.4,181,128.3,180.7z"/>
			<path d="M54,239.3c0.9,0.1,1.4,0.6,1.8,1.4c1.9,3.8,3.7,7.7,5.9,11.3c2.1,3.6,4,7.3,5.9,11c0.2,0.4,0.3,0.8,0.5,1.2
				c-0.1,0.1-0.2,0.1-0.4,0.2c-0.5-0.6-1-1.1-1.4-1.7c-3.3-5.5-6.8-11-9.5-16.8C55.8,243.8,54.9,241.5,54,239.3L54,239.3z"/>
			<path d="M75.5,241.5c-0.5-0.5-0.9-0.7-1.1-1c-2.2-2.9-4.3-5.7-6.4-8.6c-1-1.4-1.2-2.3-1.1-3.7c0.9-0.1,1.3,0.5,1.7,1.1
				c1.7,2.2,3.3,4.4,4.9,6.7c0.6,0.8,1.1,1.6,1.5,2.5C75.4,239.2,75.7,240.2,75.5,241.5z"/>
			<path d="M201.2,222.9c0.3,2,0.7,4.1,1,6.1c-0.1,0-0.1,0-0.2,0c-0.4-2-0.8-4-1.2-6.1C200.9,222.9,201,222.9,201.2,222.9z"/>
			<path d="M283.5,200.9c0.9,0.4,1.8,0.9,2.6,1.3c-1.2,0.4-1.9-0.6-2.8-0.9C283.4,201.2,283.4,201.1,283.5,200.9z"/>
			<path d="M152.1,80.6c0.4,0.4,0.6,0.8,0.9,1.2c0.7-0.4,1.3-0.8,2.1-1.3c0.3,0.3,0.5,0.6,0.8,1c0.3-0.1,0.5-0.3,0.9-0.3
				c0.2,0,0.6,0.1,0.7,0.2c0.1,0.2,0.1,0.6,0,0.8c-0.2,0.3-0.5,0.6-0.8,0.8c-2.2,1.3-4.4,2.7-6.6,3.9c-0.9,0.5-1.9,1-3,0.1
				c-0.5-0.4-1.3-0.3-2.1,0.2c0.3,0.3,0.6,0.5,0.9,0.6c1.5,0.4,3,0.9,4.5,1.2c0.7,0.1,1.5-0.1,2.3-0.1c0.6,0,1.2,0.2,1,1.1
				c-1.6,0.4-3-0.8-4.7-0.3c0.9,0.4,1.8,0.8,2.9,1.3c-3.1,1.1-6.1,1.1-9,1.1c0,1.2,0,2.2,0,3.3c3.3,0.4,6.3,0.1,9.6-1.4
				c-0.2,0.6-0.2,0.9-0.4,1.1c-0.1,0.1-0.3,0.2-0.5,0.2c-6,1.4-12.1,2.1-18.3,1.4c-0.1,0-0.2-0.1-0.5-0.2c1.2-0.4,2.1-1,3.2-1.1
				c1.9-0.1,2.2-0.6,1.9-2.7c-0.5,0-1.1,0-1.6,0c-0.9,0-1.8,0.1-2.7-0.1c-1.4-0.2-2.6-0.1-3.7,0.8c-1.2,1-2.4,1.9-3.7,2.9
				c-0.4,0.3-0.9,0.6-1.7,1.1c0.2-1.1,0.8-1.6,1.3-2c1-0.9,2.1-1.9,3.3-2.6c0.7-0.5,1.6-0.9,2.5-1.1c2.3-0.5,4.6-0.9,7-1.4
				c-0.3-0.7-0.6-1.5-0.9-2.2c-0.2-0.6-0.6-0.9-1.3-0.9c-1.3-0.1-2.5-0.2-3.8-0.4c-1-0.1-2-0.5-2.8-1.2c2.3,0.6,4.6,1.1,7,0.8
				c0.1-0.2,0.3-0.5,0.5-0.8c0.4,0.3,0.7,0.5,1.3,1c-0.2-0.7-0.4-1.1-0.4-1.5c0-0.3,0.1-0.6,0.2-0.9c0.3,0.1,0.6,0.2,0.8,0.4
				c0.3,0.3,0.5,0.7,0.7,1.1c0.5-0.4,1-0.7,1.5-1.1c-0.9-1.3-2.3-1.1-3.6-1.3c-1-0.1-2,0-3,0c0-0.1,0-0.2,0-0.3
				c0.4-0.1,0.8-0.3,1.2-0.4c-0.5-0.7-0.6-0.7-1.3-0.3c-1.1,0.6-2.3,1.1-3.4,1.7c-0.4,0.2-0.8,0.2-1.2,0.4c-0.1-1.2,0.4-1.8,1.3-2.3
				c1.1-0.6,2.2-1.2,3.3-1.8c1.3-0.7,1.4-0.6,2.3,0.7c0.1,0.1,0.2,0.2,0.2,0.2c1.3,0.2,2.6,0.4,3.8,0.4c0.9,0,1.7-0.3,2.6-0.5
				c1-0.2,1.8-0.3,2.8,0.1c0.6,0.2,1.3,0.7,2.1,0.3c0.2-0.1,0.7,0.4,1.1,0.6C150.5,81.7,151.3,81.2,152.1,80.6z M140.9,86.1
				c0.3,0.8,0.9,0.9,1.6,0.9c0.7,0,1.3,0.2,1.9-0.3c1.2-1,2.4-2,3.7-3c0.3-0.3,0.6-0.6,0.9-0.8c-0.1-0.1-0.1-0.2-0.2-0.2
				c-1.2,0.7-2.3,1.6-3.6,2.2C143.8,85.3,142.4,85.6,140.9,86.1z M141.8,87.7c0.4,1.1,0.4,2.1,1.4,2.8
				C143.4,88.9,143,88.2,141.8,87.7z M139.2,87.6c-0.2,0-0.3,0-0.5,0.1c0.3,1,0.6,1.9,1,2.9c0,0.1,0.3,0,0.8,0
				C140,89.5,139.6,88.5,139.2,87.6z M145.1,90.2c0.1-1.4-0.2-1.8-1.1-1.9C144.4,89,144.3,89.8,145.1,90.2z"/>
			<path d="M154.7,148.2c0.9,0.2,1.8,0.4,2.8,0.6c-1.8,0-3.7-0.2-5.5-0.7c-0.6-0.2-1.1-0.4-1.7-0.4c-1.6-0.2-3.2-0.2-4.7-0.5
				c-1.9-0.4-3.8,0.1-5.6,0.1c-1.3,0-2.2,0.6-3,1.6c-0.4,0.5-0.9,0.9-1.5,1.4c-0.1-0.9,0.3-1.4,0.6-1.8c1.3-1.7,2.7-3.3,4.1-4.9
				c0.4-0.4,0.7-0.9,1.1-1.4c0.4-0.6,0.9-1.1,2-1.3c-0.3,0.6-0.4,0.9-0.6,1.1c-0.8,1.1-1.7,2.1-2.6,3.2c-0.3,0.4-0.5,0.8-1,1.4
				c0.6,0,1,0.1,1.4,0c3.9-0.3,7.6-1.5,11.2-2.9c0.9-0.3,1.7-0.4,2.5,0c0.5,0.3,1.1,0.4,1.6,0.7c0.9,0.4,1.7,0.5,2.7,0.5
				c3,0.2,6.1,0.3,9.1,0.9c2.4,0.5,4.6,1.7,6.9,2.7c1.8,0.9,3.5,2.1,5.3,3.1c0.2,0.1,0.5,0.4,0.7,0.4c2,0.4,3.3,1.9,4.7,3.2
				c1.4,1.3,2.7,2.7,4,4c0.1,0.1,0.2,0.2,0.5,0.4c0.3-0.8,0.6-1.6,0.7-2.4c0.1-0.7,0.1-1.4,0.1-2.2c0.9,0.3,0.9,0.8,0.8,1.4
				c-0.5,2.9-1.4,5.6-3.3,8c-0.2,0.3-0.5,0.5-0.7,0.7c-0.1,0.1-0.3,0.2-0.7,0.1c0.9-1.7,1.9-3.3,2.9-5.1c-2.3-1.8-4.1-3.9-6.5-5.3
				c-1-0.6-1.5-0.3-2,0.9c-0.6-0.1-1.2-0.3-1.8-0.4c-3.5-1-7.1-2.1-10.6-3.1c-0.5-0.1-1.1-0.2-1.6-0.1c-2.9,0.5-5.8,0.1-8.7-0.2
				c-1-0.1-2-0.7-3-1c-1.6-0.6-3.2-1.1-4.8-1.7c-0.5-0.2-0.9-0.5-1.2-0.9c1.2-0.1,2.4,0.1,3.5,0.6c1.8,0.7,3.5,1.4,5.3,1.9
				c0.9,0.3,1.8,0.2,2.7,0.2c0.9,0,1.8,0,3.1,0c-0.4-0.4-0.6-0.6-0.8-0.7c-0.8-0.8-2.1-0.8-2.7-1.8c-0.1-0.2-0.6-0.3-0.9-0.3
				c-1.4-0.2-2.8-0.5-4.2-0.6c-0.3,0-0.6,0.1-0.8,0.2C154.6,147.9,154.7,148.1,154.7,148.2z M148.8,146.3c0,0.1,0,0.2,0.1,0.3
				c1.2,0.1,2.4,0.4,3.5,0.1c1.7-0.4,3.2-0.1,4.9,0c0.2,0,0.5,0,0.9-0.1c-1.7-1.1-3.4-1.8-5.2-2c-0.8-0.1-1.7,0.2-2.5,0.3
				C150.3,145.9,149.5,146,148.8,146.3z M166.3,148.1c0,0.1-0.1,0.2-0.1,0.3c0.8,0.5,1.6,1,2.5,1.3c2,0.7,4.1,1.4,6.2,2.1
				c0.3,0.1,0.6,0.2,1,0.2c0-0.1,0.1-0.2,0.1-0.3c-1.7-0.9-3.4-1.9-5-2.8c-0.2-0.1-0.4-0.2-0.6-0.1c-1,0.3-1.8-0.1-2.7-0.4
				C167.2,148.3,166.8,148.2,166.3,148.1z"/>
			<path d="M179.2,98.5c1.3-1.2,3.2-1,4.2-2.4c0.9,0.1,1.5-0.8,2.6-0.6c5,1.2,9.9,2.2,14.9,3.2c0.6,0.1,1.2,0.3,1.7,0.7
				c-4.9-0.1-9.6-1.7-14.5-2.2c1.7,0.7,3.3,1.6,5.1,2c3.8,1,7.2,2.8,10.7,4.5c0.8,0.4,1.5,1,2.4,0.8c0.2,0,0.5,0.2,0.7,0.4
				c1.5,1.8,3,3.7,4.4,5.6c0.2,0.3,0.3,0.8,0.5,1.3c-0.9-0.1-1.2-0.6-1.6-1.1c-1.2-1.5-2.4-2.9-3.6-4.4c-0.3-0.4-0.8-0.8-1.2-1
				c-2.9-1.3-5.9-2.5-8.8-3.7c-1.4-0.6-2.8-1.1-4.2-1.7c-0.2,1.1-0.4,2.1-0.6,3.1c1.3,0.6,2.8,0.6,4.2,0.9c1.6,0.3,3.2,0.4,4.8,0.7
				c0.5,0.1,1,0.2,1.5,0.4c0,0.1,0,0.2,0,0.4c-0.7,0-1.4,0.1-2,0c-3.8-0.5-7.6-1.1-11.4-1.6c-0.2,0-0.5-0.1-0.7-0.1
				c-1-0.2-2.1-0.3-3.1-0.6c-1-0.3-1.9-0.6-3-1c1.2-1,0.7-2.5,1.4-3.6c-0.5-0.6-1.1-0.4-1.5-0.1c-1.6,0.8-3.1,1.7-4.7,2.5
				c-0.4-0.6-1.5-5-1.6-6.5c0-0.4,0.1-0.8,0.4-1.2c0.9,1.9,1,4,1.6,6c0.1,0,0.2,0,0.3,0c0-0.3,0-0.6,0-0.9c-0.3-1.4-0.6-2.9-0.8-4.3
				c-0.1-0.4-0.2-1,0.4-1.3C178.8,94.3,178.4,96.4,179.2,98.5z M186.1,97.6c-1.4,1.4-1.4,1.7,0.1,2.2c0.4-0.5,0.8-1.1,1.3-1.7
				C187,97.9,186.6,97.8,186.1,97.6z M190.2,98.9c-0.1,0.1-0.2,0.2-0.3,0.3c0.3,0.4,0.6,0.7,1.1,1.3C191,99.5,190.8,99,190.2,98.9z
				 M189.7,101.8c0.3,0.4,0.5,0.6,0.8,1c0.2-0.6,0.3-1,0.4-1.5C190.4,101.5,190.1,101.6,189.7,101.8z"/>
			<path d="M152.1,155.7c0.9,2.7,1.7,5.3,2.5,7.8c0,0.1-0.1,0.3-0.2,0.8c-0.4-0.4-0.7-0.6-0.8-0.9c-1-2.6-2-5.3-2.9-7.9
				c-0.2-0.7-0.6-1.2-1.2-1.5c-1.7-0.9-3.3-1.9-5-2.8c-0.4-0.2-0.9-0.3-1.4-0.5c-0.4-0.2-0.7-0.4-1.1-0.6c0-0.1,0.1-0.3,0.1-0.4
				c1,0.2,2.2,0.3,3.1,0.8c2.3,1.1,4.5,2.5,6.8,3.7c0.5,0.3,1.1,0.5,1.7,0.6c4.9,0.3,9.7,0.9,14.5,2.4c0.7,0.2,1.3,0.7,1.8,1.1
				c0.6,0.5,0.5,0.9-0.2,1.4c-0.2,0.1-0.4,0.3-0.6,0.4c0.3,1.6,1.3,3.1,1.2,5.2c-0.4-0.5-0.6-0.7-0.7-0.9c-0.4-1.2-0.8-2.4-1.1-3.6
				c-0.3-1-0.8-1.4-1.9-1.3c0,1.6,1.4,3,1.1,5c-0.4-0.4-0.7-0.5-0.8-0.8c-0.4-1.2-0.8-2.4-1.2-3.6c-0.1-0.4-0.3-0.7-0.6-1
				c0.1,1.9,1.4,3.6,1.2,5.6c-0.9-0.1-1-0.8-1.2-1.3c-0.5-1.3-0.9-2.6-1.3-3.9c-0.2-0.6-0.4-1.2-1.3-1.3c0.1,1.8,1.8,3.3,1.1,5.7
				c-0.3-0.6-0.6-0.9-0.7-1.3c-0.4-1.3-0.8-2.6-1.1-3.9c-0.1-0.5-0.3-0.9-1.1-0.8c0.3,2.1,1.8,3.9,1.5,6.1c-0.1,0.1-0.2,0.1-0.4,0.2
				c-0.2-0.3-0.5-0.6-0.6-1c-0.5-1.6-1.1-3.1-1.5-4.7c-0.2-0.5-0.3-1-1.1-1.1c0,0.3,0.1,0.6,0.1,0.8c0.5,1.5,1,3,1.5,4.6
				c0.1,0.5,0.1,1,0.1,1.5c-0.1,0-0.2,0.1-0.3,0.1c-0.2-0.2-0.5-0.4-0.6-0.7c-0.6-1.8-1.2-3.7-1.7-5.6c-0.2-0.7-0.5-0.9-1.2-0.9
				c0.6,2.1,1.2,4.2,1.8,6.3c0,0.1-0.2,0.2-0.4,0.4c-0.2-0.3-0.5-0.5-0.6-0.8c-0.6-1.7-1.2-3.5-1.8-5.2c-0.1-0.4-0.2-0.8-1-0.9
				c0.6,2.4,2,4.5,1.9,7c-0.8-0.2-0.9-0.8-1.1-1.4c-0.7-1.8-1.3-3.6-2-5.3C153.3,156.2,153.2,156.2,152.1,155.7z"/>
			<path d="M167.3,111.8c0.5,0.9,1,1.9,1.5,2.8c-0.1,0.1-0.2,0.2-0.4,0.3c-0.2-0.4-0.3-0.8-0.5-1.2c-0.1,0.1-0.2,0.2-0.3,0.3
				c0.2,1.1,0.5,2.2,1.2,3.2c1.2,1.6,2.2,3.4,3,5.3c0.7,1.5,1.9,2.8,2.9,4.2c0.3,0.4,0.6,0.7,0.9,1.1c0.4,0.6,1.1,1.1,0.8,1.9
				c-0.4,1-0.7,2-1.7,2.6c-0.1,0-0.2,0-0.4-0.1c0.3-0.9,0.6-1.8,1-2.7c-1.6-0.7-2.4-2-3.3-3.2c-0.6-0.9-0.7-0.9-1.7-0.2
				c-0.1-0.2-0.2-0.5-0.2-0.7c-0.6-3.1-1.9-5.8-4.2-8c-0.4-0.4-0.8-0.8-0.7-1.5c0-0.5-0.2-1-0.4-1.5c-0.2-0.6-0.3-1.1,0.1-1.6
				c0.2-0.2,0.2-0.6,0.2-1c0-2.1,0.1-4.2,0.1-6.2c0-0.4-0.2-0.8-0.4-1.2c-0.2-0.5-0.4-1-0.4-1.7c0.4,0.3,0.7,0.6,1.1,0.9
				c0.1,0,0.1-0.1,0.2-0.1c-0.2-0.7-0.4-1.4-0.7-2.2c0.4,0.2,0.6,0.2,0.8,0.3c0.7-0.8,1.4-1.6,2-2.5c2.2-3,4.4-6,7-8.7
				c0.4-0.5,1-0.8,1.6-1.4c0.1,0.9-0.3,1.2-0.6,1.6c-1.8,2.4-3.6,4.7-5.4,7c-0.6,0.8-1.2,1.7-1.8,2.5c-0.6,0.8-0.8,1.7-0.9,2.7
				c-0.1,1.2,0.1,2.3,0.9,3.3c0.9,1.2,1.6,2.5,2.4,3.7c-0.1,0.1-0.2,0.2-0.3,0.2c-1-1.3-1.9-2.5-2.9-3.8c-0.1,0.1-0.2,0.1-0.3,0.2
				c1.2,2.7,3.4,4.9,4.3,7.7c-1.6-1.5-2.8-3.4-4.2-5c1.2,2.8,3.3,5.2,4.4,8c-0.1,0.1-0.2,0.1-0.3,0.2c-1.3-1.9-2.6-3.8-3.9-5.8
				C167.5,111.6,167.4,111.7,167.3,111.8z"/>
			<path d="M208.3,91.9c-0.9-0.2-1.8-0.5-2.6-0.7c-0.8-0.2-1.6-0.3-2.4-0.5c-0.1,0-0.3,0-0.4-0.1c-1.6-0.9-3.4-1.2-5-1.7
				c-0.3-0.1-0.8-0.3-0.9-0.2c-1.1,0.8-2.3,0.2-3.3,0.1c-1-0.1-1.9,0.4-2.8-0.1c-0.1-0.1-0.3,0.1-0.6,0.2c-0.1-0.3-0.2-0.6-0.2-0.9
				c-0.4,0.2-0.7,0.3-1.1,0.5c-0.5,0.3-1,0.5-1.6,0.2c-0.2-0.1-0.6,0-0.9,0c-0.2,0-0.5,0.3-0.7,0.2c-0.5-0.2-1-0.2-1.5,0.1
				c-0.2,0.1-0.7-0.1-1.3-0.3c0.3-0.4,0.5-0.8,0.7-1c1.1-1,2.3-2,3.8-2.4c1-0.2,2.2-0.5,3.1,0.5c0.6-0.2,1.2-0.4,1.8-0.5
				c0.1,0,0.3,0.1,0.3,0.2c0.1,0.2,0,0.4,0,0.7c2.8-1,5.5-1,8.3,0.3c-0.5,0.3-1,0.6-1.7,1.1c2,0.4,3.8,0,5.4,1c-1.1,0-2.2,0-3.6,0
				c0.7,1,1.4,1.2,2.2,1.2c1.9,0.1,3.5,0.8,5.1,1.7C208.4,91.6,208.4,91.7,208.3,91.9z"/>
			<path d="M163,116.4c1.6,0.7,2.8,1.9,3.7,3.3c0.8,1.1,1.4,2.3,1.9,3.6c0.5,1,0.4,2.1-0.2,3.1c-0.4,0.6-0.7,1.2-1.1,1.9
				c0.4,0.2,0.7,0.3,1,0.4c1.3,0.4,2.6,0.7,3.9,1.1c0.9,0.2,1.2,0.9,0.9,1.8c-0.1,0.3-0.3,0.6-0.5,1c-0.4,0-0.9,0.1-1.3,0
				c-1.9-0.3-3.7-0.7-5.4-1.6c-0.3-0.2-0.7-0.2-1-0.3c-0.6-0.3-1.1-0.2-1.6,0.3c-0.8,0.8-1.8,1-2.9,0.7c-0.3-0.6,0-1,0.4-1.3
				c1.2-1,2.4-1.9,4-2.4c1.7-0.5,2.4-2.1,3.1-3.6c0.1-0.2-0.1-0.6-0.2-0.8c-0.6-2.1-1.8-3.7-3.4-5.2c-0.5-0.5-1.1-1-1.6-1.6
				C162.9,116.6,163,116.5,163,116.4z"/>
			<path d="M150,126.3c-0.3-0.3-0.5-0.6-0.8-1c-0.7,0.7-1.3,1.4-1.9,2.2c-0.3-0.4-0.5-0.6-0.8-1c0.9-1.1,1.7-2.1,2.6-3.2
				c0.2-0.3,0.6-0.6,0.7-0.9c0.2-1.3,1.1-2.1,2-3c2.5-2.7,4.1-5.8,4.9-9.4c0.9-4.2,0.9-8.5,1.4-12.7c0.1-0.5-0.1-1.2-0.4-1.7
				c-0.7-1.4-1.4-2.8-2.1-4.2c-0.3-0.5-0.5-1.1-0.7-1.8c0.8-0.2,1.1,0.3,1.3,0.7c0.5,0.8,1,1.6,1.6,2.5c0.9,1.5,1.4,3,1.2,4.8
				c-0.3,2.6-0.3,5.2-0.5,7.8c-0.1,1.1-0.4,2.1-0.6,3.1c-0.4,2.9-1.2,5.6-2.9,8c-1,1.3-1.9,2.7-3.1,3.9c-1.2,1.3-1.3,2.7-1.2,4.3
				C150.3,125.2,150.6,125.8,150,126.3z"/>
			<path d="M182.7,87.9c-0.9,0.1-1.7,0.2-2.7,0.3c-0.2-0.3-0.5-0.9-0.8-1.5c-0.1,0-0.1,0-0.2,0c0.1,0.5,0.1,1,0.2,1.5
				c-1.1,0.1-1.7-0.4-1.7-1.5c0.2-2.5,1.8-4.5,4.8-4.3c1.1,0,2.2,0.3,3.3,0.5c0.8,0.1,1.4,0.6,1.9,1.3c-1,0.2-1.8,0.3-2.6,0.4
				c-0.8,0.1-1.2,0.6-1.4,1.2C183.2,86.5,182.9,87.2,182.7,87.9z M182.4,83.4c0-0.1-0.1-0.1-0.1-0.2c-0.2,0.1-0.4,0.2-0.6,0.3
				c0,0,0.1,0.2,0.1,0.3C182,83.6,182.2,83.5,182.4,83.4z"/>
			<path d="M122,101.7c3.5,6.1,6.5,12.4,10,18.5c0.1-0.2,0.3-0.4,0.4-0.6c1.1,1.7,1.9,11.1,1.1,13.6c-0.1-0.4-0.2-0.9-0.2-1.3
				c-0.2-2.6-0.4-5.2-0.6-7.8c-0.1-1-0.3-1.8-1.1-2.5c-0.7-0.6-1.2-1.6-1.7-2.5c-2.3-4.7-4.7-9.5-6.9-14.3
				C122.4,103.8,122,102.8,122,101.7z"/>
			<path d="M219.6,115c-0.7,0.5-1.5,1.1-2.2,1.5c-3,1.9-6,3.8-9,5.7c-1.1,0.7-1.9,1.7-2.3,3c-1.1,3.6-1.8,7.2-2.4,10.9
				c-0.3,2.1-0.8,4.2-1.1,6.3c-0.1,0.3-0.2,0.6-0.5,0.9c0.1-0.8,0.1-1.6,0.2-2.3c0.7-4.5,1.5-9,2.1-13.5c0.2-1.5,0.6-2.8,1.3-4.1
				c0.2-0.3,0.4-0.7,0.7-0.9c3.5-2.3,7-4.6,10.6-6.8c0.7-0.5,1.6-0.7,2.4-1.1C219.4,114.8,219.5,114.9,219.6,115z"/>
			<path d="M203.8,108.5c-2.4,0.7-4.8,0.7-7.1,0.6c-2.4-0.1-4.7-0.3-7.3-0.4c0.5,0.7,0.9,1.3,1.3,1.9c-0.1,0.1-0.2,0.2-0.3,0.3
				c-1.8-1.3-3.6-2.7-5.6-3.8c-1.9-1.1-4-1.9-6-3c0.5,0.1,1,0,1.4,0.2c2.4,0.9,4.9,1.7,7,3.2c0.7,0.5,1.4,0.7,2.3,0.8
				c2.1,0.1,4.2,0.2,6.2,0.3c0.6,0,1.1,0,1.7-0.2c-1.9-0.3-3.8-0.7-5.7-1c0-0.1,0-0.2,0-0.3c0.9,0.1,1.8,0.2,2.7,0.2
				c2.6,0.1,5.2,0.2,7.8,0.3C202.9,107.6,203.5,107.5,203.8,108.5z"/>
			<path d="M211.7,103c-0.4-0.3-0.8-0.6-1.2-1c-2.4-2-4.8-4-7.1-6c-1.6-1.3-3.4-1.8-5.4-1.9c-1.6-0.1-3.3-0.4-4.9-0.7
				c-0.5-0.1-1-0.4-1.4-0.8c0.2-0.1,0.5-0.2,0.7-0.2c0.7,0.1,1.3,0.2,2,0.3c1.3,0.2,2.6,0.2,3.9,0.5c1.4,0.2,2.8,0.5,4.1,1
				c0.7,0.3,1.3,1,1.9,1.5c0.4,0.4,0.8,0.8,1.3,1.2c1.8,1.6,3.7,3.1,5.5,4.7c0.3,0.3,0.6,0.7,0.9,1
				C211.9,102.8,211.8,102.9,211.7,103z"/>
			<path d="M153.5,99c-5.9,2.4-12,3.5-18.3,2.5c1.1-0.5,2.4-0.2,3.5-0.3c1.3-0.1,2.5-0.2,3.8-0.4c1.2-0.2,2.4-0.4,3.6-0.7
				c1.2-0.2,2.5-0.4,3.7-0.6C151,99.3,152.2,99.2,153.5,99z"/>
			<path d="M127.5,135.5c-1.9-1.8-5.1-14.9-4.5-18.1C124.5,123.5,126,129.5,127.5,135.5z"/>
			<path d="M163.2,76.2c-0.2-0.3-0.5-0.5-0.7-0.8c-1.4-2.5-2.7-4.9-4.1-7.4c-0.3-0.5-0.6-1-0.9-1.5c-0.2-0.4-0.5-0.8-0.7-1.2
				c0.1-0.1,0.2-0.2,0.2-0.2c0.4,0.2,0.8,0.4,1.1,0.7c0.4,0.4,0.7,0.8,1,1.3c1.4,2.5,2.7,4.9,4,7.4c0.2,0.4,0.3,1,0.4,1.4
				C163.5,76,163.3,76.1,163.2,76.2z"/>
			<path d="M189.6,69.4c2.1,0,4-1.1,6.1-0.7c2,0.4,4.1,0.6,6.2,0.9c1.7,0.3,3.4,0.7,5.1,1c0.3,0.1,0.5,0.2,0.7,0.6
				c-0.5,0-1-0.1-1.4-0.1c-3.5-0.5-7.1-1.1-10.6-1.6c-1.4-0.2-2.9-0.1-4.4-0.1C190.8,69.4,190.2,69.4,189.6,69.4z"/>
			<path d="M148.5,130.1c0.2-1.1,0.5-2.1,1.8-2.3c0.9-0.2,1.5-0.1,2.2,0.6c0.9,1,2.1,1.8,3.2,2.8c-0.3,0.4-0.8,0.2-1.1,0
				c-0.6-0.3-1.3-0.7-1.8-1.1c-0.8-0.8-1.6-0.8-2.5-0.3C149.8,130.1,149.3,130.5,148.5,130.1z"/>
			<path d="M147.1,116.9c-2.9,3.8-6.6,6.9-9.5,10.6c-0.1-0.1-0.2-0.1-0.3-0.2c0.2-0.4,0.4-0.9,0.7-1.3c2.8-3.1,5.6-6.1,8.4-9.2
				c0.1-0.1,0.2-0.1,0.4-0.2C146.9,116.7,147,116.8,147.1,116.9z"/>
			<path d="M170.9,76c1.4-1.8,2.8-3.6,4.3-5.3c1.7-1.9,3.7-2.5,6.1-2.2c-0.3,0.1-0.5,0.2-0.8,0.2c-2.3,0.3-4,1.6-5.4,3.4
				c-1,1.3-2.1,2.6-3.2,3.9C171.7,76.2,171.4,76.6,170.9,76z"/>
			<path d="M137.5,130.2c2.8-4.2,6.3-7.8,10.1-11.1c-0.8,1.5-2.1,2.5-3.2,3.7c-1.1,1.3-2.3,2.5-3.4,3.8c-1.1,1.3-2.1,2.6-3.2,3.9
				C137.7,130.4,137.6,130.3,137.5,130.2z"/>
			<path d="M165.1,78.8c1.1-0.3,2.2-0.7,3.3-1c-1.7-0.4-3.5,0.2-5.3-0.3c0.2-0.6,0.6-0.7,1.1-0.6c1.5,0.3,2.9-0.1,4.3-0.3
				c0.6-0.1,1.1-0.2,2-0.4c-0.2,0.5-0.4,0.7-0.4,0.9c0,0.3,0.1,0.5,0.2,0.9c-1.6,0.7-3.3,1-5.1,1.2
				C165.1,79.1,165.1,78.9,165.1,78.8z"/>
			<path d="M149.2,111.5c-2.6,2.8-5.2,5.7-8,8.8c0.4-1.4,6.2-8,7.8-9C149.1,111.4,149.1,111.4,149.2,111.5z"/>
			<path d="M178.8,134.7c1.4,1.3,6.2,9,6.5,10.4C182.7,142,178.9,136,178.8,134.7z"/>
			<path d="M157.7,67.9c-0.2,0-0.4,0-0.6-0.1c-2.4-0.9-4.9-1.9-7.3-2.8C152.2,64.7,156.8,66.3,157.7,67.9z"/>
			<path d="M180,96.9c-0.9-1.5-1-3-1-4.6C180.1,93.3,180.5,95.3,180,96.9z"/>
			<path d="M180.6,90.1c0.8,1.4,1.3,3.2,1.2,4.6c-1-0.4-0.9-1.4-1.1-2.1C180.6,91.8,180.1,91.1,180.6,90.1z"/>
			<path d="M132.8,96c-1.5-0.2-2.8,0.5-4.3-0.1C130.1,95.2,131.8,95.2,132.8,96z"/>
			<path d="M161.4,75.2c-1.1-1.3-2-2.7-2.3-4.4c0.8,1.4,1.7,2.9,2.5,4.3C161.6,75.1,161.5,75.2,161.4,75.2z"/>
			<path d="M189,151.2c0.5,0.7,1.4,1.2,1.3,2.4C189.3,153,189,152.2,189,151.2z"/>
			<path d="M195.6,183.5c1-1.1,1.7-2.3,2.3-3.6c0.1-0.3,0.5-0.5,0.8-0.7c0.1,0.1,0.2,0.1,0.3,0.2c-0.2,0.6-0.4,1.2-0.6,1.8
				c-0.2,0.6-0.2,1.3-0.4,1.8c-2.7,5.8-5.3,11.7-9,16.9c-2,2.8-4.1,5.5-6.2,8.3c-0.3,0.4-0.7,0.7-1.3,0.8c0.3-0.6,0.6-1.3,1-1.8
				c1.6-2.3,3.3-4.5,4.8-6.9c1.3-2,2.5-4.1,3.5-6.2c1.5-3,2.9-6,4.3-9.1C195.3,184.6,195.4,184.1,195.6,183.5L195.6,183.5z"/>
			<path d="M195.6,183.5L195.6,183.5c-0.3,0.5-0.7,0.9-0.9,1.3c-2.2,4.7-4.8,9.2-7.8,13.5c-1.8,2.5-3.8,5-5.8,7.4
				c-0.1,0.1-0.3,0.2-0.5,0.4c0-0.2-0.1-0.4-0.1-0.4c1-1.5,1.9-3.1,3-4.5c2.6-3.5,4.8-7.2,6.9-11c1.7-3.1,3.2-6.4,4.3-9.8
				c0.3-0.9,0.3-0.9,1.6-0.9c0.2,0.8-0.1,1.5-0.4,2.2C195.8,182.1,195.7,182.8,195.6,183.5z"/>
			<path d="M156.5,210.9c-0.4-0.5-0.8-0.9-1.1-1.5c-0.7-1.4-1.3-2.9-1.9-4.4c-0.8-1.9-1.4-3.8-2.2-5.7c-0.1-0.2-0.2-0.4-0.2-0.7
				c-0.1-0.5-0.2-1,0.4-1.2c0.6-0.2,0.8,0.3,0.9,0.7c0.5,1.3,1,2.6,1.5,3.9c0.9,2.5,1.7,4.9,2.6,7.4c0.1,0.4,0.3,0.8,0.4,1.2
				C156.7,210.8,156.6,210.8,156.5,210.9z"/>
			<path d="M159.8,212.4c-0.4-0.4-0.7-0.7-0.9-1c-1.5-3.2-3.1-6.5-4.5-9.7c-0.3-0.6-0.4-1.3,0.3-2c0.3,0.4,0.6,0.7,0.7,1
				c1.5,3.7,3,7.5,4.4,11.2C159.9,212,159.8,212.1,159.8,212.4z"/>
			<path d="M115.5,210.1c0.7,0.5,1.5,0.9,2.2,1.4c-0.1,0.1-0.1,0.2-0.2,0.3c-0.7-0.5-1.5-0.9-2.2-1.4
				C115.3,210.3,115.4,210.2,115.5,210.1z"/>
			<path d="M112.5,210.8c0.5,0.2,0.9,0.3,1.4,0.5C113.3,211.5,112.9,211.2,112.5,210.8C112.6,210.8,112.5,210.8,112.5,210.8z"/>
		</g>
	</g>
	<g>
		<path class="st0" d="M305.4,25.3h5.3c0.6,0,1,0.3,1.3,1v0.8c-0.2,0.3-0.3,0.5-0.3,0.6c0.2,0.3,0.3,0.7,0.3,1v0.1
			c0,5.6-1.4,29.4-4.1,71.4c-0.3,2.2-0.6,5.4-0.8,9.7c-0.5,0.7-1.2,1.1-1.9,1.1c-1.1-0.3-1.6-0.9-1.6-1.8V109c0-1.8,0.7-10.4,2.1-26
			l4.8-55h-4.8c-4.1,0-8.9,0.4-14.2,1.3c0.1,1.5,0.2,2.4,0.2,2.7c0,6.4-1.3,31.3-4,74.6c-0.7,4.8-1.6,7.2-2.7,7.2l-0.3,0.1
			c-1.4-0.3-2.1-1-2.1-2.1c0.7-1.8,1.8-12,3-30.4c0-1.6,1.3-18.2,3.8-50v-1.1l0.1-0.6c-1,0-1.4-0.4-1.4-1.1c0-0.8,2.1-1.5,6.2-1.9
			C298.8,25.8,302.5,25.3,305.4,25.3z"/>
		<path class="st0" d="M324.5,74.4c4.6,0,8.1,4.9,10.8,14.7c0.5,2.4,0.8,4.6,0.8,6.7c0,1.4-0.2,2.9-0.6,4.6
			c1.6,11.9,2.4,18.7,2.4,20.4c-0.1,0.5-0.4,0.8-0.8,1h-0.5c-1,0-1.7-1.7-1.9-5.1l-1.1-11.6c-3,4.1-6.2,6.2-9.6,6.2
			c-4.8,0-7.7-3.8-8.7-11.4c-0.1-2.2-0.2-3.6-0.3-4.4c0.1-0.4,0.2-0.8,0.2-1.1c0-1-0.1-2.2-0.3-3.8c0.5-8.7,3.2-14,7.9-15.8
			L324.5,74.4z M317.4,95.3c0,6.8,1.5,11.2,4.4,13c0.5,0.3,1.2,0.5,2.1,0.5c3.7,0,6.7-2.8,8.8-8.4l0.2-0.8
			c-0.9-10.2-1.5-15.3-1.9-15.3c-2.3-4.6-4.4-6.9-6.5-6.9c-3.3,0-5.6,4.4-6.8,13.1C317.5,92.2,317.4,93.8,317.4,95.3z"/>
		<path class="st0" d="M342.4,76.9c0.8,0,1.2,1.9,1.2,5.7c0.1,2.9,0.2,4.9,0.2,5.9c-0.1,11.1-0.3,19-0.5,23.9l16.1-1.2
			c-0.3-0.5-0.5-1.1-0.5-1.5c0-4.9,0.7-14.4,2-28.7l0.4-0.1h0.2c0.5,0,0.7,2,0.7,6v9.6c0,3.2-0.1,7.8-0.2,13.6l-0.5,1h2
			c0.5,0,1.2-0.1,2.3-0.4c0.9,0.5,1.4,1.1,1.4,1.9c-0.3,0.8-0.8,3.5-1.4,8.1c-2.1,8.9-4,13.4-5.9,13.4c-0.5-0.2-0.7-0.3-0.7-0.5
			v-0.5c3.3-11.2,5-17.4,5-18.7c-8.1,0.3-15.1,0.6-21.1,0.7c0,0.8-0.6,1.3-1.9,1.5c-1.1-0.4-1.7-1.1-1.7-2
			c1.1-15.4,1.7-27.2,1.7-35.2C341.2,77.6,341.6,76.9,342.4,76.9z"/>
		<path class="st0" d="M377.2,74.4c4.6,0,8.1,4.9,10.8,14.7c0.5,2.4,0.8,4.6,0.8,6.7c0,1.4-0.2,2.9-0.6,4.6
			c1.6,11.9,2.4,18.7,2.4,20.4c-0.1,0.5-0.4,0.8-0.8,1h-0.5c-1,0-1.7-1.7-1.9-5.1l-1.1-11.6c-3,4.1-6.2,6.2-9.6,6.2
			c-4.8,0-7.7-3.8-8.7-11.4c-0.1-2.2-0.2-3.6-0.3-4.4c0.1-0.4,0.2-0.8,0.2-1.1c0-1-0.1-2.2-0.3-3.8c0.5-8.7,3.2-14,7.9-15.8
			L377.2,74.4z M370.1,95.3c0,6.8,1.5,11.2,4.4,13c0.5,0.3,1.2,0.5,2.1,0.5c3.7,0,6.7-2.8,8.8-8.4l0.2-0.8
			c-0.9-10.2-1.5-15.3-1.9-15.3c-2.3-4.6-4.4-6.9-6.5-6.9c-3.3,0-5.6,4.4-6.8,13.1C370.2,92.2,370.1,93.8,370.1,95.3z"/>
		<path class="st0" d="M394.2,74.4c0.8,0,1.2,6,1.2,18.1v3l1.7-0.2h2.9c2.6,0,4.2,0.2,4.7,0.7h0.2v-0.2c0-3.6,0.2-10.4,0.7-20.4
			l0.6-0.5h0.2l0.7,0.5c0.3,6.6,0.5,13.4,0.5,20.4v5.4c0,6.4-0.4,9.6-1.2,9.6c-0.2,0.1-0.4,0.1-0.7,0.1h-0.3c-0.7-0.4-1-0.9-1-1.5
			c0.2-4.2,0.3-8.1,0.3-11.6c-0.4,0.2-0.6,0.3-0.9,0.3c-3.2-0.2-5.7-0.3-7.6-0.3h-0.8V98c0,9-0.3,13.5-0.9,13.5
			c-0.2,0-0.5,0.1-0.9,0.3c-1-0.2-1.5-0.7-1.5-1.5c0.5-24,1-35.9,1.5-35.9H394.2z"/>
		<path class="st0" d="M433.8,73.7h0.4c0.2,0,0.4,0.3,0.5,1c0,2.4-1.7,14.1-5.2,35.4c-0.5,0.5-1,0.7-1.4,0.7h-0.1
			c-0.9,0-1.4-0.6-1.6-1.8c0-1.1,0.2-2.8,0.7-5.2v-0.2h-0.2c-1.7,3.8-4.5,5.8-8.4,5.8h-1.9l-0.4-0.2c-0.3,1.3-0.9,1.9-1.8,1.9H414
			c-0.9,0-1.4-0.6-1.6-1.8c0-6,1.2-17.3,3.5-34.1l0.5-0.5c0.6,0,0.9,2.5,0.9,7.5v3.5l-0.2,1c0.1,0.2,0.2,0.4,0.2,0.5
			c-0.1,0.8-0.2,1.5-0.2,2.3c0.4-0.2,0.9-0.4,1.4-0.4h0.5c2.6,0,5.2,2.5,7.7,7.4c0.5,1.4,0.7,2.7,0.7,3.7h0.2
			c2.1-11.4,4-20.2,5.8-26.4L433.8,73.7z M416.3,106.1c4.3,0,6.9-1.5,7.7-4.4v-2.1c0-2.8-1.6-5.5-4.7-8c-0.4-0.2-0.7-0.4-1.1-0.4
			h-0.7c-0.4,0-0.7,4-0.9,12.1C416.6,103.3,416.4,104.2,416.3,106.1z"/>
	</g>
	<g>
		<path class="st0" d="M265.6,115.5c2.1-0.3,4.4,2.1,7,7.2c0.5,1.4,0.9,3,1.1,4.7c1.1,7.5,0.1,17-3.1,28.6c-0.1,0.8-0.1,1.3-0.1,1.4
			c0.1,0.2,0.2,0.3,0.2,0.4c-0.2,0-0.3,0.2-0.5,0.7l0,0.1c1.2-1.4,2.5-2.2,4.1-2.4c4.4-0.7,7.7,3.4,9.9,12.3l0.2,1.2
			c1.2,7.8,0.2,13.7-3,17.6c-1.2,0.8-2.1,1.2-2.6,1.3c-3.9,0.6-7.1-2.3-9.5-8.8c-0.5-1.7-0.8-3.2-1-4.5l-0.5-3.2
			c-0.3-2.3-0.5-5.5-0.4-9.6c-1.7-10-2.8-17-3.4-20.9C262.2,124.7,262.7,116,265.6,115.5z M270.3,163.6l0.4,2.9
			c1,6.4,1.1,9.6,0.4,9.7c-0.2,0-0.3,0.1-0.3,0.2c0.5,3.6,2,6.6,4.5,9.1c1.2,0.7,2.2,1,2.9,0.9l0.2,0c3.1-0.5,4.3-5.4,3.8-14.9
			l-0.3-1.7c-0.9-5.8-3-9.5-6.4-11l-0.9,0C273,158.8,271.5,160.5,270.3,163.6z M266.2,118.4c-1.2,6.2-1,13.8,0.3,22.9l0.3,1.7
			c0.5,3.1,1.1,7.3,2,12.4l0,0.2l0.1,0c2.5-11.6,3.2-20.9,2.2-27.9C270.5,123.7,268.9,120.6,266.2,118.4z"/>
		<path class="st0" d="M292.1,152.9c4.1-0.6,8,3.3,11.6,11.8c0.8,2.1,1.3,4.1,1.6,5.9c0.2,1.2,0.2,2.7,0.1,4.2
			c3,10.5,4.6,16.5,4.9,18c-0.1,0.4-0.3,0.8-0.6,1l-0.4,0.1c-0.9,0.1-1.7-1.3-2.4-4.3l-2.6-10.2c-2.1,4.1-4.7,6.4-7.8,6.9
			c-4.3,0.6-7.5-2.4-9.4-9.1c-0.4-1.9-0.7-3.2-0.9-3.9c0.1-0.4,0.1-0.7,0-1c-0.1-0.9-0.4-2-0.8-3.4c-0.7-7.9,1-13,5-15.3
			L292.1,152.9z M288.5,172.6c0.9,6.1,2.8,9.8,5.7,11.1c0.5,0.2,1.2,0.3,1.9,0.1c3.3-0.5,5.6-3.4,6.8-8.7l0-0.8
			c-2.2-9.1-3.4-13.6-3.8-13.5c-2.7-3.8-4.9-5.6-6.8-5.4c-3,0.4-4.4,4.7-4.3,12.7C288.2,169.8,288.3,171.3,288.5,172.6z"/>
		<path class="st0" d="M332.5,147.2c0.5-0.1,1.1,2,1.8,6.2l0.7,5c1,6.7,1.8,13.2,2.3,19.5c5.1-0.2,7.8,0.2,7.9,1l0.3,0.6
			c-0.9,5-2.3,9.5-4.2,13.5l-1,1l-0.3,0c-0.9,0.1-1.4-0.3-1.5-1.3c-0.1-1,1-4.9,3.3-11.9l-0.3-0.1l-0.8,0.1c0.1,0.6-0.3,1.1-1.2,1.7
			c-1.4,0.2-6.3,0.5-14.6,0.8c-3.6,0.2-7.3,0.2-11,0c0,0.3-0.4,0.6-1.2,1c-0.9,0.1-1.6-0.6-2.3-2.3l0.2-1.2
			c-2.2-18.7-3-28.2-2.3-28.4l0.7-0.1c0.5-0.1,1.1,1.6,1.6,4.9l0.5,3.4c0.2,1,0.2,1.9,0.3,2.8c0.2,0.5,0.3,1.2,0.4,1.9
			c0.1,0.7,0.3,2.4,0.6,5.4l0.3,0.9c0,1,0.1,2,0.3,2.9l0.9,6.3c4.7-0.3,7.9-0.5,9.6-0.8l0-0.2c-0.6-4-1.5-13.8-2.5-29.2
			c0.2-0.5,0.4-0.7,0.5-0.7l0.3,0c0.6-0.1,1.3,2,1.9,6.3c0.7,4.8,1.8,12.5,3.3,23.1c-0.1,0-0.2,0.1-0.1,0.2l0.3,0.1
			c3-0.3,5.2-0.5,6.7-0.5c-0.3-0.3-0.4-0.6-0.5-0.9l0-0.2c0-0.3,0.2-0.5,0.9-0.6c-1.7-20.1-2.3-30.2-1.9-30.3L332.5,147.2z"/>
		<path class="st0" d="M348.8,145l0.2,0c3.1-0.5,5.4,1,6.7,4.5c0.1,0,0.3,0.5,0.4,1.5l0.2,1c0.5,3.4-0.8,7-3.9,10.8
			c-1.5,1.4-2.8,2.2-4,2.4l-2,0.3c0.7,4.9,2.6,7.9,5.5,9.2c1,0.3,1.9,0.3,2.6,0.2c2.3-0.3,4.7-2.5,7-6.4c0.1-0.5,0.5-0.9,1.1-1
			c0.2,0,0.4,0.1,0.4,0.3c0.3,1.9-0.9,4.3-3.5,7.1c-1.4,1.2-2.9,2-4.4,2.2l-1.1,0.2c-4.3,0.6-7.6-2-9.9-7.9
			c-0.4-1.7-0.6-2.9-0.8-3.7l-0.1-0.9c-1.1-7.2-0.2-13.3,2.6-18.1C347,145.7,347.9,145.2,348.8,145z M346.3,164.8l0.9-0.1
			c2.8-0.4,5-3.1,6.4-8.1c0.4-1.6,0.4-3.2,0.2-4.8c-0.4-2.9-1.9-4.4-4.3-4.4l-0.2,0C346.7,148.4,345.7,154.2,346.3,164.8z"/>
	</g>
	<g>
		<path class="st0" d="M351.3,192.1c0.2,0,0.6,0.2,1.2,0.8c0.3,0,0.6-0.2,1.2-0.3c4-0.8,8.2,2.3,12.4,9.1c0.7,1.8,1.2,3.3,1.5,4.5
			c1.2,6.4-0.9,11.2-6.4,14.4c-0.4,0.2-0.7,0.3-1.2,0.4l-1.7,0.3c1.9,9.9,3.2,21.8,3.9,35.6c0.1,3.6-0.5,5.5-1.9,5.8
			c-0.5,0.1-1-0.3-1.6-1.1c-0.1-2.4,0-3.8,0.3-4l-0.2-1c-0.7-16.1-3-34.6-7.1-55.6c0.1,0-0.2-1.9-0.8-5.8l-0.2-0.2
			C350.5,193.2,350.8,192.2,351.3,192.1z M352.8,193.8l-0.1,0.3c2.3,10.8,3.6,17.1,4,19.1c0.2,1.7,0.4,2.8,0.5,3.2
			c0.1,0.2,0.2,0.3,0.3,0.6l-0.1,0l0.2,0.3l0.1,0.6l0,0.7c0.5,0.1,0.9,0.1,1.1,0.1c1.7-0.3,3.4-1.7,5.1-4.2c1.2-2.5,1.7-4.8,1.2-7.1
			l-0.3-1.6c-0.9-4.7-3.6-8.6-8.1-11.6C355.4,193.7,354.2,193.5,352.8,193.8z"/>
		<path class="st0" d="M374.9,186.9l0.1,0c2.9-0.6,5,0.8,6.4,4c0.1,0,0.3,0.5,0.4,1.4l0.2,0.9c0.6,3.1-0.5,6.5-3.2,10.1
			c-1.3,1.4-2.5,2.2-3.6,2.4l-1.8,0.3c0.9,4.5,2.7,7.3,5.5,8.3c1,0.2,1.8,0.2,2.4,0.1c2.1-0.4,4.2-2.5,6.3-6.3
			c0.1-0.5,0.4-0.8,1-0.9c0.2,0,0.4,0.1,0.4,0.2c0.3,1.7-0.6,4-2.9,6.7c-1.3,1.2-2.6,2-4,2.2l-1,0.2c-4,0.8-7.1-1.6-9.5-7
			c-0.4-1.5-0.7-2.7-0.8-3.4l-0.2-0.8c-1.3-6.7-0.7-12.3,1.7-16.9C373.2,187.7,374,187.1,374.9,186.9z M373.3,205.4l0.8-0.2
			c2.6-0.5,4.5-3.1,5.7-7.7c0.3-1.5,0.3-3,0-4.5c-0.5-2.7-1.9-4-4.2-4l-0.2,0C373,190.1,372.3,195.6,373.3,205.4z"/>
		<path class="st0" d="M411.6,138.9l0.6-0.1c0.2,0,0.3,0.1,0.3,0.2l0,0.1c0,0.2-0.9,0.7-2.8,1.5c-4.8,2.9-9.7,5.6-14.6,8.1
			c0.8,2.5,1.4,5.3,2,8.4c0.9,4.8,2.8,16.4,5.8,35c0.2,0.6,0.4,1.4,0.6,2.4l0.2,0.8c1.2,6.3,0.7,11.5-1.5,15.8
			c-0.8,1.2-1.7,1.9-2.7,2.1l-0.5,0.1c-3.1,0.6-5.6-1.8-7.4-7.2c-0.6-2.3-1.4-5.4-2.3-9.3c-0.7-3.7-0.6-6.9,0.4-9.7
			c0.1-1.7,0.6-2.6,1.5-2.8c0.5-0.1,0.9,0,1.3,0.2l1.5-0.3c2.1-0.4,4.1,0.4,6.2,2.4l-0.4-2c-0.5-2.7-1-4.7-1.3-5.9
			c-1.4-9-2.7-16.3-3.8-22c-0.6-3.1-1.3-5.8-2.1-8.1c-0.1-0.7,1.7-1.9,5.6-3.7C404.4,141.4,409,139.4,411.6,138.9z M392.4,200.8
			c1.1,5.8,2.8,9.3,4.9,10.5c0.6,0.1,1,0.1,1.3,0l0.4-0.1c2.3-0.4,3.3-4.6,2.9-12.4c0-0.4-0.1-1.2-0.4-2.5l-0.2-0.8
			c-1-5.1-3-8.1-5.9-8.9c-0.4-0.1-0.7-0.2-1.1-0.1l-0.5,0.1c-2,0.4-2.8,2.6-2.4,6.6C391.5,195.1,391.8,197.6,392.4,200.8z"/>
		<path class="st0" d="M417.2,178.6l0.4-0.1c1.4-0.3,2.5,0,3.4,0.7l0.1,0.3c0.1,0.3-0.1,0.5-0.5,0.5c0.2,0.5,0.3,0.9,0.3,1.1
			c3.1,16,4.1,24.1,2.9,24.3l-0.7,0.3l-0.4,0.1c-0.5-0.1-0.9-0.5-1.2-1.1c-0.5-5-0.8-7.9-0.9-8.7l0-0.1l-0.1,0
			c-1.3,4.3-3.1,9-5.6,13.9c-1.5,2.7-2.4,4.1-2.7,4.2l-0.3,0.1c-0.6,0.1-1.1-0.2-1.4-1.1c-0.1-0.5,1.1-2.8,3.5-7.1
			c1.3-2.7,2.7-6,4-10c-0.4,0.3-0.8,0.5-1.3,0.6c-2.8,0-4.6-1.6-5.2-4.8l-0.1-0.3c-0.8-4.3,0.2-8,3.1-11.3
			C415.4,179.3,416.3,178.8,417.2,178.6z M413.7,190.8c0.4,2.2,1.4,3.3,2.8,3.3c1.9-0.4,3.1-1.3,3.6-2.7c-0.2-0.9-0.6-4.6-1.4-11.1
			l-0.4,0.1c-2.8,0.5-4.4,3.4-4.8,8.6C413.7,190.1,413.7,190.8,413.7,190.8z"/>
		<path class="st0" d="M444.7,170.7c1-0.1,1.6,0.2,1.7,0.9c0.2,0.9-1.2,1.7-4.2,2.2c-1.4,0.5-3.4,0.9-6.2,1.5l0,0.1
			c3.9,13.4,6.6,23.9,8.1,31.7l0.5,2.5c1.5,7.8,2.9,19.2,4.3,34c0.7,3.7,0.5,5.7-0.6,5.9l-0.4,0.1c-0.5,0.1-1.1-0.3-1.6-1.1
			c-0.2-0.8-1.2-10.4-3.1-28.7c-0.5-3.6-1-6.8-1.6-9.6l-0.5-2.7c-0.5-2.5-2.5-12-6.2-28.3c-0.3-1.1-0.5-1.7-0.5-1.7
			c0.1-0.1,0.1-0.5-0.1-1.1l-0.3-0.7c-6.9,1.1-10.5,1.2-10.6,0.4l-0.1-0.5c0.1-0.4,0.3-0.6,0.6-0.7c4.8-0.7,7.6-1.1,8.6-1.3
			C436.1,172.9,440.1,172,444.7,170.7z"/>
		<path class="st0" d="M454.5,171c3.8-0.7,7.5,2.8,11.3,10.5c0.8,1.9,1.4,3.7,1.7,5.4c0.2,1.1,0.3,2.5,0.2,3.9
			c3.2,9.6,5,15.1,5.2,16.5c0,0.4-0.2,0.7-0.5,0.9l-0.4,0.1c-0.9,0.2-1.7-1.1-2.4-3.9l-2.8-9.4c-1.8,3.9-4.1,6.1-7,6.7
			c-4,0.8-7-1.9-9.1-8.1c-0.4-1.8-0.8-3-1-3.6c0-0.4,0-0.7,0-0.9c-0.2-0.8-0.4-1.8-0.9-3.1c-1-7.3,0.4-12.1,4-14.4L454.5,171z
			 M452,189.4c1.1,5.7,3,9,5.8,10.1c0.5,0.2,1.1,0.2,1.8,0.1c3.1-0.6,5.1-3.4,6-8.4l0-0.7c-2.4-8.3-3.7-12.5-4-12.4
			c-2.6-3.5-4.8-5-6.5-4.7c-2.7,0.5-3.9,4.5-3.5,12C451.6,186.8,451.7,188.2,452,189.4z"/>
	</g>
</g>
</svg>
