<?xml version="1.0" encoding="utf-8"?>
<!-- Generator: Adobe Illustrator 19.0.1, SVG Export Plug-In . SVG Version: 6.00 Build 0)  -->
<svg version="1.1" id="Слой_1" xmlns="http://www.w3.org/2000/svg" xmlns:xlink="http://www.w3.org/1999/xlink" x="0px" y="0px"
	 viewBox="0 0 944.7 590.4" style="enable-background:new 0 0 944.7 590.4;" xml:space="preserve">
<g>
	<g id="XMLID_734_">
		<g id="XMLID_735_">
			<path id="XMLID_895_" d="M364.7,320.1c-0.5,4.7-1,9.1-1.5,13.5c-1.2,9.3-5,17.8-10.9,24.9c-4.1,4.9-3.9,10-3.3,15.5
				c1.5,12.3,4,24.5,8.1,36.2c0.3,0.8,0.4,1.6,0.6,2.4c-0.2,0.1-0.5,0.2-0.7,0.3c-0.9-1.9-2.1-3.7-2.8-5.7
				c-4.1-12.8-6.9-25.8-7.5-39.2c0-0.3-0.1-0.7-0.1-1c-0.2,0-0.5-0.1-0.6,0c-8.3,9.6-18.1,17.5-29.2,23.6
				c-9.7,5.4-19,11.5-29.2,15.8c-13.2,5.6-27.4,5.6-41.5,3.1c-3.6-0.6-7.2-1.4-10.8-2.1c-0.8-0.2-1.5-0.5-2-1.4
				c3.9,0.7,7.8,1.5,11.7,2.1c17.3,2.8,34.2,1.9,49.9-6.8c10.5-5.8,21.1-11.6,31.1-18.3c13.7-9.2,24.1-21.5,31.5-36.2
				c3.9-7.7,4.6-16.2,5.2-24.7c0.4-5.1,0.7-10.1,1.2-15.1c0.1-1,0.5-2,0.7-2.8c3.2,0,6.3,0.6,9.2-0.1c6.5-1.5,10.1-6.5,10.9-12.7
				c2.2-15.4,6.6-30.2,11-45c0.4-1.5,0.4-3.1,0.8-4.6c1.3-4.5-1.1-7.1-4.6-9.3c-4.9-3.2-10.5-3.7-15.9-4.9
				c-7.2-1.6-14.4-2.9-21.6-4.1c-2.3-0.4-4.8-0.1-7.6-0.1c0.5-0.5,0.8-1.1,1.1-1.1c2.2-0.2,4.4-0.7,6.5-0.3
				c10.4,1.8,20.8,3.7,31.2,5.7c4.7,0.9,8.3,3.8,12,6.7c0.7,0.5,0.8,1.7,1.1,2.3c3.2-4.6,6.8-9.1,9.7-14.1
				c3.6-6.4,2.3-13.4,0.9-20.2c-0.3-1.3-0.6-2.5-0.9-4.1c-1.4,1.1-2.6,2.2-3.5,2.9c1.7-4.3,4-8.9,5.2-13.7
				c1.3-5.1,0.1-10.2-1.9-15.2c3.6,1.7,4.9,8.8,3.5,18.6c1.8-1.4,3.3-4.2,3.9-10.2c0.4-3.6,0.1-7.5-0.4-11.1
				c-0.6-3.7-1.8-7.4-2.3-11.2c3,5,4.4,10.5,5.3,16.6c0.6-0.8,1.1-1.3,1.4-1.8c5.1-8.2,6.9-17.1,5-26.6c-0.2-1.2-0.4-2.4-0.5-3.6
				c-0.5-5.1-2.3-9.7-6.3-13.1c-0.5-0.5-0.9-1.2-1.7-2.3c1.4,0.5,2,0.8,2.5,1c0-5.2,0.1-10.4,0-15.6c-0.1-3.7-2.9-5.7-6-8.4
				c2.3,13.9-1.5,24.8-12,33.2c-0.2-0.1-0.5-0.2-0.7-0.4c1.5-2,3.1-4.1,4.6-6.1c3-4,5.8-8.2,6.4-13.3c0.9-7.7,1.1-15.2-4.5-21.6
				c-0.9-1-1.8-2-2.8-3.1c0.7,0.1,1.4,0.1,2.3,0.2c1.3-5,2.3-9.7-1.5-14.4c-3.5-4.3-7.9-6-13.2-6.4c3.2-1.5,6.2-0.9,9,0.5
				c6.6,3.3,9.8,10,8.3,17.2c-0.5,2.5-1.8,4.9,0.7,7.2c1.8,1.7,2.2,4.3,4.7,5.7c4.8,2.8,7.4,7.3,7.3,13c-0.1,4.2,0,8.4,0,12.5
				c0,0.8,0.2,1.7,0.6,2.2c4.5,5.4,4.3,12.2,5.2,18.6c1.6,10.3-1.8,19.4-7.9,27.7c-0.9,1.2-1,3.1-1.6,4.6c-1.4,3.6-2.6,7.4-4.3,10.8
				c-0.7,1.4-2.5,2.4-3.8,3.6c2.4,5.8,3.6,12,3.2,18.3c-0.3,5.7-2.9,10.7-6.6,15.1c-2.6,3-4.8,6.4-7.1,9.7c-0.1,0.2-0.2,0.5-0.3,0.7
				c-2.9,10.9-6.1,21.7-8.7,32.6c-1.4,5.9-1.7,12.1-2.9,18.1c-1.4,7.1-4.4,13.3-12,15.5c-2.9,0.8-6.1,0.4-9.5,0.6
				c-0.2,3-0.5,6.7-0.6,10.4c0,0.5,0.8,1.2,1.4,1.5c6.2,3.4,11.6,7.7,15.9,13.4c2,2.7,4.1,5.6,6.8,7.5c7.7,5.6,15.7,10.7,23.6,15.9
				c5,3.3,10.1,6.6,15.2,9.8c3.9,2.5,5.6,6.7,7.7,10.4c1.8,3.3,4.3,5.6,7.5,7.4c5.2,2.9,10.6,5.4,15.4,8.8c4.1,2.9,7.7,6.6,11,10.3
				c2.2,2.4,3.4,4.9,7.6,4.9c3.7,0,7.4,1.7,11.1,2.6c5.5,1.3,11,2.4,16.5,3.7c3,0.7,5.8,1.8,8.8,2.6c1.7,0.5,3.4,1.3,5,1.2
				c1.2-0.1,2.3-1.5,3.4-2.4c1.1-0.9,2-2.2,3.3-2.9c5.5-3.2,11.1-6.6,17.9-5.4c3.8,0.7,7.6,1.8,11.3,3c1,0.3,1.9,1.3,2.5,2.2
				c5.3,7.2,10.4,14.4,15.7,21.6c0.1,0.2,0.2,0.5,0,1.2c-1.2-0.8-2.6-1.6-3.7-2.5c-5.6-4.9-9.5-11.1-13.4-17.3
				c-0.9-1.4-2.3-2.8-3.7-3.3c-4-1.2-8.2-1.9-12.8-2.9c0.3,1,0.3,1.2,0.4,1.2c5.1,0.4,5.8,4.8,7.1,8.3c3.2,8.4,1.9,16-5.2,22
				c-4.2,3.5-6,8.2-7.2,13.3c-0.6,2.8-2.1,4.9-4.2,6.7c-1.6,1.5-3,3.2-4.8,4.5c-2.9,2.2-3.2,5.3-3.7,8.5c-1.1,7.1-2.7,14.2-3.8,21.3
				c-0.5,3-0.1,6.1-0.4,9.1c-1.2,13.7-4.6,26.8-11,39.1c-3.1,5.9-6.9,11.5-10.3,17.3c-0.4,0.7-1,1.5-1.2,2.3
				c-1.8,8.4-6.7,15.3-11.5,22.1c-2.5,3.6-6.1,5.4-10.4,4.4c-4.2-0.9-8.2-0.7-12.4-0.3c-3.8,0.4-7.8-0.4-11.7-0.6
				c-4.1-0.2-8.1-0.3-12.2-0.5c-6.3-0.2-12.6-0.4-18.8-0.5c-1.8,0-3.6,0-5.4,0.3c-2.5,0.4-4.7,1.2-7.4-0.6c-2.1-1.5-5.3-1.5-7.9-2.3
				c-2.9-0.9-5.9-1.7-8.7-2.8c-2.6-0.9-3.6-3.4-2.3-6c1.7-3.5,4-6.6,8.2-7.6c2.9-0.7,5.7-2,8.7-2.3c3-0.3,6,0.3,9,0.4
				c0.9,0,1.7-0.1,2.6-0.3c2.9-0.6,5.1-1.8,5.9-5c0.4-1.5,1.9-2.7,2.6-4.2c1.6-3,2.1-6.6-2.4-7.6c-1-0.2-2-0.7-2.9-1.1
				c-2.5-1.1-2.7-2-1.3-4.1c-4.7-1.8-9.4-3.7-14.2-5.5c0.1-0.3,0.2-0.7,0.3-1c1.2,0.3,2.3,0.6,3.5,1c4.4,1.2,8.8,3,13.4,3.5
				c5.9,0.6,10.7-3.8,11.1-9.8c0.2-3.6,1.2-6.2,4.3-8.3c4.5-3,3.2-7.7,2.5-12.2c-0.7,1.8-1.3,3.5-2,5.3c-0.2,0-0.4-0.1-0.6-0.1
				c0-1.1-0.1-2.1,0-3.2c0.6-9.5,0.6-19-2.6-28c-1.6-4.6-4.5-8.8-7-13.1c-3.7-6.3-4.6-12.4,0-18.8c1.4-1.9,2.2-4.3,3-6.7
				c-3,3.4-6.1,6.7-9.1,10.1c-0.3-0.2-0.6-0.5-0.9-0.7c0.9-1.4,1.7-2.9,2.8-4.2c2.6-3,5.1-6.1,8.1-8.6c2.9-2.4,6.3-4.2,9.6-6.1
				c7.7-4.4,15.7-8.4,23.3-13c3.7-2.2,7.5-4.4,9.7-8.6c0.8-1.6,1.2-2.8,0.6-4.7c-2.7-8.8-9.3-13.8-16.5-18.4
				c-4.6-3-9.5-5.5-14.3-8.3c-3-1.8-5.8-4-7.2-7.3c-3.5-8.5-10.9-12.9-18.1-17.5c-8-5.1-16.2-10-23.9-15.5
				c-4.1-2.9-7.8-6.7-11.1-10.6C376.3,328.1,371,323.7,364.7,320.1z M479.9,470.6c-0.3-0.2-0.5-0.3-0.8-0.5c-1.3,2-3.1,3.8-3.9,6
				c-3.5,9.3-6.8,18.6-10.1,28c-0.7,2-1.4,4.1-2.1,6.2C472.3,498.5,473.6,483.5,479.9,470.6z M441.2,479.7c0.2,0,0.3,0,0.5,0.1
				c-0.3-1-0.5-2-0.9-2.9c-1.7-3.4-3.8-6.6-5.3-10.1c-2-4.8-3.1-9.8-2.8-15.2c-0.7,1.9-1,3.8-1.1,5.7c-0.1,2.2,0.4,4.7-0.3,6.7
				c-0.9,2.4-0.2,4.1,1.1,5.7C435.1,473,438.2,476.3,441.2,479.7z M460.4,441.5c-0.3,0.1-0.6,0.3-0.9,0.4
				c-6.5,3.6-10.5,9.5-15.2,14.9c-3.2,3.7-2.8,7.5-0.7,11.7C444.2,456.4,451.1,448.3,460.4,441.5z M496.8,516.1c0-6,0-12.1,0-18
				C493.9,502.2,492.8,509.8,496.8,516.1z M466,533.5c-0.4-0.1-0.8-0.3-1.2-0.4c-1.9,6.4-3.9,12.9-5.8,19.3c0.5,0.1,0.9,0.3,1.4,0.4
				C462.2,546.4,464.1,540,466,533.5z M477.8,497.8c0.4,0.1,0.8,0.2,1.1,0.3c1.4-6,2.8-12,4.3-18.1c-0.3-0.1-0.6-0.1-0.8-0.2
				C480.7,485.8,478.4,491.6,477.8,497.8z M474.4,531.2c-0.4-0.1-0.8-0.2-1.1-0.3c-0.8,7.5-1.6,15.1-2.4,22.6c0.3,0,0.5,0.1,0.8,0.1
				C472.5,546.2,473.5,538.7,474.4,531.2z M527.6,432.6c0.4-5.1-2.7-7.9-5.1-11C522.1,426.1,524.7,429.1,527.6,432.6z M464.9,492
				c2-4.6,3.9-9.1,5.9-13.7C465.5,481.6,465.8,487,464.9,492z M456.6,536.8c-3.4,3.9-3.9,8.4-3.2,13.3
				C454.5,545.7,455.6,541.2,456.6,536.8z M481.9,571.4c-2.9,2.7-5.4,5-7.8,7.4c-0.4,0.4-0.4,1.3-0.6,1.9c0.7-0.1,1.8,0,2.1-0.4
				C477.7,577.5,479.6,574.6,481.9,571.4z M434,483c0.9,4.4,1.8,8.5,2.6,12.5C437.7,491.1,437.8,486.7,434,483z M522.3,458.1
				c0.2,0.2,0.3,0.3,0.5,0.5c2.3-2.3,6-3.6,5.2-8.2C526.1,452.9,524.2,455.5,522.3,458.1z M496.5,445.2c0.2,0.2,0.3,0.5,0.5,0.7
				c2.1-1.2,3.6-4,6.9-2.2c-0.1-1.2-0.1-2.1-0.3-3.8C500.8,442,498.6,443.6,496.5,445.2z M441.2,576.2c3.8-0.1,4.6-1.1,4.1-4.7
				C444,573.1,442.8,574.4,441.2,576.2z M518.1,442.2c-0.1,1.4-0.2,2.5-0.3,3.7c1.7-0.6,3.2-1.1,4.7-1.7c-0.3-0.2-0.5-0.4-0.7-0.5
				C520.7,443.3,519.6,442.8,518.1,442.2z M445.6,554.6c-1.5,3.1-1.4,7.2,0,8.7c0-1.4,0-2.7,0-4.1
				C445.6,557.7,445.6,556.3,445.6,554.6z M437.7,565.2c-0.3,1.6-0.6,3.1-0.9,4.7C440,567.6,440,567.6,437.7,565.2z M492.8,491
				c0.3,0,0.5,0.1,0.8,0.1c0.4-2.5,0.8-5.1,1.3-7.6c-0.2,0-0.5-0.1-0.7-0.1C493.7,486,493.2,488.5,492.8,491z M429.8,562.5
				c-0.4-0.1-0.7-0.3-1.1-0.4c-0.6,1.8-1.2,3.6-1.7,5.4c0.3,0.1,0.7,0.2,1,0.3C428.6,566,429.2,564.2,429.8,562.5z"/>
			<path id="XMLID_885_" d="M24,475.9c0.6-1.6,1-3.2,1.8-4.7c0.5-0.9,1.3-1.9,2.2-2.4c4.5-2.2,6.8-0.6,6.5,4.4c0,0.6,0,1.2,0,2.2
				c3.4,0,6.8,0.1,10.2-0.1c1-0.1,1.9-1.2,2.9-1.6c3.1-1.4,6.2-2.7,9.4-3.9c2.8-1,5.2-2.4,7.7-4.2c3.6-2.7,8-4.5,12.8-4.5
				c2.5,0,5.1-0.6,6.7-0.8c1.5-3.4,2.5-6.1,3.8-8.5c4.3-7.9,8.8-15.7,13.1-23.5c0.4-0.8,0.7-1.7,1-2.6c0.3,0.1,0.5,0.2,0.8,0.2
				c-0.4,1.2-0.5,2.5-1.1,3.5c-4.6,8.3-9.3,16.6-13.9,24.9c-0.5,1-0.9,2-1.4,3.3c3.5,0.3,3.4,1.8,1.8,4c-0.4,0.6-0.4,1.7-0.2,2.4
				c2.7,6.3,5.5,12.6,8.3,18.9c0.7,1.6,1.4,3.1,1.8,5c-0.7-0.5-1.4-1-2.5-1.8c1.2,5.2,3.7,9.2,6.6,13.1c1.3,1.8,2.3,3.9,3.3,5.8
				c0.2,0.4,0.2,0.9,0.5,1.2c5.2,5.5,4.2,12.5,4.6,19.1c0.1,2.6-0.3,5.2-0.3,7.9c0,0.8,0.5,1.8,1.1,2.4c3.4,3.3,4.7,7.1,4.3,11.9
				c-0.4,5,0.1,5.7,4.6,7.5c5,2,7.2,5.7,8.1,11c0.5,3,1.1,6.2,4.8,7.9c3.9,1.8,5.6,5.9,7.1,9.7c0.7,2-0.7,4.3-3,4.8
				c-5.1,0.9-10.3,2.1-15.2-1.1c-0.2-0.1-0.5-0.3-0.7-0.3c-5.7,0.3-11.5,0.6-17.2,0.9c-1.6,0.1-3.1,0.5-4.7,0.5
				c-2.3-0.1-4.4-0.7-5.1-2.8c-6.3,1.8-12.4,2.4-18.8,1.3c-2-0.3-4.2-0.4-6.2-0.2c-0.8,0.1-1.6,1-2.5,1.4c-1.5,0.8-3,2.3-4.4,2.1
				c-1.5-0.2-3-1.8-4-3.2c-0.7-0.9-0.7-2.4-1.1-3.8c-1.3,1-2.5,1.9-3.7,2.7c-2.9,1.9-5.9,0.5-5.9-3c0.1-3.2,1.1-6.4,1.7-9.8
				c0-0.1-0.5-0.6-0.5-1.1c-0.5-20.6-0.9-41.2-1.3-61.8c0-0.1-0.1-0.1-0.4-0.5c-1,0.2-2.1,0.3-3.3,0.5c-3,0.5-3.9-0.3-3.7-3.2
				c0.1-1.5,0.4-2.9,0.3-4.7c-1.7,2.3-3.3,4.6-5.2,7.2c1.2,1.9,2.5,4.4,4.3,6.7c3,4,5.6,8.2,3.8,13.3c-4,11.5-2.2,23.3-1.9,35
				c0.1,4.6,0,9.2-0.3,13.9c-0.2,3-2.2,4.7-4.9,5.8c-1.6,0.7-3.2,1.6-4.6,2.7c-2.8,2.2-9.1,0-10.7-3.9c-1.1-2.7-2.1-5.5-3.7-8.3
				c-0.6,2.5-1.2,5.1-1.8,7.6c-0.2,1-0.2,2.1-0.5,3.1c-0.8,2.6-2.9,4.2-5.4,4.1c-2.5-0.1-4.6-1.9-4.8-4.7c-0.2-4-0.3-8.1,2.2-11.6
				c0.4-0.5,0.7-1.2,0.7-1.9c0.6-4.9,1.4-9.9,1.5-14.8c0.1-10.5,0.9-20.9,2-31.4c0.9-8.6,0.6-17.4,0.6-26.1c0-5.2,0.6-10.1,4.3-14.1
				c0.2-0.2,0.4-0.4,0.4-0.7c0.4-1.7,1.1-3.4,3-2.8c1.3,0.4,2.3,1.9,3.5,3c0.2-0.4,0.6-1.4,1.2-2.3c0.4-0.5,1.2-0.7,1.9-1
				c0.2,0.7,0.8,1.5,0.7,2c-6.1,16.8-3.5,34.2-3.2,51.4c0.1,5.9,0.7,11.9,1.1,17.8c0.1,0.8,0,1.6,0,2.4c-0.4,0-0.7,0-1.1,0.1
				c-1.4-14.6-2.8-29.2-4.2-43.8c0.2,0,0.3,0,0.5-0.1c-0.2,2.6-0.5,5.1-0.5,7.7c0,7.8-0.2,15.6,0.3,23.3c0.5,8.6,3.1,14.5,8.9,21.2
				c0.1-7.3,0.3-14.7,0.3-22c0-4.4-0.2-8.7-0.4-13.1c-0.1-1.2-0.7-2.3-0.8-3.5c-0.3-2.5-0.7-5.1-0.7-7.6c0-3.6,0.1-7.3,0.7-10.9
				c0.9-5.3,2.2-10.6,3.6-15.8c0.5-1.9,1.8-3.7,2.9-5.9c-1.2-3.9-1.2-3.9,6.2-7.2c-2.1-0.1-3.7-0.3-5.3-0.3c-1.9,0-2.7-1-2.5-2.8
				c0-0.5,0.3-1.1,0.1-1.6c-0.3-1.1-0.7-2.1-1.1-3.1c-1.3,0.7-3.1,1-3.8,2.1c-1,1.3-1.2,3.2-1.7,4.9c-0.5,1.6-1.4,2.3-3.2,1.7
				c-2.5-0.8-4.2-0.2-5.8,2.3c-5.5,8.7-8,18.5-11,28.2c-2,6.4-3.8,12.9-6.2,19.2c1.9-9.2,3.6-18.5,5.9-27.6
				c1.8-7.3,4.5-14.3,8.5-20.8c1.8-3,3.9-4.3,7.2-3.8C22.3,476,23,475.9,24,475.9z M54.7,554.3c0.1,0,0.2,0,0.2,0
				c0-3.7,0-7.5,0-11.2c0.2-10.4,0.5-20.8,0.5-31.1c0-3.7-0.9-7.5-1.4-11.7c-0.7,2.9-0.7,5.5-1.9,7.2c-1.4,2.1-1,4-0.7,5.9
				c0.5,3,2,5.9,2.2,8.9c0.5,9.8,0.5,19.7,0.8,29.5C54.5,552.7,54.6,553.5,54.7,554.3z M72.4,556.8c-0.2,0-0.4,0.1-0.5,0.1
				c0,7.6,0,15.2,0,22.8c1.7,0.2,3.5,0.4,6.1,0.6C76,572.2,74.2,564.5,72.4,556.8z M86.5,530.5c0.3-0.2,0.5-0.4,0.8-0.6
				c-4.4-7.1-8.8-14.1-13.1-21.2c-0.3,0.2-0.5,0.3-0.8,0.5C76.2,517.2,81.2,523.9,86.5,530.5z M40.8,493.4c-0.2-0.1-0.5-0.1-0.7-0.2
				c-1.1,3.4-2.3,6.7-3.4,9.9c2.3-1.1,4.6-2.1,7.6-3.5C40.4,498.5,40.7,495.8,40.8,493.4z M83.4,476.9c-0.4-1.7-0.8-3.1-1.2-4.7
				c-1.9,0.9-3.5,1.7-5.2,2.5C78.6,477.3,80.9,477.2,83.4,476.9z M78.4,553.6c-0.6-4.8-1.1-9.6-4-13.6c-0.2,0.1-0.4,0.2-0.7,0.2
				C75.4,544.7,76.9,549.2,78.4,553.6z M101.6,549c-0.9,0.3-1.7,0.6-2.8,1c1.7,1.9,3.1,3.4,4.6,5c0.1-0.1,0.2-0.2,0.3-0.2
				C103,552.9,102.3,551.1,101.6,549z M60.3,471.8c-0.1-0.3-0.2-0.7-0.3-1c-2.4,0.9-4.8,1.8-7.2,2.7c0.1,0.3,0.2,0.6,0.3,0.9
				C55.5,473.5,57.9,472.7,60.3,471.8z"/>
			<path id="XMLID_882_" d="M167.8,238.6c-10.8,3.4-21.6,6.8-33.1,10.4c0.8-1,1.3-1.8,1.9-2.1c2.2-1,4.5-2,6.8-2.8
				c8-2.5,16-4.9,24.2-7.4c0-0.8-0.1-1.8-0.1-3c-9.9,1.6-19.8,3.2-28.5,8.1c-4.3,2.4-8.1,5.9-11.6,9.3c-1.2,1.2-1.5,3.9-1.4,5.9
				c0.3,6.7,1.1,13.4,1.3,20c0.1,6,1.7,11.3,5.4,16c3.5,4.4,5.6,9.4,5.8,15.1c0.1,2.4,0.5,4.9,1.2,7.2c1,3.1,2.7,4.1,5.9,4.2
				c4.3,0.1,8.5-0.2,12-3.4c1-1,1.5-1.6,1.1-3.1c-1.4-4.7-2.8-9.4-4.1-14.1c-0.3-1.1-0.3-2.2-0.5-3.3c0.2-0.1,0.4-0.1,0.6-0.2
				c0.4,0.7,0.8,1.4,1.1,2.1c4.8,12.8,7.4,26.2,8.5,39.8c0.4,4.8,0.7,9.6,1.8,14.3c2.1,9,7.9,15.8,15.1,21.2
				c11.4,8.6,23.3,16.7,35,24.9c3.3,2.3,7,4.2,10.5,6.2c-0.2,0.3-0.3,0.6-0.5,0.9c-8.7-5.3-17.4-10.5-26-15.7
				c0.8,12.7,0.8,25.5-3.6,37.7c-0.3,0-0.6,0-0.9-0.1c0.3-3.1,0.6-6.2,0.9-9.3c1-9.8,2.2-19.7,0.2-29.5c-0.2-0.9-1-1.9-1.8-2.5
				c-7.8-5.7-16.3-10.6-22.5-18.2c-2.9-3.6-5.3-7.4-8.1-11.4c-0.3,1.6-0.6,3.1-0.8,4.7c-0.3,1.9-1.1,3-3.2,3.1
				c-1.8,0.1-3.6,0.3-5.4,0.5c-0.5,0.1-1.1,0-1.5,0.3c-7.4,5.4-14.8,10.8-22.1,16.3c-0.7,0.5-1.1,1.7-1.2,2.7
				c-0.2,1.7-0.2,3.5-0.1,5.2c0.2,2.1,0.6,4.2,1,6.8c-1.7,1-2-1.3-3-2.4c-5.8,6.4-10.7,13.3-14.8,20.9c-1.6,2.9-2.6,6.2-4.4,8.9
				c-0.9,1.3-3,1.7-4.8,2.2c4.4-1.5,4.3-6.1,6.4-9.1c4.6-6.9,9-13.9,13.7-20.7c2.3-3.3,5.1-6.3,4.2-10.8c-0.4-1.9,0.6-3.2,2-4.5
				c6.6-6.1,13.8-11.2,21.6-15.6c2-1.1,4.6-1.5,7-1.8c2.4-0.3,2.9-1.7,3-3.7c0.1-1.9,0.1-3.9,1.9-4.7c-0.6-6.2-1.1-12.4-1.7-18.5
				c-0.7-6.1-1.5-12.1-2.4-19c-4.1,4.5-8.8,4.9-13.7,4.8c-4.9-0.1-7.4-1.7-8.5-6.4c-0.8-3.1-1-6.4-1.2-9.6c-0.2-3.7-1.1-7.3-3.5-10
				c-6-6.7-7.6-14.5-7.5-23c0.1-4-0.3-8.1-0.4-12.8c-4,4.5-5.2,9.4-6.3,14.3c-1.1-4.3-0.2-8.3,1.7-12c1.7-3.2,3.4-6.2,3-10.1
				c-0.1-1,0.6-2.5,1.4-3.2c3.5-2.8,6.9-6.2,11-8c7.9-3.4,15.8-7,24.5-8c2.4-0.3,4.8-0.9,7-1.4c0.6-4.3,1.4-8.5,1.8-12.7
				c0.5-5.5,4-8.3,8.5-10.5c5.1-2.5,10.6-3.1,16.1-3.2c9.3-0.3,18.7-0.5,28-0.4c6.6,0.1,13.3,0.8,19.1,4.6c1.4,1,2.9,2.7,3.3,4.3
				c0.8,3.3,0.9,6.7,1.3,10.3c5.4-1.7,10.9-1.9,16.5-1.1c4.8,0.7,6,1.7,6.9,6.4c0.8,4.2,1.9,8.3,2.6,12.5c0.4,2.5,1.8,3.9,4.1,4.6
				c13.6,4.3,27.4,6.5,41.5,3.1c6.1-1.5,12.1-3.3,18.1-5.1c2.7-0.8,4.7-2.7,5.7-5.3c1.2-3,2.3-6,3.4-9.1c1.8-4.8,0.4-9.5-0.9-14
				c-1-3.7-4.7-4.8-7.8-6.1c-11-4.8-22.7-5.4-34.4-4.6c-7.3,0.5-14.5,0.9-21.1,4.6c-3.2,1.8-6.4,4-9.2,6.4c-1.5,1.3-2.2,3.5-3.5,5.6
				c-1-1.1-1.1-2.3-0.4-3.7c2-3.6,5-6.2,8.6-8.3c6.8-4,14.2-6,21.9-6.3c8.2-0.2,16.4-0.3,24.6,0.5c6.8,0.7,13.4,3,19.4,6.7
				c2.2,1.4,3.5,3.3,4.1,5.8c2.1,9,0.2,17.3-4.5,25c-1.1,1.8-3.2,3.3-5.2,4.1c-18.7,7.4-37.7,10-57.3,3.5c-3.3-1.1-7.2-1.2-8.6-5
				c-1.4-3.6-2.5-7.5-3.1-11.3c-1.2-7.4-0.9-7.8-9.1-8.4c-2.9-0.2-5.9,0.2-8.9,0.5c-2.5,0.3-3.9,1.5-4.1,4.4
				c-0.4,6.7-1.7,13.3-4.9,19.4c-1.5,2.8-3.6,4.8-6.7,5.4c-4.9,1.1-9.9,2.5-14.9,2.9c-12.4,0.8-24.8,1.1-36.9-2.6
				c-0.5-0.2-1-0.4-1.5-0.5c-6-1.3-8.9-5.5-10.4-11.1C168.8,241.5,168.4,240.4,167.8,238.6z M207.2,255.2c2.6,0,5.2,0.1,7.9,0
				c6.7-0.3,13.3-1.4,19.6-4.1c0.9-0.4,1.8-1.1,2.2-1.9c6-11.1,6.8-23.1,4.9-35.3c-0.2-1-0.9-2.4-1.7-2.7c-3.5-1.4-7.1-3.5-10.8-3.6
				c-12.4-0.6-24.9-0.6-37.4-0.6c-5.4,0-10.6,1.1-15.4,3.7c-1.6,0.9-3.5,2.1-4.1,3.7c-3.1,7.9-4.1,16.1-2.4,24.4
				c1.3,6.1,3,12.4,10.8,13.6c0.3,0.1,0.7,0.2,1,0.3C190.1,255,198.6,255.4,207.2,255.2z"/>
			<path id="XMLID_875_" d="M298.4,327.1c1.7,3,1,4.4-2.8,4.9c-1.6,0.2-3.4,0.3-4.9-0.1c-4.8-1.2-9.5-0.5-14.3,0
				c-6.2,0.6-12.3,1.1-18.5,2c-5.1,0.8-10.2,1.9-15.2,3.3c-3.7,1-7.2,1.4-10.7-0.2c-5.7-2.5-11.3-5.1-15.9-9.3
				c-0.9-0.8-1.7-1.6-2.6-2.4c1.3-0.6,2.5-1.3,3.8-1.7c5.2-1.7,10.5-3.1,15.6-5.1c6.2-2.5,12.4-4.4,19.1-5
				c8.1-0.7,16.3-1.8,24.4-2.8c7.2-0.9,14.2,0,21.1,2.1c4.2,1.3,8.7,1.5,13.1,2.4c1.2,0.2,2.2,1,3.3,1.5c-0.6,0.9-1.1,2-1.9,2.8
				c-1.5,1.5-3,3.1-4.9,4.1C304.5,324.8,301.5,325.8,298.4,327.1z M250.4,330.2c3.4-0.4,6.8-0.8,10.1-1.3c3.7-0.6,3.6-0.7,3.2-4.6
				c-0.1-1.3,0-2.6,0-3.9c0.3,0,0.6,0,0.9-0.1c0.4,2.5,0.8,5,1.2,7.7c3.2-0.4,6.4-0.8,9.8-1.2c0-2,0-3.8,0-5.6c0.3,0,0.5,0,0.8,0
				c0.2,1.8,0.4,3.5,0.6,5.5c2.6-0.4,5.1-0.8,7.6-1.1c1.9-0.2,2.9-0.9,2.6-3c-0.1-0.7,0.2-1.5,0.5-2.6c1.5,2-0.7,5.1,2.7,5.4
				c3,0.3,6.6,1.7,7.2-3.4c0.3,0.9,0.6,1.9,0.9,2.8c5.6-0.7,5.9-1,5.3-5.7c-1.3,0.1-2.7,0.4-4.1,0.3c-4.1-0.3-8.3-0.7-12.4-1.2
				c-1.9-0.2-3.7-0.6-5.6-0.6c-2.1,0-4.2,0.3-6.2,0.5c-2.3,0.2-4.5,0.2-6.8,0.5c-3.9,0.5-7.7,1.2-11.6,1.7c-2.4,0.3-4.8,0.4-7.3,0.6
				C250,323.9,250.2,326.9,250.4,330.2z M302.6,317.4c-3.5-1.3-6.4-2.9-9.6-3.6c-7.9-1.8-15.8-1.7-23.9-0.1
				c-5.6,1.1-11.4,1-17.1,1.2c-3.2,0.1-6.3-0.2-9.1,1.6c-0.6,0.4-0.8,1.2-1.2,1.9c0.6,0.3,1.2,1,1.8,1c3.3-0.1,6.6-0.2,9.9-0.5
				c9.7-1,19.4-2.1,29.1-3c1.5-0.1,3.2,0,4.7,0.4C292.1,317.6,297.1,318.2,302.6,317.4z M234.4,322.2c0,1.4-0.1,2.3,0,3.3
				c0.1,1,0.3,2.1,0.4,3.1c0.4,4.3,0.6,4.4,4.7,3.7c0.6-0.1,1.3-0.3,1.8-0.4c-0.4-3.6-0.7-6.9-1.1-10.4
				C238.3,321.7,236.4,322,234.4,322.2z M249.5,329.8c-0.3-3.1-0.7-6-1-9.1c-2.3,0.2-4.3,0.4-6.5,0.7c0.3,3.4,0.6,6.7,0.8,10
				C245.1,330.8,247,330.4,249.5,329.8z M232.6,322.2c-2.8,1.1-5.5,2.1-8.8,3.4c3.4,2.5,6.3,4.8,9.3,7c0.2-0.2,0.5-0.4,0.7-0.6
				C233.4,328.8,233,325.7,232.6,322.2z"/>
			<path id="XMLID_874_" d="M305.6,108.8c-1.8,5.2-1.3,6.3,3.5,7.3c3,0.7,6.2,0.6,9.3,1c6.9,0.8,13.5,2.7,19.3,6.7
				c1.3,0.9,2.5,2.2,3.6,3.4c1.8,2,3.5,2,5.5,0.4c1.3-1.1,3-2.1,4.6-2.3c7.1-1,14.3-1.7,21.7-2.1c-2.3,0.6-4.6,1.5-7,1.8
				c-4.4,0.6-8.9,0.7-13.3,1.2c-1.3,0.1-2.6,0.5-3.7,1c-3.5,1.7-4,5-1.5,8c1.7,2,3.4,4.1,5.4,6.6c2.8,0,6.3,0,9.8,0
				c0,0.2,0,0.5,0,0.7c-2.3,0-4.7-0.1-7,0c-1,0-2.1,0.3-2.9,0.8c-2.2,1.7-4,8.7-3.1,11.4c0.4,1.2,0.8,2.5,1.5,3.6
				c3.6,5.9,4.6,12.4,4.2,19.2c-0.4,5.8,1.2,10.7,5.7,14.5c0.6,0.5,0.9,1.2,1.7,2.3c0.3-2.5,0.5-4.7,0.8-6.8c0.2,0,0.5,0,0.7,0
				c-0.2,2.4,0.1,4.9-0.6,7.2c-2.3,7.5-0.6,13.7,4.9,19.1c0.3,0.3,0.6,0.7,0.8,1c0,0.1,0,0.1,0,0.2c-3.6-1.7-7.5-7.7-7.7-11.9
				c0-0.7-0.1-1.4,0-2.1c0.5-4.4-0.7-8.2-4.2-11.2c-2.4-2.1-3.3-5-3.3-8.2c0.1-2.7,0.1-5.4,0.1-8.1c0-4.4-0.7-8.7-3-12.6
				c-3-5-4.1-10.2-1.2-15.6c1.6-2.9,0.4-4.9-1.5-6.9c-3.5-3.8-3.8-4.4-4-7.4c-1.8-1.1-3.2-1.9-4.5-2.9c-2.4-1.8-4.6-4.2-7.2-5.4
				c-6-2.6-12.1-5-18.9-4.9c-2.4,0-4.8-0.6-7.2-1.2c-1.2-0.4-2.2-1.5-3.2-2.3c-0.2-0.2-0.3-0.9-0.5-0.9c-3.7,0-4.8-3.8-7.6-5
				c-4.1-1.9-8-4.3-12.1-6.2c-4.9-2.2-10.3-2.1-15.5-1.4c-4.3,0.5-8.5,2-12.7,3.1c-2.2,0.6-4.4,1.4-6.3-0.9
				c-2.6,3.4-6.3,3.8-10.1,4.1c-13.2,0.9-25.4,5.5-37,11.4c-7.2,3.6-12.7,9.4-17.1,16.2c-3.6,5.7-8.6,9.7-14.8,12.5
				c-4,1.8-7.8,4.1-11.6,6.4c-1.1,0.7-1.9,2.1-2.4,3.3c-3.2,6.6-6,13.4-7.1,20.7c-0.6,4-2.9,6.8-6.1,9.6c-3.9,3.4-6.9,8.3-6.7,14
				c0.1,4.5-0.4,8.5-3.5,11.9c-0.4,0.5-0.3,1.4-0.7,1.9c-1.3,1.6-2.5,3.6-4.3,4.7c-4.8,2.8-9.8,5.3-14.8,7.8c-1,0.5-2.1,1.1-3.1,1.6
				c-0.1-0.2-0.3-0.4-0.4-0.6c0.6-0.5,1.1-1.2,1.8-1.6c4.9-2.8,9.9-5.5,14.8-8.3c1.5-0.8,2.8-1.9,3.9-3.2c-4.1,0.5-8.2,0.9-12.3,1.4
				c0-0.3-0.1-0.6-0.1-0.8c2.3-0.4,4.6-0.9,6.8-1.2c4.6-0.6,8.1-2.6,9.8-7.2c0.2-0.6,0.5-1.2,0.5-1.8c-0.6-6.4,1.4-12.1,5-17.5
				c-3.7,1.4-7.4,2.7-11.1,4.1c-0.1-0.3-0.2-0.5-0.3-0.8c3.8-1.7,7.4-3.8,11.4-5.1c5.4-1.8,7.5-5.6,8.2-10.7
				c1.2-8,4.4-15.2,8.8-22.7c-2.2,1.4-4,2.4-5.7,3.5c-0.2-0.2-0.3-0.5-0.5-0.7c2.6-1.7,5.2-3.6,8-5c4.3-2.2,9-3.9,13.3-6.2
				c5.1-2.7,9.3-6.5,12.3-11.4c5.7-9.3,13.5-16.1,23.8-19.9c10.4-3.8,20.7-7.5,31.9-7.8c0.7,0,1.4-0.2,2.1-0.3
				c7.3-0.6,9.4-5.6,8-12.2c0.4,0.8,1.2,1.7,1.2,2.5c0.1,1.4-0.1,2.9-0.4,4.4c-0.5,2.7,0.4,3.6,3.1,2.9c2.5-0.6,5.1-1.3,7.6-2
				c6.3-1.9,13.1-2.5,19.2-0.6c6.6,2.1,12.7,5.9,18.6,9.8c3.2,2.2,2.9,2.9,5.2-0.3C304.5,109.5,304.8,109.3,305.6,108.8z"/>
			<path id="XMLID_873_" d="M346.7,64.1c7.9-9.6,26.1-15.9,40.8-14.4c-0.5-3.9-2.8-6.3-6.3-7.5c-6.2-2.1-12.5-1.2-18.6,0.4
				c-8.3,2.2-16.4,4.9-24.6,7.1c-3.8,1-7.8,1-11.4-1.1c-1.8-1.1-1.8-2.7-1.2-4.3c0.6-1.5,1.8-1.6,3-1c-0.6,1-1.8,2.3-1.5,2.8
				c0.4,0.9,1.7,1.7,2.7,2c3.9,1,7.8,0.2,11.6-0.9c7.7-2.2,15.3-4.7,23.1-6.7c5.4-1.4,11-1.9,16.6-0.3c4.6,1.3,7.6,4,8.7,8.8
				c0.2,0.9,1.3,1.6,1.9,2.4c1.4,1.8,2.8,3.6,4.1,5.5c0.2,0.3-0.1,1-0.2,1.6c-0.3-0.1-0.5-0.1-0.5-0.1c-4.3-7.6-11.6-7.3-18.6-6.3
				c-9.7,1.3-18.5,5.6-26.8,10.7C348.5,63.1,347.6,63.6,346.7,64.1z"/>
			<path id="XMLID_872_" d="M232.8,74.6c-0.4-0.6-0.8-1.1-1.1-1.6c-5.7-11.8-15.9-16.6-28.2-17.1c-17.2-0.7-33,4-47.6,13.4
				c-9.7,6.2-20.5,10.1-32,11.7c-3.2,0.5-6.6-0.4-9.9-0.7c-0.7-0.1-1.4-0.7-1.9-1.3c8.7,2.8,16.7,0.2,24.8-2.6
				c8.8-3,16.5-7.9,24.4-12.5c14.3-8.2,30-11.4,46.4-9.9c8.5,0.8,15.8,4.6,21.7,11.1C232.1,68.1,233.3,71.5,232.8,74.6z"/>
			<path id="XMLID_871_" d="M218.9,335.8c1.5,1,3,2.1,4.5,3.1c5.4,3.7,11.3,5.6,17.7,6.5c4.7,0.7,9.4,1.7,14.2,2.5
				c5.9,1,11.7,0.8,17.6-0.9c7.5-2.1,15.2-4.2,22.9-5.1c5.6-0.6,6.5-3.7,6.8-7.9c0.1-0.6,0.3-1.1,0.5-1.9c1.6,4.6,0,8.7-4.4,10.5
				c-2.9,1.2-6,1.7-9,2.5c-6.5,1.7-12.9,3.8-19.5,5.1c-4.4,0.8-9.1,1.2-13.5,0.6c-7.4-1-14.7-2.8-22.1-4.3c-5.2-1-9.1-4.3-12.9-7.6
				c-1.1-0.9-2.2-1.9-3.3-2.8C218.7,336.1,218.8,336,218.9,335.8z"/>
			<path id="XMLID_870_" d="M361.3,82.8c15-1.1,28.9,1.1,38.5,14.1c6.5,8.7,8.1,18.5,3.1,28.6c-1.1,2.3-3,4.3-4.6,6.3
				c-0.6,0.7-1.6,0.9-2.9,0.9c0.1-0.3,0.1-0.6,0.3-0.8c4.7-4.7,7.2-10.5,7.3-16.9c0.1-9-3.6-16.7-10.8-22.2
				c-7.2-5.5-15.5-8.1-24.5-9.1C365.6,83.4,363.5,83.1,361.3,82.8z"/>
			<path id="XMLID_867_" d="M312.2,226.2c-2.7,5.7-4.8,7-10.7,6.4c-3.1-0.3-4.9-2.4-5.8-6.9c-5.5,1.1-10.9,2.4-14.4,7.4
				c-0.2-0.2-0.4-0.4-0.6-0.7c1-1.2,1.8-2.7,3.1-3.4c10.4-6.2,21.4-8.9,33.2-4.1c1.9,0.8,3.8,1.6,5.5,2.9
				C318.7,229.7,315.7,226.5,312.2,226.2z M304.7,229c1.5-1.3,2.6-2.2,4.3-3.6c-2.1,0-3.2,0-4.5,0
				C304.6,226.4,304.6,227.3,304.7,229z"/>
			<path id="XMLID_866_" d="M217,93.9c-0.3-2-0.7-4.1-0.9-6.1c-1-7.5-7.8-13.4-15.5-13.8c-9.3-0.4-17.7,1.9-25.8,6.2
				c-4.2,2.3-8.6,4.3-13.2,5.6c-3.8,1.1-8,1-12,1.4c0-0.3-0.1-0.7-0.1-1c2.7-0.2,5.4-0.1,8-0.5c1.8-0.3,3.7-0.9,5.4-1.7
				c6-2.9,11.9-6.2,18-9c6.9-3.2,14.3-3.8,21.8-3.2c9.8,0.8,17,9.6,15.9,19.1c-0.1,1-0.5,1.9-0.8,2.9
				C217.5,93.9,217.2,93.9,217,93.9z"/>
			<path id="XMLID_865_" d="M240.2,271.5c-0.8,0.5-1.6,1-2.3,1.5c-3.5,2.6-5.4,6-5.2,10.5c0.1,2.1,1.1,2.4,2.7,1.7
				c1.4-0.6,2.7-1.1,4.1-1.7c3.8-1.8,6.8-1.1,10.1,2c4.9,4.6,12.5,6.5,19,1.1c2.7-2.3,5.7-4.4,9.6-4.3c0.8,0,1.7-0.1,2.3,0.2
				c0.7,0.4,1.2,1.3,1.8,1.9c-0.7,0.5-1.5,1.4-2.1,1.3c-4.4-0.6-8.2,1.2-11.6,3.3c-5.5,3.5-11,2.5-16.6,0.9c-4.3-1.2-8.3-3.8-13-3.2
				c-1.2,0.2-2.4,0.4-3.5,0.7c-2.8,0.7-4.4-0.5-4.4-3.5C230.8,278.4,235.7,271.7,240.2,271.5z"/>
			<path id="XMLID_864_" d="M197.8,17.4c7.6,1.2,14.5,2.3,21.5,3.4c0,0.4,0,0.7-0.1,1.1c-17.2-2.8-34.3-3.8-50.9,2.7
				c-0.1-0.2-0.1-0.4-0.2-0.7c0.7-0.4,1.3-0.8,2-1.1c6.7-2.8,13.7-3.9,20.8-5c5.1-0.8,10.4-2.2,14.8-4.9c8.8-5.3,18.1-5.7,27.8-5.2
				c0.3,0,0.7,0.2,1,0.3c0.1,0,0.2,0.2,0.5,0.8c-8.1-0.8-15.7,0.3-23.1,2.8c2.7-0.6,5.4-1.2,8.2-1.8c0.1,0.2,0.1,0.5,0.2,0.7
				C212.9,12.9,205.6,15,197.8,17.4z"/>
			<path id="XMLID_863_" d="M158,141.8c-8.5-3.1-11.1-9.5-10.9-17.6c0.2-8.5,4-15.4,9.7-21.1c3.3-3.4,8-5.4,12.1-8
				c0.6-0.4,1.5-0.4,2.3-0.5c0.1,0.2,0.2,0.4,0.3,0.6c-1.5,0.9-3,2-4.6,2.8c-8.3,4.4-13.5,11.2-16.2,20c-1.6,5.2-1.5,10.4,0.8,15.3
				c0.9,1.9,2.5,3.5,3.8,5.2C156.1,139.6,157.1,140.7,158,141.8z"/>
			<path id="XMLID_862_" d="M93.4,139.2c-1.4,2.3-2.8,4.1-3.7,6.2c-2.9,6.7-2.2,13.7,0.3,20.2c1.5,4,5.7,6,10,6.1
				c4.5,0.1,8.9-0.5,13.8-0.9c0.6,1-0.4,1.8-1.6,2.4c-6.4,3.1-18.1,1-23-4.1c-0.8-0.8-1.5-1.8-1.8-2.8c-1.8-6.2-2.8-12.5-0.8-18.8
				C87.8,143.4,90.2,140.6,93.4,139.2z"/>
			<path id="XMLID_861_" d="M86.7,210.7c-1.3,1.5-2.4,2.7-3.5,4c-1.3-2.4,0.1-5.4,2.3-6c0.7-0.2,1.2-0.9,1.7-1.4
				c0.6-0.5,1.1-1,1.6-1.5c0.2,0.1,0.5,0.2,0.7,0.3c-0.1,1-0.2,2-0.4,3c-0.6,2.9-1,5.8-1.9,8.6c-0.5,1.7-1.7,3.3-2.7,4.9
				c-0.3,0.5-0.9,0.9-1.6,1.5c0.7,0.3,1,0.6,1.4,0.7c2.6,0.4,5.2,0.7,7,3c3.5,4.5,7.9,8.5,8.6,14.7c0.1,0.8-0.6,1.8-1,2.7
				c-0.6-0.7-1.5-1.3-1.8-2.1c-2.8-7-7-12.8-13.7-16.5c-2.2-1.2-2.5-3.1-0.5-4.4c2.2-1.4,2.9-3.2,2.8-5.7
				C85.9,214.5,86.4,212.8,86.7,210.7z"/>
			<path id="XMLID_860_" d="M85.2,204c0.8-0.1,2-0.2,3.2-0.3c0.1,0.3,0.1,0.6,0.2,0.9c-1.7,0.6-3.4,1.2-5.2,1.6
				c-0.3,0.1-0.8-0.8-1.1-1.3c-0.8-1.4-1.4-2.9-2.3-4.1c-0.7-1-1.8-1.7-2.8-2.4c-5.3-3.5-6.9-8.7-7-14.7c-0.1-4.8-0.8-9.6-0.4-14.4
				c0.4-4.6,2-9.1,3.1-13.7c0.2-0.8,0.8-1.4,1.5-2c-0.7,2.8-1.4,5.7-2.2,8.5c-1.6,6.2-0.9,12.3,0.3,18.4c0.4,2,0.7,3.9,1,5.9
				c0.7,5,3.3,8.9,7,12.2C82.2,200.2,83.5,202,85.2,204z"/>
			<path id="XMLID_859_" d="M552.4,424.1c-1.5,8.4-3.3,16.9-4.4,25.4c-1.2,8.7-1.9,17.5-2.5,26.3c-0.6,8.7-0.8,17.4-1.3,26
				c-3-13.2,2.5-68.6,7.6-77.8C552,424,552.2,424,552.4,424.1z"/>
			<path id="XMLID_858_" d="M206.1,32.6c-4.6,0-9.3-0.6-13.8,0.1c-9.3,1.6-18.5,3.6-27.5,6.2c-3.6,1-7.2,3.4-10,6
				c-4.6,4.3-8.3,9.6-12.8,14c-3.1,3.1-6.8,5.5-10.4,8.2c-0.5,0.3-1.3,0.2-2,0.1c5.9-3,10-7.5,13.9-12.8
				c6.4-8.8,14.7-15.3,25.4-18.3c9.9-2.8,19.8-5.1,30.1-4.7c2.4,0.1,4.8,0.5,7.1,0.7C206.1,32.4,206.1,32.5,206.1,32.6z"/>
			<path id="XMLID_857_" d="M299.5,333.6c-1,0.8-2,1.8-3.1,2.3c-5.4,2.5-11.1,2.8-16.9,3c-8.5,0.3-16.9,0.4-25.4,0.7
				c-4.4,0.2-8.8,0.7-13.3,1.1c-0.7,0.1-1.4-0.1-2.1-0.5c2.9-0.3,5.8-0.4,8.6-1c9.7-2,19.4-2,29.2-2.3c6-0.2,11.9-1.2,17.9-2.1
				c1.6-0.2,3.1-1.3,4.6-2C299.2,333.1,299.3,333.3,299.5,333.6z"/>
			<path id="XMLID_856_" d="M114.8,98.1c-3.2,0.8-6.4,1.5-9.6,2.3c-6.2,1.5-12.2,3.6-16.6,8.4c-2.5,2.8-4.1,6.4-5.9,9.7
				c-1.4,2.4-2.5,4.9-4.1,8c1.2,0.9,2.7,2.3,4.4,3c2.5,1,2.7,2.3,1.3,4.1c-1.8,2.4-3.8,4.7-5.7,7.1c-0.2-0.2-0.5-0.3-0.7-0.5
				c1.9-2.5,3.9-5.1,5.3-7c-1.9-2.2-3.4-4-5-5.7c-1.4-1.4-1-2.5-0.1-3.9c0.5-0.6,0.9-1.4,1-2.1c2.4-9.9,9.3-15.9,18.1-19.6
				c5.5-2.3,11.4-3.4,17.2-5.1C114.6,97.3,114.7,97.7,114.8,98.1z"/>
			<path id="XMLID_855_" d="M369.7,229.4c-0.7,3.1-1.5,6.2-2.2,9.3c-1.1,5-0.4,9.5,2.5,13.9c5,7.6,4.1,15.9,1.6,24.2
				c-0.1,0.2-0.3,0.4-1,1.1c0-1.9-0.1-3.2,0-4.5c0.8-7.9-0.2-15.4-4.3-22.5c-1.2-2-0.8-5.1-0.8-7.6c0.1-4.9,1.2-9.6,3.3-14
				C369.2,229.3,369.5,229.3,369.7,229.4z"/>
			<path id="XMLID_854_" d="M146.1,294.2c-1.9-1.8-3.8-3.6-5.8-5.3c-3.2-2.7-4.9-8.2-3.5-12.4c0.8-2.4,1.5-4.8,2.5-7.2
				c0.4-0.8,1.5-1.4,2.2-2c0.5,1,1.6,2,1.5,2.9c-0.3,2.3-1.5,4.5-1.8,6.8c-0.4,2.6-0.6,5.3-0.1,7.9c0.2,1.3,1.9,2.6,3.1,3.6
				C146.7,290.4,147.1,291.7,146.1,294.2z"/>
			<path id="XMLID_853_" d="M271.8,208.3c1.8-1.2,3.5-2.7,5.5-3.6c2.7-1.2,5.6-2,8.4-3c6.2-2.3,12.4-4.7,18.7-6.8
				c4.1-1.4,8.3-2.6,12.6-3.3c2.7-0.4,5.5,0.2,8.2,0.7c3.1,0.5,6.1,1.3,9.2,1.9c4.8,0.9,8.2,3.7,8.9,7.6c-0.2,0.3-0.5,0.5-0.7,0.8
				c-0.5-0.9-0.8-2-1.6-2.5c-2.3-1.5-4.6-3.1-7.1-4.1c-3-1.1-6.4-1.1-9.3-2.2c-4.2-1.6-8.3-1.1-12.3-0.1c-3,0.7-5.9,2-8.9,3.1
				c-6,2.1-12,4.2-18,6.4c-4.4,1.7-8.8,3.6-13.1,5.4C272.1,208.4,271.9,208.3,271.8,208.3z"/>
			<path id="XMLID_852_" d="M207.5,100.5c0.4-3,1-5.4,1.1-7.8c0.2-8.1-5.8-14.2-14-14.5c-6.2-0.2-6.2-0.2-15,3.6
				c9.6-8.2,23.2-7.2,29.6,1.9c3.2,4.5,3,11.8,0,15.3C208.9,99.5,208.4,99.8,207.5,100.5z"/>
			<path id="XMLID_851_" d="M225.6,1.8c9.8-5.2,48.6,1.8,54,10.4C262.4,4.4,244.5,0.1,225.6,1.8z"/>
			<path id="XMLID_850_" d="M193.7,324.7c0.5-1.8,0.7-3.7,1.5-5.3c3-5.9,5.7-12.1,9.5-17.5c5.7-8.1,12.2-15.7,18.4-23.4
				c1.9-2.3,2.8-2.5,5.1-2.2c-15.5,13.4-25.8,30.2-33.8,48.6C194.1,324.9,193.9,324.8,193.7,324.7z"/>
			<path id="XMLID_849_" d="M128.1,220.3c2.5,1.8,2.6,3.5,2,5.7c-0.3,0.8-0.1,2.5,0.4,2.7c3,1.7,3.7,4.2,3,7.5
				c1-0.2,1.7-0.3,2.5-0.4c0.2,0.2,0.3,0.4,0.5,0.5c-0.4,0.1-0.8,0.2-1.1,0.5c-4,2.8-8.1,5.4-12,8.4c-3.4,2.7-4.8,6.7-6.2,10.7
				c-0.5,1.5-1.1,2.9-2,4.2c-0.1-6,2.5-10.8,6.7-14.7c2.7-2.5,5.9-4.6,8.9-6.9c1.7-1.3,2.2-6.2,0.4-7.3c-2.8-1.7-3.4-3.7-2.2-6.6
				c0.2-0.5-0.1-1.3-0.2-2.7c-5.8,3.4-11.2,6.6-16.6,9.8c-0.1-0.2-0.3-0.5-0.4-0.7C117.1,227.4,122.6,223.9,128.1,220.3z"/>
			<path id="XMLID_848_" d="M296,4.5c0.6,0.8,1.4,1.6,1.8,2.5c3.8,7.4,6.6,15.3,7.1,23.6c0.6,9.7,0.6,19.5,0.7,29.3
				c0,2.2-0.6,4.4-1.3,6.6c0.5-21.1,2-42.2-9.3-61.6C295.4,4.8,295.7,4.7,296,4.5z"/>
			<path id="XMLID_847_" d="M319.8,217.8c-1.4-0.4-2.8-0.7-4.2-1.3c-7-3-13.7-2-20.6,0.6c-6.3,2.4-12.8,4.3-19.3,6.4
				c-0.8,0.3-1.7,0.2-2.5,0.3c0-0.2-0.1-0.4-0.1-0.7c1.6-0.3,3.3-0.5,4.9-1c2.3-0.8,4.8-1.5,6.8-2.9
				C295.1,212.3,309.1,210.1,319.8,217.8z"/>
			<path id="XMLID_846_" d="M107.3,264.4c-3.6-3.1-5.7-7.1-5.7-12c0-1,0.7-2.3,1.5-2.8c4.9-3.6,9.9-7.1,14.9-10.5
				c0.8-0.5,1.7-0.8,2.6-1.2c0.1,0.2,0.3,0.5,0.4,0.7c-0.8,0.7-1.6,1.4-2.4,2c-3.7,2.8-7.4,5.6-11,8.4c-2.1,1.6-3.1,3.7-2.2,6.4
				c0.8,2.2,1.5,4.4,2.2,6.7c0.2,0.6,0.3,1.3,0.4,2C107.9,264.2,107.6,264.3,107.3,264.4z"/>
			<path id="XMLID_845_" d="M439.9,424c0.4-0.6,0.7-1.6,1.3-2.1c2.6-1.8,5.3-3.5,8-5.2c0.7-0.5,1.7-0.6,2.4-1.1
				c1.9-1.2,1.9-2.5,0-3.8c-3.2-2.2-3.5-3-2-6.4c-2.6-0.5-5.4-1.9-7.3,2.3c0.1-2.8,2.3-6.1,3.8-6.5c1.5-0.5,5.7,1.2,6.4,2.8
				c0.3,0.7,0,2.2-0.5,2.6c-1.9,1.6-1.4,2.6,0.4,3.8c3.2,2.2,3.2,4.8-0.1,6.7C448.3,419.5,444.2,421.7,439.9,424z"/>
			<path id="XMLID_844_" d="M299.9,51.1c-0.5-5.8-1.1-11.6-1.4-17.5c-0.4-11.1-4.6-20.9-10.5-30c-0.3-0.5-0.5-1-0.5-1.6
				C300.7,16.1,301.2,33.4,299.9,51.1z"/>
			<path id="XMLID_843_" d="M120.5,105.1c-4.6,4.1-9.3,8.2-13.7,12.5c-2,2-3.7,4.4-5.2,6.8c-2.4,3.9-5.4,6.9-9.8,8.7
				c-4.8,1.9-8.1,5.7-10.4,10.3c-0.4,0.7-0.8,1.4-1.2,2.1c-0.2-0.1-0.4-0.1-0.7-0.2c0.1-0.8,0-1.6,0.3-2.3c2.4-5.7,6.3-10.1,12.4-12
				c3.7-1.1,6.3-3.3,8.1-6.5c4.1-7.3,10.4-12.6,16.6-17.9c1-0.9,2.3-1.3,3.5-1.9C120.5,104.8,120.5,105,120.5,105.1z"/>
			<path id="XMLID_842_" d="M330,303.6c-9.9-14.1-22.7-24.6-38.6-31.6c0.5-0.2,1-0.6,1.5-0.5c1.1,0.1,2.4,0.1,3.3,0.7
				c10.2,6.7,21.5,12.1,28.6,22.8c1.8,2.8,3.9,5.3,5.9,8C330.5,303.2,330.3,303.4,330,303.6z"/>
			<path id="XMLID_841_" d="M182.7,460.1c2.1,1,2.8,3.3,2.1,5.9c-1.3,4.4-3.8,5.7-9.8,5.2c1.2,0.4,2.4,0.8,4.2,1.4
				c-3.8,0.9-6.1-0.7-8.3-2.5c-1.5-1.3-2.9-2.7-4.2-4.1c-1.3-1.4-2.5-2.9-3.8-4.4c0.2-0.2,0.4-0.4,0.6-0.6c1.1,0.9,2.1,1.9,3.3,2.6
				c2.7,1.7,5.3,3.7,8.2,5c5,2.1,8.2-0.4,8-5.8C182.9,461.9,182.8,461.1,182.7,460.1z"/>
			<path id="XMLID_840_" d="M142.5,130.4c-2.4-7.6-3.2-14.7,1.2-21.4c4.6-7,11.1-12,18.2-16.2c0.7-0.4,1.6-0.3,2.6,0
				c-0.4,0.4-0.8,0.8-1.3,1.2c-4.3,3.3-8.7,6.4-12.9,9.8c-8,6.6-10.2,15-7.5,24.9c0.1,0.2,0.1,0.5,0.1,0.8
				C142.9,129.6,142.8,129.7,142.5,130.4z"/>
			<path id="XMLID_839_" d="M349.9,216c4.5,0.6,9.1,1.1,13.6,1.9c8.6,1.5,17.2,3,25.8,4.7c1.4,0.3,2.8,0.9,4.2,1.5
				c0.6,0.3,0.8,1.1,1.6,2.2c-15.2-5.2-30.5-6.2-45.3-9.5C349.8,216.5,349.9,216.3,349.9,216z"/>
			<path id="XMLID_838_" d="M141.2,86.6c-2.3,6-28.2,12.2-34.9,8.5C118.4,93.9,130.5,93.3,141.2,86.6z"/>
			<path id="XMLID_837_" d="M361.2,496.2c4.4-1.9,8.3-0.7,12,1.7c6.6,4.4,12.2,9.4,9,19.6C382,503,372.8,498.5,361.2,496.2z"/>
			<path id="XMLID_836_" d="M169.1,443.4c-7.6-1.3-11.3-5-10.8-10.1c-1.9,2-3.8,3.9-5.7,5.9c-0.2,0-0.4-0.1-0.5-0.1
				c0.4-1.1,0.7-2.3,1.1-3.5c-1.3,0.5-2.6,1.1-3.9,1.6c-0.1-0.2-0.3-0.4-0.4-0.5c0.2-0.5,0.4-1.2,0.8-1.4c2.8-1.6,5.6-3.2,8.5-4.4
				c0.8-0.3,2.2,0.8,3.4,1.3c-1.9,4.1-1.7,5.1,1.6,7.4C165,440.9,167.1,442.1,169.1,443.4z"/>
			<path id="XMLID_835_" d="M407.8,449c-1,0.6-1.9,1.1-2.7,1.6c-0.1-0.2-0.2-0.4-0.4-0.6c1.4-0.9,2.8-1.8,4.9-3.1
				c-1.1,4.4-0.7,8,2.1,11c0.4,0.4,0.4,1.5,0.2,2.2c-0.1,0.5-0.7,0.9-1.2,1.1c-0.2,0.1-0.9-0.6-1-1c-1.1-4.9-5.1-5.7-9.1-6.4
				c-1.4-0.3-2.9-0.4-4.4-0.9c2.4-1.7,5.2-1.4,8-1.2C406.8,452,407.2,451.7,407.8,449z"/>
			<path id="XMLID_834_" d="M130.5,267.3c-0.4,10.8,2,20.7,8.4,29.5C129.1,288.5,127.3,275.2,130.5,267.3z"/>
			<path id="XMLID_833_" d="M416.9,465.3c0.5,1.8,1,3.6,1.5,5.3c1.3,4.6,3.4,8.5,7.4,11.4c1,0.7,2,2,2,3.1c0.3,3.7,0.1,7.4,0.1,11.1
				c-0.3,0.1-0.7,0.2-1,0.3c-0.4-1-1-1.9-1-2.9c-0.1-1.9,0.1-3.8,0.3-5.7c0.2-2.2-0.6-3.8-2.3-5.2c-5-4.1-7.3-9.6-7.7-16
				c0-0.5,0.1-0.9,0.2-1.4C416.6,465.3,416.7,465.3,416.9,465.3z"/>
			<path id="XMLID_832_" d="M384.3,268c-0.1,6.5-1.1,13.6-4,20.3c-1.6,3.6-4.6,5.9-8.1,7.4c-1,0.5-2.3,0.3-3.7,0.1
				c5.1-2.9,10-5.8,11.7-11.8C381.8,278.5,383.1,272.9,384.3,268z"/>
			<path id="XMLID_831_" d="M96.9,189.5c-2.7,2.4-9,2.1-12.2,0.1c-4.7-2.9-7.1-10.2-5.3-16.8c0.5,2.5,0.8,4.6,1.3,6.7
				c1.7,7.1,4.9,9.5,12.1,9.6C93.9,189.1,95,189.3,96.9,189.5z"/>
			<path id="XMLID_830_" d="M209.9,9.1c8.5-5.8,32.1-6.4,38-1.1C235.1,3.7,222.4,5.2,209.9,9.1z"/>
			<path id="XMLID_829_" d="M345.7,37.7c-0.8-0.1-1.6-0.1-2.3-0.4c-5.7-3-15.4-1.2-19.4,3.8c-2.9,3.6-2.7,7.4-0.1,11.1
				c-0.2,0.1-0.4,0.3-0.6,0.4c-0.6-0.8-1.6-1.6-1.9-2.6c-1.2-3.4-0.8-6.7,1.5-9.6c3.8-4.7,13.5-7.7,19.2-5.9
				c1.4,0.4,2.5,1.4,3.8,2.1C345.8,37,345.7,37.3,345.7,37.7z"/>
			<path id="XMLID_828_" d="M360.5,63.1c0.9-0.4,1.8-0.7,2.7-1.1c6.9-3.8,14.1-6.4,22.1-6.1c1,0,2.1,0.2,3,0.6
				c0.8,0.4,1.3,1.2,2.4,2.2c-11.2-3.1-20.1,1.4-29,5.7C361.4,64,361,63.5,360.5,63.1z"/>
			<path id="XMLID_827_" d="M367.4,405.1c1.1-2.5,0.6-3.6-2.1-3.7c-1.4-0.1-1.5-1.3-0.5-2.3c0.2-0.2,0.6-0.4,0.9-0.5
				c1.6-0.5,3.2-1.5,2.6-3.3c-0.4-1.2-1.7-2.5-2.8-2.9c-1-0.3-2.4,0.7-4.1,1.3c-0.7-0.9,0-1.9,1.3-2.6c1.9-1.1,5-0.4,6.6,1.5
				c1.6,1.8,1.2,4.5-1,7C370.5,402.9,370.4,404.4,367.4,405.1z"/>
			<path id="XMLID_826_" d="M145.8,507.2c-4.7-6.4-15.9-4.4-22.9,3.9c0.5-1.3,0.9-2.7,1.7-3.9c4.1-5.7,14.7-7.3,20.4-3.1
				c0.8,0.6,1.1,1.8,1.6,2.8C146.3,507,146,507.1,145.8,507.2z"/>
			<path id="XMLID_825_" d="M124.3,441.1c-3.1,1.6-5.9,3.5-7.3,6.8c2-1.4,3.3-4,6.5-3.5c-4.3,2.2-6.1,6.4-8.5,10
				c-0.2,0.3-0.9,0.7-1,0.6c-0.4-0.3-0.8-0.8-0.8-1.1c0-1,0.1-2.1,0.4-3.1c1.3-4.1,4-7.1,7.6-9.3c0.8-0.5,1.8-0.7,2.7-1
				C124,440.6,124.2,440.8,124.3,441.1z"/>
			<path id="XMLID_824_" d="M411,506c5.5-2.8,5.4-8.1,6.3-12.8c0.4-1.9,0.1-3.9,0.3-5.9c1.6,2.5,2,5.4,1.4,8.2
				c-0.7,3.2-1.6,6.4-2.9,9.4C415.1,507.4,412.9,507.7,411,506z"/>
			<path id="XMLID_823_" d="M287.1,240.1c9.7,5.7,19.2,1,28.7-0.3C307.2,244,293.9,247,287.1,240.1z"/>
			<path id="XMLID_822_" d="M287.6,9.4c6.3,8.2,7.3,18.1,8.4,27.9C293.2,28,292.3,18.1,287.6,9.4z"/>
			<path id="XMLID_821_" d="M309.1,523.6c-0.1-5.8,0.6-6.6,4.8-5.9c-0.8,0.3-1.2,0.4-1.6,0.6c-0.8,0.5-2.4,1-2.4,1.5
				c0,1.2,0.3,2.8,1.1,3.6c3.2,3.1,3.4,6.3-0.1,9.1c0.4-1.1,0.7-1.9,1-2.8c0.8-1.9,0.5-3.8-1.3-4.8c-2.4-1.4-5.4-0.7-6.6,1.4
				c-0.8,1.5-1.3,3.1,0.6,4.3c4.4,2.9,4.8,4.7,1.7,9.3c0.3-0.7,0.6-1.3,0.9-2c1.1-2.9,0.6-5-2.1-6.1c-2.6-1-2.9-2.7-2.5-4.9
				c0.4-2.2,2.7-3.6,5.2-3.5C308.2,523.5,308.6,523.5,309.1,523.6z"/>
			<path id="XMLID_820_" d="M247.4,244.7c-0.5,8.8-1,17.7-1.5,26.5c-0.1,0.1-0.2,0.2-0.4,0.3c-0.4-0.8-1-1.5-1.1-2.4
				c-0.2-2.2-0.3-4.4-0.1-6.5c0.6-5.6,1.4-11.1,2.2-16.6c0.1-0.5,0.3-0.9,0.5-1.4C247.1,244.7,247.3,244.7,247.4,244.7z"/>
			<path id="XMLID_819_" d="M180.7,476.5c-9.4,3.5-13.2,11.5-16,20.4C162.3,490.2,172.4,477.2,180.7,476.5z"/>
			<path id="XMLID_818_" d="M181.9,26.6c-1.5-1-2.5-1.7-3.5-2.4c0.1-0.2,0.3-0.4,0.4-0.6c1.5,1,2.9,1.9,4.4,2.9
				c-0.1,0.4-0.1,0.8-0.2,1.2c-8.8,0.3-17.8,0.1-26.2,3.2C164.5,27.3,172.6,25.7,181.9,26.6z"/>
			<path id="XMLID_817_" d="M143.5,69.8c-4.7,4.7-19.8,7-24.4,3.7C127.4,74.6,135.2,72.4,143.5,69.8z"/>
			<path id="XMLID_816_" d="M255.3,559c1.9,1.3,3.4,2.7,5.2,3.5c1,0.5,2.9,0.5,3.5-0.1c0.9-1,1.6-2.8,1.4-4.1
				c-0.2-1.2-1.5-2.6-2.7-3.1c-3-1.1-4.1-0.1-5.3,3.5c-1.3-3.2-0.2-4.4,3.8-4.7c2.5-0.2,4.2,0.6,5.3,2.9c1,2.3,0.6,4.5-1.1,6.3
				c-0.6,0.7-2,1.5-2.6,1.3c-2.4-0.9-4.8-2.2-7-3.6C255.3,560.6,255.4,559.5,255.3,559z"/>
			<path id="XMLID_815_" d="M189.2,468.3c-2.1-2.2-1.7-3.7,1.8-6.4c-2.1-0.9-4.6-1.5-4-4.6c0.1-0.7,0.6-1.7,1.1-1.9
				c2.5-0.7,5-1.1,7.6-1.5c0.4-0.1,0.9,0.7,1,0.8c-2.6,0.4-5.1,0.7-7.6,1.4c-0.6,0.2-1.3,1.4-1.3,2.2c0,0.6,0.9,1.5,1.6,1.7
				c1.7,0.4,3.7,0.3,5.4,0.9c1.5,0.5,2.9,1.6,4.2,2.6c0.3,0.2,0,1.2,0,2.6c-1.6-2.5-2.2-5-5.3-4
				C189.8,463.3,189.1,464.2,189.2,468.3z"/>
			<path id="XMLID_814_" d="M189.9,428.5c-1.3-0.7-3-1.2-3.8-2.2c-0.5-0.7-0.2-2.9,0.6-3.5c1.2-1,3.1-1.2,4.3-1.6
				c-1.3-0.9-2.2-2.8-1-4.9c0.6-1,2.3-1.7,3.5-1.9c0.6-0.1,1.4,1,2.2,1.6c-0.2,0.2-0.3,0.5-0.5,0.7c-0.3-0.1-0.6-0.2-0.9-0.2
				c-0.9,0-1.8,0.1-2.6,0.1c0.1,1.1-0.1,2.2,0.3,3.2c0.5,1.2,1.3,2.2,1.6,3.9c-0.9-0.3-1.7-0.5-2.6-0.8c-1.7-0.6-3.3-0.7-4,1.4
				c-0.7,2.1,0.9,2.2,2.2,2.7c0.4,0.2,0.8,0.5,1.1,0.8C190.2,428,190,428.2,189.9,428.5z"/>
			<path id="XMLID_813_" d="M456.1,420.7c0.7-1.1,1.1-1.8,1.7-2.7c-0.7,0.3-1.1,0.4-1.5,0.6c1.1-1.4,0.8-4.1,3.8-4
				c0.5,0,1.1-2.4,1.6-3.7c0.3-0.7,0.5-1.4,0.7-2.1c0.6,0.7,1.5,1.4,1.6,2.2C464.3,414.6,460.4,419.4,456.1,420.7z"/>
			<path id="XMLID_812_" d="M440.6,403.2c-1.4,3-2.6,6.2-4.4,8.9c-1.7,2.6-4.8,3-7.2,1.5c-0.6-0.4-1-1.1-1.1-2.2
				c0.5,0.1,1.1,0.1,1.6,0.3c3.1,1.2,5,0.3,6.2-2.9c0.5-1.4,1-2.8,1.7-4.1c0.5-0.9,1.5-1.4,2.2-2.2
				C440.1,402.8,440.4,403,440.6,403.2z"/>
			<path id="XMLID_811_" d="M409.1,536c6.1,1.3,11.7,0.5,16.5-4.4c-0.1,0.7,0.1,1.6-0.2,2.1c-2.2,3.9-11.5,6.2-15.4,4
				c-0.4-0.3-1-0.4-1.4-0.6C408.7,536.8,408.9,536.4,409.1,536z"/>
			<path id="XMLID_810_" d="M182.6,494c4.1-5.2,8.6-10.3,2.9-17.2c2.2,0.1,3.8,1.7,4.3,4.1C190.7,486.8,189.1,490.6,182.6,494z"/>
			<path id="XMLID_809_" d="M84,164.9c3.6,8.4,7.7,16.2,19.1,14.9C94.7,183.5,84.4,175.3,84,164.9z"/>
			<path id="XMLID_808_" d="M134.3,86c-1.8,4.2-15.9,7.2-20.6,4.5C120.9,91.1,127.3,88.4,134.3,86z"/>
			<path id="XMLID_807_" d="M85.7,142c-7.2,8.1-7.6,16.8-4.1,26.1C76,160.3,78.4,143,85.7,142z"/>
			<path id="XMLID_806_" d="M200.8,99c0.3-2.6,1-5.1,0.8-7.5c-0.1-2.4-1.1-4.8-1.4-7.4c2.4,0.8,3,3.1,3.5,5.2
				C204.7,92.9,204.8,97.1,200.8,99z"/>
			<path id="XMLID_805_" d="M150.2,36.2c6.4-4.6,14.3-4.7,21.9-5.7c0.1,0.3,0.2,0.6,0.2,0.9C164.9,33,157.4,34.6,150.2,36.2z"/>
			<path id="XMLID_804_" d="M398.8,231.4c5.9-7.2,9.2-15,4.8-24.7C409.5,211.7,406.6,225.5,398.8,231.4z"/>
			<path id="XMLID_803_" d="M169.8,34.5c-4.3,1.1-8.7,1.8-12.9,3.4c-4.1,1.5-7.8,3.9-11.4,5.7C147.1,39.6,162.8,33.1,169.8,34.5z"/>
			<path id="XMLID_802_" d="M112.2,83.1c6.1,0.8,12.1,1.5,18.1,2.3C126.8,87.6,115.6,86.2,112.2,83.1z"/>
			<path id="XMLID_801_" d="M293.7,539.2c-1.4,0.9-3.1,1.7-4.4,2.8c-1.9,1.7-1.6,2.8,0.6,3.9c2.2,1.1,3.4,3,3.1,5.6
				c-0.3,2.8-2.9,5.7-5.7,6.2c-2.4,0.5-3.8-0.9-5.3-3.3c1.7,1,2.7,1.9,3.9,2.2c2.4,0.6,5.4-1.9,6-4.8c0.6-2.6-0.6-4.3-3.3-5.3
				c-0.6-0.2-1.4-0.9-1.3-1.2c0.4-1.4,0.7-3.1,1.6-4.1C291.2,538.8,291.9,538.7,293.7,539.2z"/>
			<path id="XMLID_800_" d="M251.5,554.1c-1.8-0.1-3.6-0.3-6-0.4c2.1-1.5,3.8-1.1,5.7-0.7c1.8,0.4,1.7,1.6,1.4,3
				c-0.3,1.5,1,3.5-1.1,4.4c-1.5,0.7-3.2,1.7-4.8,1.6c-2.8-0.1-4.2-2.3-4.7-5.3c0.6,0.4,1.1,0.8,1.7,1.3c1.1,0.9,2.1,2.1,3.4,2.7
				c2.5,1.1,4.8-0.9,4.5-3.6C251.6,556.1,251.6,555.3,251.5,554.1z"/>
			<path id="XMLID_799_" d="M289.7,232.5c7.9,0.9,15.8,2.6,23.8,0.4C308.5,235.8,301.9,235.7,289.7,232.5z"/>
			<path id="XMLID_798_" d="M268.2,560.4c2.2,0.5,3.8,1,5.5,1.3c3.4,0.4,6.4-1.6,6.6-4.4c0.3-3.3-2.1-5.6-5.9-5.8
				c-0.6,0-1.2-0.1-1.9-0.2c3-1.5,5.8-0.8,7.6,1.8c1.8,2.6,1.6,5.8-0.4,7.6C276.5,563.5,271.9,563.5,268.2,560.4z"/>
			<path id="XMLID_797_" d="M390.4,236.7c0.9,7.3-2.3,13.5-5.3,19.7C386.9,249.9,388.7,243.3,390.4,236.7z"/>
			<path id="XMLID_796_" d="M116.3,277.3c-2.2,0.2-3.3-0.9-5.2-5.3c-1.3-3.1-0.6-7.2,1.1-8.6c0.1,2.1-0.2,4.8,0.5,7.2
				C113.4,273,115.1,275.1,116.3,277.3z"/>
			<path id="XMLID_795_" d="M345.5,470c-2.6-1.9-5-3-7.3-0.7c-0.8,0.8-1.4,2.4-1.2,3.3c0.6,2.2,3.3,3.2,6.7,2.9
				c-1,1.5-2.5,1.9-4.3,1c-2.4-1.2-4.3-3.9-3.8-5.7c0.6-2.3,3.6-4,6.8-3.9C344.6,467.1,345.1,467.6,345.5,470z"/>
			<path id="XMLID_794_" d="M118.5,489.8c-1.8,2.4-3.4,4.4-4.8,6.5c-0.9,1.3-1.6,2.7-2.1,4.2c-0.9,2.4-0.1,4.5,2.3,6.2
				c-2.5,0.3-3.4-1.1-3.6-2.6c-0.2-1.7,0-3.7,0.5-5.3C112.1,495.5,115.8,491.1,118.5,489.8z"/>
			<path id="XMLID_793_" d="M295.1,550.2c1.5-1.2,3.6-2.2,4.5-3.7c1.2-2.2,0.4-4.4-1.7-6.3c-1.6-1.5-2-3.7-1-5.8
				c1-1.9,2.7-2.7,5-2.1c-0.4,0.1-0.8,0.3-1.2,0.4c-3.9,1.2-4.6,4.4-1.6,7.2c3.1,3,2.6,8-1.2,9.9C297,550.3,295.8,550.1,295.1,550.2
				z"/>
			<path id="XMLID_792_" d="M184.6,446.4c-2.6,1.8-4.9,3.4-7.2,5c0,0-0.1-0.1-0.1-0.1c1.1-1,2.2-2,3.3-3c-3.8,0.7-5.6,3.5-7.5,6.9
				C173.3,449.5,180,444.5,184.6,446.4z"/>
			<path id="XMLID_791_" d="M335.3,490.7c1.3,1.3,0.9,2.9,0,4.1c-0.5,0.7-2,0.7-3.1,0.9c-2.9,0.5-5.8,0.6-8.5,1.4
				c-0.9,0.3-1.6,2.1-2.1,3.3c-0.3,0.8-0.1,1.8-0.3,2.7c-1.3-4.4,0.3-7.4,4.7-8.2c2.1-0.4,4.4-0.1,6.5,0.1c1.7,0.2,2.6-0.7,2.2-2.5
				c-0.1-0.5-0.3-1.1-0.4-1.6C334.7,490.8,335,490.7,335.3,490.7z"/>
			<path id="XMLID_790_" d="M404.6,198c1.4-5.8,2.9-11.7,4.3-17.2C410.5,184.5,408.2,194.5,404.6,198z"/>
			<path id="XMLID_789_" d="M202.5,551.7c-7.6-1-12.9,2.1-15.8,8.8c-1-2.1-0.4-3.8,2.3-6C193.3,550.8,199.4,549.4,202.5,551.7z"/>
			<path id="XMLID_788_" d="M349.5,457.6c-1.8,0-3.6,0-5.3,0c-2.1,0.1-3.4,1.2-3.7,3.3c-0.2,1.8,1.7,3.8,3.7,4c1.2,0.1,2.3,0,3.6,0
				c-1.9,1.9-4.5,1.8-6.6-0.2c-2-1.9-2.2-4.7-0.4-6.5C342.8,456.2,347.5,455.9,349.5,457.6z"/>
			<path id="XMLID_787_" d="M190,473.7c-1.4-3,0-5.4,3.1-5.6c3.7-0.2,6.8,1.3,9.2,4c0.7,0.8,0.5,2.5,0.3,3.8
				c-0.6-3.6-4.2-6.7-8.4-6.8C191.6,469.1,190.3,470.4,190,473.7z"/>
			<path id="XMLID_786_" d="M127.2,516.1c-1.3-6.8,4.8-12.9,11.6-11.4C131.3,504.9,128.6,509.8,127.2,516.1z"/>
			<path id="XMLID_785_" d="M218.1,533.9c0.2-1.4-0.1-3,0.5-4.2c1.5-2.9,4.5-4.1,7.6-4.5c1.5-0.2,2.5,0.8,2.3,2.6
				c-5.3-2-9.6,0.2-9.7,6C218.6,534,218.3,533.9,218.1,533.9z"/>
			<path id="XMLID_784_" d="M352.5,454.5c-0.1-1.2,0.1-2.9-0.6-3.5c-0.9-0.8-2.9-1.5-3.9-1c-1.6,0.8-2.9,2.5-4.1,3.9
				c-0.3,0.4,0,1.3,0,2c-0.2,0.1-0.4,0.1-0.6,0.2c-0.1-1-0.5-2-0.3-2.9c0.4-2.3,3.5-4.4,6.1-4.5c2.2-0.1,3.8,1,4.5,2.9
				c0.3,1-0.4,2.3-0.7,3.5C352.7,454.8,352.6,454.7,352.5,454.5z"/>
			<path id="XMLID_783_" d="M223.7,517.5c-2.3,0-4.5-0.4-6.6,0.1c-2,0.4-4,1.8-3.8,4.3c0.1,2.5,1.5,4.2,4.1,4.6
				c-0.1,0.2-0.2,0.4-0.3,0.6c-1-0.4-2.2-0.6-2.9-1.3c-1.7-1.5-2.6-3.4-1.7-5.6C213.9,516.4,220.5,514.9,223.7,517.5z"/>
			<path id="XMLID_782_" d="M213.6,497.8c-4.8-2.5-8.7-2.1-10,0.6c-0.8,1.7,0,3.5,2.1,4.9c-0.9-0.2-2.4-0.3-2.5-0.7
				c-0.4-1.4-0.9-3.2-0.4-4.5c1.1-3.2,6.8-4.6,9.5-2.6C212.7,495.9,212.9,496.6,213.6,497.8z"/>
			<path id="XMLID_781_" d="M279.9,270.5c1.5-1.8,3.2-1.4,4.7-0.5c2.2,1.4,4.5,2.9,3.9,6.3C286.3,273.4,284.2,270.3,279.9,270.5z"/>
			<path id="XMLID_780_" d="M139.2,68.4c-5,2.3-10.1,3.7-15.5,2.6C128.8,70.1,134,69.3,139.2,68.4z"/>
			<path id="XMLID_779_" d="M182.4,436.6c-1.9,0.5-3.8,1.1-5.7,1.5c-1.8,0.4-2.9-0.1-3.9-2.1c-0.7-1.5-2.7-2.4-4.2-3.7
				c2.4,0.1,4.5,0.7,5.3,3c0.7,2,2,1.9,3.5,1.5c1.6-0.4,3.2-0.9,4.8-1.4C182.2,435.9,182.3,436.3,182.4,436.6z"/>
			<path id="XMLID_778_" d="M226.4,542.1c0.5,2.3-0.3,5.2,2.8,6c2.5,0.7,4.6-0.3,5.9-3.1c0.8,2.2-0.3,3.1-1.6,3.6
				c-2.2,1-4.6,1.6-6.6-0.5C225.2,546.5,225.6,544.3,226.4,542.1z"/>
			<path id="XMLID_777_" d="M357.3,437c2.1-1.8,3.1-4.5,2-5.8c-1.3-1.6-4.3-1.7-7,0.1c0.2-2.8,2.2-2.6,3.9-2.6
				c3.1,0.1,4.5,1.5,4.4,4.2C360.5,435.8,359.5,437,357.3,437z"/>
			<path id="XMLID_776_" d="M334.9,489c-7.5-2.3-10.5-1.1-10.1,4.8c-1.5-2.3-1-4.9,1.1-6.2C328.5,486,333.6,486.7,334.9,489z"/>
			<path id="XMLID_775_" d="M116.3,420.1c-0.7,1.6-1.2,3.2-2.1,4.6c-0.3,0.4-1.4,0.3-2.2,0.5c-0.1-0.7-0.5-1.6-0.2-2
				c0.9-1.4,2.1-2.6,3.2-3.9C115.4,419.5,115.9,419.8,116.3,420.1z"/>
			<path id="XMLID_774_" d="M419,479.9c-3.2-2.2-4.8-7-3.8-11C416.4,472.5,417.6,476.1,419,479.9z"/>
			<path id="XMLID_773_" d="M421,532.8c-2.3,2.7-6.8,3.6-10.9,2.2C413.8,534.2,417.3,533.5,421,532.8z"/>
			<path id="XMLID_772_" d="M354.5,374.5c0.2,4-1.1,8.1,2.4,11.7C353.2,385,352,378.5,354.5,374.5z"/>
			<path id="XMLID_771_" d="M134.7,115.3c-0.5-3.7,2.2-9.5,5.4-11.4C138.4,107.6,136.5,111.6,134.7,115.3z"/>
			<path id="XMLID_770_" d="M212.7,544.4c-0.5,1.7-0.9,3.4-1.3,5c-0.1,0.5-0.4,1-0.5,1.4c-0.5-0.5-1.1-0.8-1.3-1.4
				C208.7,547.5,210.2,545.1,212.7,544.4z"/>
			<path id="XMLID_769_" d="M384.8,513.1c-0.8-3.6-1.6-6.8-2.3-10C384.9,504.1,386.2,509,384.8,513.1z"/>
			<path id="XMLID_768_" d="M187.8,453.9c-0.8-1.2-1.7-2.1-1.9-3.1c-0.5-3,1.9-4.1,4-5.1c1.6-0.7,3.5-1.6,5.6,0.9
				c-3.9-1.2-6.8-0.5-8.4,2.5C186.6,450.1,187.5,451.9,187.8,453.9z"/>
			<path id="XMLID_767_" d="M353.1,440.3c-4.8,0.8-4.9,0.9-3.7,6.8c-1.6-1.1-2.6-4.6-1.5-6C349.1,439.4,350.7,438.9,353.1,440.3z"/>
			<path id="XMLID_766_" d="M112.7,240.7c-2.7,2.1-5.4,4.2-8.1,6.3c-0.2-0.3-0.5-0.6-0.7-0.9c2.7-2.1,5.5-4.1,8.2-6.2
				C112.3,240.1,112.5,240.4,112.7,240.7z"/>
			<path id="XMLID_765_" d="M332.2,497.6c1.1,2.7,0.9,5.1-0.8,7.3c-1.3,1.7-3.1,1.9-5.2,1.2C331.8,505.7,332.2,501.9,332.2,497.6z"
				/>
			<path id="XMLID_764_" d="M173.6,477.2c-2,2.4-4,4.9-6.1,7.3c0.8-3.5,2.5-6.2,5.6-7.9C173.2,476.9,173.4,477,173.6,477.2z"/>
			<path id="XMLID_763_" d="M373.7,246.1c0.8,3.2,1.5,6.3,2.3,9.5C374.3,252.6,372,249.8,373.7,246.1z"/>
			<path id="XMLID_762_" d="M218.9,509.4c-1.4-4.5-4.7-4.3-8.1-4.2c1.5-1.5,3-1.6,5.5-0.4C218.1,505.7,219.9,506.6,218.9,509.4z"/>
			<path id="XMLID_761_" d="M241.3,551.3c-0.1-0.7-0.2-1.5-0.3-2.2c-1.4-0.3-2.7-0.5-4-0.7c1.8-1.2,3.8-1.7,5.2-0.1
				c0.5,0.6,0,2.1-0.1,3.1C241.9,551.4,241.6,551.3,241.3,551.3z"/>
			<path id="XMLID_760_" d="M441.8,419.4c1.7-2.8,4.2-4.5,7.1-5.5c0.2,0.2,0.3,0.5,0.5,0.7C446.9,416.3,444.4,417.9,441.8,419.4z"/>
			<path id="XMLID_759_" d="M198.8,482c4.4-1.7,9.4,0.7,9.2,4.7C206.4,481.5,202.1,483.2,198.8,482z"/>
			<path id="XMLID_758_" d="M414.3,499.2c0.5-3.1,0.9-5.8,1.4-8.5C417.1,493.1,416.6,497,414.3,499.2z"/>
			<path id="XMLID_757_" d="M341.2,482.7c-1.5-3.2-3.3-5.7-7.2-5.4C337.6,475.6,341.4,478.4,341.2,482.7z"/>
			<path id="XMLID_756_" d="M279.3,551.2c-0.2-2.6,0.9-4.1,3-4.7c1.5-0.4,3.3-0.8,4.6,1.4C283.1,546.4,280.6,547.6,279.3,551.2z"/>
			<path id="XMLID_755_" d="M136.9,269.1c0-2.8,0-5.2,0-7.7C138.9,262.8,138.9,265.5,136.9,269.1z"/>
			<path id="XMLID_754_" d="M174.5,423.3c0.2,2.6,0.5,5.1,0.7,7.6C173,429.9,172.6,425.9,174.5,423.3z"/>
			<path id="XMLID_753_" d="M357.3,383.8c-2-1.8-2.4-4.7-0.9-8.4C356.7,378.5,357,380.9,357.3,383.8z"/>
			<path id="XMLID_752_" d="M170.7,476.8c-2.9,0-5.7,0-8.4,0C164.7,474.8,168.7,474.8,170.7,476.8z"/>
			<path id="XMLID_751_" d="M113.8,500.2c-0.8-2.2,1.1-5.4,4.2-6.9C116.6,495.6,115.1,497.9,113.8,500.2z"/>
			<path id="XMLID_750_" d="M316.5,524.6c0.3-2.3,0.7-4.6,1.1-7.1c0.1,0.1,0.9,0.4,1,0.9C318.9,520.8,318,522.8,316.5,524.6z"/>
			<path id="XMLID_749_" d="M199.2,560.2c0-2,0-4,0-6C201.4,555.4,201.4,558.2,199.2,560.2z"/>
			<path id="XMLID_748_" d="M437.2,403.2c-1.1,1.8-2.2,3.6-3.3,5.5c-0.3-0.2-0.6-0.3-0.8-0.5c1.1-1.8,2.1-3.7,3.2-5.5
				C436.6,402.8,436.9,403,437.2,403.2z"/>
			<path id="XMLID_747_" d="M232.1,554.6c1.7,3.4,4.5,2,7.4,1.6C236.1,558.9,233.1,558.2,232.1,554.6z"/>
			<path id="XMLID_746_" d="M386.8,516.8c0-1.9,0-3.7,0-5.8C388.4,512.5,388.4,513.8,386.8,516.8z"/>
			<path id="XMLID_745_" d="M172.6,431.5c-2.4-1-2.8-2.9-1.1-5.2C171.9,428.1,172.2,429.7,172.6,431.5z"/>
			<path id="XMLID_744_" d="M184.8,449.6c-1.5,1-3,2-4.5,3c-0.2-0.2-0.3-0.5-0.5-0.7c1.5-1.1,3-2.1,4.4-3.2
				C184.4,449,184.6,449.3,184.8,449.6z"/>
			<path id="XMLID_743_" d="M199.9,489.2c2,1.1,3.5,1.9,5.6,3.1c-1.7-0.2-3,0-4-0.6C200.8,491.3,200.5,490.1,199.9,489.2z"/>
			<path id="XMLID_739_" d="M190.8,242.4c-2.5,1.3-5,2.6-7.5,3.8c-0.2-0.1-0.3-0.3-0.5-0.4c0.5-0.7,0.8-1.6,1.4-2
				c3-1.8,5.8-4.2,9.1-5c9-2.1,18.1-3.7,27.2-5.1c3.3-0.5,8.5,2.8,10.6,6.2c-5.3-0.1-8.6-6.2-14.4-3.9c0.8,3,0.1,6-2.6,8.1
				c-1.5,1.1-3.5,2-5.4,2.1c-4.5,0.3-7.1-2.7-7.1-7.8C197.7,239,194.2,240.6,190.8,242.4L190.8,242.4z M207.2,243.9
				c4.4,0.4,7.8-2.6,7.6-6.1c-0.1-1.5-0.7-2-2.1-1.4C213.1,242.1,212.8,242.6,207.2,243.9z M205.3,241.3c0.2-0.1,0.4-0.2,0.6-0.4
				c0-1.2,0-2.3,0-3.7c-0.9,0.3-1.7,0.5-2.7,0.8C204,239.2,204.7,240.2,205.3,241.3z"/>
			<path id="XMLID_738_" d="M225.7,229.5c-3.4-0.9-6.7-2.2-10.2-2.7c-5.4-0.9-11-2.2-16.2-1.6c-7.2,0.9-14,4.1-19.9,8.6
				c-0.9,0.7-2.1,1.1-3.1,1.6c-0.2-0.3-0.4-0.5-0.6-0.8c0.5-0.6,0.9-1.3,1.5-1.9c5.2-4.8,11.2-7.6,18.3-8.1c4.9-0.3,9.7-1.1,14.6-1
				c5.7,0.1,10.9,2.5,16,4.7C225.9,228.8,225.8,229.2,225.7,229.5z"/>
			<path id="XMLID_737_" d="M208.2,247.3c7.7,0.4,14.4-1.8,20-7.1c0.3,0.2,0.5,0.4,0.8,0.6c-0.4,0.8-0.6,1.9-1.3,2.3
				c-2.4,1.4-4.7,3.2-7.3,3.8c-3.9,1-8,1.1-12,1.6C208.3,248.1,208.3,247.7,208.2,247.3z"/>
			<path id="XMLID_736_" d="M190.7,242.5c0.4,0.1,1.1,0.2,1.1,0.3c0.5,3.4,3,3.9,5.7,4.2c0.3,0,0.6,0.2,1,0.4
				C193.4,249.2,190.4,247.1,190.7,242.5L190.7,242.5z"/>
		</g>
	</g>
	<g>
		<path d="M511.3,287.5c-1.1,0.1-2.2,0.2-3.5,0.3c-1.2,0.1-2.6,0.1-4.1,0.1c-3.2,0-6.4-0.2-9.5-0.5c-3.1-0.3-5.8-0.5-7.9-0.5h-3.4
			c-2.6,0-4.6-0.2-6-0.5c-1.4-0.3-2.5-1.6-3.2-3.7c-0.7-2.1-1.2-5.5-1.3-10.2c-0.1-4.7-0.2-11.5-0.2-20.3v-14.8c0-2.7,0-5.4,0.1-8.1
			c0.1-2.7,0.1-5.2,0.1-7.5c0-3.9,0-7.5-0.1-10.9c-0.1-3.3-0.1-6.6-0.2-9.7c-0.1-3.2-0.1-6.5-0.2-9.8c-0.1-3.4-0.1-7.1-0.1-11.2
			c0-2,0-4.4,0.1-7.1c0.1-2.7,0.1-5.6,0.2-8.6c0.1-3,0.1-6.1,0.2-9.2c0.1-3.1,0.1-6,0.1-8.7c0-1.6,0.4-2.9,1.2-3.8
			c0.8-0.9,1.9-1.5,3.1-1.8c1.2-0.3,2.6-0.5,4-0.6c1.4-0.1,2.7-0.1,3.8-0.1h10.7c0.7-0.1,1.4-0.2,2.1-0.3c0.7-0.1,1.5-0.1,2.3-0.1
			c3.5,0,7.5,0.3,11.9,0.9c4.4,0.6,8.7,2.1,12.6,4.4c4,2.3,7.3,5.7,10,10.2c2.7,4.5,4.1,10.7,4.1,18.6c0,3.9,0,7.5-0.1,10.9
			c-0.1,3.3-0.4,6.4-1.1,9.3c-0.7,2.9-1.7,5.6-3.1,8.1c-1.4,2.5-3.4,4.9-6,7.2l-2,1.6c5.1,4.5,8.8,10.1,10.9,17
			c2.1,6.9,3.1,15,3.1,24.3c0,6.9-0.6,12.5-1.8,16.7c-1.2,4.3-3,7.6-5.5,10.1c-2.4,2.5-5.4,4.3-9,5.5
			C520,285.9,515.9,286.8,511.3,287.5z M483.9,204.9c1.2-0.1,2.3-0.2,3.3-0.2s2.1,0,3.1,0h4.1c3.7,0,6.7,0,9.2,0.1
			c2.5,0.1,4.9,0.3,7.2,0.7c5.5-1.1,9.5-3.9,11.9-8.5s3.6-10,3.6-16.4c0-3.8-0.3-7.4-0.9-11c-0.6-3.6-1.9-6.7-4-9.4
			s-4.9-4.9-8.7-6.6c-3.8-1.7-8.8-2.6-15-2.7c-1.9,0.3-3.8,0.3-5.8,0.2c-2-0.1-3.9,0.1-5.8,0.6h-1.8c-0.3,0.3-0.4,0.8-0.4,1.6v7.1
			c0,3.1,0,6.6-0.1,10.6c-0.1,4-0.1,8-0.1,12c0,4,0,7.9-0.1,11.6c-0.1,3.7-0.1,6.8-0.1,9.2L483.9,204.9z M485.1,274.9l12.5,0.8
			c1.5,0.1,2.9,0.2,4.1,0.1c1.3-0.1,2.5,0,3.5,0.1c4.4,0,8-0.4,10.8-1.3c2.8-0.9,4.9-2.2,6.5-4.1c1.5-1.8,2.6-4.2,3.2-7.1
			c0.6-2.9,0.9-6.4,0.9-10.4v-2.4v-3.9c0-3-0.2-6.2-0.5-9.7c-0.3-3.5-1.1-6.8-2.3-9.7c-1.2-3-3-5.4-5.3-7.4c-2.3-2-5.4-2.9-9.5-2.9
			c-1.5,0-2.7,0-3.7-0.1c-1-0.1-2.1-0.1-3.1-0.1h-5.5c-1.9,0-3.9,0-6.1,0.1c-2.2,0.1-4,0.2-5.7,0.5c-0.4,1.5-0.6,2.9-0.6,4.2
			c0,1.3,0,2.5,0,3.6v4.9c0,0.9,0,1.8,0.1,2.6c0.1,0.8,0.1,1.7,0.1,2.6v7.5c0,2.8,0,5.1,0,6.8c0,1.7,0,3,0.1,4.1
			c0.1,1,0.1,1.8,0.1,2.3c0,0.5,0,1,0,1.4v3.9L485.1,274.9z"/>
		<path d="M609.5,246.1c0.3,3,0.4,6.7,0.5,11.2c0.1,4.5,0.1,8.5,0.1,12c0,7.3-2.4,12.5-7.1,15.5c-4.7,3-11.4,4.6-19.9,4.6h-3
			c-3.4-0.3-6.5-1.2-9.4-2.7c-2.9-1.6-5.4-3.5-7.6-5.9c-2.2-2.4-3.9-5-5.2-7.9c-1.3-2.9-1.9-5.9-1.9-9c0-3,0.3-6,1-9.1
			c0.7-3.1,1.8-6.1,3.3-8.8c1.6-2.8,3.5-5.3,5.9-7.5c2.4-2.2,5.2-3.9,8.6-5h-0.2c1.6-0.5,3.7-1,6.3-1.4c2.6-0.4,5-0.8,7.4-1.2
			c2.4-0.4,4.4-0.9,6.1-1.4c1.7-0.5,2.5-1.3,2.5-2.2v-3.2c0-2.3,0-4.6-0.1-6.8c-0.1-2.2-0.1-4.4-0.1-6.6v-1
			c-0.3-3.1-0.8-6.4-1.6-9.9c-0.8-3.5-2.4-5.8-4.9-6.9h0.2c-1.1-0.3-2.2-0.4-3.2-0.4c-2.3,0-4.7,0.6-7.2,1.7c-2.5,1.2-4.5,2.5-6,4
			l-0.8,0.6c-1.2,1.2-2.6,2.5-4.3,3.9c-1.6,1.4-3.2,2-4.7,2c-3,0-4.5-2.1-4.5-6.3c0-2,0.6-3.9,1.7-5.7c1.1-1.8,2.5-3.3,4.2-4.7
			c1.6-1.4,3.4-2.5,5.3-3.6c1.9-1,3.6-1.8,5.1-2.3h-0.2c3.8-1.5,7.4-2.2,10.8-2.2c4.5,0,8.2,1,11.2,3c3,2,5.3,4.8,7.1,8.2
			c1.8,3.4,3,7.5,3.7,12.1c0.7,4.6,1,9.5,1,14.6c0,2.4,0,5-0.1,7.6c-0.1,2.6-0.1,5.2-0.1,7.8c0,2.6,0,5,0,7.3
			C609.3,242.5,609.4,244.5,609.5,246.1z M593.7,275.9c1.9-0.7,3.1-1.9,3.5-3.7c0.5-1.8,0.7-3.6,0.7-5.5c0-4.9-0.2-9.6-0.5-14.3
			c-0.3-4.7-0.5-8.1-0.5-10.4c-3.5,0.1-7,0.5-10.3,1.2c-3.4,0.7-6.4,1.8-9.1,3.5c-2.7,1.6-4.9,3.8-6.5,6.4s-2.4,6-2.4,10
			c0,2.6,0.5,4.7,1.6,6.5c1.1,1.8,2.4,3.2,4.1,4.3c1.6,1.1,3.3,1.9,5.1,2.3c1.8,0.5,3.2,0.7,4.5,0.7h2.2c1.1,0,2.3-0.1,3.7-0.2
			c1.3-0.1,2.8-0.5,4.3-1L593.7,275.9z"/>
		<path d="M630,182.4c1.1-0.5,2.4-1,4.1-1.3s3-0.5,4.1-0.5c1.5,0,2.4,0.4,2.7,1.1c0.3,0.7,0.7,1.9,1.1,3.3h-0.2
			c0.4,1.1,0.9,2.4,1.5,4.1c0.6,1.6,1.7,3.5,3.1,5.7c1.5,2.3,2.8,4.8,3.9,7.6c1.1,2.8,2.4,6.1,3.7,10c1.3,3.7,2.9,7.9,4.6,12.9
			c1.8,4.9,4.2,10.9,7.5,18l0.8,1.8l11.2-31.9c0.4-1.3,1-3.1,1.6-5.3c0.7-2.2,1.4-4.5,2.2-6.9c0.8-2.4,1.6-4.9,2.3-7.3
			c0.7-2.4,1.5-4.6,2.2-6.6c0.7-2,1.5-3.6,2.1-5c0.7-1.4,1.4-2.2,2.2-2.4c0.3,0,1.2,0.1,2.7,0.2c1.5,0.1,2.6,0.5,3.3,1l2.8,2.2
			c1.7,1.4,3,2.6,3.7,3.7c0.7,1.1,1.3,3.3,1.7,6.7c-0.7,5-1.2,10.2-1.5,15.5c-0.3,5.3-0.5,10.8-0.5,16.3c0,3.5,0.1,6.8,0.2,9.8
			s0.3,6.2,0.6,9.4c0.3,3.7,0.5,7.8,0.7,12.4c0.2,4.6,0.3,9.7,0.3,15.4c0,3.4-0.3,6.5-0.9,9.3c-0.6,2.8-2.2,4.3-4.7,4.3
			c-1.7,0-3.2-0.5-4.4-1.4c-1.2-0.9-1.8-2.3-1.8-4.1c0-0.4,0-0.9,0.1-1.6c0.1-0.7,0.2-1.3,0.3-2c0.3-3.1,0.4-6.2,0.5-9.3
			s0-6.9-0.1-11.4c-0.1-4.5-0.3-9.9-0.6-16.4c-0.3-6.5-0.6-14.7-1-24.5l0.8-10.6c-1.6,4.9-3.4,10-5.4,15.5c-2,5.5-4,10.9-6,16.2
			c-2,5.3-4.1,10.3-6.2,15s-4.2,8.5-6.2,11.5c-0.8,1.2-1.7,1.4-2.6,0.4c-3.5-2.7-6.4-6.2-8.6-10.6c-2.2-4.3-4.3-8.7-6.2-13.2
			l-4.1-9.3c-0.5-1.5-1.2-3.3-1.8-5.5c-0.7-2.2-1.4-4.4-2-6.6c-0.7-2.2-1.4-4.4-2.1-6.5c-0.7-2.1-1.4-3.9-1.9-5.4
			c0.1,1.6,0.3,4,0.4,7c0.1,3,0.2,5.4,0.2,7c0,2.6,0.1,5,0.3,7.4c0.2,2.4,0.4,4.7,0.5,7c0.1,2.7,0.3,5.3,0.5,7.9
			c0.2,2.6,0.3,5.2,0.3,7.9l-1.6,33.5c-0.3,1.4-1.3,2.3-2.9,2.8c-1.7,0.5-3.1,0.8-4.2,0.8c-3.5,0-5.3-2.4-5.3-7.1
			c0-0.8,0-1.7,0.1-2.7c0.1-1,0.2-2.2,0.3-3.5c0.3-1.9,0.5-4.1,0.6-6.6c0.1-2.5,0.2-5.4,0.2-8.6c0.3-0.7,0.4-1.6,0.4-2.8
			c0-1.2,0-2.6,0-4.3c0-3.9-0.1-8.6-0.4-13.9c-0.3-5.3-0.5-10.4-0.8-15.1c-0.3-3.4-0.5-6.4-0.6-9c-0.1-2.6-0.2-4.6-0.2-5.8
			c0-3.9,0.1-7.9,0.4-12c0.3-4.1,0.5-8.1,0.8-12.2L630,182.4z"/>
	</g>
	<g>
		<path d="M551.7,315.8h-1.3c-1.3,0-2.7,0-4.2,0c-1.5,0-3,0-4.5-0.1c-1.5,0-2.8-0.1-4-0.1c-1.2,0-2.2-0.1-3-0.1h-9.8
			c0.1,0.2,0.1,0.7,0.1,1.5c0,0.8,0,2,0,3.7c0,1.7,0,4,0,6.8c0,2.8,0,6.4,0,10.7v3.5c0,2.5,0,5.6-0.1,9.3c-0.1,3.7-0.3,7.7-0.6,12.1
			v6c0,2.4,0.1,4.9,0.3,7.3c0.2,2.4,0.3,4.9,0.4,7.3c0,1-0.6,1.7-1.8,2.2c-1.2,0.5-2,0.7-2.5,0.7c-1.4,0-2.6-0.6-3.8-1.9l-0.7-6.3
			c-0.2-1.2-0.3-3.1-0.4-5.7c0-2.6-0.1-5-0.1-7c0-1.8,0-3.3,0.1-4.7c0-1.4,0.1-2.9,0.1-4.5c0-1.6,0-3.5,0.1-5.7c0-2.2,0.1-5,0.1-8.4
			v-3.1c-0.1-0.8-0.1-1.7-0.1-2.9s0-2.3,0-3.4v-8.9c0-2.2,0.1-3.9,0.2-4.8c0.1-1,0.3-1.7,0.4-2.2c0-0.8-0.1-1.5-0.2-2.1
			c-0.1-0.6-0.2-1.3-0.2-2.2c0-1.9,0.3-3.3,0.8-4.5c0.5-1.1,1.4-1.7,2.7-1.7c0.3,0,0.8,0.1,1.6,0.3l-0.3-0.1l12.2,1h-0.1
			c1.4,0,2.8-0.1,4.3-0.2c1.5-0.1,3.1-0.2,4.8-0.2h6.3c1,0,1.9,0,2.8,0c0.9,0,1.8,0,2.8-0.1h1.3c0.1-0.1,0.2-0.1,0.4-0.1h0.4
			l2.6-0.3c0.6,0,1.1,0.5,1.5,1.6c0.4,1.1,0.6,2.9,0.6,5.4c0,2.4-0.2,4-0.6,4.7l-0.6,29.3c0,2.3,0,4,0,5.1c0,1,0,1.9,0.1,2.6
			c0,0.7,0.1,1.6,0.1,2.5s0,2.5,0,4.6v2.9c0,1.7,0,3.6-0.1,5.9c-0.1,2.3-0.2,4.5-0.5,6.7c-0.3,2.2-0.8,4.1-1.4,5.6
			c-0.6,1.5-1.5,2.3-2.7,2.3c-1.3,0-2.4-0.6-3.4-1.7s-1.5-2.7-1.5-4.8c0-2.1,0.2-4,0.5-5.8c0.3-1.8,0.6-3.9,0.8-6.4
			c0-0.2-0.1-0.6-0.1-1.2c-0.1-0.6-0.1-1.1-0.1-1.5c0-0.8,0.1-1.6,0.4-2.3V315.8z"/>
		<path d="M639.2,338.6c1,3.2,1.5,7.4,1.5,12.5c0,4.4-0.4,8.8-1.3,13.3c-0.9,4.4-2.5,8.5-4.8,12.1c-2.3,3.6-5.4,6.5-9.3,8.8
			c-3.9,2.2-8.9,3.4-15,3.4h-2.3c-10.8-1.8-18.9-5.7-24.3-11.9c-5.5-6.2-8.6-15.1-9.5-26.8v-4.3c0-3.8,0.9-7.9,2.6-12.2
			c1.8-4.3,4.2-8.3,7.2-12c3-3.7,6.6-6.8,10.7-9.2c4.1-2.4,8.5-3.7,13.2-3.7c4.1,0,7.9,0.9,11.4,2.6c3.5,1.8,6.5,4.1,9.2,7
			c2.6,2.9,4.9,6.1,6.7,9.7c1.9,3.6,3.2,7.2,4.1,10.8V338.6z M622.8,375.8c2.9-2.6,5.1-6,6.4-10.1c1.3-4.1,2.1-8.8,2.4-14.1v-1.9
			c0-4.1-0.6-8.1-1.8-12.1c-1.2-4-3.1-7.6-5.5-11.1l-4.5-4.5v0.1c-3.8-3.4-7.8-5.1-12-5.1c-4.4,0-8.5,1.5-12.2,4.5
			c-3.7,3-7,7.1-9.8,12.4v-0.1c-1.4,2.6-2.2,5.4-2.6,8.1c-0.4,2.8-0.6,5.6-0.6,8.4c0,3.4,0.5,6.7,1.5,9.8c1,3.1,2.5,6,4.5,8.5
			c2.1,2.5,4.6,4.7,7.7,6.5c3.1,1.8,6.7,3.1,10.8,3.7h-0.1c0.5,0.1,1,0.1,1.5,0.1s1,0,1.5,0c2.8,0,5.4-0.2,7.6-0.7
			C619.6,377.9,621.4,377.1,622.8,375.8z"/>
		<path d="M651.5,311.2c0.8-0.4,1.8-0.7,2.9-1c1.2-0.2,2.1-0.4,2.9-0.4c1.1,0,1.7,0.3,2,0.8c0.2,0.5,0.5,1.3,0.8,2.4H660
			c0.3,0.8,0.7,1.8,1.1,2.9c0.4,1.2,1.2,2.5,2.3,4.1c1.1,1.7,2,3.5,2.8,5.5c0.8,2,1.7,4.4,2.7,7.3c1,2.6,2.1,5.7,3.4,9.3
			c1.3,3.6,3.1,7.9,5.4,13l0.6,1.3l8.1-23c0.3-1,0.7-2.2,1.2-3.8c0.5-1.6,1-3.2,1.6-5c0.6-1.8,1.2-3.5,1.7-5.3
			c0.5-1.8,1.1-3.3,1.6-4.8c0.5-1.4,1.1-2.6,1.5-3.6c0.5-1,1-1.6,1.6-1.8c0.2,0,0.8,0.1,1.9,0.1c1.1,0.1,1.9,0.3,2.4,0.7l2,1.6
			c1.3,1,2.1,1.9,2.7,2.6c0.5,0.8,0.9,2.4,1.2,4.8c-0.5,3.6-0.9,7.4-1.1,11.2c-0.2,3.9-0.4,7.8-0.4,11.8c0,2.5,0,4.9,0.1,7.1
			s0.2,4.5,0.4,6.8c0.2,2.6,0.4,5.6,0.5,8.9c0.1,3.3,0.2,7,0.2,11.1c0,2.4-0.2,4.7-0.6,6.7c-0.4,2.1-1.6,3.1-3.4,3.1
			c-1.3,0-2.3-0.3-3.2-1c-0.9-0.7-1.3-1.7-1.3-2.9c0-0.3,0-0.7,0.1-1.2c0-0.5,0.1-1,0.2-1.5c0.2-2.2,0.3-4.5,0.4-6.7
			c0-2.2,0-5-0.1-8.2c-0.1-3.2-0.2-7.2-0.4-11.9c-0.2-4.7-0.4-10.6-0.7-17.7l0.6-7.6c-1.2,3.5-2.5,7.3-3.9,11.2
			c-1.4,4-2.9,7.9-4.3,11.7c-1.5,3.9-3,7.5-4.5,10.8c-1.5,3.4-3,6.1-4.5,8.3c-0.6,0.9-1.2,1-1.9,0.3c-2.5-2-4.6-4.5-6.2-7.6
			c-1.6-3.1-3.1-6.3-4.5-9.5l-2.9-6.7c-0.4-1.1-0.8-2.4-1.3-4c-0.5-1.6-1-3.2-1.5-4.8c-0.5-1.6-1-3.2-1.5-4.7
			c-0.5-1.5-1-2.8-1.4-3.9c0.1,1.2,0.2,2.9,0.3,5.1c0.1,2.2,0.1,3.9,0.1,5.1c0,1.9,0.1,3.6,0.2,5.4c0.1,1.7,0.3,3.4,0.4,5.1
			c0.1,2,0.2,3.9,0.4,5.7c0.1,1.9,0.2,3.8,0.2,5.7l-1.2,24.2c-0.2,1-0.9,1.7-2.1,2.1c-1.2,0.4-2.2,0.6-3,0.6c-2.5,0-3.8-1.7-3.8-5.1
			c0-0.6,0-1.2,0.1-2c0-0.7,0.1-1.6,0.2-2.6c0.2-1.4,0.3-3,0.4-4.8c0.1-1.8,0.1-3.9,0.1-6.2c0.2-0.5,0.3-1.2,0.3-2.1
			c0-0.9,0-1.9,0-3.1c0-2.8-0.1-6.2-0.3-10c-0.2-3.9-0.4-7.5-0.6-10.9c-0.2-2.4-0.3-4.6-0.4-6.5c-0.1-1.9-0.1-3.3-0.1-4.2
			c0-2.8,0.1-5.7,0.3-8.6c0.2-2.9,0.4-5.9,0.6-8.8L651.5,311.2z"/>
		<path d="M782.4,338.6c1,3.2,1.5,7.4,1.5,12.5c0,4.4-0.4,8.8-1.3,13.3c-0.9,4.4-2.5,8.5-4.8,12.1c-2.3,3.6-5.4,6.5-9.3,8.8
			c-3.9,2.2-8.9,3.4-15,3.4h-2.3c-10.8-1.8-18.9-5.7-24.3-11.9c-5.5-6.2-8.6-15.1-9.5-26.8v-4.3c0-3.8,0.9-7.9,2.6-12.2
			c1.8-4.3,4.2-8.3,7.2-12c3-3.7,6.6-6.8,10.7-9.2c4.1-2.4,8.5-3.7,13.2-3.7c4.1,0,7.9,0.9,11.4,2.6c3.5,1.8,6.5,4.1,9.2,7
			c2.6,2.9,4.9,6.1,6.7,9.7c1.9,3.6,3.2,7.2,4.1,10.8V338.6z M766,375.8c2.9-2.6,5.1-6,6.4-10.1c1.3-4.1,2.1-8.8,2.4-14.1v-1.9
			c0-4.1-0.6-8.1-1.8-12.1c-1.2-4-3.1-7.6-5.5-11.1l-4.5-4.5v0.1c-3.8-3.4-7.8-5.1-12-5.1c-4.4,0-8.5,1.5-12.2,4.5
			c-3.7,3-7,7.1-9.8,12.4v-0.1c-1.4,2.6-2.2,5.4-2.6,8.1c-0.4,2.8-0.6,5.6-0.6,8.4c0,3.4,0.5,6.7,1.5,9.8c1,3.1,2.5,6,4.5,8.5
			c2.1,2.5,4.6,4.7,7.7,6.5c3.1,1.8,6.7,3.1,10.8,3.7H750c0.5,0.1,1,0.1,1.5,0.1s1,0,1.5,0c2.8,0,5.4-0.2,7.6-0.7
			C762.8,377.9,764.6,377.1,766,375.8z"/>
		<path d="M801,387.4c-1.8,0-3-0.3-3.7-1c-0.7-0.7-1.2-1.5-1.4-2.4c-0.2-0.9-0.3-1.9-0.2-2.9c0-1,0-1.9-0.2-2.6c0-2.1,0-3.7,0.1-5.1
			c0.1-1.3,0.2-2.6,0.2-3.9c0-1.3,0.1-2.7,0.2-4.3c0.1-1.6,0.1-3.7,0.1-6.4v-2.9c0-1.8,0-3.4-0.1-5c-0.1-1.6-0.2-3.3-0.4-5.1
			c-0.1-1.9-0.3-4-0.4-6.5c-0.1-2.5-0.1-5.5-0.1-9c0-2.1,0-3.7,0.1-5c0-1.3,0.1-2.4,0.1-3.4c0-1,0.1-2,0.1-2.9s-0.1-2.1-0.3-3.4
			c0-2.6,0.8-4.7,2.3-6.3c1.7-0.3,3.2-0.5,4.7-0.6c1.5-0.1,2.9-0.1,4.3-0.1c0.7,0,1.4,0,2.1,0.1c0.7,0,1.4,0.1,2.2,0.1h4.8
			c1.9,0,3.5,0,4.8,0.1c1.4,0,2.6,0.1,3.8,0.1c1.2,0.1,2.3,0.1,3.4,0.1c1.1,0,2.4,0.1,3.9,0.1h3.4c0.8,0,1.4,0.5,1.8,1.4
			c0.4,0.9,0.6,1.7,0.6,2.4c0,2.1-0.7,3.3-2.1,3.9c-1.4,0.5-3,0.8-4.6,0.8c-1.9,0-3.9,0-6.2-0.1c-2.3,0-4.6-0.1-6.8-0.1
			c-2.2,0-4.4-0.1-6.4-0.1c-2,0-3.6-0.1-4.8-0.1c-0.3,0-0.7,0-1.2,0s-0.8,0.2-0.8,0.7c-0.2,2.2-0.3,4.6-0.3,7c0,2.4,0,4.6,0.1,6.5
			s0.2,3.6,0.2,5c0,1.4,0.1,2.2,0.1,2.3v2.5c0,2.3-0.1,4.7-0.2,7c-0.1,2.3-0.2,4.6-0.1,7l0.3,24.3c0.1,0.4,0.1,0.8,0.1,1.2
			s0,0.9,0,1.2c0,1.4-0.2,2.6-0.7,3.8C803.3,386.8,802.4,387.4,801,387.4z"/>
		<path d="M879.3,308.4c0.4-0.9,1.3-1.3,2.8-1.3c1.6,0,2.8,0.3,3.8,1c1,0.7,1.5,1.5,1.5,2.3c0,0.1,0,0.2-0.1,0.3
			c-0.1,0.1-0.1,0.2-0.1,0.3l-10.7,44.6c-0.1,1.9-0.5,4.1-1.2,6.8c-0.7,2.7-1.4,5.4-2.2,8c-2.2,7.7-3.9,14.3-5.1,19.9
			s-3.1,10-5.6,13.4v-0.1c-2.3,3.7-5.3,6.5-8.7,8.5c-3.5,2-7.1,2.9-10.8,2.9c-0.9,0-2-0.1-3.4-0.3c-1.4-0.2-2.7-0.5-4-1
			c-1.3-0.4-2.3-1-3.2-1.8c-0.9-0.7-1.3-1.6-1.3-2.7c0-0.9,0.6-2,1.9-3.3c1.3-1.3,2.6-2,4.1-2c0.2,0,0.3,0,0.4,0.1
			c0.1,0,0.2,0.1,0.4,0.1h-0.1l1.9,0.9c0.2,0.2,0.9,0.4,2.1,0.6c1.2,0.2,2,0.3,2.4,0.3c1.8-0.1,3.4-0.6,4.9-1.4
			c1.5-0.8,2.9-2.2,4.2-4c1.3-1.9,2.5-4.4,3.7-7.5c1.2-3.2,2.3-7.2,3.5-12.1c-0.5-0.8-0.8-1.5-1-2.3c-0.1-0.7-0.3-1.4-0.4-2
			l-0.3-1.5c-0.3-1.3-0.7-2.7-1.1-4.2c-0.4-1.5-0.9-3-1.4-4.3l-1.8-5.4c-1.4-5.6-3-10.8-4.8-15.7c-1.8-4.9-3.5-10-5.2-15.2l-1.6-5
			h0.1c-0.8-2.1-1.6-4.4-2.4-6.9c-0.8-2.4-1.2-4.9-1.2-7.5c0-0.9,0.2-1.7,0.7-2.3c0.4-0.7,1.2-1.2,2.4-1.6h1.3c1,0,1.8,0.1,2.5,0.4
			c0.7,0.2,1.2,1.1,1.6,2.4h-0.1l1.8,4.8c1.3,3.9,2.4,7.6,3.4,11.1c1,3.5,2.1,7.1,3.2,10.8c1.3,4.8,2.8,9.5,4.5,14.1
			c1.8,4.6,3.2,8.9,4.3,12.8c1.4-4.8,2.8-9.5,4.2-14.2c1.4-4.7,2.5-9.2,3.3-13.6c0.4-2,0.8-4.2,1.2-6.7c0.4-2.5,0.9-5.1,1.4-7.6
			c0.5-2.5,1.1-5,1.8-7.3c0.7-2.3,1.5-4.3,2.5-5.7L879.3,308.4z"/>
		<path d="M944.7,313c0,0.4-0.1,1.1-0.4,2c-0.3,0.9-0.8,1.5-1.6,1.7c-2.1-0.1-3.9-0.2-5.4-0.3c-1.6-0.1-3.1-0.1-4.5-0.1s-3,0-4.5,0
			c-1.6,0-3.3,0-5.3-0.1l-0.1,0.9c0.1,0,0.1,0,0.1,0.1v2.2c0,2.8,0,5.1,0,6.9c0,1.8,0,3.3-0.1,4.5c0,1.2-0.1,2.3-0.1,3.1
			c0,0.9,0,1.8,0,2.6c0,1,0,2.2,0.1,3.8c0.1,1.6,0.3,4,0.6,7.2v30.3c0,2.2-0.5,4.3-1.4,6.1c-0.9,1.9-2.4,2.8-4.5,2.8
			c-0.8,0-1.5-0.2-2.1-0.7c-0.6-0.4-1.1-1.1-1.2-2.1c0.3-2.3,0.5-5.4,0.6-9.1c0.1-3.8,0.1-7.3,0.1-10.8c0-2.4-0.1-4.7-0.1-6.7
			c-0.1-2-0.2-4-0.3-6c-0.1-1.9-0.2-4-0.3-6.1c-0.1-2.1-0.1-4.5-0.1-7c0-3.4,0-6.7,0.1-9.9c0.1-3.2,0.1-6.6,0.1-10.1
			c0-0.5-0.1-1-0.1-1.5c-0.1-0.5-0.4-0.7-1-0.7c-0.5,0-1.3,0-2.3,0.1c-1.1,0.1-2.3,0.2-3.7,0.2c-1.4,0-2.8,0.1-4.3,0.2
			c-1.5,0.1-3,0.1-4.3,0.1c-1.7,0-3-0.3-4.1-0.9c-1.1-0.6-1.8-2.3-2.1-5.1c1.7-2,3.8-3,6.3-3c0.8,0,2.3,0.1,4.7,0.3
			c2.3,0.2,4.8,0.3,7.3,0.3h10c1.6,0,3.4,0,5.4-0.1c2.1,0,4.9-0.2,8.5-0.4c0.9,0,1.8,0,2.9,0.1c1,0.1,2,0.2,2.9,0.4
			c0.9,0.2,1.8,0.5,2.5,1c0.7,0.4,1.2,1,1.4,1.7L944.7,313z"/>
	</g>
</g>
</svg>
