<?xml version="1.0" encoding="utf-8"?>
<!-- Generator: Adobe Illustrator 17.1.0, SVG Export Plug-In . SVG Version: 6.00 Build 0)  -->
<!DOCTYPE svg PUBLIC "-//W3C//DTD SVG 1.1//EN" "http://www.w3.org/Graphics/SVG/1.1/DTD/svg11.dtd">
<svg version="1.1" id="Слой_1" xmlns="http://www.w3.org/2000/svg" xmlns:xlink="http://www.w3.org/1999/xlink" x="0px" y="0px"
	 viewBox="0 0 511.3 309.5" enable-background="new 0 0 511.3 309.5" xml:space="preserve">
<g>
	<path fill="#000002" d="M183.9,179c0.2,1.1,0.1,2.4-0.5,3.8c-0.6,1.4-0.9,3-1,4.6c0,1.1,0.2,2.3,0.7,3.6c0.5,1.2,0.6,2.6,0.2,4.1
		c-0.2,0.9-0.5,1.8-1.1,2.8c-0.6,1-1,2-1.3,3.2c-0.3,0.9-0.4,1.9-0.5,3c-0.1,1.1-0.2,2.2-0.5,3.3c-0.6,2.2-1.2,4.5-1.5,6.9
		c-0.4,2.4-0.8,4.7-1.4,6.8c-0.6,2.1-1.3,4.2-2.2,6.2c-0.9,2-1.6,3.9-2,5.8c-0.2,1.1-0.3,2.1-0.3,3.2c0,1.1-0.1,2.1-0.2,3.1
		c-0.2,0.8-0.4,1.6-0.8,2.5c-0.4,0.9-0.6,1.7-0.8,2.5c-1,4.8-2,9.5-2.9,13.9c-0.9,4.4-1.6,8.3-2.2,11.8c0,0.4-0.8,0.6-2.2,0.8
		c-1.4,0.1-2.7,0.6-3.7,1.4c-1.2,1-2.1,2.4-2.9,4.1c-0.8,1.7-1.8,2.8-3,3.4c-3.3,1.6-5.8,2.5-7.7,2.8c-1.9,0.3-2.6-0.8-2.1-3.3
		c0.8-4.3,1.6-8.6,2.4-13c0.8-4.4,1.4-8.9,1.9-13.3c1-6.8,1.9-13.7,2.7-20.6c0.8-6.9,1.8-13.8,2.7-20.5c0.3-2.1,0.6-4.3,1-6.5
		c0.4-2.2,0.8-4.4,1.2-6.5c0.8-4.1,0.5-7.1-0.7-9c-1.3-1.9-3.1-3.3-5.5-4c-2.4-0.7-4.9-0.9-7.6-0.7c-2.7,0.3-5.3,0.6-7.9,1.1
		c-3.6,0.5-7.2,1.3-10.8,2.5c-3.6,1.1-7.7,2.2-12.3,3.1c-1.4,0.3-3.1,0.5-5.3,0.7c-2.1,0.2-3.9,0.4-5.3,0.6
		c-2.3,0.4-4.6,0.7-6.8,0.9c-2.3,0.2-4.6,0.6-6.9,1.2c-1.4,0.4-3,1-4.7,1.9c-1.7,0.9-3.3,1.5-4.6,1.8c-1.4,0.3-2.8,0.5-4.2,0.7
		c-1.4,0.2-2.8,0.4-4.1,0.6c-2.2,0.4-4.3,1.1-6.4,2.2c-2.1,1.1-4.1,1.8-6,2.1c-1.6,0.3-2.6,0.2-3.3-0.3c-0.6-0.5-1.6-0.6-2.9-0.5
		c-0.5,1.8-1.1,3.4-1.7,4.8c-0.6,1.4-1.2,2.9-1.7,4.4c-0.4,1.3-0.8,3-1.3,5c-0.5,2.1-0.9,3.6-1.3,4.6c-0.6,1.8-1.1,3.5-1.5,5.1
		c-0.4,1.7-0.8,3-1.3,4.1c-0.6,1.3-1.4,2.3-2.6,3.1c-1.2,0.8-2,1.4-2.5,1.8c-0.8,0.9-1.9,1.2-3.3,1c-1.3-0.2-2.6-0.5-3.8-0.9
		c-0.5-0.1-1.1-0.5-1.7-1.2c-0.7-0.7-1.3-1.1-2-1.4c-0.6-0.3-1.3-0.5-2.1-0.5c-0.8,0-1.5-0.3-2.1-0.8c-0.7-0.4-1.6-0.7-2.7-1.1
		c-1.1-0.4-2.1-0.8-3-1.4c-0.6-0.3-1.1-0.8-1.6-1.4c-0.5-0.6-1-1.1-1.6-1.4c-1.9-1.2-3.6-2.4-5.4-3.6c-1.7-1.2-3-2.3-3.7-3.1
		c-0.5-0.6-0.9-1.3-1.1-2c-0.2-0.8-0.4-1.5-0.7-2.2c-0.2-0.5-0.5-1.5-1.1-2.8c-0.6-1.3-0.7-2.3-0.6-3c0.2-1.2,0.8-2.4,1.6-3.7
		c0.9-1.3,2-2.8,3.5-4.4c1.1-1.3,3.1-2.5,5.9-3.7c2.8-1.2,5.7-2.3,8.7-3.2c2.9-1,5.8-2.1,8.8-3.5c3-1.4,5.5-2.5,7.3-3.3
		c0.2-0.9,0.7-1.6,1.7-2.3c0.9-0.7,1.5-1.5,1.7-2.3c0.2-0.8,0.1-1.6-0.3-2.5c-0.4-0.9-0.5-1.8-0.4-2.6c0.1-1.1,0.6-2.2,1.4-3.4
		c0.8-1.2,1.4-2.4,1.7-3.5c0.4-1.3,0.5-2.6,0.4-4c-0.1-1.4,0-2.7,0.3-3.8c1-3.3,2.1-6.4,3.2-9.1c1.1-2.7,2.3-6,3.5-9.9
		c0.4-1.1,0.8-2.2,1.2-3.3c0.4-1.1,0.8-2.3,1.2-3.5c1.6-4.3,3.3-8.9,5.3-13.5c1.9-4.7,3.9-9.3,5.8-13.9c0.4-0.8,0.7-1.6,1.1-2.5
		c0.4-0.9,0.7-1.7,1-2.5c2.3-5.4,4.6-10.8,7-16.2c2.4-5.4,4.8-10.8,7.2-16c2.3-5,4.6-9.9,7-14.8c2.3-4.8,4.5-9.4,6.6-13.9
		c2.1-4,4.1-8,6.1-11.8c2-3.8,3.9-7.4,5.7-10.8c0.4-0.9,1.2-1.7,2.3-2.4c1.1-0.7,1.8-1.5,2.3-2.4c0.3-0.6,0.4-1.4,0.3-2.3
		c-0.1-0.9-0.1-1.6,0.1-2.1c-0.3-0.7-0.4-1.4-0.4-2.1c0.1-0.7,0-1.3-0.2-1.8c-0.2-0.9-0.6-1.7-1-2.5c-0.5-0.7-0.7-1.3-0.7-1.8
		c0.1-0.7,0.6-1.1,1.4-1.3c0.8-0.2,1.7-0.5,2.6-0.8c0.5-0.2,1-0.5,1.5-1c0.4-0.5,1.1-0.9,1.9-1c2.4-0.3,4.2-0.4,5.3-0.3
		c1.1,0.1,2.5,0.8,4,2.1c0.7,0.6,1.6,1.5,2.6,2.7c1,1.2,2.1,2.7,3.3,4.3c0.8,1.2,1.8,2.6,2.9,4.1c1.1,1.5,2.2,3.1,3.3,4.8
		c1.3,2,2.5,3.8,3.6,5.5c1.1,1.7,2.1,3.3,2.8,4.8c1.9,3.5,3.1,6.4,3.8,8.8c0.6,2.4,0.9,4.4,0.8,6.1c-0.1,1.2-0.4,2.6-0.8,4.1
		c-0.4,1.5-0.8,3.1-1.1,4.7c-0.1,1.2-0.3,2.6-0.4,4c-0.2,1.4-0.2,2.9-0.1,4.5c0.1,1.8,0.2,3.6,0.3,5.6c0,2,0.1,3.9,0.2,5.9
		c0.1,7.3-0.3,15-1,23c-0.7,8-1.5,16-2.2,23.9c-0.3,4-0.6,8-1,12c-0.4,4-0.6,7.9-0.9,11.7c-0.1,1.4-0.2,3.4-0.3,5.8
		c-0.1,2.5-0.2,4.4-0.3,5.8c0,1.4,0.2,2.4,0.6,3.1c0.4,0.6,0.7,1.5,0.7,2.7c0,1.4-0.5,2.1-1.5,2.1c-1,0-2.5-0.4-4.2-1.2
		c-2.1-0.9-5-2.2-8.6-3.9c-3.7-1.7-5.5-3.2-5.5-4.5c-0.1-0.6-0.4-1.3-0.9-2.3c-0.6-1-0.9-1.7-0.9-2.3c0-1.8,0-3.8,0-6
		c-0.1-2.2-0.1-4.3-0.1-6.4c-0.1-3.3,0.1-6.5,0.6-9.5c0.5-3.1,1-6.5,1.5-10.2c0.5-3.8,0.9-7.6,1.2-11.2c0.3-3.7,0.6-7.4,1-11.3
		c0.4-3.4,0.5-6.8,0.4-10.1c-0.1-3.3-0.3-6.7-0.5-10.2c-0.2-2.6-0.1-5,0.2-7.3c0.3-2.2,0.4-4.2,0.1-5.7c-0.3-2.2-0.6-4.8-0.8-7.8
		c-0.3-3-0.8-4.4-1.6-4.3c-0.3,0-1.1,0.3-2.3,0.9c-1.3,0.6-2.2,1-2.7,1.5c-0.3,0.3-0.5,1.4-0.5,3.3c0,1.9-0.2,3.1-0.7,3.8
		c-1.3,1.6-2.8,3.6-4.5,6.2c-1.7,2.5-3.6,5.5-5.6,8.9c-1.6,2.8-3.2,5.6-4.9,8.5c-1.7,2.9-3.3,5.8-4.9,8.8c-2.2,4.3-4.5,8.6-6.8,13.1
		c-2.3,4.5-4.4,8.9-6.3,13.2c-2.2,4.7-4.3,9.5-6.5,14.4c-2.2,4.9-4.2,9.7-6.1,14.5c-1.9,4.8-2.8,8.3-2.8,10.7
		c0,2.3-0.7,5.7-2.3,10.2c-0.6,1.8-1.6,3.7-3,5.8c-1.4,2.1-2.4,4-3,5.8c-0.3,0.8-0.3,2.1,0.1,4c0.3,1.9,2.1,2.6,5.3,2
		c1.6-0.2,2.7-0.4,3.4-0.5c0.7-0.1,1.9-0.3,3.5-0.5c1.7-0.2,3.1-0.6,4.4-1c1.3-0.5,2.7-0.8,4.4-1.2c1-0.1,1.9-0.5,2.8-1.1
		c0.9-0.6,1.8-0.9,2.8-1.1c0.8-0.1,1.9-0.5,3.2-1.1c1.3-0.6,2.4-1,3.2-1.1c4-1,7.6-2,10.9-3c3.3-1,6.3-1.7,9.3-2.3
		c2.4-0.5,4.6-1,6.6-1.5c2-0.5,3.8-0.9,5.3-1.2c2.9-0.7,5.6-1.2,8-1.4c2.4-0.3,4.5-0.8,6.4-1.6c1.8-0.8,3.5-1.3,5.3-1.6
		c1.8-0.2,3.3-0.6,4.8-1.2c1.9-0.8,3.9-1.3,6.2-1.4c2.3-0.1,4.9,0.3,7.7,1.2c1.5,0.5,3.1,1.1,5,2c1.9,0.9,3.8,1.9,5.8,3
		c1.2,0.7,2.4,1.4,3.7,2.2c1.2,0.8,2.3,1.5,3.3,2.2c1.2,1,2.2,2,3.1,3.2C183,176.5,183.6,177.7,183.9,179 M30.1,209.5
		c-2.3,0.1-4,0.6-5,1.4c-1,0.8-2.4,1.4-4.2,1.8c-1.8,0.4-2.8,1.1-2.8,2.1c-0.1,0.9,0.9,2.3,2.8,4.1c1.1,1,2.3,1.5,3.7,1.5
		c1.4,0,2.3-0.6,2.7-1.8c0.3-0.8,0.5-1.4,0.6-1.9c0.1-0.5,0.5-1.2,1.1-2.3c0.5-0.8,0.9-1.5,0.9-2.1
		C30.1,211.8,30.1,210.9,30.1,209.5"/>
	<path fill="#000002" d="M175.7,144.9c0.3-0.3,0.6-0.7,0.8-1.1c0.2-0.4,0.2-0.9,0.2-1.4c1.4-1.5,2.9-3.5,4.6-6.1
		c1.7-2.5,3.6-5.5,5.6-8.9c1.7-3,3.4-6.1,5.2-9.2c1.8-3.1,3.7-6.1,5.9-9.3c1.7-3,3.3-6.2,4.8-9.5c1.6-3.3,3.3-6.5,5.1-9.6
		c3.5-2.3,6.1-3.9,8.1-4.9c1.9-1,3.3-1.6,4-1.7c1.4-0.2,2.5,0.1,3.4,0.9c0.9,0.8,1.4,2,1.6,3.7c0.1,0.6,0,1.4-0.1,2.4
		c-0.1,1.1-0.3,2.2-0.5,3.5c-0.4,1.9-0.9,3.9-1.4,6c-0.3,3.3-0.7,6.7-1.3,10c-0.6,3.4-1.1,6.7-1.6,9.9c-0.4,4.1-0.6,7.8-0.7,11.2
		c-0.1,3.4,0.1,6.5,0.5,9.2c0.7,5.2,1.5,9,2.3,11.4c0.8,2.4,1.7,3.4,2.6,3c0.8-0.7,1.9-1.5,3.2-2.5c1.3-1,2.8-2.1,4.5-3.4
		c1.4-2,3-4.4,4.7-7.3c1.7-2.9,3.8-6.2,6.3-10.2c1.3-2.8,2.7-5.6,4.1-8.3c0.5-0.8,1.2-1.8,1.9-2.9c0.7-1.1,1.4-2.3,2-3.4
		c1.2-4.7,2.7-8.2,4.5-10.7c1.9-2.5,4.1-3.9,6.8-4.2c2.4-0.3,4.4-0.3,5.9,0.1c1.5,0.4,2.6,1.2,3.3,2.3c0.4,0.6,0.7,1.7,1.1,3.2
		c0.4,1.5,0.8,3.6,1.1,6.2c0.1,1,0.5,2.5,1.2,4.3c0.7,1.9,1.1,3.3,1.2,4.2c0.5,3.4,1.4,5.9,2.8,7.4c1.4,1.5,3.4,2.1,5.9,1.8
		c0.7-0.1,1.6-0.4,2.6-0.8c1-0.4,5.9-8,6.9-8.5l3.7,18.4c-5.1,4.1-9.7,7.9-13,10c-3.3,2.2-5.9,3.4-7.6,3.6
		c-4.6,0.6-8.6-0.1-11.8-2.1c-3.3-2-5.9-5.3-8-9.8c-0.3-1.1-0.9-2.1-1.6-3.2c-0.8-1-1.7-2-2.7-3c-0.7,1-1.5,2.3-2.4,3.7
		c-0.9,1.4-1.8,2.9-2.9,4.3c-2.1,3.4-4.2,6.7-6.3,9.9c-2.1,3.2-4.2,6.5-6.4,9.7c-2.7,4.2-5.6,7.4-8.6,9.6c-3,2.2-6,3.4-8.9,3.8
		c-4.2,0.6-7.8-0.2-10.8-2.4c-2.9-2.2-5.1-5.7-6.5-10.6c-1.5-4.7-2.5-8.3-3.2-11c-0.6-2.6-0.9-4.2-0.8-4.8c-0.5-2.7-1.1-4.6-1.6-6
		c-0.5-1.3-1.1-2-1.7-1.9l-0.8,0.5l-6.8,9.2c-0.2,0.7-0.5,1.6-1.1,2.6c-0.5,1.1-1.2,2.4-2.2,3.9c-0.6-1.3-1.4-3-2.6-4.9
		C179.1,150.1,177.6,147.8,175.7,144.9"/>
	<path fill="#000002" d="M290.8,129.3c1.2-2.1,2.4-4.4,3.6-6.7c6-6.4,10.8-12.5,14.4-18.2c3.6-5.7,6.1-10.9,7.4-15.6l-2.3-6.5
		c0.9-2.5,3.5-5.6,7.8-9.4c4.3-3.8,8-5.9,10.9-6.3c3.1-0.4,5.9,0.1,8.3,1.7c2.4,1.6,4.8,3.2,7.1,5c1.1,0.5,1.9,0.9,2.4,1.2
		c4.1,2.3,7.4,5.7,9.9,10.4c2.5,4.6,4.2,10.5,5.2,17.5c0.5,3.7-0.2,9.2-2.1,16.4c-1.9,7.3-2.7,12.6-2.2,16.2c0.1,0.5,0.3,0.8,0.6,1
		c0.4,0.2,0.8,0.3,1.4,0.2c1.2-0.2,2.6-0.9,4.1-2.2c1.5-1.3,3.1-3,4.8-5.1c4.2-5.5,6.8-8.5,7.8-9.2c0.9-0.6,2.1-1.7,3.4-3.1
		c1,1.7,2.1,3.6,3.4,5.6c1.3,2,2.6,4.1,3.8,6.4c-0.7,0.9-1.6,1.9-2.5,3c-0.9,1.2-2,2.5-3.3,4c-2.8,2.7-6.5,6.1-11.1,10
		c-4.6,4-10.1,8.5-16.5,13.7c-1.7,1.5-3.7,2.7-6,3.8c-3.9,0.5-6.9,0.3-9-0.5c-2.1-0.9-3.3-2.6-3.7-5.2c-0.1-1-0.1-2.2,0.1-3.6
		c0.2-1.4,0.6-2.9,1.1-4.6c0.4-1.3,0.8-2.6,1.3-3.9c0.5-1.3,0.9-2.7,1.1-4c1.2-6.1,2.1-11.7,2.4-16.8c0.4-5.1,0.3-9.7-0.2-13.6
		c-0.7-4.9-1.9-8.5-3.8-10.9c-1.9-2.4-4.4-3.5-7.5-3.5c-1.9,1.4-3.9,3.3-6,5.6c-2.1,2.4-4.2,5.2-6.3,8.6c-2.2,3.7-4.3,6.7-6.1,9.1
		c-1.8,2.4-3.4,4.1-4.7,5c-0.6,1.5-1.8,3.2-3.4,5.3c-1.6,2-3.8,4.2-6.6,6.7c-0.1,0.4-0.3,1-0.6,1.8c-0.3,0.8-0.8,1.7-1.5,2.7
		c-1-2-2.1-4-3.3-6C293.6,133.4,292.2,131.4,290.8,129.3"/>
	<path fill="#000002" d="M492.1,114.2c-2,3.2-4.8,6.7-8.4,10.7c-3.6,3.9-8.6,6.6-14.8,8c0,0.8-0.3,1.7-0.9,2.5
		c-0.6,0.8-1,1.5-1.1,2.1c-0.2,0.9-0.1,1.7,0.2,2.6c0.3,0.9,0.4,1.8,0.2,2.7c-0.5,2.3-1.3,4.5-2.4,6.4c-1.1,1.9-2.2,3.7-3.2,5.2
		c-2.3,3.1-5.1,5.7-8.5,7.8c-3.3,2.1-7,3.4-11,4c-3.9,0.5-7.7,0.5-11.6-0.2c-3.8-0.7-7.3-1.9-10.4-3.7c-3.5-2.2-6.5-5-9-8.5
		c-2.5-3.5-4-7.4-4.6-11.8c-0.4-3.6-0.7-6.6-1-9c-0.3-2.4-0.2-5.3,0.2-8.8c0.2-2.6,0.5-5.1,0.9-7.5c0.4-2.4,1-5.8,1.8-10.2
		c-1.1,1.7-1.8,3-2.2,4c-0.4,1-1.6,2.8-3.6,5.4c-1.4,1.7-2.9,3.3-4.4,4.7c-1.6,1.4-2.9,2.8-4,4.1c-1,1.2-1.8,2.2-2.6,3.2
		c-0.8,1-1.4,1.6-1.8,1.9l-7.1-12.1c0.9-1,1.9-2,2.9-3.2c1-1.2,2-2.3,3-3.5c2.1-2.4,4.2-5.1,6.4-7.9c2.2-2.8,4.3-5.7,6.4-8.6
		c1.7-2.4,3.6-5.6,5.8-9.5c2.2-4,4.1-7.2,5.7-9.8c0.2-0.4,0.7-0.9,1.6-1.5c0.8-0.6,1.3-1.1,1.6-1.5c0.4-0.9,0.3-1.9-0.3-3.1
		c-0.7-1.1-0.8-2.1-0.3-3.1c0.4-0.9,0.8-1.8,1-2.7c0.2-0.9,0.5-1.8,1-2.7c0.5-0.8,1-1.6,1.7-2.5c0.7-0.8,1.2-1.7,1.6-2.5
		c0.2-0.5,0.3-1.2,0.2-2.1c-0.1-0.9,0-1.7,0.2-2.3c0.4-0.9,1.1-1.6,1.9-2.2c0.8-0.6,1.4-1.3,1.7-2.2c0.5-1.2,1.3-2.1,2.4-2.7
		c1.1-0.6,2.1-0.8,3-0.4c0.6,0.3,1.8,1.7,3.6,4.1c1.8,2.4,3,4,3.5,4.8c0.6,0.8,1.7,1.7,3.5,2.9c1.8,1.2,2.9,2.3,3.4,3.5
		c0.8,1.4,1,2.8,0.8,4.1c-0.2,1.3-0.4,2.2-0.6,2.7c-0.6,2.3-1.5,4-2.5,4.9c-1.1,0.9-1.8,2.5-2.4,4.8c-0.3,1.4-1,2.7-2,4.2
		c-1.1,1.4-1.7,2.7-1.9,4c-0.7,3.5-1.7,7.5-3.2,12.1c-1.5,4.6-2.5,8.3-2.9,11.1c-0.9,5.2-1.2,9.5-1.1,13c0.2,3.5,0.3,5.5,0.4,6
		c0.2,1.5,0.5,3.2,1,5.2c0.5,2,1.4,3.8,2.7,5.3c1.4,1.7,2.8,2.9,4.1,3.5c1.3,0.7,3.8,0.7,7.7,0.2c1.4-0.2,3.3-1,5.6-2.5
		c2.4-1.5,4.1-3.6,5.1-6.4c-1.6-0.7-3-1.6-4.1-2.5c-1.1-1-2.2-2.5-3.1-4.7c-0.6-1.5-1.2-3.2-1.9-5c-0.7-1.8-1.2-3.7-1.5-5.9
		c-0.2-1.3-0.1-2.8,0.1-4.4c0.2-1.6,0.4-3.2,0.4-4.7c1-2.2,2-3.7,3.1-4.4c1-0.6,2-1.4,3.2-2.3c1.2-0.9,2.3-1.6,3.3-2
		c1.1-0.4,2.2-1.2,3.3-2.4c1.2-1.1,2.2-1.7,3.1-1.8c1.1-0.1,2.3,0.4,3.4,1.4c1.2,1,1.8,2,2,3.1c0.2,1.1,0.5,2.6,1.2,4.6
		c0.6,1.9,1.1,3.6,1.2,5c0.1,0.9,0.2,2,0.2,3.3c0,1.3,0.1,2.4,0.1,3.4c0.1,1.1,0.2,2.2,0.2,3.3c0,1.1-0.1,2.2-0.1,3.2
		c2.5-1.3,5.1-3.5,8.1-6.6c2.9-3.1,5.5-6.2,7.8-9.2L492.1,114.2z"/>
	<path fill="#000002" d="M80.5,276.8c0.3-0.2,0.4,0.1,0.5,0.4c0.4,0,0.2-0.4,0.7-0.4C81.7,277.3,80.6,277.8,80.5,276.8"/>
	<path fill="#000002" d="M82,308.8c-0.4,0.6-0.8,0.7-0.9,0.7C81,309.4,81.2,309.1,82,308.8"/>
	<path fill="#000002" d="M84.7,273.8c-0.6,2.1-4,0.8-4.9,2.9c0,0.1-0.1,0.1-0.1,0.2c-0.2,0-0.1-0.1,0-0.2c-1.2,0.4-3.5,0.8-4.6,2.5
		l-0.2-0.7c-0.9,0.4-2.4,1.1-3.3,0.8c0.9-0.9,3.8-0.6,4.2-2c0.3,0.1,0.6,0,0.9,0.1C78.9,275.3,82.2,275.4,84.7,273.8"/>
	<path fill="#000002" d="M82.6,279c0-0.4,0.8-0.3,1.1-0.6C83.5,279,83.1,278.9,82.6,279"/>
	<path fill="#000002" d="M82.3,272.1c0.6-0.7,1.9-0.2,2.5-1C84.4,272.2,83,271.9,82.3,272.1"/>
	<path fill="#000002" d="M84,297.6c-0.4,0.6-1,0.7-1.8,0.8C82.6,298,83.6,297.6,84,297.6"/>
	<path fill="#000002" d="M83.2,299l0.7-0.3C84.3,299.2,83.2,299.6,83.2,299"/>
	<path fill="#000002" d="M84.1,300.2c-0.1,0.4-0.5,0.6-0.6,1C83.4,301.2,83.7,299.9,84.1,300.2"/>
	<path fill="#000002" d="M83.3,290.9C83.7,289.9,85.3,290.5,83.3,290.9"/>
	<path fill="#000002" d="M84.6,280.6c-0.3-0.7,0.5-0.7,1-0.9C85.4,280.1,84.9,280.3,84.6,280.6"/>
	<path fill="#000002" d="M85.2,271c0.3-0.6,1.1-0.7,1.7-1.1C86.8,270.6,85.8,270.7,85.2,271"/>
	<path fill="#000002" d="M86,308.2c-0.1,0.4-0.4,0.7-0.8,0.7C85.1,308.4,85.8,308,86,308.2"/>
	<path fill="#000002" d="M84.9,273.8c0-0.5,2.1-0.9,0.7-0.4c-0.2,0.1,0,0.2,0,0.2C85.7,273.9,85,273.8,84.9,273.8"/>
	<path fill="#000002" d="M88.4,272.1c-0.2,0.6-1.1,0.7-1.5,1.2C86.3,272.8,87.8,272.4,88.4,272.1"/>
	<path fill="#000002" d="M87.6,269.6c0-0.4,0.7-0.8,1-0.7C88.4,269.2,88.1,269.4,87.6,269.6"/>
	<path fill="#000002" d="M86.8,279.4c1.7-1.2,3.3-1.1,5.2-2.1c-0.7,1-2.7,1.8-4.1,1.6c-0.1,0.2,0,0.4-0.3,0.5
		C86.9,279.6,85.3,279.9,86.8,279.4"/>
	<path fill="#000002" d="M89.7,293.5c0.9-0.7,1.6-0.9,2.8-1.2C92.1,293,90.5,293.4,89.7,293.5"/>
	<path fill="#000002" d="M91.7,288.2c0.1,0.6,0.8-0.2,0.8,0.7c-0.3,0.2-0.4-0.2-0.8,0c-0.1-0.3,0-0.3,0-0.6
		c-0.8,0.1-1.1,0.5-1.7,0.7c0-0.2,0.1-0.3,0-0.6c-0.5,1.2-2,0-3.5,1.1c1.3-1.6,5.1-2,6.5-2.7C93,287.6,91.6,287.5,91.7,288.2"/>
	<path fill="#000002" d="M94.5,291.7c0,0.4-0.9,0.3-1.2,0.6C93.4,292,94,291.5,94.5,291.7"/>
	<path fill="#000002" d="M94.4,296.2c0.1,0.6-0.4,0.7-0.8,1C93.6,296.7,94.2,296.5,94.4,296.2"/>
	<path fill="#000002" d="M95.8,270.4c-0.1-0.1-0.3-0.3-0.3-0.7l0.6-0.2C96.3,270,96.2,270.3,95.8,270.4"/>
	<path fill="#000002" d="M106.5,269.9c-0.4-0.8,2.2-0.7,2.4-1.5c0.4,0,0.7,0.1,1,0.1c0.4-0.2,0.6-0.8,1.2-0.4
		C110.2,269.4,107.8,268.8,106.5,269.9"/>
	<path fill="#000002" d="M111.9,245.6c0.2-0.6,1.2-0.7,1.8-0.9C113.5,245.2,112.9,245.5,111.9,245.6"/>
	<path fill="#000002" d="M112.9,298.9c-0.2,0.3-0.5,0.5-0.5,0.9c-0.6-0.6-1.2,0.3-1.9,0.1C110.9,298.9,112,299.6,112.9,298.9"/>
	<path fill="#000002" d="M116.6,252.3c0-0.4,0.8-0.2,1.1-0.4C117.5,252.2,117,252.6,116.6,252.3"/>
	<path fill="#000002" d="M117.9,284c-0.9,0.3-2.6,1.4-3.4,0.8C115.7,285,116.8,283.9,117.9,284"/>
	<path fill="#000002" d="M119.4,243.9c-0.1-0.5,0.8-0.6,1.1-0.4C120.5,243.9,119.7,243.7,119.4,243.9"/>
	<path fill="#000002" d="M121.3,291.2C121.3,291.2,121.4,291.2,121.3,291.2C121.3,291.2,121.3,291.2,121.3,291.2"/>
	<path fill="#000002" d="M121.1,244.3c0.5-0.2,0.8,0,1.2,0C122,244.5,121.2,245.1,121.1,244.3"/>
	<path fill="#000002" d="M146.8,290c-0.1,0.3-0.5,0.4-0.8,0.5C146,290.1,146.4,289.7,146.8,290"/>
	<path fill="#000002" d="M429.6,244.6c0,0,0,0.1,0,0.1c0,0,0,0.1,0,0.1c-1.7,1.6-1,4.5-2,6.7c-0.3,0.6-1,1-1.3,1.5
		c-0.8,1.3-1.1,2.8-1.5,3.9c-4.3,1.9-6.7,6.5-10.3,9.3c-0.1,0.1-0.6,0-0.8,0.1c-1.4,1.1-3.5,1.8-5.1,3c-1,1.8-2.9,1.5-5.2,2.1
		c-0.8,0.2-1.2,0.5-2.3,0.6c-1.6,0.2-3,1.1-4.5,1.4c-1.7,0.4-3.2-0.4-4.9-0.4c-0.7,0-1.4,0.6-2,0.6h-0.3c-1.4-0.1-2.2-1.9-3.3-2.3
		c-1,0.3-1.9,0.7-2.9,0.1c-0.5-1.5-0.3-2.6-1.5-3.4c-2.1-0.8-3.9,5.2-4.8,1.2c-2-2-5.3-1.2-8-1.5c-1.9-0.2-3.8-0.7-5.6-0.8
		c-1.8-0.1-3.6,0.5-5.1-0.4c-1.4,0.9-2.8,0-4.2-0.2c-4.3-0.5-8.4,1.2-12.6,0c-2.4,0.9-5.6,0.3-7.8-0.3c-2.7,1.1-5.4-0.3-7.8-0.1
		c-1.6,0.2-3,0.9-4.5,0.8c-0.5,0-0.9-0.4-1.4-0.3c-1.5,0.1-2.8,0.8-4.3,0.7c-1.4-0.1-2.8-1.1-4.2-0.1c-4.1-0.7-9.4,1.6-14.4,0.9
		c-0.4-0.1-0.6-0.3-0.9-0.3c-3.3-0.1-6.2,1.6-9.2,0.4c-3.5,0.6-8,0.9-11.8,0.8c-3.3,1.2-6.8,0.7-10.1,0.8c-2.5,0.1-5.1,1.1-7.7,1.4
		c-0.9,0.1-1.9-0.3-2.8-0.1c-1.4,0.2-2.6,0.9-4,1c-2.4,0.2-4.8,0.3-7.3,0.6c-2.2,0.2-4.4,1.2-6.6,1.5c-0.8,0.1-1.7-0.4-2.5-0.3
		c-0.5,0.1-1,0.5-1.5,0.7c-2.7,0.7-6.2,0.8-9.4,1.2c-4.4,0.7-8.5,1.1-13.2,2.4c-3.6,0-7.3,1.3-11.2,1.9c-5,0.9-10.3,1.7-15.5,2.7
		c-5.6,1.2-11.1,2.8-16.6,3.1c-0.3-0.4-0.6-0.6-1-0.8c-0.6,0-0.3,0.9-1,0.9c-0.5,0.2-0.4-0.6-0.7-0.6c-4.7,0.6-9.4,1.1-13.8,1.5
		c-0.7,0.2-0.1-0.6-0.7-0.6c-2.5,0.6-6.2,0.8-9.3,1.6c-1.2,0.3-2.7,0.4-3.9,0.5c-0.3,0-0.1,0.4-0.4,0.4c-0.4,0-0.2-0.4-0.6-0.4
		c0,0-0.7,0.2-1,0.2c-3.2,0.3-6.1,1.6-9.3,2c-0.7-0.3-0.7-0.4-1.6-0.2c-0.7,0.1-0.6,0.2-1.1,0.6c-0.1,0-0.8,0.3-0.9,0.4
		c-0.1-0.1,0-0.4-0.2-0.5c-0.7-0.3-2.4,0.8-3.5,1c-1.4,0.2-3,0-4.5,0.5c1.4-0.9,2.4-2.1,2.2-4.2c-1.8-0.9-4.3,1.4-6.1,0.5
		c-3.3,1.7-7.7,3-11.7,4c-0.3,0.1-0.4,0.3-0.3,0.6c-4.2,0.5-7.9,3-12.4,4.2c7.5-3.8,15.4-5.8,23-9.2c1.8-0.2,6.6-1.3,9.3-2.2
		c1.6-0.5,2.1-2.2,0.8-4c-2.4-0.5-4,1.2-6.2,1.2c-0.5-0.6-1.1-1.2-0.9-2.2c4-2.1,9.2-2.2,12.2-4.6c0.7,0.2,1.3-0.2,2-0.4
		c0.3-0.5,0.4-1.1,0.6-1.6c-0.2-0.3-0.6-0.4-0.7-1c-4.1,1-8-1.3-12.2,0.4c-0.8-0.6-1.6-1.3-2.4-1.9c-1.3,0.6-3.4,1-5,1.9
		c-0.4,0.2-0.4-0.3-0.6-0.4c-4,1.6-7.5,3.3-11.3,3.4c2.9-1.4,6.3-1.9,9.1-3.2c0.4-0.3,0.4-0.8,0.6-1.3c2.7-0.2,6.4-1.9,9.6-2.5
		c0.3-0.7,0-2.1-1.2-1.8c0.3-0.5,0.5-0.3,1-0.4c-0.1-0.3-0.2-0.4-0.4-0.5c1.7-0.5,2-0.6,3.7-1c0.3-0.2,0.2-1-0.1-1.3
		c-1.4,0.6-2.8,0.3-4.1,0.6c-0.8,0.2-1.2,0.9-1.9,1.2c-0.3,0.1-0.4-0.2-0.9-0.2c-0.4,0.1-0.8,0.7-1.1,0.8c-0.4,0.1-0.7-0.1-1.2-0.1
		c-1.7,0.2-3.2,1.8-4.9,2.1c-1.3,0.3-2.8-0.6-4.2,0.2c0.2-1.3,1.5-0.9,2.5-1.2c3.2-1.1,6.7-3.5,9.5-4.2c0.1-1-0.6-1.2-1.1-1.8
		c-0.9,0.5-1.5,0.6-2.3,0.9c-0.4,0.3,0.3,0.4,0,0.7c-2.1,0.6-3.8,1.5-6.2,2.3c-0.4-0.6-1-0.4-0.9-1.4c-0.3,0.2-0.4,0-0.7,0
		c-0.6,0.1,0.1,0.2,0,0.7c-0.7-0.9-1.2,0.6-1.8-0.1c-2.5,2-5.2,1.4-8,3.7c1.7-1.7,4.5-2.8,7.3-3.9c0.6-0.2-0.3-0.5,0.1-0.8
		c0.8-0.3,1.6,0.2,2.3,0c0.9-0.3,1.1-0.9,1.8-1.4c0.9-0.5,2-0.5,2.9-1.1c0.9-0.5,1.3-1.7,2.4-1.5c0.3-0.6,0-1,0.7-1.5
		c0-0.6-1.1-0.7-0.7-1.3c0.5-0.4,0.2,0.6,0.6,0.4c0.5-0.3,0.6-0.8,0.9-1.3c1.5,0.2,2.8-0.5,4.2-1.1c0.4-0.3-0.8-0.3-0.4-0.8
		c0.7,0.3,2.6-0.4,2.9-1.4c1.8,0,2.5-0.9,4.5-0.9c0.6-0.1-0.2-0.9,0.1-0.9c1-0.9,1.8-0.6,3.1-1c0.6-0.8,1.9-1.5,3-1.5
		c-0.1-0.9-0.9-0.6-1.6-0.6c0.2-0.9,1.6-0.2,2.1,0c3.4-1.6,6-4.2,10.1-5.3c0.6-0.1,0.7-1.2,1.4-0.8c0.2-0.1,0.1-0.4,0-0.4
		c2.2-1,7.5-1.1,8.7-3.4c0.7,0.2-0.2,0.3,0.3,0.9c0.7-1,2.3-0.4,2.7-1.7c2.3-0.7,4.8-0.2,6.5-1.7c0.6,0,1.2-0.1,1.5,0.3
		c0.9-0.7,2.7-1.5,4-0.9c7.3-2.2,14.9-3.7,22.5-5.1c7.6-1.4,15.2-2.7,22.6-4.6c3.7,0.2,7.9-1.4,11.3-2.2c1.1-0.3,2.2,0.4,3.2-0.7
		c4.8-0.8,10.8-1.1,14.8-2.8c3.3,0.4,6.7-0.9,10.1-1.4c1.4-0.2,2.7,0,4-0.3c0.5-0.1,1-0.5,1.6-0.7c2.2-0.5,4.6,0.2,6.8-0.3
		c1.3-0.3,2.3-1,3.5-1.1c3.9-0.4,9-0.2,13.4-1.5c1.1-0.4,2.3,0.1,3.4-0.2c0.6-0.1,1.1-0.7,1.7-0.8c2-0.4,4.8-0.2,6.9-0.7
		c1.1-0.3,2.2,0.1,3.4,0c2.5-0.2,4.7-1.4,6.8-0.6c2.5-1.2,6.7-1.4,10-0.7c0.1-0.1,0.2-0.3,0.3-0.5c2.4,0.5,4.8-1.1,7.1-0.7
		c0.4,0,0.4-0.4,0.6-0.6c1.2,0.3,2,0,3.1-0.4c4.5,1,7.7-1,11.5,0c2-1.4,4.5-0.8,6.6-1.2c0.6-0.1,1.2-0.8,1.8-0.9
		c0.6-0.1,0.9,0.3,1.5,0.4c0.4,0,0.8-0.3,1.3-0.4c0.7,0,1.4,0.5,2.1,0.5c0.7,0,1.3-0.5,1.9-0.6c0.7,0,1.4,0.5,2.1,0.5
		c1.8,0,3.3-2.1,5.5-0.4c1.4-0.5,2.9-0.4,4.6-0.9c1-0.2,2-0.8,2.8-0.9c0.5,0,1,0.3,1.5,0.4c2.3,0.2,4.5-1.7,6.8-0.6
		c3.2-1.4,8.6,0.9,10.6-2.1c-0.1-1.4,0.5-2.3,1.2-2.5c0.8-0.2,1.2,0.7,2.3,1c1.3,0.3,4.6,0.8,6.2,0.2c0.6-0.2,1.2-1.3,1.8-1.4
		c1.3-0.2,2.6,1.3,4.1,1c0.9-0.2,1.7-1.3,2.2-1.4h0.1c1.3,0,2.6,1.6,2.9,2.5c0.5,0.1,0.5-0.3,1-0.1c1.4,1.8,5.6,2.4,8.4,2.4
		c0.4,0,1.1,0.2,1.5,0.2c3.7,0.9,6.4,3.9,9,6.2c0,0.6,0.3,0.8,0.4,1.3c1.3,0.9,2.2,2,3.4,2.9c0.2,1.1,1.2,1.4,1.1,2.8
		c0.6,1.3,1.4,2.4,2.2,3.7c0.7,1.2,1.7,2.4,2.2,3.6c0.8,2,0.5,4.3,1.5,6.4c-0.5,3.4,0,7.2-0.3,11.7
		C429.4,244.1,429.6,244.2,429.6,244.6"/>
	<path fill-rule="evenodd" clip-rule="evenodd" fill="#000002" d="M146.8,290c-0.1,0.3-0.5,0.4-0.8,0.5
		C146,290.1,146.4,289.7,146.8,290"/>
	<path fill-rule="evenodd" clip-rule="evenodd" fill="#000002" d="M122.3,244.2c-0.3,0.3-1.1,0.9-1.2,0
		C121.6,244,121.9,244.2,122.3,244.2"/>
	<path fill-rule="evenodd" clip-rule="evenodd" fill="#000002" d="M120.5,243.5c0,0.4-0.8,0.2-1.1,0.4
		C119.3,243.4,120.2,243.3,120.5,243.5"/>
	<path fill-rule="evenodd" clip-rule="evenodd" fill="#000002" d="M117.7,251.9c-0.2,0.3-0.7,0.7-1.1,0.4
		C116.6,251.9,117.4,252.1,117.7,251.9"/>
	<path fill-rule="evenodd" clip-rule="evenodd" fill="#000002" d="M113.8,244.7c-0.3,0.5-0.9,0.9-1.8,0.9
		C112.1,245,113.1,244.9,113.8,244.7"/>
	<path fill-rule="evenodd" clip-rule="evenodd" fill="#000002" d="M117.9,284c-0.9,0.3-2.6,1.4-3.4,0.8
		C115.7,285,116.8,283.9,117.9,284"/>
	<path fill-rule="evenodd" clip-rule="evenodd" fill="#000002" d="M111.1,268.1c-0.9,1.3-3.3,0.7-4.6,1.8c-0.4-0.8,2.2-0.7,2.4-1.5
		c0.4,0,0.7,0.1,1,0.1C110.3,268.3,110.6,267.7,111.1,268.1"/>
	<path fill-rule="evenodd" clip-rule="evenodd" fill="#000002" d="M95.8,270.4c-0.1-0.1-0.3-0.3-0.3-0.7l0.6-0.2
		C96.3,270,96.2,270.3,95.8,270.4"/>
	<path fill-rule="evenodd" clip-rule="evenodd" fill="#000002" d="M92,277.3c-0.7,1-2.7,1.8-4.1,1.6c-0.1,0.2,0,0.4-0.3,0.5
		c-0.7,0.3-2.3,0.5-0.8,0.1C88.5,278.2,90.1,278.3,92,277.3"/>
	<path fill-rule="evenodd" clip-rule="evenodd" fill="#000002" d="M88.6,268.9c-0.1,0.3-0.5,0.5-1,0.7
		C87.6,269.1,88.3,268.8,88.6,268.9"/>
	<path fill-rule="evenodd" clip-rule="evenodd" fill="#000002" d="M94.5,291.7c0,0.4-0.9,0.3-1.2,0.6C93.4,292,94,291.5,94.5,291.7"
		/>
	<path fill-rule="evenodd" clip-rule="evenodd" fill="#000002" d="M88.4,272.1c-0.2,0.6-1.1,0.7-1.5,1.2
		C86.3,272.8,87.8,272.4,88.4,272.1"/>
	<path fill-rule="evenodd" clip-rule="evenodd" fill="#000002" d="M86.9,270c-0.1,0.6-1,0.7-1.7,1.1C85.5,270.5,86.3,270.3,86.9,270
		"/>
	<path fill-rule="evenodd" clip-rule="evenodd" fill="#000002" d="M94.4,296.2c0.1,0.6-0.4,0.7-0.8,1
		C93.6,296.7,94.2,296.5,94.4,296.2"/>
	<path fill-rule="evenodd" clip-rule="evenodd" fill="#000002" d="M92.5,292.3c-0.3,0.6-1.9,1-2.8,1.2
		C90.6,292.8,91.3,292.6,92.5,292.3"/>
	<path fill-rule="evenodd" clip-rule="evenodd" fill="#000002" d="M84.9,271.1c-0.5,1-1.9,0.8-2.5,1
		C82.9,271.4,84.2,271.9,84.9,271.1"/>
	<path fill-rule="evenodd" clip-rule="evenodd" fill="#000002" d="M85.6,279.7c-0.2,0.4-0.7,0.6-1,0.9
		C84.2,279.9,85.1,279.9,85.6,279.7"/>
	<path fill-rule="evenodd" clip-rule="evenodd" fill="#000002" d="M83.7,278.4c-0.2,0.5-0.6,0.5-1.1,0.6
		C82.5,278.6,83.4,278.7,83.7,278.4"/>
	<path fill-rule="evenodd" clip-rule="evenodd" fill="#000002" d="M81.7,276.8c0,0.5-1.1,1-1.2,0c0.3-0.2,0.4,0.1,0.5,0.4
		C81.4,277.2,81.2,276.8,81.7,276.8"/>
	<path fill-rule="evenodd" clip-rule="evenodd" fill="#000002" d="M83.3,290.9C83.7,289.9,85.3,290.5,83.3,290.9"/>
	<path fill-rule="evenodd" clip-rule="evenodd" fill="#000002" d="M84,297.6c-0.4,0.6-1,0.7-1.8,0.8C82.6,298,83.6,297.6,84,297.6"
		/>
	<path fill-rule="evenodd" clip-rule="evenodd" fill="#000002" d="M83.2,299l0.7-0.3C84.3,299.2,83.2,299.6,83.2,299"/>
	<path fill-rule="evenodd" clip-rule="evenodd" fill="#000002" d="M86,308.2c-0.1,0.4-0.4,0.7-0.8,0.7C85.1,308.4,85.8,308,86,308.2
		"/>
	<path fill-rule="evenodd" clip-rule="evenodd" fill="#000002" d="M82,308.8c-0.4,0.6-0.8,0.7-0.9,0.7C81,309.4,81.2,309.1,82,308.8
		"/>
	<path fill-rule="evenodd" clip-rule="evenodd" fill="#000002" d="M112.9,298.9c-0.2,0.3-0.5,0.5-0.5,0.9c-0.6-0.6-1.2,0.3-1.9,0.1
		C110.9,298.9,112,299.6,112.9,298.9"/>
	<path fill-rule="evenodd" clip-rule="evenodd" fill="#000002" d="M91.7,288.2c0.1,0.6,0.8-0.2,0.8,0.7c-0.3,0.2-0.4-0.2-0.8,0
		c-0.1-0.3,0-0.3,0-0.6c-0.8,0.1-1.1,0.5-1.7,0.7c0-0.2,0.1-0.3,0-0.6c-0.5,1.2-2,0-3.5,1.1c1.3-1.6,5.1-2,6.5-2.7
		C93,287.6,91.6,287.5,91.7,288.2"/>
	<path fill-rule="evenodd" clip-rule="evenodd" fill="#000002" d="M85.6,273.5c0.1,0.4-0.6,0.3-0.8,0.2c0-0.5,2.1-0.9,0.7-0.4
		C85.4,273.5,85.5,273.6,85.6,273.5"/>
	<path fill-rule="evenodd" clip-rule="evenodd" fill="#000002" d="M84.7,273.8c-0.6,2.1-4,0.8-4.9,2.9c0,0.1-0.1,0.1-0.1,0.2
		c-0.2,0-0.1-0.1,0-0.2c-1.2,0.4-3.5,0.8-4.6,2.5l-0.2-0.7c-0.9,0.4-2.4,1.1-3.3,0.8c0.9-0.9,3.8-0.6,4.2-2c0.3,0.1,0.6,0,0.9,0.1
		C78.9,275.3,82.2,275.4,84.7,273.8"/>
	<path fill-rule="evenodd" clip-rule="evenodd" fill="#000002" d="M84.1,300.2c-0.1,0.4-0.5,0.6-0.6,1
		C83.4,301.2,83.7,299.9,84.1,300.2"/>
	<path fill="#FFFFFF" d="M32.5,283c0,0.5,0,0.9,0.1,1.3c0.1,0.7,0.3,1.2,0.6,1.5c0.3,0.3,0.7,0.5,1.2,0.5c0.5,0,1.2,0,2-0.1
		c1.2-0.2,2.1-0.5,2.7-1c0.6-0.5,0.9-1.1,1.1-1.9c0.2-0.8,0.2-2,0.3-3.6l-6.1,0.9l0.1-5.3l6.1-0.9c0-1.2,0-2.1-0.1-2.7
		c-0.1-1-0.5-1.7-1-2c-0.5-0.3-1.5-0.4-2.8-0.2c-1.3,0.2-2.3,0.5-2.9,1.1c-0.7,0.5-1,1.3-1,2.4l0,0.7l-6.6,0.9l0-0.4
		c0-3.4,0.9-6,2.6-7.7c1.7-1.7,4.3-2.8,7.6-3.3c2.2-0.3,4-0.4,5.4-0.2c1.4,0.2,2.5,0.8,3.4,1.7c0.9,1,1.4,2.4,1.7,4.4
		c0.1,1,0.2,2.1,0.2,3.5l-0.1,7.5c0,2.6-0.3,4.6-0.8,6.2c-0.5,1.6-1.2,2.8-2.2,3.6c-0.9,0.8-2,1.4-3.2,1.8c-1.2,0.4-2.8,0.7-4.8,1
		c-1.3,0.2-2.3,0.3-3.1,0.3c-0.8,0.1-1.7,0-2.5-0.2c-0.8-0.2-1.6-0.6-2.3-1.1c-1.1-0.9-1.7-2.3-2-4c-0.1-0.8-0.2-2.1-0.2-3.9l0-0.5
		l6.6-0.9L32.5,283z"/>
	<polygon fill="#FFFFFF" points="71.3,258.3 71.1,287.2 64.7,288.1 64.9,265.9 56.6,267.1 56.4,289.3 50,290.2 50.3,261.3 	"/>
	<polygon fill="#FFFFFF" points="75.3,257.7 81.4,256.8 81.2,275.9 81.4,275.9 89.1,255.7 97.4,254.6 97.2,283.5 91.1,284.3 
		91.3,265.3 91.1,265.3 83.7,285.4 75.1,286.6 	"/>
	<path fill="#FFFFFF" d="M115.3,252l6.4-0.9l-0.3,28.9l-6.4,0.9l0.1-11.6c-1.4,0.7-3.1,1.2-5.2,1.5c-1.8,0.3-3.2,0.2-4.4-0.1
		c-1.1-0.3-2-0.9-2.7-1.7c-0.6-0.9-1.1-2.1-1.3-3.6c-0.1-0.9-0.2-2-0.2-3.3l0.1-8.3l6.4-0.9l-0.1,7.1c0,0.8,0,1.4,0.1,1.8
		c0.1,0.9,0.5,1.5,1,1.8c0.5,0.3,1.4,0.3,2.6,0.2c1.4-0.2,2.7-0.6,3.7-1.1L115.3,252z"/>
	<polygon fill="#FFFFFF" points="132.1,255.9 132.1,261.2 142.3,259.8 142.2,265.1 132.1,266.6 132,272.2 143.1,270.6 143,277 
		125.6,279.4 125.8,250.5 143.1,248.1 143,254.4 	"/>
	<path fill="#FFFFFF" d="M160.8,263.5l6.6-0.9l0,0.8c0,1.3-0.1,2.4-0.1,3.3c-0.1,0.9-0.3,1.8-0.6,2.7c-0.3,0.9-0.8,1.7-1.5,2.5
		c-0.7,0.7-1.4,1.3-2.2,1.8c-0.8,0.4-1.6,0.7-2.4,0.9c-0.8,0.2-1.8,0.4-3,0.5c-1.7,0.2-3.1,0.4-4.2,0.4c-1.1,0-2.1-0.1-3.1-0.5
		c-0.9-0.3-1.7-1-2.3-1.9c-0.6-0.9-1-2.2-1.3-3.8c-0.1-1-0.2-2.2-0.2-3.6l0.1-7.5c0-3.1,0.5-5.4,1.4-7.2c0.9-1.7,2.1-3,3.7-3.7
		c1.6-0.8,3.7-1.3,6.3-1.7c2.9-0.4,5.1-0.2,6.7,0.6c1.6,0.8,2.5,2.4,2.9,4.9c0.1,0.9,0.2,1.8,0.2,2.7l0,1.1l-6.6,0.9l0-1.1
		c-0.1-0.8-0.3-1.4-0.7-1.7c-0.3-0.4-0.7-0.6-1.2-0.6c-0.5,0-1.1,0-2,0.1c-1.2,0.2-2.1,0.5-2.6,0.9c-0.6,0.4-0.9,1-1.1,1.8
		c-0.2,0.8-0.3,1.9-0.3,3.4l0,4.5c0,1.6,0,2.6,0.1,3.2c0.1,1,0.5,1.6,1,2c0.6,0.3,1.5,0.4,2.8,0.2c1-0.1,1.8-0.3,2.3-0.5
		c0.5-0.2,0.9-0.6,1.2-1.2c0.3-0.6,0.4-1.4,0.4-2.5L160.8,263.5z"/>
	<polygon fill="#FFFFFF" points="177,243.2 176.9,254.1 178.8,253.8 185.1,242.1 192.8,241 184.2,256.4 193.2,269.8 185.3,270.9 
		178.7,260.5 176.8,260.8 176.7,272.2 170.4,273.1 170.6,244.1 	"/>
	<polygon fill="#FFFFFF" points="194.6,240.7 200.6,239.9 200.4,258.9 200.6,258.9 208.3,238.8 216.7,237.6 216.4,266.5 
		210.3,267.4 210.5,248.3 210.3,248.4 202.9,268.4 194.3,269.7 	"/>
	<path fill="#FFFFFF" d="M220.8,237l6.1-0.9l-0.2,19l0.2,0l7.6-20.1l8.4-1.2l-0.3,28.9l-6.1,0.9l0.2-19l-0.2,0l-7.3,20.1l-8.7,1.2
		L220.8,237z M228.5,227.9c0,0.3,0,0.6,0,0.8c0.1,0.7,0.4,1.1,0.8,1.3c0.4,0.2,1.1,0.2,2,0.1c1.1-0.2,1.8-0.4,2.3-0.9
		c0.4-0.4,0.6-1.1,0.6-2.1l2.7-0.4c0,1.7-0.2,2.9-0.7,3.9c-0.4,0.9-1,1.6-1.8,2c-0.8,0.4-1.8,0.7-3.1,0.9c-1.1,0.2-2,0.2-2.7,0.1
		c-0.7-0.1-1.3-0.4-1.8-0.9c-0.5-0.5-0.8-1.3-0.9-2.4c-0.1-0.5-0.1-1.1-0.1-1.9L228.5,227.9z"/>
	<polygon fill="#FFFFFF" points="264.1,237.6 264.5,259.7 258.1,260.6 258.4,231.6 268.5,230.2 272.9,247.7 273.1,247.7 
		277.6,228.9 288,227.4 287.7,256.4 281.3,257.3 282.2,235 281.9,235 275.7,258.1 270.2,258.9 264.2,237.6 	"/>
	<polygon fill="#FFFFFF" points="298.2,232.3 298.2,237.6 308.4,236.1 308.3,241.5 298.1,242.9 298.1,248.6 309.2,247 309.1,253.3 
		291.6,255.8 291.9,226.9 309.2,224.4 309.1,230.8 	"/>
	<path fill="#FFFFFF" d="M326.9,239.9l6.6-0.9l0,0.8c0,1.3-0.1,2.4-0.1,3.3c-0.1,0.9-0.3,1.8-0.6,2.7c-0.3,0.9-0.8,1.7-1.5,2.5
		c-0.7,0.7-1.4,1.3-2.2,1.8c-0.8,0.4-1.6,0.7-2.4,0.9c-0.8,0.2-1.8,0.4-3,0.5c-1.7,0.2-3.1,0.4-4.2,0.4c-1.1,0-2.1-0.1-3.1-0.5
		c-0.9-0.3-1.7-1-2.3-1.9c-0.6-0.9-1-2.2-1.3-3.8c-0.1-1-0.2-2.2-0.2-3.6l0.1-7.5c0-3.1,0.5-5.4,1.4-7.2c0.9-1.7,2.1-3,3.7-3.7
		c1.6-0.8,3.7-1.3,6.3-1.7c2.9-0.4,5.1-0.2,6.7,0.6c1.6,0.8,2.5,2.4,2.9,4.9c0.1,0.9,0.2,1.8,0.2,2.7l0,1.1l-6.6,0.9l0-1.1
		c-0.1-0.8-0.3-1.4-0.7-1.7c-0.3-0.4-0.7-0.6-1.2-0.6c-0.5,0-1.1,0-2,0.1c-1.2,0.2-2.1,0.5-2.6,0.9c-0.6,0.4-0.9,1-1.1,1.8
		c-0.2,0.8-0.3,1.9-0.3,3.4l0,4.5c0,1.6,0,2.6,0.1,3.2c0.1,1,0.5,1.6,1,2c0.6,0.3,1.5,0.4,2.8,0.2c1-0.1,1.8-0.3,2.3-0.5
		c0.5-0.2,0.9-0.6,1.2-1.2c0.3-0.6,0.4-1.4,0.4-2.5L326.9,239.9z"/>
	<path fill="#FFFFFF" d="M350.1,236.6l6.6-0.9l0,0.8c0,1.3-0.1,2.4-0.1,3.3c-0.1,0.9-0.3,1.8-0.6,2.7c-0.3,0.9-0.8,1.7-1.5,2.5
		c-0.7,0.7-1.4,1.3-2.2,1.8c-0.8,0.4-1.6,0.7-2.4,0.9c-0.8,0.2-1.8,0.4-3,0.5c-1.7,0.2-3.1,0.4-4.2,0.4c-1.1,0-2.1-0.1-3.1-0.5
		c-0.9-0.3-1.7-1-2.3-1.9c-0.6-0.9-1-2.2-1.3-3.8c-0.1-1-0.2-2.2-0.2-3.6l0.1-7.5c0-3.1,0.5-5.4,1.4-7.2c0.9-1.7,2.1-3,3.7-3.7
		c1.6-0.8,3.7-1.3,6.3-1.7c2.9-0.4,5.1-0.2,6.7,0.6c1.6,0.8,2.5,2.4,2.9,4.9c0.1,0.9,0.2,1.8,0.2,2.7l0,1.1l-6.6,0.9l0-1.1
		c-0.1-0.8-0.3-1.4-0.7-1.7c-0.3-0.4-0.7-0.6-1.2-0.6c-0.5,0-1.1,0-2,0.1c-1.2,0.2-2.1,0.5-2.6,0.9c-0.6,0.4-0.9,1-1.1,1.8
		c-0.2,0.8-0.3,1.9-0.3,3.4l0,4.5c0,1.6,0,2.6,0.1,3.2c0.1,1,0.5,1.6,1,2c0.6,0.3,1.5,0.4,2.8,0.2c1-0.1,1.8-0.3,2.3-0.5
		c0.5-0.2,0.9-0.6,1.2-1.2c0.3-0.6,0.4-1.4,0.4-2.5L350.1,236.6z"/>
	<polygon fill="#FFFFFF" points="366.2,222.6 366.2,227.9 376.4,226.5 376.3,231.8 366.1,233.3 366.1,238.9 377.2,237.3 
		377.1,243.6 359.6,246.1 359.9,217.2 377.1,214.8 377.1,221.1 	"/>
	<polygon fill="#FFFFFF" points="402.6,211.1 402.3,240.1 395.9,241 396,229.6 387.7,230.8 387.6,242.1 381.2,243.1 381.5,214.1 
		387.9,213.2 387.8,224.1 396.1,222.9 396.2,212 	"/>
	<path fill="#FFFFFF" d="M406.9,232.8c0.4-0.8,0.8-1.5,1.1-2.3c0.3-0.8,0.5-1.7,0.7-2.6c0.2-1,0.4-2.1,0.5-3.4
		c0.1-1.3,0.2-2.7,0.2-4.1l0.1-10.1l18.4-2.6l-0.2,22.3l2-0.3l-0.1,13.3l-6.1,0.9l0.1-6.7l-12.6,1.8l-0.1,6.7l-6,0.9l0.1-13.3
		L406.9,232.8z M415.5,215.9l0,4c0,1.8-0.1,3.5-0.2,4.9c-0.2,1.4-0.4,2.7-0.7,3.8c-0.3,1.1-0.7,2.2-1.1,3.2l7.9-1.1l0.1-15.6
		L415.5,215.9z"/>
	<polygon fill="#FFFFFF" points="454.1,214.7 459.5,203 466.7,202 459.4,217 467.5,230.8 459.6,231.9 454,221.4 452.1,221.6 
		452,233 446,233.8 446.1,222.5 444.2,222.8 438.3,234.9 430.4,236.1 438.9,220 431.8,207 439,205.9 444.2,216.1 446.1,215.8 
		446.2,204.9 452.3,204.1 452.2,214.9 	"/>
	<polygon fill="#FFFFFF" points="476.1,207 476.1,212.3 486.3,210.8 486.3,216.2 476.1,217.6 476,223.2 487.1,221.7 487,228 
		469.6,230.5 469.8,201.6 487.1,199.1 487,205.4 	"/>
	<path fill="#FFFFFF" d="M497.4,226.5l-6.4,0.9l0.3-28.9l12-1.7c1.6-0.2,3-0.2,4,0.1c1.1,0.3,1.9,0.9,2.5,1.8c0.6,0.9,1,2.1,1.3,3.7
		c0.2,1.2,0.2,2.4,0.2,3.8c0,2.8-0.2,5-0.7,6.6c-0.5,1.6-1.3,2.8-2.4,3.7c-1.2,0.8-2.9,1.4-5.1,1.7l-5.6,0.8L497.4,226.5z
		 M497.5,212.4l4.4-0.6c0.9-0.1,1.5-0.3,1.9-0.5c0.4-0.2,0.6-0.7,0.8-1.3c0.1-0.6,0.2-1.5,0.2-2.8c0-0.8,0-1.4-0.1-1.9
		c-0.1-0.7-0.4-1.2-0.8-1.5c-0.4-0.2-1.1-0.3-2-0.2l-4.4,0.6L497.5,212.4z"/>
</g>
</svg>
