<?xml version="1.0" encoding="utf-8"?>
<!-- Generator: Adobe Illustrator 19.0.1, SVG Export Plug-In . SVG Version: 6.00 Build 0)  -->
<svg version="1.1" id="Слой_1" xmlns="http://www.w3.org/2000/svg" xmlns:xlink="http://www.w3.org/1999/xlink" x="0px" y="0px"
	 viewBox="0 0 1251 373" style="enable-background:new 0 0 1251 373;" xml:space="preserve">
<g>
	<path d="M28.4,61.7h-8.3v28.4h-4.9V29.6h4.9v27.8h8.3l23.8-27.8h5.6l0.1,0.2l-25,29.6l26.8,30.5l-0.1,0.2h-5.9L28.4,61.7z"/>
	<path d="M102,73.3H74.3L68,90.1h-5.2l23-60.5h4.7l22.8,60.5h-5.2L102,73.3z M75.9,68.8h24.4L88.3,36.1h-0.2L75.9,68.8z"/>
	<path d="M161.4,61.3h-6.8v28.9h-4.9V61.3h-7L122,90.1h-6.3l22.5-31.2l-20.9-29.3h6L142.3,57h7.4V29.6h4.9V57h7.2l19.1-27.4h6
		l-20.9,29.3l22.5,31.2h-6.3L161.4,61.3z"/>
	<path d="M248.8,104.8h-4.6V90.1h-45.9v14.7h-4.4l-0.5-18.9h4.1c2.3-2.4,4.6-6.3,6.8-11.8c2.2-5.5,3.6-13.1,4-22.7l1.1-21.8h33.4
		v56.3h6.5L248.8,104.8z M213.2,51.4c-0.4,7.9-1.6,14.8-3.4,20.7c-1.9,5.9-4.1,10.5-6.7,13.8h34.6v-52h-23.6L213.2,51.4z"/>
	<path d="M264.7,56h15.1c6.4,0,11.3,1.5,14.8,4.6c3.5,3.1,5.2,7.2,5.2,12.4c0,5.2-1.7,9.4-5.2,12.5c-3.5,3.1-8.4,4.7-14.8,4.7h-20.1
		V29.6h5V56z M264.7,60.2v25.7h15.1c5,0,8.8-1.2,11.2-3.7c2.5-2.4,3.7-5.6,3.7-9.4c0-3.6-1.2-6.6-3.7-9c-2.5-2.4-6.2-3.6-11.2-3.6
		H264.7z M315,90.1h-5V29.6h5V90.1z"/>
	<path d="M370.5,29.6h4.9v60.5h-4.9V38.4l-0.2,0l-34.4,51.8h-4.9V29.6h4.9v51.7l0.2,0L370.5,29.6z M365.2,13.1l0.1,0.2
		c0.1,3.1-0.9,5.6-3,7.6s-5,2.9-8.7,2.9c-3.7,0-6.6-1-8.7-2.9s-3.2-4.5-3-7.5l0.1-0.2h3.9c0,2.1,0.6,3.9,1.9,5.2
		c1.2,1.3,3.2,2,5.9,2c2.6,0,4.6-0.7,5.8-2s1.9-3,1.9-5.1H365.2z"/>
	<path d="M418.6,29.6l22.2,53.3h0.2l22.3-53.3h6.6v60.5H465V63.4l0.4-26.5l-0.2-0.1l-22.5,53.3h-3.4l-22.4-53l-0.2,0l0.5,26.3v26.7
		H412V29.6H418.6z"/>
	<path d="M519.9,60.8h-29.1v25.1h33.4v4.2h-38.3V29.6h38.1v4.2h-33.2v22.7h29.1V60.8z"/>
	<path d="M541.4,29.6l22.2,53.3h0.2l22.3-53.3h6.6v60.5h-4.9V63.4l0.4-26.5l-0.2-0.1l-22.5,53.3H562l-22.4-53l-0.2,0l0.5,26.3v26.7
		h-4.9V29.6H541.4z"/>
	<path d="M641.8,73.3h-27.7l-6.2,16.9h-5.2l23-60.5h4.7l22.8,60.5h-5.2L641.8,73.3z M615.8,68.8h24.4l-12.1-32.7h-0.2L615.8,68.8z"
		/>
	<path d="M703.7,71.2l0.1,0.2c-0.5,6.1-2.7,10.8-6.5,14.3c-3.8,3.5-8.9,5.2-15.3,5.2c-6.7,0-12.2-2.4-16.3-7.3
		c-4.1-4.9-6.2-11.2-6.2-18.9V55c0-7.7,2.1-14,6.2-18.9c4.1-4.9,9.6-7.3,16.3-7.3c6.4,0,11.5,1.7,15.3,5.1s5.9,8.2,6.4,14.4
		l-0.1,0.2h-4.7c-0.7-5-2.4-8.9-5.2-11.5s-6.7-4-11.8-4c-5.3,0-9.5,2-12.7,6.1c-3.2,4.1-4.8,9.3-4.8,15.7v9.9
		c0,6.5,1.6,11.8,4.8,15.8s7.4,6.1,12.7,6.1c5.1,0,9-1.3,11.8-3.9c2.8-2.6,4.5-6.5,5.2-11.6H703.7z"/>
	<path d="M776.9,29.6h4.9v60.5h-4.9V38.4l-0.2,0l-34.4,51.8h-4.9V29.6h4.9v51.7l0.2,0L776.9,29.6z"/>
	<path d="M804.2,29.6l22.2,53.3h0.2L849,29.6h6.6v60.5h-4.9V63.4l0.4-26.5l-0.2-0.1l-22.5,53.3h-3.4l-22.4-53l-0.2,0l0.5,26.3v26.7
		h-4.9V29.6H804.2z"/>
	<path d="M905.5,60.8h-29.1v25.1h33.4v4.2h-38.3V29.6h38.1v4.2h-33.2v22.7h29.1V60.8z"/>
	<path d="M954.6,60.8h-29.1v25.1h33.4v4.2h-38.3V29.6h38.1v4.2h-33.2v22.7h29.1V60.8z"/>
	<path d="M1010.9,33.9h-20.8v56.3h-5V33.9h-20.8v-4.2h46.6V33.9z"/>
	<path d="M1083.1,71.2l0.1,0.2c-0.5,6.1-2.7,10.8-6.5,14.3c-3.8,3.5-8.9,5.2-15.3,5.2c-6.7,0-12.2-2.4-16.3-7.3
		c-4.1-4.9-6.2-11.2-6.2-18.9V55c0-7.7,2.1-14,6.2-18.9s9.6-7.3,16.3-7.3c6.4,0,11.5,1.7,15.3,5.1c3.8,3.4,5.9,8.2,6.4,14.4
		l-0.1,0.2h-4.7c-0.7-5-2.4-8.9-5.2-11.5s-6.7-4-11.8-4c-5.3,0-9.5,2-12.7,6.1c-3.2,4.1-4.8,9.3-4.8,15.7v9.9
		c0,6.5,1.6,11.8,4.8,15.8s7.4,6.1,12.7,6.1c5.1,0,9-1.3,11.8-3.9c2.8-2.6,4.5-6.5,5.2-11.6H1083.1z"/>
	<path d="M1096,90.1V29.6h17.7c6.3,0,11.2,1.3,14.7,4c3.5,2.6,5.3,6.6,5.3,12c0,3.1-0.9,5.8-2.6,8.1s-4.1,3.9-7.2,4.8
		c3.7,0.7,6.7,2.4,9,5.2c2.3,2.8,3.4,6,3.4,9.7c0,5.4-1.8,9.6-5.3,12.5c-3.5,2.9-8.2,4.4-14.1,4.4H1096z M1101,56.8h13.9
		c4.4,0,7.8-1,10.2-2.9c2.4-1.9,3.6-4.8,3.6-8.5c0-3.8-1.3-6.7-3.8-8.6s-6.3-2.9-11.1-2.9H1101V56.8z M1101,61v24.9h16
		c4.5,0,8-1.1,10.5-3.3c2.5-2.2,3.8-5.3,3.8-9.2c0-3.6-1.2-6.6-3.5-8.9c-2.3-2.3-5.7-3.5-10.1-3.5H1101z"/>
	<path d="M1192.9,64.8c0,7.8-2.1,14.1-6.4,18.9c-4.3,4.8-10,7.2-17.2,7.2c-7.1,0-12.8-2.4-17-7.2c-4.2-4.8-6.3-11.1-6.3-18.9V55
		c0-7.8,2.1-14.1,6.3-18.9c4.2-4.8,9.9-7.3,17-7.3c7.2,0,13,2.4,17.2,7.3c4.3,4.8,6.4,11.2,6.4,18.9V64.8z M1188,54.9
		c0-6.5-1.7-11.8-5-15.8c-3.3-4-7.9-6-13.8-6c-5.8,0-10.3,2-13.5,6c-3.2,4-4.8,9.3-4.8,15.8v9.9c0,6.6,1.6,11.9,4.8,15.9
		c3.2,4,7.7,6,13.5,6c5.9,0,10.5-2,13.8-6c3.3-4,4.9-9.3,4.9-15.9V54.9z"/>
	<path d="M1240.1,60.8H1211v25.1h33.4v4.2H1206V29.6h38.1v4.2H1211v22.7h29.1V60.8z"/>
</g>
<g>
	<path d="M71,182l2.1,7h0.5l25.1-66h28.2L81.6,230.6c-3.9,8.7-8.4,15.4-13.6,20s-12.7,7-22.4,7c-1.5,0-3.2,0-5.2-0.1
		c-1.9-0.1-3.4-0.2-4.4-0.3l-0.2-20.4c0.7,0.1,1.8,0.2,3.5,0.3c1.6,0.1,2.9,0.1,3.7,0.1c4.9,0,8.5-1.1,10.9-3.2
		c2.4-2.1,4.4-5.3,6-9.6l2-5l-46.7-96.3h28.7L71,182z"/>
	<path d="M249.3,255.7h-26.5v-55.1h-54.1v55.1h-26.6V123.1h26.6v57h54.1v-57h26.5V255.7z"/>
	<path d="M353.8,123.1h26.7v132.7h-26.7v-88.5l-0.5-0.1l-53.5,88.6h-26.5V123.1h26.5v88.4l0.5,0.1L353.8,123.1z"/>
	<path d="M446.4,200.3h-14.8v55.4H405V123.1h26.6v54.2h11.6l35.2-54.2h32.5l-44.6,61.8l48.2,70.9H482L446.4,200.3z"/>
	<path d="M596.7,227.1h-46.6l-9,28.6h-26.9l45.6-132.7h27.2l45.5,132.7h-26.9L596.7,227.1z M556.7,206.3h33.4l-16.4-52.1h-0.5
		L556.7,206.3z"/>
	<path d="M752.1,123.1v132.7h-26.6V143.6h-37.7v39.9c0,25.6-3.9,44.1-11.6,55.4c-7.7,11.3-19.7,16.9-35.8,16.9h-3.9v-20.5h3.6
		c8.3,0,13.9-3.7,16.8-11.1c2.9-7.4,4.3-21,4.3-40.7v-60.4H752.1z"/>
	<path d="M803.1,172.2h22.8c15.4,0,27.5,3.8,36.4,11.3c8.9,7.5,13.4,17.5,13.4,30c0,12.7-4.5,22.9-13.5,30.7
		c-9,7.7-21.1,11.6-36.4,11.6h-49.4V123.1h26.6V172.2z M803.1,192.7v42.6h22.8c7.5,0,13.2-2.1,17.3-6.2c4-4.2,6.1-9.4,6.1-15.8
		c0-6.1-2-11-6-14.8c-4-3.8-9.8-5.7-17.3-5.7H803.1z"/>
	<path d="M1001,255.7h-26.5v-55.1h-54.1v55.1h-26.6V123.1h26.6v57h54.1v-57h26.5V255.7z"/>
	<path d="M1132.6,201.3c0,16.3-5.1,29.7-15.4,40.4c-10.3,10.6-23.7,15.9-40.1,15.9c-16.3,0-29.6-5.3-39.8-15.9
		c-10.2-10.6-15.3-24.1-15.3-40.4v-23.9c0-16.2,5.1-29.7,15.3-40.3c10.2-10.7,23.4-16,39.8-16c16.5,0,29.9,5.3,40.2,16
		c10.3,10.7,15.5,24.1,15.5,40.3V201.3z M1106,177.3c0-10.3-2.6-18.8-7.7-25.5c-5.2-6.6-12.3-10-21.3-10s-16.1,3.3-21,9.9
		s-7.5,15.1-7.5,25.5v24.1c0,10.5,2.5,19.1,7.6,25.7c5,6.6,12.1,10,21,10c9.1,0,16.2-3.3,21.3-10c5.1-6.6,7.7-15.2,7.7-25.7V177.3z"
		/>
	<path d="M1234.9,197.4H1180v37.8h64.2v20.5h-90.8V123.1h90.7v20.5H1180v33.3h54.9V197.4z"/>
</g>
<g>
	<path d="M60.2,304.9c0,2.8-1,5.4-2.9,7.8s-4.6,4.2-7.9,5.5c3.8,1.2,6.7,3,8.7,5.4c2,2.4,3,5.4,3,8.9c0,5.7-2.2,10.1-6.7,13.2
		c-4.5,3.2-10.4,4.8-17.6,4.8c-6.4,0-11.8-1.5-16.4-4.5c-4.6-3-6.8-7.4-6.6-13.2l0.1-0.3h7.9c0,3.2,1.4,5.9,4.2,8.1
		s6.4,3.3,10.8,3.3c5,0,8.9-1,11.8-3.1s4.3-4.8,4.3-8.2c0-3.7-1.3-6.5-3.9-8.3c-2.6-1.8-6.4-2.7-11.5-2.7h-7.7v-6.5h7.7
		c4.9,0,8.5-0.9,10.9-2.8s3.5-4.4,3.5-7.6c0-3.1-1.3-5.7-3.8-7.8s-6.3-3-11.3-3c-4,0-7.3,1-10,3c-2.7,2-4.1,4.5-4.1,7.4h-7.9l0-0.3
		c-0.2-4.9,1.9-9,6.2-12.1s9.6-4.6,15.9-4.6c7.2,0,12.9,1.5,17.1,4.6C58.1,295,60.2,299.3,60.2,304.9z"/>
	<path d="M74.6,349.7v-61.4h20c6.4,0,11.4,1.4,15.1,4.2s5.4,6.9,5.4,12.5c0,2.7-0.9,5.2-2.6,7.3c-1.7,2.2-4,3.7-6.9,4.8
		c3.7,0.8,6.6,2.6,8.8,5.4s3.2,6.1,3.2,9.9c0,5.6-1.8,9.9-5.5,12.9c-3.6,3-8.6,4.4-14.8,4.4H74.6z M82.9,314.4h13.5
		c3.1,0,5.6-0.9,7.5-2.6s2.9-4.1,2.9-7.1c0-3.3-1-5.8-3.1-7.4c-2.1-1.6-5.1-2.5-9-2.5H82.9V314.4z M82.9,320.9v22.2h14.4
		c3.8,0,6.7-0.9,8.8-2.8c2.1-1.9,3.2-4.5,3.2-7.9c0-3.6-0.9-6.4-2.6-8.4c-1.8-2-4.5-3.1-8.1-3.1H82.9z"/>
	<path d="M146.4,317l3.1,7.9h0.3l13.8-36.6h9.7l-21.5,51.3c-1.7,3.7-3.5,6.4-5.4,8.2c-2,1.8-5.1,2.7-9.3,2.7c-0.7,0-1.5,0-2.5-0.1
		c-0.9-0.1-1.5-0.2-1.8-0.3l0.2-6.3c0.3,0.1,0.9,0.1,1.8,0.1c0.9,0,1.7,0,2.1,0c2,0,3.4-0.5,4.3-1.5c0.9-1,1.8-2.6,2.9-4.9l1.7-3.5
		l-20.6-45.8h9.3L146.4,317z"/>
	<path d="M199,322h-7.2v27.7h-8.3v-61.4h8.3v27.2h6.4l22-27.2h9.2l0.1,0.2L205.7,318l25.6,31.5l-0.1,0.2h-9.9L199,322z"/>
	<path d="M284.2,324.5c0,7.5-2.3,13.7-7,18.7c-4.7,4.9-10.7,7.4-18.1,7.4c-7.2,0-13-2.5-17.5-7.4s-6.7-11.2-6.7-18.7v-10.9
		c0-7.5,2.2-13.7,6.7-18.7c4.5-5,10.3-7.5,17.5-7.5c7.4,0,13.5,2.5,18.1,7.4c4.7,5,7,11.2,7,18.7V324.5z M275.9,313.5
		c0-5.6-1.5-10.2-4.6-13.8c-3-3.6-7.1-5.4-12.2-5.4c-4.8,0-8.7,1.8-11.6,5.4c-2.9,3.6-4.3,8.2-4.3,13.8v11c0,5.7,1.4,10.3,4.3,13.9
		c2.9,3.6,6.7,5.4,11.6,5.4c5.1,0,9.2-1.8,12.3-5.4c3-3.6,4.5-8.2,4.5-13.9V313.5z"/>
	<path d="M296.6,349.7v-61.4h20c6.4,0,11.4,1.4,15.1,4.2s5.4,6.9,5.4,12.5c0,2.7-0.9,5.2-2.6,7.3s-4,3.7-6.9,4.8
		c3.7,0.8,6.6,2.6,8.8,5.4c2.1,2.8,3.2,6.1,3.2,9.9c0,5.6-1.8,9.9-5.5,12.9s-8.6,4.4-14.8,4.4H296.6z M304.9,314.4h13.5
		c3.1,0,5.6-0.9,7.5-2.6s2.9-4.1,2.9-7.1c0-3.3-1-5.8-3.1-7.4c-2.1-1.6-5.1-2.5-9-2.5h-11.7V314.4z M304.9,320.9v22.2h14.4
		c3.8,0,6.7-0.9,8.8-2.8c2.1-1.9,3.2-4.5,3.2-7.9c0-3.6-0.9-6.4-2.6-8.4c-1.8-2-4.5-3.1-8.1-3.1H304.9z"/>
	<path d="M398.3,324.5c0,7.5-2.3,13.7-7,18.7s-10.7,7.4-18.1,7.4c-7.2,0-13-2.5-17.5-7.4c-4.5-4.9-6.7-11.2-6.7-18.7v-10.9
		c0-7.5,2.2-13.7,6.7-18.7c4.5-5,10.3-7.5,17.5-7.5c7.4,0,13.5,2.5,18.1,7.4c4.7,5,7,11.2,7,18.7V324.5z M390,313.5
		c0-5.6-1.5-10.2-4.6-13.8s-7.1-5.4-12.2-5.4c-4.8,0-8.7,1.8-11.6,5.4s-4.3,8.2-4.3,13.8v11c0,5.7,1.4,10.3,4.3,13.9
		s6.7,5.4,11.6,5.4c5.1,0,9.2-1.8,12.3-5.4c3-3.6,4.5-8.2,4.5-13.9V313.5z"/>
	<path d="M447.1,321.2H419v21.9h32.4v6.5h-40.7v-61.4H451v6.5h-32v19.9h28.1V321.2z"/>
	<path d="M526,330l0.1,0.3c0.1,5.8-1.9,10.6-6.1,14.5c-4.2,3.9-9.7,5.8-16.5,5.8c-6.9,0-12.6-2.5-17-7.4c-4.4-4.9-6.6-11.2-6.6-18.7
		v-10.9c0-7.6,2.2-13.8,6.6-18.7c4.4-4.9,10-7.4,17-7.4c6.9,0,12.5,1.8,16.6,5.5c4.1,3.7,6.1,8.6,6,14.7l-0.1,0.3h-8
		c0-4.3-1.3-7.7-3.8-10.2c-2.5-2.5-6.1-3.8-10.7-3.8c-4.6,0-8.3,1.9-11.1,5.6c-2.8,3.7-4.1,8.4-4.1,13.9v11c0,5.6,1.4,10.3,4.1,14
		c2.8,3.7,6.5,5.6,11.1,5.6c4.6,0,8.2-1.2,10.7-3.7c2.5-2.5,3.8-5.9,3.8-10.3H526z"/>
	<path d="M583.8,324.5c0,7.5-2.3,13.7-7,18.7c-4.7,4.9-10.7,7.4-18.1,7.4c-7.2,0-13-2.5-17.5-7.4s-6.7-11.2-6.7-18.7v-10.9
		c0-7.5,2.2-13.7,6.7-18.7c4.5-5,10.3-7.5,17.5-7.5c7.4,0,13.5,2.5,18.1,7.4c4.7,5,7,11.2,7,18.7V324.5z M575.5,313.5
		c0-5.6-1.5-10.2-4.6-13.8c-3-3.6-7.1-5.4-12.2-5.4c-4.8,0-8.7,1.8-11.6,5.4s-4.3,8.2-4.3,13.8v11c0,5.7,1.4,10.3,4.3,13.9
		s6.7,5.4,11.6,5.4c5.1,0,9.2-1.8,12.3-5.4c3-3.6,4.5-8.2,4.5-13.9V313.5z"/>
	<path d="M642.7,349.7h-8.4v-54.9h-29.9v54.9h-8.3v-61.4h46.5V349.7z"/>
	<path d="M666.2,325.1v24.6h-8.3v-61.4h23.5c6.6,0,11.6,1.7,15.3,5.1c3.6,3.4,5.4,7.8,5.4,13.3c0,5.6-1.8,10.1-5.4,13.4
		c-3.6,3.3-8.7,5-15.3,5H666.2z M666.2,318.5h15.2c4.2,0,7.3-1.1,9.3-3.3c2.1-2.2,3.1-5,3.1-8.4c0-3.4-1-6.2-3.1-8.5
		c-2.1-2.3-5.2-3.4-9.3-3.4h-15.2V318.5z"/>
	<path d="M759.7,324.5c0,7.5-2.3,13.7-7,18.7c-4.7,4.9-10.7,7.4-18.1,7.4c-7.2,0-13-2.5-17.5-7.4s-6.7-11.2-6.7-18.7v-10.9
		c0-7.5,2.2-13.7,6.7-18.7c4.5-5,10.3-7.5,17.5-7.5c7.4,0,13.5,2.5,18.1,7.4c4.7,5,7,11.2,7,18.7V324.5z M751.4,313.5
		c0-5.6-1.5-10.2-4.6-13.8c-3-3.6-7.1-5.4-12.2-5.4c-4.8,0-8.7,1.8-11.6,5.4s-4.3,8.2-4.3,13.8v11c0,5.7,1.4,10.3,4.3,13.9
		s6.7,5.4,11.6,5.4c5.1,0,9.2-1.8,12.3-5.4c3-3.6,4.5-8.2,4.5-13.9V313.5z"/>
	<path d="M772.1,349.7v-61.4h20c6.4,0,11.4,1.4,15.1,4.2s5.4,6.9,5.4,12.5c0,2.7-0.9,5.2-2.6,7.3s-4,3.7-6.9,4.8
		c3.7,0.8,6.6,2.6,8.8,5.4c2.1,2.8,3.2,6.1,3.2,9.9c0,5.6-1.8,9.9-5.5,12.9c-3.6,3-8.6,4.4-14.8,4.4H772.1z M780.4,314.4h13.5
		c3.1,0,5.6-0.9,7.5-2.6c1.9-1.7,2.9-4.1,2.9-7.1c0-3.3-1-5.8-3.1-7.4c-2.1-1.6-5.1-2.5-9-2.5h-11.7V314.4z M780.4,320.9v22.2h14.4
		c3.8,0,6.7-0.9,8.8-2.8c2.1-1.9,3.2-4.5,3.2-7.9c0-3.6-0.9-6.4-2.6-8.4c-1.8-2-4.5-3.1-8.1-3.1H780.4z"/>
	<path d="M873.8,324.5c0,7.5-2.3,13.7-7,18.7c-4.7,4.9-10.7,7.4-18.1,7.4c-7.2,0-13-2.5-17.5-7.4c-4.5-4.9-6.7-11.2-6.7-18.7v-10.9
		c0-7.5,2.2-13.7,6.7-18.7c4.5-5,10.3-7.5,17.5-7.5c7.4,0,13.5,2.5,18.1,7.4c4.7,5,7,11.2,7,18.7V324.5z M865.5,313.5
		c0-5.6-1.5-10.2-4.6-13.8c-3-3.6-7.1-5.4-12.2-5.4c-4.8,0-8.7,1.8-11.6,5.4s-4.3,8.2-4.3,13.8v11c0,5.7,1.4,10.3,4.3,13.9
		s6.7,5.4,11.6,5.4c5.1,0,9.2-1.8,12.3-5.4c3-3.6,4.5-8.2,4.5-13.9V313.5z"/>
	<path d="M927.9,321.5h-6.5v28.2h-8.3v-28.2h-6.8l-17.1,28.2h-10.4l20.5-32.5l-18.8-28.9h9.7l15.9,26.7h6.9v-26.7h8.3V315h6.6
		l15.9-26.7h9.7l-18.9,28.9l20.5,32.5H945L927.9,321.5z"/>
	<path d="M1011.8,343.2h8.4l-0.8,21.6h-7.5v-15.1h-44.3v15.1h-7l-1.3-21.7h5.3c2.2-2.4,4.1-6,5.9-10.8s2.8-11.2,3-19.3l1.4-24.8
		h36.9V343.2z M981.8,313.1c-0.3,6.7-1.1,12.6-2.5,17.7c-1.4,5.1-3.3,9.2-5.5,12.4h29.7v-48.3h-20.7L981.8,313.1z"/>
	<path d="M1066.7,321.2h-28.1v21.9h32.4v6.5h-40.7v-61.4h40.3v6.5h-32v19.9h28.1V321.2z"/>
	<path d="M1127.1,349.7h-8.3v-27.1H1089v27.1h-8.3v-61.4h8.3V316h29.8v-27.8h8.3V349.7z"/>
	<path d="M1180.4,288.3h8.3v61.4h-8.3v-46.8l-0.3-0.1l-29.6,46.9h-8.3v-61.4h8.3v46.8l0.3,0.1L1180.4,288.3z"/>
	<path d="M1240.4,321.2h-28.1v21.9h32.4v6.5h-40.7v-61.4h40.3v6.5h-32v19.9h28.1V321.2z"/>
</g>
<text transform="matrix(1 0 0 1 1743.5609 -123.5974)" style="font-family:'Roboto-Light'; font-size:48px;">КАЖДЫЙ МЕМАС ИМЕЕТ СВОЕ</text>
<text transform="matrix(1 0 0 1 1743.5609 -71.4901)" style="font-family:'Roboto-Bold'; font-size:48px;">УНИКАЛЬНОЕ</text>
<text transform="matrix(1 0 0 1 2011.8536 388.5974)" style="font-family:'Roboto-Regular'; font-size:48px;">ЗВУКОВОЕ СОПРОВОЖДЕНИЕ</text>
</svg>
